G04 #@! TF.GenerationSoftware,KiCad,Pcbnew,(5.0.1-3-g963ef8bb5)*
G04 #@! TF.CreationDate,2018-11-12T23:42:08-05:00*
G04 #@! TF.ProjectId,EuroSID,4575726F5349442E6B696361645F7063,rev?*
G04 #@! TF.SameCoordinates,Original*
G04 #@! TF.FileFunction,Soldermask,Bot*
G04 #@! TF.FilePolarity,Negative*
%FSLAX46Y46*%
G04 Gerber Fmt 4.6, Leading zero omitted, Abs format (unit mm)*
G04 Created by KiCad (PCBNEW (5.0.1-3-g963ef8bb5)) date Monday, November 12, 2018 at 11:42:08 PM*
%MOMM*%
%LPD*%
G01*
G04 APERTURE LIST*
%ADD10C,0.100000*%
G04 APERTURE END LIST*
D10*
G36*
X134020442Y-133469518D02*
X134086627Y-133476037D01*
X134199853Y-133510384D01*
X134256467Y-133527557D01*
X134395087Y-133601652D01*
X134412991Y-133611222D01*
X134448729Y-133640552D01*
X134550186Y-133723814D01*
X134633448Y-133825271D01*
X134662778Y-133861009D01*
X134662779Y-133861011D01*
X134746443Y-134017533D01*
X134746443Y-134017534D01*
X134797963Y-134187373D01*
X134815359Y-134364000D01*
X134797963Y-134540627D01*
X134763616Y-134653853D01*
X134746443Y-134710467D01*
X134672348Y-134849087D01*
X134662778Y-134866991D01*
X134633448Y-134902729D01*
X134550186Y-135004186D01*
X134448729Y-135087448D01*
X134412991Y-135116778D01*
X134412989Y-135116779D01*
X134256467Y-135200443D01*
X134199853Y-135217616D01*
X134086627Y-135251963D01*
X134020442Y-135258482D01*
X133954260Y-135265000D01*
X133865740Y-135265000D01*
X133799558Y-135258482D01*
X133733373Y-135251963D01*
X133620147Y-135217616D01*
X133563533Y-135200443D01*
X133407011Y-135116779D01*
X133407009Y-135116778D01*
X133371271Y-135087448D01*
X133269814Y-135004186D01*
X133186552Y-134902729D01*
X133157222Y-134866991D01*
X133147652Y-134849087D01*
X133073557Y-134710467D01*
X133056384Y-134653853D01*
X133022037Y-134540627D01*
X133004641Y-134364000D01*
X133022037Y-134187373D01*
X133073557Y-134017534D01*
X133073557Y-134017533D01*
X133157221Y-133861011D01*
X133157222Y-133861009D01*
X133186552Y-133825271D01*
X133269814Y-133723814D01*
X133371271Y-133640552D01*
X133407009Y-133611222D01*
X133424913Y-133601652D01*
X133563533Y-133527557D01*
X133620147Y-133510384D01*
X133733373Y-133476037D01*
X133799558Y-133469518D01*
X133865740Y-133463000D01*
X133954260Y-133463000D01*
X134020442Y-133469518D01*
X134020442Y-133469518D01*
G37*
G36*
X134020442Y-130929518D02*
X134086627Y-130936037D01*
X134199853Y-130970384D01*
X134256467Y-130987557D01*
X134395087Y-131061652D01*
X134412991Y-131071222D01*
X134448729Y-131100552D01*
X134550186Y-131183814D01*
X134633448Y-131285271D01*
X134662778Y-131321009D01*
X134662779Y-131321011D01*
X134746443Y-131477533D01*
X134746443Y-131477534D01*
X134797963Y-131647373D01*
X134815359Y-131824000D01*
X134797963Y-132000627D01*
X134763616Y-132113853D01*
X134746443Y-132170467D01*
X134672348Y-132309087D01*
X134662778Y-132326991D01*
X134633448Y-132362729D01*
X134550186Y-132464186D01*
X134448729Y-132547448D01*
X134412991Y-132576778D01*
X134412989Y-132576779D01*
X134256467Y-132660443D01*
X134199853Y-132677616D01*
X134086627Y-132711963D01*
X134020442Y-132718482D01*
X133954260Y-132725000D01*
X133865740Y-132725000D01*
X133799558Y-132718482D01*
X133733373Y-132711963D01*
X133620147Y-132677616D01*
X133563533Y-132660443D01*
X133407011Y-132576779D01*
X133407009Y-132576778D01*
X133371271Y-132547448D01*
X133269814Y-132464186D01*
X133186552Y-132362729D01*
X133157222Y-132326991D01*
X133147652Y-132309087D01*
X133073557Y-132170467D01*
X133056384Y-132113853D01*
X133022037Y-132000627D01*
X133004641Y-131824000D01*
X133022037Y-131647373D01*
X133073557Y-131477534D01*
X133073557Y-131477533D01*
X133157221Y-131321011D01*
X133157222Y-131321009D01*
X133186552Y-131285271D01*
X133269814Y-131183814D01*
X133371271Y-131100552D01*
X133407009Y-131071222D01*
X133424913Y-131061652D01*
X133563533Y-130987557D01*
X133620147Y-130970384D01*
X133733373Y-130936037D01*
X133799558Y-130929518D01*
X133865740Y-130923000D01*
X133954260Y-130923000D01*
X134020442Y-130929518D01*
X134020442Y-130929518D01*
G37*
G36*
X134020443Y-128389519D02*
X134086627Y-128396037D01*
X134199853Y-128430384D01*
X134256467Y-128447557D01*
X134395087Y-128521652D01*
X134412991Y-128531222D01*
X134448729Y-128560552D01*
X134550186Y-128643814D01*
X134633448Y-128745271D01*
X134662778Y-128781009D01*
X134662779Y-128781011D01*
X134746443Y-128937533D01*
X134746443Y-128937534D01*
X134797963Y-129107373D01*
X134815359Y-129284000D01*
X134797963Y-129460627D01*
X134763616Y-129573853D01*
X134746443Y-129630467D01*
X134672348Y-129769087D01*
X134662778Y-129786991D01*
X134633448Y-129822729D01*
X134550186Y-129924186D01*
X134448729Y-130007448D01*
X134412991Y-130036778D01*
X134412989Y-130036779D01*
X134256467Y-130120443D01*
X134199853Y-130137616D01*
X134086627Y-130171963D01*
X134020443Y-130178481D01*
X133954260Y-130185000D01*
X133865740Y-130185000D01*
X133799557Y-130178481D01*
X133733373Y-130171963D01*
X133620147Y-130137616D01*
X133563533Y-130120443D01*
X133407011Y-130036779D01*
X133407009Y-130036778D01*
X133371271Y-130007448D01*
X133269814Y-129924186D01*
X133186552Y-129822729D01*
X133157222Y-129786991D01*
X133147652Y-129769087D01*
X133073557Y-129630467D01*
X133056384Y-129573853D01*
X133022037Y-129460627D01*
X133004641Y-129284000D01*
X133022037Y-129107373D01*
X133073557Y-128937534D01*
X133073557Y-128937533D01*
X133157221Y-128781011D01*
X133157222Y-128781009D01*
X133186552Y-128745271D01*
X133269814Y-128643814D01*
X133371271Y-128560552D01*
X133407009Y-128531222D01*
X133424913Y-128521652D01*
X133563533Y-128447557D01*
X133620147Y-128430384D01*
X133733373Y-128396037D01*
X133799557Y-128389519D01*
X133865740Y-128383000D01*
X133954260Y-128383000D01*
X134020443Y-128389519D01*
X134020443Y-128389519D01*
G37*
G36*
X134020443Y-125849519D02*
X134086627Y-125856037D01*
X134199853Y-125890384D01*
X134256467Y-125907557D01*
X134395087Y-125981652D01*
X134412991Y-125991222D01*
X134448729Y-126020552D01*
X134550186Y-126103814D01*
X134633448Y-126205271D01*
X134662778Y-126241009D01*
X134662779Y-126241011D01*
X134746443Y-126397533D01*
X134746443Y-126397534D01*
X134797963Y-126567373D01*
X134815359Y-126744000D01*
X134797963Y-126920627D01*
X134763616Y-127033853D01*
X134746443Y-127090467D01*
X134725213Y-127130185D01*
X134662778Y-127246991D01*
X134633448Y-127282729D01*
X134550186Y-127384186D01*
X134448729Y-127467448D01*
X134412991Y-127496778D01*
X134412989Y-127496779D01*
X134256467Y-127580443D01*
X134199853Y-127597616D01*
X134086627Y-127631963D01*
X134020442Y-127638482D01*
X133954260Y-127645000D01*
X133865740Y-127645000D01*
X133799558Y-127638482D01*
X133733373Y-127631963D01*
X133620147Y-127597616D01*
X133563533Y-127580443D01*
X133407011Y-127496779D01*
X133407009Y-127496778D01*
X133371271Y-127467448D01*
X133269814Y-127384186D01*
X133186552Y-127282729D01*
X133157222Y-127246991D01*
X133094787Y-127130185D01*
X133073557Y-127090467D01*
X133056384Y-127033853D01*
X133022037Y-126920627D01*
X133004641Y-126744000D01*
X133022037Y-126567373D01*
X133073557Y-126397534D01*
X133073557Y-126397533D01*
X133157221Y-126241011D01*
X133157222Y-126241009D01*
X133186552Y-126205271D01*
X133269814Y-126103814D01*
X133371271Y-126020552D01*
X133407009Y-125991222D01*
X133424913Y-125981652D01*
X133563533Y-125907557D01*
X133620147Y-125890384D01*
X133733373Y-125856037D01*
X133799557Y-125849519D01*
X133865740Y-125843000D01*
X133954260Y-125843000D01*
X134020443Y-125849519D01*
X134020443Y-125849519D01*
G37*
G36*
X48168442Y-125595518D02*
X48234627Y-125602037D01*
X48347853Y-125636384D01*
X48404467Y-125653557D01*
X48543087Y-125727652D01*
X48560991Y-125737222D01*
X48596729Y-125766552D01*
X48698186Y-125849814D01*
X48781448Y-125951271D01*
X48810778Y-125987009D01*
X48810779Y-125987011D01*
X48894443Y-126143533D01*
X48894443Y-126143534D01*
X48945963Y-126313373D01*
X48963359Y-126490000D01*
X48945963Y-126666627D01*
X48922492Y-126744000D01*
X48894443Y-126836467D01*
X48849459Y-126920625D01*
X48810778Y-126992991D01*
X48781448Y-127028729D01*
X48698186Y-127130186D01*
X48596729Y-127213448D01*
X48560991Y-127242778D01*
X48560989Y-127242779D01*
X48404467Y-127326443D01*
X48347853Y-127343616D01*
X48234627Y-127377963D01*
X48171453Y-127384185D01*
X48102260Y-127391000D01*
X48013740Y-127391000D01*
X47944547Y-127384185D01*
X47881373Y-127377963D01*
X47768147Y-127343616D01*
X47711533Y-127326443D01*
X47555011Y-127242779D01*
X47555009Y-127242778D01*
X47519271Y-127213448D01*
X47417814Y-127130186D01*
X47334552Y-127028729D01*
X47305222Y-126992991D01*
X47266541Y-126920625D01*
X47221557Y-126836467D01*
X47193508Y-126744000D01*
X47170037Y-126666627D01*
X47152641Y-126490000D01*
X47170037Y-126313373D01*
X47221557Y-126143534D01*
X47221557Y-126143533D01*
X47305221Y-125987011D01*
X47305222Y-125987009D01*
X47334552Y-125951271D01*
X47417814Y-125849814D01*
X47519271Y-125766552D01*
X47555009Y-125737222D01*
X47572913Y-125727652D01*
X47711533Y-125653557D01*
X47768147Y-125636384D01*
X47881373Y-125602037D01*
X47947558Y-125595518D01*
X48013740Y-125589000D01*
X48102260Y-125589000D01*
X48168442Y-125595518D01*
X48168442Y-125595518D01*
G37*
G36*
X46419000Y-127391000D02*
X44617000Y-127391000D01*
X44617000Y-125589000D01*
X46419000Y-125589000D01*
X46419000Y-127391000D01*
X46419000Y-127391000D01*
G37*
G36*
X134020443Y-123309519D02*
X134086627Y-123316037D01*
X134199853Y-123350384D01*
X134256467Y-123367557D01*
X134395087Y-123441652D01*
X134412991Y-123451222D01*
X134448729Y-123480552D01*
X134550186Y-123563814D01*
X134633448Y-123665271D01*
X134662778Y-123701009D01*
X134662779Y-123701011D01*
X134746443Y-123857533D01*
X134746443Y-123857534D01*
X134797963Y-124027373D01*
X134815359Y-124204000D01*
X134797963Y-124380627D01*
X134763616Y-124493853D01*
X134746443Y-124550467D01*
X134725213Y-124590185D01*
X134662778Y-124706991D01*
X134633448Y-124742729D01*
X134550186Y-124844186D01*
X134448729Y-124927448D01*
X134412991Y-124956778D01*
X134412989Y-124956779D01*
X134256467Y-125040443D01*
X134199853Y-125057616D01*
X134086627Y-125091963D01*
X134020443Y-125098481D01*
X133954260Y-125105000D01*
X133865740Y-125105000D01*
X133799557Y-125098481D01*
X133733373Y-125091963D01*
X133620147Y-125057616D01*
X133563533Y-125040443D01*
X133407011Y-124956779D01*
X133407009Y-124956778D01*
X133371271Y-124927448D01*
X133269814Y-124844186D01*
X133186552Y-124742729D01*
X133157222Y-124706991D01*
X133094787Y-124590185D01*
X133073557Y-124550467D01*
X133056384Y-124493853D01*
X133022037Y-124380627D01*
X133004641Y-124204000D01*
X133022037Y-124027373D01*
X133073557Y-123857534D01*
X133073557Y-123857533D01*
X133157221Y-123701011D01*
X133157222Y-123701009D01*
X133186552Y-123665271D01*
X133269814Y-123563814D01*
X133371271Y-123480552D01*
X133407009Y-123451222D01*
X133424913Y-123441652D01*
X133563533Y-123367557D01*
X133620147Y-123350384D01*
X133733373Y-123316037D01*
X133799557Y-123309519D01*
X133865740Y-123303000D01*
X133954260Y-123303000D01*
X134020443Y-123309519D01*
X134020443Y-123309519D01*
G37*
G36*
X48168442Y-123055518D02*
X48234627Y-123062037D01*
X48347853Y-123096384D01*
X48404467Y-123113557D01*
X48543087Y-123187652D01*
X48560991Y-123197222D01*
X48596729Y-123226552D01*
X48698186Y-123309814D01*
X48781448Y-123411271D01*
X48810778Y-123447009D01*
X48810779Y-123447011D01*
X48894443Y-123603533D01*
X48894443Y-123603534D01*
X48945963Y-123773373D01*
X48963359Y-123950000D01*
X48945963Y-124126627D01*
X48922492Y-124204000D01*
X48894443Y-124296467D01*
X48849459Y-124380625D01*
X48810778Y-124452991D01*
X48781448Y-124488729D01*
X48698186Y-124590186D01*
X48596729Y-124673448D01*
X48560991Y-124702778D01*
X48560989Y-124702779D01*
X48404467Y-124786443D01*
X48347853Y-124803616D01*
X48234627Y-124837963D01*
X48171453Y-124844185D01*
X48102260Y-124851000D01*
X48013740Y-124851000D01*
X47944547Y-124844185D01*
X47881373Y-124837963D01*
X47768147Y-124803616D01*
X47711533Y-124786443D01*
X47555011Y-124702779D01*
X47555009Y-124702778D01*
X47519271Y-124673448D01*
X47417814Y-124590186D01*
X47334552Y-124488729D01*
X47305222Y-124452991D01*
X47266541Y-124380625D01*
X47221557Y-124296467D01*
X47193508Y-124204000D01*
X47170037Y-124126627D01*
X47152641Y-123950000D01*
X47170037Y-123773373D01*
X47221557Y-123603534D01*
X47221557Y-123603533D01*
X47305221Y-123447011D01*
X47305222Y-123447009D01*
X47334552Y-123411271D01*
X47417814Y-123309814D01*
X47519271Y-123226552D01*
X47555009Y-123197222D01*
X47572913Y-123187652D01*
X47711533Y-123113557D01*
X47768147Y-123096384D01*
X47881373Y-123062037D01*
X47947558Y-123055518D01*
X48013740Y-123049000D01*
X48102260Y-123049000D01*
X48168442Y-123055518D01*
X48168442Y-123055518D01*
G37*
G36*
X45628442Y-123055518D02*
X45694627Y-123062037D01*
X45807853Y-123096384D01*
X45864467Y-123113557D01*
X46003087Y-123187652D01*
X46020991Y-123197222D01*
X46056729Y-123226552D01*
X46158186Y-123309814D01*
X46241448Y-123411271D01*
X46270778Y-123447009D01*
X46270779Y-123447011D01*
X46354443Y-123603533D01*
X46354443Y-123603534D01*
X46405963Y-123773373D01*
X46423359Y-123950000D01*
X46405963Y-124126627D01*
X46382492Y-124204000D01*
X46354443Y-124296467D01*
X46309459Y-124380625D01*
X46270778Y-124452991D01*
X46241448Y-124488729D01*
X46158186Y-124590186D01*
X46056729Y-124673448D01*
X46020991Y-124702778D01*
X46020989Y-124702779D01*
X45864467Y-124786443D01*
X45807853Y-124803616D01*
X45694627Y-124837963D01*
X45631453Y-124844185D01*
X45562260Y-124851000D01*
X45473740Y-124851000D01*
X45404547Y-124844185D01*
X45341373Y-124837963D01*
X45228147Y-124803616D01*
X45171533Y-124786443D01*
X45015011Y-124702779D01*
X45015009Y-124702778D01*
X44979271Y-124673448D01*
X44877814Y-124590186D01*
X44794552Y-124488729D01*
X44765222Y-124452991D01*
X44726541Y-124380625D01*
X44681557Y-124296467D01*
X44653508Y-124204000D01*
X44630037Y-124126627D01*
X44612641Y-123950000D01*
X44630037Y-123773373D01*
X44681557Y-123603534D01*
X44681557Y-123603533D01*
X44765221Y-123447011D01*
X44765222Y-123447009D01*
X44794552Y-123411271D01*
X44877814Y-123309814D01*
X44979271Y-123226552D01*
X45015009Y-123197222D01*
X45032913Y-123187652D01*
X45171533Y-123113557D01*
X45228147Y-123096384D01*
X45341373Y-123062037D01*
X45407558Y-123055518D01*
X45473740Y-123049000D01*
X45562260Y-123049000D01*
X45628442Y-123055518D01*
X45628442Y-123055518D01*
G37*
G36*
X134811000Y-122565000D02*
X133009000Y-122565000D01*
X133009000Y-120763000D01*
X134811000Y-120763000D01*
X134811000Y-122565000D01*
X134811000Y-122565000D01*
G37*
G36*
X48168442Y-120515518D02*
X48234627Y-120522037D01*
X48347853Y-120556384D01*
X48404467Y-120573557D01*
X48543087Y-120647652D01*
X48560991Y-120657222D01*
X48596729Y-120686552D01*
X48698186Y-120769814D01*
X48781448Y-120871271D01*
X48810778Y-120907009D01*
X48810779Y-120907011D01*
X48894443Y-121063533D01*
X48894443Y-121063534D01*
X48945963Y-121233373D01*
X48963359Y-121410000D01*
X48945963Y-121586627D01*
X48911616Y-121699853D01*
X48894443Y-121756467D01*
X48820348Y-121895087D01*
X48810778Y-121912991D01*
X48781448Y-121948729D01*
X48698186Y-122050186D01*
X48596729Y-122133448D01*
X48560991Y-122162778D01*
X48560989Y-122162779D01*
X48404467Y-122246443D01*
X48347853Y-122263616D01*
X48234627Y-122297963D01*
X48168442Y-122304482D01*
X48102260Y-122311000D01*
X48013740Y-122311000D01*
X47947558Y-122304482D01*
X47881373Y-122297963D01*
X47768147Y-122263616D01*
X47711533Y-122246443D01*
X47555011Y-122162779D01*
X47555009Y-122162778D01*
X47519271Y-122133448D01*
X47417814Y-122050186D01*
X47334552Y-121948729D01*
X47305222Y-121912991D01*
X47295652Y-121895087D01*
X47221557Y-121756467D01*
X47204384Y-121699853D01*
X47170037Y-121586627D01*
X47152641Y-121410000D01*
X47170037Y-121233373D01*
X47221557Y-121063534D01*
X47221557Y-121063533D01*
X47305221Y-120907011D01*
X47305222Y-120907009D01*
X47334552Y-120871271D01*
X47417814Y-120769814D01*
X47519271Y-120686552D01*
X47555009Y-120657222D01*
X47572913Y-120647652D01*
X47711533Y-120573557D01*
X47768147Y-120556384D01*
X47881373Y-120522037D01*
X47947558Y-120515518D01*
X48013740Y-120509000D01*
X48102260Y-120509000D01*
X48168442Y-120515518D01*
X48168442Y-120515518D01*
G37*
G36*
X45628442Y-120515518D02*
X45694627Y-120522037D01*
X45807853Y-120556384D01*
X45864467Y-120573557D01*
X46003087Y-120647652D01*
X46020991Y-120657222D01*
X46056729Y-120686552D01*
X46158186Y-120769814D01*
X46241448Y-120871271D01*
X46270778Y-120907009D01*
X46270779Y-120907011D01*
X46354443Y-121063533D01*
X46354443Y-121063534D01*
X46405963Y-121233373D01*
X46423359Y-121410000D01*
X46405963Y-121586627D01*
X46371616Y-121699853D01*
X46354443Y-121756467D01*
X46280348Y-121895087D01*
X46270778Y-121912991D01*
X46241448Y-121948729D01*
X46158186Y-122050186D01*
X46056729Y-122133448D01*
X46020991Y-122162778D01*
X46020989Y-122162779D01*
X45864467Y-122246443D01*
X45807853Y-122263616D01*
X45694627Y-122297963D01*
X45628442Y-122304482D01*
X45562260Y-122311000D01*
X45473740Y-122311000D01*
X45407558Y-122304482D01*
X45341373Y-122297963D01*
X45228147Y-122263616D01*
X45171533Y-122246443D01*
X45015011Y-122162779D01*
X45015009Y-122162778D01*
X44979271Y-122133448D01*
X44877814Y-122050186D01*
X44794552Y-121948729D01*
X44765222Y-121912991D01*
X44755652Y-121895087D01*
X44681557Y-121756467D01*
X44664384Y-121699853D01*
X44630037Y-121586627D01*
X44612641Y-121410000D01*
X44630037Y-121233373D01*
X44681557Y-121063534D01*
X44681557Y-121063533D01*
X44765221Y-120907011D01*
X44765222Y-120907009D01*
X44794552Y-120871271D01*
X44877814Y-120769814D01*
X44979271Y-120686552D01*
X45015009Y-120657222D01*
X45032913Y-120647652D01*
X45171533Y-120573557D01*
X45228147Y-120556384D01*
X45341373Y-120522037D01*
X45407558Y-120515518D01*
X45473740Y-120509000D01*
X45562260Y-120509000D01*
X45628442Y-120515518D01*
X45628442Y-120515518D01*
G37*
G36*
X48168443Y-117975519D02*
X48234627Y-117982037D01*
X48347853Y-118016384D01*
X48404467Y-118033557D01*
X48543087Y-118107652D01*
X48560991Y-118117222D01*
X48596729Y-118146552D01*
X48698186Y-118229814D01*
X48781448Y-118331271D01*
X48810778Y-118367009D01*
X48810779Y-118367011D01*
X48894443Y-118523533D01*
X48894443Y-118523534D01*
X48945963Y-118693373D01*
X48963359Y-118870000D01*
X48945963Y-119046627D01*
X48911616Y-119159853D01*
X48894443Y-119216467D01*
X48820348Y-119355087D01*
X48810778Y-119372991D01*
X48781448Y-119408729D01*
X48698186Y-119510186D01*
X48596729Y-119593448D01*
X48560991Y-119622778D01*
X48560989Y-119622779D01*
X48404467Y-119706443D01*
X48347853Y-119723616D01*
X48234627Y-119757963D01*
X48168442Y-119764482D01*
X48102260Y-119771000D01*
X48013740Y-119771000D01*
X47947558Y-119764482D01*
X47881373Y-119757963D01*
X47768147Y-119723616D01*
X47711533Y-119706443D01*
X47555011Y-119622779D01*
X47555009Y-119622778D01*
X47519271Y-119593448D01*
X47417814Y-119510186D01*
X47334552Y-119408729D01*
X47305222Y-119372991D01*
X47295652Y-119355087D01*
X47221557Y-119216467D01*
X47204384Y-119159853D01*
X47170037Y-119046627D01*
X47152641Y-118870000D01*
X47170037Y-118693373D01*
X47221557Y-118523534D01*
X47221557Y-118523533D01*
X47305221Y-118367011D01*
X47305222Y-118367009D01*
X47334552Y-118331271D01*
X47417814Y-118229814D01*
X47519271Y-118146552D01*
X47555009Y-118117222D01*
X47572913Y-118107652D01*
X47711533Y-118033557D01*
X47768147Y-118016384D01*
X47881373Y-117982037D01*
X47947557Y-117975519D01*
X48013740Y-117969000D01*
X48102260Y-117969000D01*
X48168443Y-117975519D01*
X48168443Y-117975519D01*
G37*
G36*
X45628443Y-117975519D02*
X45694627Y-117982037D01*
X45807853Y-118016384D01*
X45864467Y-118033557D01*
X46003087Y-118107652D01*
X46020991Y-118117222D01*
X46056729Y-118146552D01*
X46158186Y-118229814D01*
X46241448Y-118331271D01*
X46270778Y-118367009D01*
X46270779Y-118367011D01*
X46354443Y-118523533D01*
X46354443Y-118523534D01*
X46405963Y-118693373D01*
X46423359Y-118870000D01*
X46405963Y-119046627D01*
X46371616Y-119159853D01*
X46354443Y-119216467D01*
X46280348Y-119355087D01*
X46270778Y-119372991D01*
X46241448Y-119408729D01*
X46158186Y-119510186D01*
X46056729Y-119593448D01*
X46020991Y-119622778D01*
X46020989Y-119622779D01*
X45864467Y-119706443D01*
X45807853Y-119723616D01*
X45694627Y-119757963D01*
X45628442Y-119764482D01*
X45562260Y-119771000D01*
X45473740Y-119771000D01*
X45407558Y-119764482D01*
X45341373Y-119757963D01*
X45228147Y-119723616D01*
X45171533Y-119706443D01*
X45015011Y-119622779D01*
X45015009Y-119622778D01*
X44979271Y-119593448D01*
X44877814Y-119510186D01*
X44794552Y-119408729D01*
X44765222Y-119372991D01*
X44755652Y-119355087D01*
X44681557Y-119216467D01*
X44664384Y-119159853D01*
X44630037Y-119046627D01*
X44612641Y-118870000D01*
X44630037Y-118693373D01*
X44681557Y-118523534D01*
X44681557Y-118523533D01*
X44765221Y-118367011D01*
X44765222Y-118367009D01*
X44794552Y-118331271D01*
X44877814Y-118229814D01*
X44979271Y-118146552D01*
X45015009Y-118117222D01*
X45032913Y-118107652D01*
X45171533Y-118033557D01*
X45228147Y-118016384D01*
X45341373Y-117982037D01*
X45407557Y-117975519D01*
X45473740Y-117969000D01*
X45562260Y-117969000D01*
X45628443Y-117975519D01*
X45628443Y-117975519D01*
G37*
G36*
X48168442Y-115435518D02*
X48234627Y-115442037D01*
X48347853Y-115476384D01*
X48404467Y-115493557D01*
X48543087Y-115567652D01*
X48560991Y-115577222D01*
X48596729Y-115606552D01*
X48698186Y-115689814D01*
X48781448Y-115791271D01*
X48810778Y-115827009D01*
X48810779Y-115827011D01*
X48894443Y-115983533D01*
X48894443Y-115983534D01*
X48945963Y-116153373D01*
X48963359Y-116330000D01*
X48945963Y-116506627D01*
X48911616Y-116619853D01*
X48894443Y-116676467D01*
X48820348Y-116815087D01*
X48810778Y-116832991D01*
X48781448Y-116868729D01*
X48698186Y-116970186D01*
X48596729Y-117053448D01*
X48560991Y-117082778D01*
X48560989Y-117082779D01*
X48404467Y-117166443D01*
X48347853Y-117183616D01*
X48234627Y-117217963D01*
X48168443Y-117224481D01*
X48102260Y-117231000D01*
X48013740Y-117231000D01*
X47947557Y-117224481D01*
X47881373Y-117217963D01*
X47768147Y-117183616D01*
X47711533Y-117166443D01*
X47555011Y-117082779D01*
X47555009Y-117082778D01*
X47519271Y-117053448D01*
X47417814Y-116970186D01*
X47334552Y-116868729D01*
X47305222Y-116832991D01*
X47295652Y-116815087D01*
X47221557Y-116676467D01*
X47204384Y-116619853D01*
X47170037Y-116506627D01*
X47152641Y-116330000D01*
X47170037Y-116153373D01*
X47221557Y-115983534D01*
X47221557Y-115983533D01*
X47305221Y-115827011D01*
X47305222Y-115827009D01*
X47334552Y-115791271D01*
X47417814Y-115689814D01*
X47519271Y-115606552D01*
X47555009Y-115577222D01*
X47572913Y-115567652D01*
X47711533Y-115493557D01*
X47768147Y-115476384D01*
X47881373Y-115442037D01*
X47947558Y-115435518D01*
X48013740Y-115429000D01*
X48102260Y-115429000D01*
X48168442Y-115435518D01*
X48168442Y-115435518D01*
G37*
G36*
X45628442Y-115435518D02*
X45694627Y-115442037D01*
X45807853Y-115476384D01*
X45864467Y-115493557D01*
X46003087Y-115567652D01*
X46020991Y-115577222D01*
X46056729Y-115606552D01*
X46158186Y-115689814D01*
X46241448Y-115791271D01*
X46270778Y-115827009D01*
X46270779Y-115827011D01*
X46354443Y-115983533D01*
X46354443Y-115983534D01*
X46405963Y-116153373D01*
X46423359Y-116330000D01*
X46405963Y-116506627D01*
X46371616Y-116619853D01*
X46354443Y-116676467D01*
X46280348Y-116815087D01*
X46270778Y-116832991D01*
X46241448Y-116868729D01*
X46158186Y-116970186D01*
X46056729Y-117053448D01*
X46020991Y-117082778D01*
X46020989Y-117082779D01*
X45864467Y-117166443D01*
X45807853Y-117183616D01*
X45694627Y-117217963D01*
X45628443Y-117224481D01*
X45562260Y-117231000D01*
X45473740Y-117231000D01*
X45407557Y-117224481D01*
X45341373Y-117217963D01*
X45228147Y-117183616D01*
X45171533Y-117166443D01*
X45015011Y-117082779D01*
X45015009Y-117082778D01*
X44979271Y-117053448D01*
X44877814Y-116970186D01*
X44794552Y-116868729D01*
X44765222Y-116832991D01*
X44755652Y-116815087D01*
X44681557Y-116676467D01*
X44664384Y-116619853D01*
X44630037Y-116506627D01*
X44612641Y-116330000D01*
X44630037Y-116153373D01*
X44681557Y-115983534D01*
X44681557Y-115983533D01*
X44765221Y-115827011D01*
X44765222Y-115827009D01*
X44794552Y-115791271D01*
X44877814Y-115689814D01*
X44979271Y-115606552D01*
X45015009Y-115577222D01*
X45032913Y-115567652D01*
X45171533Y-115493557D01*
X45228147Y-115476384D01*
X45341373Y-115442037D01*
X45407558Y-115435518D01*
X45473740Y-115429000D01*
X45562260Y-115429000D01*
X45628442Y-115435518D01*
X45628442Y-115435518D01*
G37*
G36*
X121828442Y-113149518D02*
X121894627Y-113156037D01*
X122007853Y-113190384D01*
X122064467Y-113207557D01*
X122203087Y-113281652D01*
X122220991Y-113291222D01*
X122256729Y-113320552D01*
X122358186Y-113403814D01*
X122441448Y-113505271D01*
X122470778Y-113541009D01*
X122470779Y-113541011D01*
X122554443Y-113697533D01*
X122554443Y-113697534D01*
X122605963Y-113867373D01*
X122623359Y-114044000D01*
X122605963Y-114220627D01*
X122571616Y-114333853D01*
X122554443Y-114390467D01*
X122533213Y-114430185D01*
X122470778Y-114546991D01*
X122441448Y-114582729D01*
X122358186Y-114684186D01*
X122256729Y-114767448D01*
X122220991Y-114796778D01*
X122220989Y-114796779D01*
X122064467Y-114880443D01*
X122007853Y-114897616D01*
X121894627Y-114931963D01*
X121828443Y-114938481D01*
X121762260Y-114945000D01*
X121673740Y-114945000D01*
X121607557Y-114938481D01*
X121541373Y-114931963D01*
X121428147Y-114897616D01*
X121371533Y-114880443D01*
X121215011Y-114796779D01*
X121215009Y-114796778D01*
X121179271Y-114767448D01*
X121077814Y-114684186D01*
X120994552Y-114582729D01*
X120965222Y-114546991D01*
X120902787Y-114430185D01*
X120881557Y-114390467D01*
X120864384Y-114333853D01*
X120830037Y-114220627D01*
X120812641Y-114044000D01*
X120830037Y-113867373D01*
X120881557Y-113697534D01*
X120881557Y-113697533D01*
X120965221Y-113541011D01*
X120965222Y-113541009D01*
X120994552Y-113505271D01*
X121077814Y-113403814D01*
X121179271Y-113320552D01*
X121215009Y-113291222D01*
X121232913Y-113281652D01*
X121371533Y-113207557D01*
X121428147Y-113190384D01*
X121541373Y-113156037D01*
X121607558Y-113149518D01*
X121673740Y-113143000D01*
X121762260Y-113143000D01*
X121828442Y-113149518D01*
X121828442Y-113149518D01*
G37*
G36*
X129448442Y-113149518D02*
X129514627Y-113156037D01*
X129627853Y-113190384D01*
X129684467Y-113207557D01*
X129823087Y-113281652D01*
X129840991Y-113291222D01*
X129876729Y-113320552D01*
X129978186Y-113403814D01*
X130061448Y-113505271D01*
X130090778Y-113541009D01*
X130090779Y-113541011D01*
X130174443Y-113697533D01*
X130174443Y-113697534D01*
X130225963Y-113867373D01*
X130243359Y-114044000D01*
X130225963Y-114220627D01*
X130191616Y-114333853D01*
X130174443Y-114390467D01*
X130153213Y-114430185D01*
X130090778Y-114546991D01*
X130061448Y-114582729D01*
X129978186Y-114684186D01*
X129876729Y-114767448D01*
X129840991Y-114796778D01*
X129840989Y-114796779D01*
X129684467Y-114880443D01*
X129627853Y-114897616D01*
X129514627Y-114931963D01*
X129448443Y-114938481D01*
X129382260Y-114945000D01*
X129293740Y-114945000D01*
X129227557Y-114938481D01*
X129161373Y-114931963D01*
X129048147Y-114897616D01*
X128991533Y-114880443D01*
X128835011Y-114796779D01*
X128835009Y-114796778D01*
X128799271Y-114767448D01*
X128697814Y-114684186D01*
X128614552Y-114582729D01*
X128585222Y-114546991D01*
X128522787Y-114430185D01*
X128501557Y-114390467D01*
X128484384Y-114333853D01*
X128450037Y-114220627D01*
X128432641Y-114044000D01*
X128450037Y-113867373D01*
X128501557Y-113697534D01*
X128501557Y-113697533D01*
X128585221Y-113541011D01*
X128585222Y-113541009D01*
X128614552Y-113505271D01*
X128697814Y-113403814D01*
X128799271Y-113320552D01*
X128835009Y-113291222D01*
X128852913Y-113281652D01*
X128991533Y-113207557D01*
X129048147Y-113190384D01*
X129161373Y-113156037D01*
X129227558Y-113149518D01*
X129293740Y-113143000D01*
X129382260Y-113143000D01*
X129448442Y-113149518D01*
X129448442Y-113149518D01*
G37*
G36*
X119288442Y-113149518D02*
X119354627Y-113156037D01*
X119467853Y-113190384D01*
X119524467Y-113207557D01*
X119663087Y-113281652D01*
X119680991Y-113291222D01*
X119716729Y-113320552D01*
X119818186Y-113403814D01*
X119901448Y-113505271D01*
X119930778Y-113541009D01*
X119930779Y-113541011D01*
X120014443Y-113697533D01*
X120014443Y-113697534D01*
X120065963Y-113867373D01*
X120083359Y-114044000D01*
X120065963Y-114220627D01*
X120031616Y-114333853D01*
X120014443Y-114390467D01*
X119993213Y-114430185D01*
X119930778Y-114546991D01*
X119901448Y-114582729D01*
X119818186Y-114684186D01*
X119716729Y-114767448D01*
X119680991Y-114796778D01*
X119680989Y-114796779D01*
X119524467Y-114880443D01*
X119467853Y-114897616D01*
X119354627Y-114931963D01*
X119288443Y-114938481D01*
X119222260Y-114945000D01*
X119133740Y-114945000D01*
X119067557Y-114938481D01*
X119001373Y-114931963D01*
X118888147Y-114897616D01*
X118831533Y-114880443D01*
X118675011Y-114796779D01*
X118675009Y-114796778D01*
X118639271Y-114767448D01*
X118537814Y-114684186D01*
X118454552Y-114582729D01*
X118425222Y-114546991D01*
X118362787Y-114430185D01*
X118341557Y-114390467D01*
X118324384Y-114333853D01*
X118290037Y-114220627D01*
X118272641Y-114044000D01*
X118290037Y-113867373D01*
X118341557Y-113697534D01*
X118341557Y-113697533D01*
X118425221Y-113541011D01*
X118425222Y-113541009D01*
X118454552Y-113505271D01*
X118537814Y-113403814D01*
X118639271Y-113320552D01*
X118675009Y-113291222D01*
X118692913Y-113281652D01*
X118831533Y-113207557D01*
X118888147Y-113190384D01*
X119001373Y-113156037D01*
X119067558Y-113149518D01*
X119133740Y-113143000D01*
X119222260Y-113143000D01*
X119288442Y-113149518D01*
X119288442Y-113149518D01*
G37*
G36*
X124368442Y-113149518D02*
X124434627Y-113156037D01*
X124547853Y-113190384D01*
X124604467Y-113207557D01*
X124743087Y-113281652D01*
X124760991Y-113291222D01*
X124796729Y-113320552D01*
X124898186Y-113403814D01*
X124981448Y-113505271D01*
X125010778Y-113541009D01*
X125010779Y-113541011D01*
X125094443Y-113697533D01*
X125094443Y-113697534D01*
X125145963Y-113867373D01*
X125163359Y-114044000D01*
X125145963Y-114220627D01*
X125111616Y-114333853D01*
X125094443Y-114390467D01*
X125073213Y-114430185D01*
X125010778Y-114546991D01*
X124981448Y-114582729D01*
X124898186Y-114684186D01*
X124796729Y-114767448D01*
X124760991Y-114796778D01*
X124760989Y-114796779D01*
X124604467Y-114880443D01*
X124547853Y-114897616D01*
X124434627Y-114931963D01*
X124368443Y-114938481D01*
X124302260Y-114945000D01*
X124213740Y-114945000D01*
X124147557Y-114938481D01*
X124081373Y-114931963D01*
X123968147Y-114897616D01*
X123911533Y-114880443D01*
X123755011Y-114796779D01*
X123755009Y-114796778D01*
X123719271Y-114767448D01*
X123617814Y-114684186D01*
X123534552Y-114582729D01*
X123505222Y-114546991D01*
X123442787Y-114430185D01*
X123421557Y-114390467D01*
X123404384Y-114333853D01*
X123370037Y-114220627D01*
X123352641Y-114044000D01*
X123370037Y-113867373D01*
X123421557Y-113697534D01*
X123421557Y-113697533D01*
X123505221Y-113541011D01*
X123505222Y-113541009D01*
X123534552Y-113505271D01*
X123617814Y-113403814D01*
X123719271Y-113320552D01*
X123755009Y-113291222D01*
X123772913Y-113281652D01*
X123911533Y-113207557D01*
X123968147Y-113190384D01*
X124081373Y-113156037D01*
X124147558Y-113149518D01*
X124213740Y-113143000D01*
X124302260Y-113143000D01*
X124368442Y-113149518D01*
X124368442Y-113149518D01*
G37*
G36*
X126908442Y-113149518D02*
X126974627Y-113156037D01*
X127087853Y-113190384D01*
X127144467Y-113207557D01*
X127283087Y-113281652D01*
X127300991Y-113291222D01*
X127336729Y-113320552D01*
X127438186Y-113403814D01*
X127521448Y-113505271D01*
X127550778Y-113541009D01*
X127550779Y-113541011D01*
X127634443Y-113697533D01*
X127634443Y-113697534D01*
X127685963Y-113867373D01*
X127703359Y-114044000D01*
X127685963Y-114220627D01*
X127651616Y-114333853D01*
X127634443Y-114390467D01*
X127613213Y-114430185D01*
X127550778Y-114546991D01*
X127521448Y-114582729D01*
X127438186Y-114684186D01*
X127336729Y-114767448D01*
X127300991Y-114796778D01*
X127300989Y-114796779D01*
X127144467Y-114880443D01*
X127087853Y-114897616D01*
X126974627Y-114931963D01*
X126908443Y-114938481D01*
X126842260Y-114945000D01*
X126753740Y-114945000D01*
X126687557Y-114938481D01*
X126621373Y-114931963D01*
X126508147Y-114897616D01*
X126451533Y-114880443D01*
X126295011Y-114796779D01*
X126295009Y-114796778D01*
X126259271Y-114767448D01*
X126157814Y-114684186D01*
X126074552Y-114582729D01*
X126045222Y-114546991D01*
X125982787Y-114430185D01*
X125961557Y-114390467D01*
X125944384Y-114333853D01*
X125910037Y-114220627D01*
X125892641Y-114044000D01*
X125910037Y-113867373D01*
X125961557Y-113697534D01*
X125961557Y-113697533D01*
X126045221Y-113541011D01*
X126045222Y-113541009D01*
X126074552Y-113505271D01*
X126157814Y-113403814D01*
X126259271Y-113320552D01*
X126295009Y-113291222D01*
X126312913Y-113281652D01*
X126451533Y-113207557D01*
X126508147Y-113190384D01*
X126621373Y-113156037D01*
X126687558Y-113149518D01*
X126753740Y-113143000D01*
X126842260Y-113143000D01*
X126908442Y-113149518D01*
X126908442Y-113149518D01*
G37*
G36*
X48168442Y-112895518D02*
X48234627Y-112902037D01*
X48347853Y-112936384D01*
X48404467Y-112953557D01*
X48543087Y-113027652D01*
X48560991Y-113037222D01*
X48596729Y-113066552D01*
X48698186Y-113149814D01*
X48781448Y-113251271D01*
X48810778Y-113287009D01*
X48810779Y-113287011D01*
X48894443Y-113443533D01*
X48894443Y-113443534D01*
X48945963Y-113613373D01*
X48963359Y-113790000D01*
X48945963Y-113966627D01*
X48922492Y-114044000D01*
X48894443Y-114136467D01*
X48849459Y-114220625D01*
X48810778Y-114292991D01*
X48781448Y-114328729D01*
X48698186Y-114430186D01*
X48596729Y-114513448D01*
X48560991Y-114542778D01*
X48560989Y-114542779D01*
X48404467Y-114626443D01*
X48347853Y-114643616D01*
X48234627Y-114677963D01*
X48171453Y-114684185D01*
X48102260Y-114691000D01*
X48013740Y-114691000D01*
X47944547Y-114684185D01*
X47881373Y-114677963D01*
X47768147Y-114643616D01*
X47711533Y-114626443D01*
X47555011Y-114542779D01*
X47555009Y-114542778D01*
X47519271Y-114513448D01*
X47417814Y-114430186D01*
X47334552Y-114328729D01*
X47305222Y-114292991D01*
X47266541Y-114220625D01*
X47221557Y-114136467D01*
X47193508Y-114044000D01*
X47170037Y-113966627D01*
X47152641Y-113790000D01*
X47170037Y-113613373D01*
X47221557Y-113443534D01*
X47221557Y-113443533D01*
X47305221Y-113287011D01*
X47305222Y-113287009D01*
X47334552Y-113251271D01*
X47417814Y-113149814D01*
X47519271Y-113066552D01*
X47555009Y-113037222D01*
X47572913Y-113027652D01*
X47711533Y-112953557D01*
X47768147Y-112936384D01*
X47881373Y-112902037D01*
X47947558Y-112895518D01*
X48013740Y-112889000D01*
X48102260Y-112889000D01*
X48168442Y-112895518D01*
X48168442Y-112895518D01*
G37*
G36*
X45628442Y-112895518D02*
X45694627Y-112902037D01*
X45807853Y-112936384D01*
X45864467Y-112953557D01*
X46003087Y-113027652D01*
X46020991Y-113037222D01*
X46056729Y-113066552D01*
X46158186Y-113149814D01*
X46241448Y-113251271D01*
X46270778Y-113287009D01*
X46270779Y-113287011D01*
X46354443Y-113443533D01*
X46354443Y-113443534D01*
X46405963Y-113613373D01*
X46423359Y-113790000D01*
X46405963Y-113966627D01*
X46382492Y-114044000D01*
X46354443Y-114136467D01*
X46309459Y-114220625D01*
X46270778Y-114292991D01*
X46241448Y-114328729D01*
X46158186Y-114430186D01*
X46056729Y-114513448D01*
X46020991Y-114542778D01*
X46020989Y-114542779D01*
X45864467Y-114626443D01*
X45807853Y-114643616D01*
X45694627Y-114677963D01*
X45631453Y-114684185D01*
X45562260Y-114691000D01*
X45473740Y-114691000D01*
X45404547Y-114684185D01*
X45341373Y-114677963D01*
X45228147Y-114643616D01*
X45171533Y-114626443D01*
X45015011Y-114542779D01*
X45015009Y-114542778D01*
X44979271Y-114513448D01*
X44877814Y-114430186D01*
X44794552Y-114328729D01*
X44765222Y-114292991D01*
X44726541Y-114220625D01*
X44681557Y-114136467D01*
X44653508Y-114044000D01*
X44630037Y-113966627D01*
X44612641Y-113790000D01*
X44630037Y-113613373D01*
X44681557Y-113443534D01*
X44681557Y-113443533D01*
X44765221Y-113287011D01*
X44765222Y-113287009D01*
X44794552Y-113251271D01*
X44877814Y-113149814D01*
X44979271Y-113066552D01*
X45015009Y-113037222D01*
X45032913Y-113027652D01*
X45171533Y-112953557D01*
X45228147Y-112936384D01*
X45341373Y-112902037D01*
X45407558Y-112895518D01*
X45473740Y-112889000D01*
X45562260Y-112889000D01*
X45628442Y-112895518D01*
X45628442Y-112895518D01*
G37*
G36*
X126908442Y-110609518D02*
X126974627Y-110616037D01*
X127087853Y-110650384D01*
X127144467Y-110667557D01*
X127283087Y-110741652D01*
X127300991Y-110751222D01*
X127336729Y-110780552D01*
X127438186Y-110863814D01*
X127521448Y-110965271D01*
X127550778Y-111001009D01*
X127550779Y-111001011D01*
X127634443Y-111157533D01*
X127634443Y-111157534D01*
X127685963Y-111327373D01*
X127703359Y-111504000D01*
X127685963Y-111680627D01*
X127651616Y-111793853D01*
X127634443Y-111850467D01*
X127613213Y-111890185D01*
X127550778Y-112006991D01*
X127521448Y-112042729D01*
X127438186Y-112144186D01*
X127336729Y-112227448D01*
X127300991Y-112256778D01*
X127300989Y-112256779D01*
X127144467Y-112340443D01*
X127087853Y-112357616D01*
X126974627Y-112391963D01*
X126908442Y-112398482D01*
X126842260Y-112405000D01*
X126753740Y-112405000D01*
X126687558Y-112398482D01*
X126621373Y-112391963D01*
X126508147Y-112357616D01*
X126451533Y-112340443D01*
X126295011Y-112256779D01*
X126295009Y-112256778D01*
X126259271Y-112227448D01*
X126157814Y-112144186D01*
X126074552Y-112042729D01*
X126045222Y-112006991D01*
X125982787Y-111890185D01*
X125961557Y-111850467D01*
X125944384Y-111793853D01*
X125910037Y-111680627D01*
X125892641Y-111504000D01*
X125910037Y-111327373D01*
X125961557Y-111157534D01*
X125961557Y-111157533D01*
X126045221Y-111001011D01*
X126045222Y-111001009D01*
X126074552Y-110965271D01*
X126157814Y-110863814D01*
X126259271Y-110780552D01*
X126295009Y-110751222D01*
X126312913Y-110741652D01*
X126451533Y-110667557D01*
X126508147Y-110650384D01*
X126621373Y-110616037D01*
X126687558Y-110609518D01*
X126753740Y-110603000D01*
X126842260Y-110603000D01*
X126908442Y-110609518D01*
X126908442Y-110609518D01*
G37*
G36*
X119288442Y-110609518D02*
X119354627Y-110616037D01*
X119467853Y-110650384D01*
X119524467Y-110667557D01*
X119663087Y-110741652D01*
X119680991Y-110751222D01*
X119716729Y-110780552D01*
X119818186Y-110863814D01*
X119901448Y-110965271D01*
X119930778Y-111001009D01*
X119930779Y-111001011D01*
X120014443Y-111157533D01*
X120014443Y-111157534D01*
X120065963Y-111327373D01*
X120083359Y-111504000D01*
X120065963Y-111680627D01*
X120031616Y-111793853D01*
X120014443Y-111850467D01*
X119993213Y-111890185D01*
X119930778Y-112006991D01*
X119901448Y-112042729D01*
X119818186Y-112144186D01*
X119716729Y-112227448D01*
X119680991Y-112256778D01*
X119680989Y-112256779D01*
X119524467Y-112340443D01*
X119467853Y-112357616D01*
X119354627Y-112391963D01*
X119288442Y-112398482D01*
X119222260Y-112405000D01*
X119133740Y-112405000D01*
X119067558Y-112398482D01*
X119001373Y-112391963D01*
X118888147Y-112357616D01*
X118831533Y-112340443D01*
X118675011Y-112256779D01*
X118675009Y-112256778D01*
X118639271Y-112227448D01*
X118537814Y-112144186D01*
X118454552Y-112042729D01*
X118425222Y-112006991D01*
X118362787Y-111890185D01*
X118341557Y-111850467D01*
X118324384Y-111793853D01*
X118290037Y-111680627D01*
X118272641Y-111504000D01*
X118290037Y-111327373D01*
X118341557Y-111157534D01*
X118341557Y-111157533D01*
X118425221Y-111001011D01*
X118425222Y-111001009D01*
X118454552Y-110965271D01*
X118537814Y-110863814D01*
X118639271Y-110780552D01*
X118675009Y-110751222D01*
X118692913Y-110741652D01*
X118831533Y-110667557D01*
X118888147Y-110650384D01*
X119001373Y-110616037D01*
X119067558Y-110609518D01*
X119133740Y-110603000D01*
X119222260Y-110603000D01*
X119288442Y-110609518D01*
X119288442Y-110609518D01*
G37*
G36*
X121828442Y-110609518D02*
X121894627Y-110616037D01*
X122007853Y-110650384D01*
X122064467Y-110667557D01*
X122203087Y-110741652D01*
X122220991Y-110751222D01*
X122256729Y-110780552D01*
X122358186Y-110863814D01*
X122441448Y-110965271D01*
X122470778Y-111001009D01*
X122470779Y-111001011D01*
X122554443Y-111157533D01*
X122554443Y-111157534D01*
X122605963Y-111327373D01*
X122623359Y-111504000D01*
X122605963Y-111680627D01*
X122571616Y-111793853D01*
X122554443Y-111850467D01*
X122533213Y-111890185D01*
X122470778Y-112006991D01*
X122441448Y-112042729D01*
X122358186Y-112144186D01*
X122256729Y-112227448D01*
X122220991Y-112256778D01*
X122220989Y-112256779D01*
X122064467Y-112340443D01*
X122007853Y-112357616D01*
X121894627Y-112391963D01*
X121828442Y-112398482D01*
X121762260Y-112405000D01*
X121673740Y-112405000D01*
X121607558Y-112398482D01*
X121541373Y-112391963D01*
X121428147Y-112357616D01*
X121371533Y-112340443D01*
X121215011Y-112256779D01*
X121215009Y-112256778D01*
X121179271Y-112227448D01*
X121077814Y-112144186D01*
X120994552Y-112042729D01*
X120965222Y-112006991D01*
X120902787Y-111890185D01*
X120881557Y-111850467D01*
X120864384Y-111793853D01*
X120830037Y-111680627D01*
X120812641Y-111504000D01*
X120830037Y-111327373D01*
X120881557Y-111157534D01*
X120881557Y-111157533D01*
X120965221Y-111001011D01*
X120965222Y-111001009D01*
X120994552Y-110965271D01*
X121077814Y-110863814D01*
X121179271Y-110780552D01*
X121215009Y-110751222D01*
X121232913Y-110741652D01*
X121371533Y-110667557D01*
X121428147Y-110650384D01*
X121541373Y-110616037D01*
X121607558Y-110609518D01*
X121673740Y-110603000D01*
X121762260Y-110603000D01*
X121828442Y-110609518D01*
X121828442Y-110609518D01*
G37*
G36*
X124368442Y-110609518D02*
X124434627Y-110616037D01*
X124547853Y-110650384D01*
X124604467Y-110667557D01*
X124743087Y-110741652D01*
X124760991Y-110751222D01*
X124796729Y-110780552D01*
X124898186Y-110863814D01*
X124981448Y-110965271D01*
X125010778Y-111001009D01*
X125010779Y-111001011D01*
X125094443Y-111157533D01*
X125094443Y-111157534D01*
X125145963Y-111327373D01*
X125163359Y-111504000D01*
X125145963Y-111680627D01*
X125111616Y-111793853D01*
X125094443Y-111850467D01*
X125073213Y-111890185D01*
X125010778Y-112006991D01*
X124981448Y-112042729D01*
X124898186Y-112144186D01*
X124796729Y-112227448D01*
X124760991Y-112256778D01*
X124760989Y-112256779D01*
X124604467Y-112340443D01*
X124547853Y-112357616D01*
X124434627Y-112391963D01*
X124368442Y-112398482D01*
X124302260Y-112405000D01*
X124213740Y-112405000D01*
X124147558Y-112398482D01*
X124081373Y-112391963D01*
X123968147Y-112357616D01*
X123911533Y-112340443D01*
X123755011Y-112256779D01*
X123755009Y-112256778D01*
X123719271Y-112227448D01*
X123617814Y-112144186D01*
X123534552Y-112042729D01*
X123505222Y-112006991D01*
X123442787Y-111890185D01*
X123421557Y-111850467D01*
X123404384Y-111793853D01*
X123370037Y-111680627D01*
X123352641Y-111504000D01*
X123370037Y-111327373D01*
X123421557Y-111157534D01*
X123421557Y-111157533D01*
X123505221Y-111001011D01*
X123505222Y-111001009D01*
X123534552Y-110965271D01*
X123617814Y-110863814D01*
X123719271Y-110780552D01*
X123755009Y-110751222D01*
X123772913Y-110741652D01*
X123911533Y-110667557D01*
X123968147Y-110650384D01*
X124081373Y-110616037D01*
X124147558Y-110609518D01*
X124213740Y-110603000D01*
X124302260Y-110603000D01*
X124368442Y-110609518D01*
X124368442Y-110609518D01*
G37*
G36*
X130239000Y-112405000D02*
X128437000Y-112405000D01*
X128437000Y-110603000D01*
X130239000Y-110603000D01*
X130239000Y-112405000D01*
X130239000Y-112405000D01*
G37*
G36*
X48168443Y-110355519D02*
X48234627Y-110362037D01*
X48347853Y-110396384D01*
X48404467Y-110413557D01*
X48543087Y-110487652D01*
X48560991Y-110497222D01*
X48596729Y-110526552D01*
X48698186Y-110609814D01*
X48781448Y-110711271D01*
X48810778Y-110747009D01*
X48810779Y-110747011D01*
X48894443Y-110903533D01*
X48894443Y-110903534D01*
X48945963Y-111073373D01*
X48963359Y-111250000D01*
X48945963Y-111426627D01*
X48922492Y-111504000D01*
X48894443Y-111596467D01*
X48849459Y-111680625D01*
X48810778Y-111752991D01*
X48781448Y-111788729D01*
X48698186Y-111890186D01*
X48596729Y-111973448D01*
X48560991Y-112002778D01*
X48560989Y-112002779D01*
X48404467Y-112086443D01*
X48347853Y-112103616D01*
X48234627Y-112137963D01*
X48171453Y-112144185D01*
X48102260Y-112151000D01*
X48013740Y-112151000D01*
X47944547Y-112144185D01*
X47881373Y-112137963D01*
X47768147Y-112103616D01*
X47711533Y-112086443D01*
X47555011Y-112002779D01*
X47555009Y-112002778D01*
X47519271Y-111973448D01*
X47417814Y-111890186D01*
X47334552Y-111788729D01*
X47305222Y-111752991D01*
X47266541Y-111680625D01*
X47221557Y-111596467D01*
X47193508Y-111504000D01*
X47170037Y-111426627D01*
X47152641Y-111250000D01*
X47170037Y-111073373D01*
X47221557Y-110903534D01*
X47221557Y-110903533D01*
X47305221Y-110747011D01*
X47305222Y-110747009D01*
X47334552Y-110711271D01*
X47417814Y-110609814D01*
X47519271Y-110526552D01*
X47555009Y-110497222D01*
X47572913Y-110487652D01*
X47711533Y-110413557D01*
X47768147Y-110396384D01*
X47881373Y-110362037D01*
X47947557Y-110355519D01*
X48013740Y-110349000D01*
X48102260Y-110349000D01*
X48168443Y-110355519D01*
X48168443Y-110355519D01*
G37*
G36*
X45628443Y-110355519D02*
X45694627Y-110362037D01*
X45807853Y-110396384D01*
X45864467Y-110413557D01*
X46003087Y-110487652D01*
X46020991Y-110497222D01*
X46056729Y-110526552D01*
X46158186Y-110609814D01*
X46241448Y-110711271D01*
X46270778Y-110747009D01*
X46270779Y-110747011D01*
X46354443Y-110903533D01*
X46354443Y-110903534D01*
X46405963Y-111073373D01*
X46423359Y-111250000D01*
X46405963Y-111426627D01*
X46382492Y-111504000D01*
X46354443Y-111596467D01*
X46309459Y-111680625D01*
X46270778Y-111752991D01*
X46241448Y-111788729D01*
X46158186Y-111890186D01*
X46056729Y-111973448D01*
X46020991Y-112002778D01*
X46020989Y-112002779D01*
X45864467Y-112086443D01*
X45807853Y-112103616D01*
X45694627Y-112137963D01*
X45631453Y-112144185D01*
X45562260Y-112151000D01*
X45473740Y-112151000D01*
X45404547Y-112144185D01*
X45341373Y-112137963D01*
X45228147Y-112103616D01*
X45171533Y-112086443D01*
X45015011Y-112002779D01*
X45015009Y-112002778D01*
X44979271Y-111973448D01*
X44877814Y-111890186D01*
X44794552Y-111788729D01*
X44765222Y-111752991D01*
X44726541Y-111680625D01*
X44681557Y-111596467D01*
X44653508Y-111504000D01*
X44630037Y-111426627D01*
X44612641Y-111250000D01*
X44630037Y-111073373D01*
X44681557Y-110903534D01*
X44681557Y-110903533D01*
X44765221Y-110747011D01*
X44765222Y-110747009D01*
X44794552Y-110711271D01*
X44877814Y-110609814D01*
X44979271Y-110526552D01*
X45015009Y-110497222D01*
X45032913Y-110487652D01*
X45171533Y-110413557D01*
X45228147Y-110396384D01*
X45341373Y-110362037D01*
X45407557Y-110355519D01*
X45473740Y-110349000D01*
X45562260Y-110349000D01*
X45628443Y-110355519D01*
X45628443Y-110355519D01*
G37*
G36*
X45628443Y-107815519D02*
X45694627Y-107822037D01*
X45807853Y-107856384D01*
X45864467Y-107873557D01*
X46003087Y-107947652D01*
X46020991Y-107957222D01*
X46056729Y-107986552D01*
X46158186Y-108069814D01*
X46241448Y-108171271D01*
X46270778Y-108207009D01*
X46270779Y-108207011D01*
X46354443Y-108363533D01*
X46354443Y-108363534D01*
X46405963Y-108533373D01*
X46423359Y-108710000D01*
X46405963Y-108886627D01*
X46371616Y-108999853D01*
X46354443Y-109056467D01*
X46280348Y-109195087D01*
X46270778Y-109212991D01*
X46241448Y-109248729D01*
X46158186Y-109350186D01*
X46056729Y-109433448D01*
X46020991Y-109462778D01*
X46020989Y-109462779D01*
X45864467Y-109546443D01*
X45807853Y-109563616D01*
X45694627Y-109597963D01*
X45628443Y-109604481D01*
X45562260Y-109611000D01*
X45473740Y-109611000D01*
X45407557Y-109604481D01*
X45341373Y-109597963D01*
X45228147Y-109563616D01*
X45171533Y-109546443D01*
X45015011Y-109462779D01*
X45015009Y-109462778D01*
X44979271Y-109433448D01*
X44877814Y-109350186D01*
X44794552Y-109248729D01*
X44765222Y-109212991D01*
X44755652Y-109195087D01*
X44681557Y-109056467D01*
X44664384Y-108999853D01*
X44630037Y-108886627D01*
X44612641Y-108710000D01*
X44630037Y-108533373D01*
X44681557Y-108363534D01*
X44681557Y-108363533D01*
X44765221Y-108207011D01*
X44765222Y-108207009D01*
X44794552Y-108171271D01*
X44877814Y-108069814D01*
X44979271Y-107986552D01*
X45015009Y-107957222D01*
X45032913Y-107947652D01*
X45171533Y-107873557D01*
X45228147Y-107856384D01*
X45341373Y-107822037D01*
X45407557Y-107815519D01*
X45473740Y-107809000D01*
X45562260Y-107809000D01*
X45628443Y-107815519D01*
X45628443Y-107815519D01*
G37*
G36*
X48168443Y-107815519D02*
X48234627Y-107822037D01*
X48347853Y-107856384D01*
X48404467Y-107873557D01*
X48543087Y-107947652D01*
X48560991Y-107957222D01*
X48596729Y-107986552D01*
X48698186Y-108069814D01*
X48781448Y-108171271D01*
X48810778Y-108207009D01*
X48810779Y-108207011D01*
X48894443Y-108363533D01*
X48894443Y-108363534D01*
X48945963Y-108533373D01*
X48963359Y-108710000D01*
X48945963Y-108886627D01*
X48911616Y-108999853D01*
X48894443Y-109056467D01*
X48820348Y-109195087D01*
X48810778Y-109212991D01*
X48781448Y-109248729D01*
X48698186Y-109350186D01*
X48596729Y-109433448D01*
X48560991Y-109462778D01*
X48560989Y-109462779D01*
X48404467Y-109546443D01*
X48347853Y-109563616D01*
X48234627Y-109597963D01*
X48168443Y-109604481D01*
X48102260Y-109611000D01*
X48013740Y-109611000D01*
X47947557Y-109604481D01*
X47881373Y-109597963D01*
X47768147Y-109563616D01*
X47711533Y-109546443D01*
X47555011Y-109462779D01*
X47555009Y-109462778D01*
X47519271Y-109433448D01*
X47417814Y-109350186D01*
X47334552Y-109248729D01*
X47305222Y-109212991D01*
X47295652Y-109195087D01*
X47221557Y-109056467D01*
X47204384Y-108999853D01*
X47170037Y-108886627D01*
X47152641Y-108710000D01*
X47170037Y-108533373D01*
X47221557Y-108363534D01*
X47221557Y-108363533D01*
X47305221Y-108207011D01*
X47305222Y-108207009D01*
X47334552Y-108171271D01*
X47417814Y-108069814D01*
X47519271Y-107986552D01*
X47555009Y-107957222D01*
X47572913Y-107947652D01*
X47711533Y-107873557D01*
X47768147Y-107856384D01*
X47881373Y-107822037D01*
X47947557Y-107815519D01*
X48013740Y-107809000D01*
X48102260Y-107809000D01*
X48168443Y-107815519D01*
X48168443Y-107815519D01*
G37*
G36*
X141021000Y-103161000D02*
X139219000Y-103161000D01*
X139219000Y-101359000D01*
X141021000Y-101359000D01*
X141021000Y-103161000D01*
X141021000Y-103161000D01*
G37*
G36*
X46110442Y-99845518D02*
X46176627Y-99852037D01*
X46289853Y-99886384D01*
X46346467Y-99903557D01*
X46485087Y-99977652D01*
X46502991Y-99987222D01*
X46538729Y-100016552D01*
X46640186Y-100099814D01*
X46723448Y-100201271D01*
X46752778Y-100237009D01*
X46752779Y-100237011D01*
X46836443Y-100393533D01*
X46836443Y-100393534D01*
X46887963Y-100563373D01*
X46905359Y-100740000D01*
X46887963Y-100916627D01*
X46853616Y-101029853D01*
X46836443Y-101086467D01*
X46762348Y-101225087D01*
X46752778Y-101242991D01*
X46723448Y-101278729D01*
X46640186Y-101380186D01*
X46538729Y-101463448D01*
X46502991Y-101492778D01*
X46502989Y-101492779D01*
X46346467Y-101576443D01*
X46289853Y-101593616D01*
X46176627Y-101627963D01*
X46110442Y-101634482D01*
X46044260Y-101641000D01*
X45955740Y-101641000D01*
X45889558Y-101634482D01*
X45823373Y-101627963D01*
X45710147Y-101593616D01*
X45653533Y-101576443D01*
X45497011Y-101492779D01*
X45497009Y-101492778D01*
X45461271Y-101463448D01*
X45359814Y-101380186D01*
X45276552Y-101278729D01*
X45247222Y-101242991D01*
X45237652Y-101225087D01*
X45163557Y-101086467D01*
X45146384Y-101029853D01*
X45112037Y-100916627D01*
X45094641Y-100740000D01*
X45112037Y-100563373D01*
X45163557Y-100393534D01*
X45163557Y-100393533D01*
X45247221Y-100237011D01*
X45247222Y-100237009D01*
X45276552Y-100201271D01*
X45359814Y-100099814D01*
X45461271Y-100016552D01*
X45497009Y-99987222D01*
X45514913Y-99977652D01*
X45653533Y-99903557D01*
X45710147Y-99886384D01*
X45823373Y-99852037D01*
X45889558Y-99845518D01*
X45955740Y-99839000D01*
X46044260Y-99839000D01*
X46110442Y-99845518D01*
X46110442Y-99845518D01*
G37*
G36*
X140230443Y-98825519D02*
X140296627Y-98832037D01*
X140409853Y-98866384D01*
X140466467Y-98883557D01*
X140595968Y-98952778D01*
X140622991Y-98967222D01*
X140658729Y-98996552D01*
X140760186Y-99079814D01*
X140843448Y-99181271D01*
X140872778Y-99217009D01*
X140872779Y-99217011D01*
X140956443Y-99373533D01*
X140956443Y-99373534D01*
X141007963Y-99543373D01*
X141025359Y-99720000D01*
X141007963Y-99896627D01*
X140980482Y-99987221D01*
X140956443Y-100066467D01*
X140882348Y-100205087D01*
X140872778Y-100222991D01*
X140861272Y-100237011D01*
X140760186Y-100360186D01*
X140658729Y-100443448D01*
X140622991Y-100472778D01*
X140622989Y-100472779D01*
X140466467Y-100556443D01*
X140409853Y-100573616D01*
X140296627Y-100607963D01*
X140230442Y-100614482D01*
X140164260Y-100621000D01*
X140075740Y-100621000D01*
X140009557Y-100614481D01*
X139943373Y-100607963D01*
X139830147Y-100573616D01*
X139773533Y-100556443D01*
X139617011Y-100472779D01*
X139617009Y-100472778D01*
X139581271Y-100443448D01*
X139479814Y-100360186D01*
X139378728Y-100237011D01*
X139367222Y-100222991D01*
X139357652Y-100205087D01*
X139283557Y-100066467D01*
X139259518Y-99987221D01*
X139232037Y-99896627D01*
X139214641Y-99720000D01*
X139232037Y-99543373D01*
X139283557Y-99373534D01*
X139283557Y-99373533D01*
X139367221Y-99217011D01*
X139367222Y-99217009D01*
X139396552Y-99181271D01*
X139479814Y-99079814D01*
X139581271Y-98996552D01*
X139617009Y-98967222D01*
X139644032Y-98952778D01*
X139773533Y-98883557D01*
X139830147Y-98866384D01*
X139943373Y-98832037D01*
X140009557Y-98825519D01*
X140075740Y-98819000D01*
X140164260Y-98819000D01*
X140230443Y-98825519D01*
X140230443Y-98825519D01*
G37*
G36*
X46110443Y-97305519D02*
X46176627Y-97312037D01*
X46289853Y-97346384D01*
X46346467Y-97363557D01*
X46485087Y-97437652D01*
X46502991Y-97447222D01*
X46538729Y-97476552D01*
X46640186Y-97559814D01*
X46723448Y-97661271D01*
X46752778Y-97697009D01*
X46752779Y-97697011D01*
X46836443Y-97853533D01*
X46836443Y-97853534D01*
X46887963Y-98023373D01*
X46905359Y-98200000D01*
X46887963Y-98376627D01*
X46853616Y-98489853D01*
X46836443Y-98546467D01*
X46762348Y-98685087D01*
X46752778Y-98702991D01*
X46723448Y-98738729D01*
X46640186Y-98840186D01*
X46538729Y-98923448D01*
X46502991Y-98952778D01*
X46502989Y-98952779D01*
X46346467Y-99036443D01*
X46289853Y-99053616D01*
X46176627Y-99087963D01*
X46110443Y-99094481D01*
X46044260Y-99101000D01*
X45955740Y-99101000D01*
X45889557Y-99094481D01*
X45823373Y-99087963D01*
X45710147Y-99053616D01*
X45653533Y-99036443D01*
X45497011Y-98952779D01*
X45497009Y-98952778D01*
X45461271Y-98923448D01*
X45359814Y-98840186D01*
X45276552Y-98738729D01*
X45247222Y-98702991D01*
X45237652Y-98685087D01*
X45163557Y-98546467D01*
X45146384Y-98489853D01*
X45112037Y-98376627D01*
X45094641Y-98200000D01*
X45112037Y-98023373D01*
X45163557Y-97853534D01*
X45163557Y-97853533D01*
X45247221Y-97697011D01*
X45247222Y-97697009D01*
X45276552Y-97661271D01*
X45359814Y-97559814D01*
X45461271Y-97476552D01*
X45497009Y-97447222D01*
X45514913Y-97437652D01*
X45653533Y-97363557D01*
X45710147Y-97346384D01*
X45823373Y-97312037D01*
X45889557Y-97305519D01*
X45955740Y-97299000D01*
X46044260Y-97299000D01*
X46110443Y-97305519D01*
X46110443Y-97305519D01*
G37*
G36*
X140230442Y-96285518D02*
X140296627Y-96292037D01*
X140409853Y-96326384D01*
X140466467Y-96343557D01*
X140595968Y-96412778D01*
X140622991Y-96427222D01*
X140658729Y-96456552D01*
X140760186Y-96539814D01*
X140843448Y-96641271D01*
X140872778Y-96677009D01*
X140872779Y-96677011D01*
X140956443Y-96833533D01*
X140956443Y-96833534D01*
X141007963Y-97003373D01*
X141025359Y-97180000D01*
X141007963Y-97356627D01*
X140980482Y-97447221D01*
X140956443Y-97526467D01*
X140882348Y-97665087D01*
X140872778Y-97682991D01*
X140861272Y-97697011D01*
X140760186Y-97820186D01*
X140658729Y-97903448D01*
X140622991Y-97932778D01*
X140622989Y-97932779D01*
X140466467Y-98016443D01*
X140409853Y-98033616D01*
X140296627Y-98067963D01*
X140230442Y-98074482D01*
X140164260Y-98081000D01*
X140075740Y-98081000D01*
X140009558Y-98074482D01*
X139943373Y-98067963D01*
X139830147Y-98033616D01*
X139773533Y-98016443D01*
X139617011Y-97932779D01*
X139617009Y-97932778D01*
X139581271Y-97903448D01*
X139479814Y-97820186D01*
X139378728Y-97697011D01*
X139367222Y-97682991D01*
X139357652Y-97665087D01*
X139283557Y-97526467D01*
X139259518Y-97447221D01*
X139232037Y-97356627D01*
X139214641Y-97180000D01*
X139232037Y-97003373D01*
X139283557Y-96833534D01*
X139283557Y-96833533D01*
X139367221Y-96677011D01*
X139367222Y-96677009D01*
X139396552Y-96641271D01*
X139479814Y-96539814D01*
X139581271Y-96456552D01*
X139617009Y-96427222D01*
X139644032Y-96412778D01*
X139773533Y-96343557D01*
X139830147Y-96326384D01*
X139943373Y-96292037D01*
X140009557Y-96285519D01*
X140075740Y-96279000D01*
X140164260Y-96279000D01*
X140230442Y-96285518D01*
X140230442Y-96285518D01*
G37*
G36*
X69250442Y-95115518D02*
X69316627Y-95122037D01*
X69429853Y-95156384D01*
X69486467Y-95173557D01*
X69625087Y-95247652D01*
X69642991Y-95257222D01*
X69678729Y-95286552D01*
X69780186Y-95369814D01*
X69863448Y-95471271D01*
X69892778Y-95507009D01*
X69892779Y-95507011D01*
X69976443Y-95663533D01*
X69976443Y-95663534D01*
X70027963Y-95833373D01*
X70045359Y-96010000D01*
X70027963Y-96186627D01*
X69999942Y-96279000D01*
X69976443Y-96356467D01*
X69938623Y-96427222D01*
X69892778Y-96512991D01*
X69870765Y-96539814D01*
X69780186Y-96650186D01*
X69678729Y-96733448D01*
X69642991Y-96762778D01*
X69642989Y-96762779D01*
X69486467Y-96846443D01*
X69429853Y-96863616D01*
X69316627Y-96897963D01*
X69250442Y-96904482D01*
X69184260Y-96911000D01*
X69095740Y-96911000D01*
X69029558Y-96904482D01*
X68963373Y-96897963D01*
X68850147Y-96863616D01*
X68793533Y-96846443D01*
X68637011Y-96762779D01*
X68637009Y-96762778D01*
X68601271Y-96733448D01*
X68499814Y-96650186D01*
X68409235Y-96539814D01*
X68387222Y-96512991D01*
X68341377Y-96427222D01*
X68303557Y-96356467D01*
X68280058Y-96279000D01*
X68252037Y-96186627D01*
X68234641Y-96010000D01*
X68252037Y-95833373D01*
X68303557Y-95663534D01*
X68303557Y-95663533D01*
X68387221Y-95507011D01*
X68387222Y-95507009D01*
X68416552Y-95471271D01*
X68499814Y-95369814D01*
X68601271Y-95286552D01*
X68637009Y-95257222D01*
X68654913Y-95247652D01*
X68793533Y-95173557D01*
X68850147Y-95156384D01*
X68963373Y-95122037D01*
X69029558Y-95115518D01*
X69095740Y-95109000D01*
X69184260Y-95109000D01*
X69250442Y-95115518D01*
X69250442Y-95115518D01*
G37*
G36*
X66710442Y-95115518D02*
X66776627Y-95122037D01*
X66889853Y-95156384D01*
X66946467Y-95173557D01*
X67085087Y-95247652D01*
X67102991Y-95257222D01*
X67138729Y-95286552D01*
X67240186Y-95369814D01*
X67323448Y-95471271D01*
X67352778Y-95507009D01*
X67352779Y-95507011D01*
X67436443Y-95663533D01*
X67436443Y-95663534D01*
X67487963Y-95833373D01*
X67505359Y-96010000D01*
X67487963Y-96186627D01*
X67459942Y-96279000D01*
X67436443Y-96356467D01*
X67398623Y-96427222D01*
X67352778Y-96512991D01*
X67330765Y-96539814D01*
X67240186Y-96650186D01*
X67138729Y-96733448D01*
X67102991Y-96762778D01*
X67102989Y-96762779D01*
X66946467Y-96846443D01*
X66889853Y-96863616D01*
X66776627Y-96897963D01*
X66710442Y-96904482D01*
X66644260Y-96911000D01*
X66555740Y-96911000D01*
X66489558Y-96904482D01*
X66423373Y-96897963D01*
X66310147Y-96863616D01*
X66253533Y-96846443D01*
X66097011Y-96762779D01*
X66097009Y-96762778D01*
X66061271Y-96733448D01*
X65959814Y-96650186D01*
X65869235Y-96539814D01*
X65847222Y-96512991D01*
X65801377Y-96427222D01*
X65763557Y-96356467D01*
X65740058Y-96279000D01*
X65712037Y-96186627D01*
X65694641Y-96010000D01*
X65712037Y-95833373D01*
X65763557Y-95663534D01*
X65763557Y-95663533D01*
X65847221Y-95507011D01*
X65847222Y-95507009D01*
X65876552Y-95471271D01*
X65959814Y-95369814D01*
X66061271Y-95286552D01*
X66097009Y-95257222D01*
X66114913Y-95247652D01*
X66253533Y-95173557D01*
X66310147Y-95156384D01*
X66423373Y-95122037D01*
X66489558Y-95115518D01*
X66555740Y-95109000D01*
X66644260Y-95109000D01*
X66710442Y-95115518D01*
X66710442Y-95115518D01*
G37*
G36*
X64170442Y-95115518D02*
X64236627Y-95122037D01*
X64349853Y-95156384D01*
X64406467Y-95173557D01*
X64545087Y-95247652D01*
X64562991Y-95257222D01*
X64598729Y-95286552D01*
X64700186Y-95369814D01*
X64783448Y-95471271D01*
X64812778Y-95507009D01*
X64812779Y-95507011D01*
X64896443Y-95663533D01*
X64896443Y-95663534D01*
X64947963Y-95833373D01*
X64965359Y-96010000D01*
X64947963Y-96186627D01*
X64919942Y-96279000D01*
X64896443Y-96356467D01*
X64858623Y-96427222D01*
X64812778Y-96512991D01*
X64790765Y-96539814D01*
X64700186Y-96650186D01*
X64598729Y-96733448D01*
X64562991Y-96762778D01*
X64562989Y-96762779D01*
X64406467Y-96846443D01*
X64349853Y-96863616D01*
X64236627Y-96897963D01*
X64170442Y-96904482D01*
X64104260Y-96911000D01*
X64015740Y-96911000D01*
X63949558Y-96904482D01*
X63883373Y-96897963D01*
X63770147Y-96863616D01*
X63713533Y-96846443D01*
X63557011Y-96762779D01*
X63557009Y-96762778D01*
X63521271Y-96733448D01*
X63419814Y-96650186D01*
X63329235Y-96539814D01*
X63307222Y-96512991D01*
X63261377Y-96427222D01*
X63223557Y-96356467D01*
X63200058Y-96279000D01*
X63172037Y-96186627D01*
X63154641Y-96010000D01*
X63172037Y-95833373D01*
X63223557Y-95663534D01*
X63223557Y-95663533D01*
X63307221Y-95507011D01*
X63307222Y-95507009D01*
X63336552Y-95471271D01*
X63419814Y-95369814D01*
X63521271Y-95286552D01*
X63557009Y-95257222D01*
X63574913Y-95247652D01*
X63713533Y-95173557D01*
X63770147Y-95156384D01*
X63883373Y-95122037D01*
X63949558Y-95115518D01*
X64015740Y-95109000D01*
X64104260Y-95109000D01*
X64170442Y-95115518D01*
X64170442Y-95115518D01*
G37*
G36*
X61630442Y-95115518D02*
X61696627Y-95122037D01*
X61809853Y-95156384D01*
X61866467Y-95173557D01*
X62005087Y-95247652D01*
X62022991Y-95257222D01*
X62058729Y-95286552D01*
X62160186Y-95369814D01*
X62243448Y-95471271D01*
X62272778Y-95507009D01*
X62272779Y-95507011D01*
X62356443Y-95663533D01*
X62356443Y-95663534D01*
X62407963Y-95833373D01*
X62425359Y-96010000D01*
X62407963Y-96186627D01*
X62379942Y-96279000D01*
X62356443Y-96356467D01*
X62318623Y-96427222D01*
X62272778Y-96512991D01*
X62250765Y-96539814D01*
X62160186Y-96650186D01*
X62058729Y-96733448D01*
X62022991Y-96762778D01*
X62022989Y-96762779D01*
X61866467Y-96846443D01*
X61809853Y-96863616D01*
X61696627Y-96897963D01*
X61630442Y-96904482D01*
X61564260Y-96911000D01*
X61475740Y-96911000D01*
X61409558Y-96904482D01*
X61343373Y-96897963D01*
X61230147Y-96863616D01*
X61173533Y-96846443D01*
X61017011Y-96762779D01*
X61017009Y-96762778D01*
X60981271Y-96733448D01*
X60879814Y-96650186D01*
X60789235Y-96539814D01*
X60767222Y-96512991D01*
X60721377Y-96427222D01*
X60683557Y-96356467D01*
X60660058Y-96279000D01*
X60632037Y-96186627D01*
X60614641Y-96010000D01*
X60632037Y-95833373D01*
X60683557Y-95663534D01*
X60683557Y-95663533D01*
X60767221Y-95507011D01*
X60767222Y-95507009D01*
X60796552Y-95471271D01*
X60879814Y-95369814D01*
X60981271Y-95286552D01*
X61017009Y-95257222D01*
X61034913Y-95247652D01*
X61173533Y-95173557D01*
X61230147Y-95156384D01*
X61343373Y-95122037D01*
X61409558Y-95115518D01*
X61475740Y-95109000D01*
X61564260Y-95109000D01*
X61630442Y-95115518D01*
X61630442Y-95115518D01*
G37*
G36*
X46110442Y-94765518D02*
X46176627Y-94772037D01*
X46289853Y-94806384D01*
X46346467Y-94823557D01*
X46485087Y-94897652D01*
X46502991Y-94907222D01*
X46538729Y-94936552D01*
X46640186Y-95019814D01*
X46713378Y-95109000D01*
X46752778Y-95157009D01*
X46752779Y-95157011D01*
X46836443Y-95313533D01*
X46836443Y-95313534D01*
X46887963Y-95483373D01*
X46905359Y-95660000D01*
X46887963Y-95836627D01*
X46853616Y-95949853D01*
X46836443Y-96006467D01*
X46762348Y-96145087D01*
X46752778Y-96162991D01*
X46733382Y-96186625D01*
X46640186Y-96300186D01*
X46571606Y-96356467D01*
X46502991Y-96412778D01*
X46502989Y-96412779D01*
X46346467Y-96496443D01*
X46291921Y-96512989D01*
X46176627Y-96547963D01*
X46110443Y-96554481D01*
X46044260Y-96561000D01*
X45955740Y-96561000D01*
X45889557Y-96554481D01*
X45823373Y-96547963D01*
X45708079Y-96512989D01*
X45653533Y-96496443D01*
X45497011Y-96412779D01*
X45497009Y-96412778D01*
X45428394Y-96356467D01*
X45359814Y-96300186D01*
X45266618Y-96186625D01*
X45247222Y-96162991D01*
X45237652Y-96145087D01*
X45163557Y-96006467D01*
X45146384Y-95949853D01*
X45112037Y-95836627D01*
X45094641Y-95660000D01*
X45112037Y-95483373D01*
X45163557Y-95313534D01*
X45163557Y-95313533D01*
X45247221Y-95157011D01*
X45247222Y-95157009D01*
X45286622Y-95109000D01*
X45359814Y-95019814D01*
X45461271Y-94936552D01*
X45497009Y-94907222D01*
X45514913Y-94897652D01*
X45653533Y-94823557D01*
X45710147Y-94806384D01*
X45823373Y-94772037D01*
X45889558Y-94765518D01*
X45955740Y-94759000D01*
X46044260Y-94759000D01*
X46110442Y-94765518D01*
X46110442Y-94765518D01*
G37*
G36*
X140230442Y-93745518D02*
X140296627Y-93752037D01*
X140409853Y-93786384D01*
X140466467Y-93803557D01*
X140595968Y-93872778D01*
X140622991Y-93887222D01*
X140658729Y-93916552D01*
X140760186Y-93999814D01*
X140843448Y-94101271D01*
X140872778Y-94137009D01*
X140872779Y-94137011D01*
X140956443Y-94293533D01*
X140956443Y-94293534D01*
X141007963Y-94463373D01*
X141025359Y-94640000D01*
X141007963Y-94816627D01*
X140980482Y-94907221D01*
X140956443Y-94986467D01*
X140890947Y-95109000D01*
X140872778Y-95142991D01*
X140861272Y-95157011D01*
X140760186Y-95280186D01*
X140658729Y-95363448D01*
X140622991Y-95392778D01*
X140622989Y-95392779D01*
X140466467Y-95476443D01*
X140409853Y-95493616D01*
X140296627Y-95527963D01*
X140230443Y-95534481D01*
X140164260Y-95541000D01*
X140075740Y-95541000D01*
X140009557Y-95534481D01*
X139943373Y-95527963D01*
X139830147Y-95493616D01*
X139773533Y-95476443D01*
X139617011Y-95392779D01*
X139617009Y-95392778D01*
X139581271Y-95363448D01*
X139479814Y-95280186D01*
X139378728Y-95157011D01*
X139367222Y-95142991D01*
X139349053Y-95109000D01*
X139283557Y-94986467D01*
X139259518Y-94907221D01*
X139232037Y-94816627D01*
X139214641Y-94640000D01*
X139232037Y-94463373D01*
X139283557Y-94293534D01*
X139283557Y-94293533D01*
X139367221Y-94137011D01*
X139367222Y-94137009D01*
X139396552Y-94101271D01*
X139479814Y-93999814D01*
X139581271Y-93916552D01*
X139617009Y-93887222D01*
X139644032Y-93872778D01*
X139773533Y-93803557D01*
X139830147Y-93786384D01*
X139943373Y-93752037D01*
X140009558Y-93745518D01*
X140075740Y-93739000D01*
X140164260Y-93739000D01*
X140230442Y-93745518D01*
X140230442Y-93745518D01*
G37*
G36*
X69250443Y-92575519D02*
X69316627Y-92582037D01*
X69429853Y-92616384D01*
X69486467Y-92633557D01*
X69625087Y-92707652D01*
X69642991Y-92717222D01*
X69678729Y-92746552D01*
X69780186Y-92829814D01*
X69863448Y-92931271D01*
X69892778Y-92967009D01*
X69892779Y-92967011D01*
X69976443Y-93123533D01*
X69976443Y-93123534D01*
X70027963Y-93293373D01*
X70045359Y-93470000D01*
X70027963Y-93646627D01*
X69999942Y-93739000D01*
X69976443Y-93816467D01*
X69938623Y-93887222D01*
X69892778Y-93972991D01*
X69870765Y-93999814D01*
X69780186Y-94110186D01*
X69678729Y-94193448D01*
X69642991Y-94222778D01*
X69642989Y-94222779D01*
X69486467Y-94306443D01*
X69429853Y-94323616D01*
X69316627Y-94357963D01*
X69250443Y-94364481D01*
X69184260Y-94371000D01*
X69095740Y-94371000D01*
X69029557Y-94364481D01*
X68963373Y-94357963D01*
X68850147Y-94323616D01*
X68793533Y-94306443D01*
X68637011Y-94222779D01*
X68637009Y-94222778D01*
X68601271Y-94193448D01*
X68499814Y-94110186D01*
X68409235Y-93999814D01*
X68387222Y-93972991D01*
X68341377Y-93887222D01*
X68303557Y-93816467D01*
X68280058Y-93739000D01*
X68252037Y-93646627D01*
X68234641Y-93470000D01*
X68252037Y-93293373D01*
X68303557Y-93123534D01*
X68303557Y-93123533D01*
X68387221Y-92967011D01*
X68387222Y-92967009D01*
X68416552Y-92931271D01*
X68499814Y-92829814D01*
X68601271Y-92746552D01*
X68637009Y-92717222D01*
X68654913Y-92707652D01*
X68793533Y-92633557D01*
X68850147Y-92616384D01*
X68963373Y-92582037D01*
X69029557Y-92575519D01*
X69095740Y-92569000D01*
X69184260Y-92569000D01*
X69250443Y-92575519D01*
X69250443Y-92575519D01*
G37*
G36*
X62421000Y-94371000D02*
X60619000Y-94371000D01*
X60619000Y-92569000D01*
X62421000Y-92569000D01*
X62421000Y-94371000D01*
X62421000Y-94371000D01*
G37*
G36*
X64170443Y-92575519D02*
X64236627Y-92582037D01*
X64349853Y-92616384D01*
X64406467Y-92633557D01*
X64545087Y-92707652D01*
X64562991Y-92717222D01*
X64598729Y-92746552D01*
X64700186Y-92829814D01*
X64783448Y-92931271D01*
X64812778Y-92967009D01*
X64812779Y-92967011D01*
X64896443Y-93123533D01*
X64896443Y-93123534D01*
X64947963Y-93293373D01*
X64965359Y-93470000D01*
X64947963Y-93646627D01*
X64919942Y-93739000D01*
X64896443Y-93816467D01*
X64858623Y-93887222D01*
X64812778Y-93972991D01*
X64790765Y-93999814D01*
X64700186Y-94110186D01*
X64598729Y-94193448D01*
X64562991Y-94222778D01*
X64562989Y-94222779D01*
X64406467Y-94306443D01*
X64349853Y-94323616D01*
X64236627Y-94357963D01*
X64170443Y-94364481D01*
X64104260Y-94371000D01*
X64015740Y-94371000D01*
X63949557Y-94364481D01*
X63883373Y-94357963D01*
X63770147Y-94323616D01*
X63713533Y-94306443D01*
X63557011Y-94222779D01*
X63557009Y-94222778D01*
X63521271Y-94193448D01*
X63419814Y-94110186D01*
X63329235Y-93999814D01*
X63307222Y-93972991D01*
X63261377Y-93887222D01*
X63223557Y-93816467D01*
X63200058Y-93739000D01*
X63172037Y-93646627D01*
X63154641Y-93470000D01*
X63172037Y-93293373D01*
X63223557Y-93123534D01*
X63223557Y-93123533D01*
X63307221Y-92967011D01*
X63307222Y-92967009D01*
X63336552Y-92931271D01*
X63419814Y-92829814D01*
X63521271Y-92746552D01*
X63557009Y-92717222D01*
X63574913Y-92707652D01*
X63713533Y-92633557D01*
X63770147Y-92616384D01*
X63883373Y-92582037D01*
X63949557Y-92575519D01*
X64015740Y-92569000D01*
X64104260Y-92569000D01*
X64170443Y-92575519D01*
X64170443Y-92575519D01*
G37*
G36*
X66710443Y-92575519D02*
X66776627Y-92582037D01*
X66889853Y-92616384D01*
X66946467Y-92633557D01*
X67085087Y-92707652D01*
X67102991Y-92717222D01*
X67138729Y-92746552D01*
X67240186Y-92829814D01*
X67323448Y-92931271D01*
X67352778Y-92967009D01*
X67352779Y-92967011D01*
X67436443Y-93123533D01*
X67436443Y-93123534D01*
X67487963Y-93293373D01*
X67505359Y-93470000D01*
X67487963Y-93646627D01*
X67459942Y-93739000D01*
X67436443Y-93816467D01*
X67398623Y-93887222D01*
X67352778Y-93972991D01*
X67330765Y-93999814D01*
X67240186Y-94110186D01*
X67138729Y-94193448D01*
X67102991Y-94222778D01*
X67102989Y-94222779D01*
X66946467Y-94306443D01*
X66889853Y-94323616D01*
X66776627Y-94357963D01*
X66710443Y-94364481D01*
X66644260Y-94371000D01*
X66555740Y-94371000D01*
X66489557Y-94364481D01*
X66423373Y-94357963D01*
X66310147Y-94323616D01*
X66253533Y-94306443D01*
X66097011Y-94222779D01*
X66097009Y-94222778D01*
X66061271Y-94193448D01*
X65959814Y-94110186D01*
X65869235Y-93999814D01*
X65847222Y-93972991D01*
X65801377Y-93887222D01*
X65763557Y-93816467D01*
X65740058Y-93739000D01*
X65712037Y-93646627D01*
X65694641Y-93470000D01*
X65712037Y-93293373D01*
X65763557Y-93123534D01*
X65763557Y-93123533D01*
X65847221Y-92967011D01*
X65847222Y-92967009D01*
X65876552Y-92931271D01*
X65959814Y-92829814D01*
X66061271Y-92746552D01*
X66097009Y-92717222D01*
X66114913Y-92707652D01*
X66253533Y-92633557D01*
X66310147Y-92616384D01*
X66423373Y-92582037D01*
X66489557Y-92575519D01*
X66555740Y-92569000D01*
X66644260Y-92569000D01*
X66710443Y-92575519D01*
X66710443Y-92575519D01*
G37*
G36*
X46110443Y-92225519D02*
X46176627Y-92232037D01*
X46289853Y-92266384D01*
X46346467Y-92283557D01*
X46485087Y-92357652D01*
X46502991Y-92367222D01*
X46519482Y-92380756D01*
X46640186Y-92479814D01*
X46713378Y-92569000D01*
X46752778Y-92617009D01*
X46752779Y-92617011D01*
X46836443Y-92773533D01*
X46836443Y-92773534D01*
X46887963Y-92943373D01*
X46905359Y-93120000D01*
X46887963Y-93296627D01*
X46853616Y-93409853D01*
X46836443Y-93466467D01*
X46793564Y-93546686D01*
X46752778Y-93622991D01*
X46733382Y-93646625D01*
X46640186Y-93760186D01*
X46571606Y-93816467D01*
X46502991Y-93872778D01*
X46502989Y-93872779D01*
X46346467Y-93956443D01*
X46291921Y-93972989D01*
X46176627Y-94007963D01*
X46110442Y-94014482D01*
X46044260Y-94021000D01*
X45955740Y-94021000D01*
X45889558Y-94014482D01*
X45823373Y-94007963D01*
X45708079Y-93972989D01*
X45653533Y-93956443D01*
X45497011Y-93872779D01*
X45497009Y-93872778D01*
X45428394Y-93816467D01*
X45359814Y-93760186D01*
X45266618Y-93646625D01*
X45247222Y-93622991D01*
X45206436Y-93546686D01*
X45163557Y-93466467D01*
X45146384Y-93409853D01*
X45112037Y-93296627D01*
X45094641Y-93120000D01*
X45112037Y-92943373D01*
X45163557Y-92773534D01*
X45163557Y-92773533D01*
X45247221Y-92617011D01*
X45247222Y-92617009D01*
X45286622Y-92569000D01*
X45359814Y-92479814D01*
X45480518Y-92380756D01*
X45497009Y-92367222D01*
X45514913Y-92357652D01*
X45653533Y-92283557D01*
X45710147Y-92266384D01*
X45823373Y-92232037D01*
X45889557Y-92225519D01*
X45955740Y-92219000D01*
X46044260Y-92219000D01*
X46110443Y-92225519D01*
X46110443Y-92225519D01*
G37*
G36*
X101564821Y-91869313D02*
X101564824Y-91869314D01*
X101564825Y-91869314D01*
X101725239Y-91917975D01*
X101725241Y-91917976D01*
X101725244Y-91917977D01*
X101873078Y-91996995D01*
X102002659Y-92103341D01*
X102109005Y-92232922D01*
X102188023Y-92380756D01*
X102188024Y-92380759D01*
X102188025Y-92380761D01*
X102236686Y-92541175D01*
X102236687Y-92541179D01*
X102253117Y-92708000D01*
X102236687Y-92874821D01*
X102236686Y-92874824D01*
X102236686Y-92874825D01*
X102208722Y-92967011D01*
X102188023Y-93035244D01*
X102109005Y-93183078D01*
X102002659Y-93312659D01*
X101873078Y-93419005D01*
X101725244Y-93498023D01*
X101725241Y-93498024D01*
X101725239Y-93498025D01*
X101564825Y-93546686D01*
X101564824Y-93546686D01*
X101564821Y-93546687D01*
X101439804Y-93559000D01*
X101356196Y-93559000D01*
X101231179Y-93546687D01*
X101231176Y-93546686D01*
X101231175Y-93546686D01*
X101070761Y-93498025D01*
X101070759Y-93498024D01*
X101070756Y-93498023D01*
X100922922Y-93419005D01*
X100793341Y-93312659D01*
X100686995Y-93183078D01*
X100607977Y-93035244D01*
X100587279Y-92967011D01*
X100559314Y-92874825D01*
X100559314Y-92874824D01*
X100559313Y-92874821D01*
X100542883Y-92708000D01*
X100559313Y-92541179D01*
X100559314Y-92541175D01*
X100607975Y-92380761D01*
X100607976Y-92380759D01*
X100607977Y-92380756D01*
X100686995Y-92232922D01*
X100793341Y-92103341D01*
X100922922Y-91996995D01*
X101070756Y-91917977D01*
X101070759Y-91917976D01*
X101070761Y-91917975D01*
X101231175Y-91869314D01*
X101231176Y-91869314D01*
X101231179Y-91869313D01*
X101356196Y-91857000D01*
X101439804Y-91857000D01*
X101564821Y-91869313D01*
X101564821Y-91869313D01*
G37*
G36*
X86324821Y-91869313D02*
X86324824Y-91869314D01*
X86324825Y-91869314D01*
X86485239Y-91917975D01*
X86485241Y-91917976D01*
X86485244Y-91917977D01*
X86633078Y-91996995D01*
X86762659Y-92103341D01*
X86869005Y-92232922D01*
X86948023Y-92380756D01*
X86948024Y-92380759D01*
X86948025Y-92380761D01*
X86996686Y-92541175D01*
X86996687Y-92541179D01*
X87013117Y-92708000D01*
X86996687Y-92874821D01*
X86996686Y-92874824D01*
X86996686Y-92874825D01*
X86968722Y-92967011D01*
X86948023Y-93035244D01*
X86869005Y-93183078D01*
X86762659Y-93312659D01*
X86633078Y-93419005D01*
X86485244Y-93498023D01*
X86485241Y-93498024D01*
X86485239Y-93498025D01*
X86324825Y-93546686D01*
X86324824Y-93546686D01*
X86324821Y-93546687D01*
X86199804Y-93559000D01*
X86116196Y-93559000D01*
X85991179Y-93546687D01*
X85991176Y-93546686D01*
X85991175Y-93546686D01*
X85830761Y-93498025D01*
X85830759Y-93498024D01*
X85830756Y-93498023D01*
X85682922Y-93419005D01*
X85553341Y-93312659D01*
X85446995Y-93183078D01*
X85367977Y-93035244D01*
X85347279Y-92967011D01*
X85319314Y-92874825D01*
X85319314Y-92874824D01*
X85319313Y-92874821D01*
X85302883Y-92708000D01*
X85319313Y-92541179D01*
X85319314Y-92541175D01*
X85367975Y-92380761D01*
X85367976Y-92380759D01*
X85367977Y-92380756D01*
X85446995Y-92232922D01*
X85553341Y-92103341D01*
X85682922Y-91996995D01*
X85830756Y-91917977D01*
X85830759Y-91917976D01*
X85830761Y-91917975D01*
X85991175Y-91869314D01*
X85991176Y-91869314D01*
X85991179Y-91869313D01*
X86116196Y-91857000D01*
X86199804Y-91857000D01*
X86324821Y-91869313D01*
X86324821Y-91869313D01*
G37*
G36*
X121126467Y-86837975D02*
X121531606Y-86918562D01*
X122050455Y-87133476D01*
X122300814Y-87300761D01*
X122517410Y-87445486D01*
X122914514Y-87842590D01*
X122914516Y-87842593D01*
X123226524Y-88309545D01*
X123441438Y-88828394D01*
X123461243Y-88927963D01*
X123538628Y-89317000D01*
X123551000Y-89379201D01*
X123551000Y-89940799D01*
X123441438Y-90491606D01*
X123226524Y-91010455D01*
X122955251Y-91416443D01*
X122914514Y-91477410D01*
X122517410Y-91874514D01*
X122517407Y-91874516D01*
X122050455Y-92186524D01*
X121531606Y-92401438D01*
X120980800Y-92511000D01*
X120419200Y-92511000D01*
X119868394Y-92401438D01*
X119349545Y-92186524D01*
X118882593Y-91874516D01*
X118882590Y-91874514D01*
X118485486Y-91477410D01*
X118444749Y-91416443D01*
X118173476Y-91010455D01*
X117958562Y-90491606D01*
X117849000Y-89940799D01*
X117849000Y-89379201D01*
X117861373Y-89317000D01*
X117938757Y-88927963D01*
X117958562Y-88828394D01*
X118173476Y-88309545D01*
X118485484Y-87842593D01*
X118485486Y-87842590D01*
X118882590Y-87445486D01*
X119099186Y-87300761D01*
X119349545Y-87133476D01*
X119868394Y-86918562D01*
X120273533Y-86837975D01*
X120419200Y-86809000D01*
X120980800Y-86809000D01*
X121126467Y-86837975D01*
X121126467Y-86837975D01*
G37*
G36*
X46110443Y-89685519D02*
X46176627Y-89692037D01*
X46289853Y-89726384D01*
X46346467Y-89743557D01*
X46485087Y-89817652D01*
X46502991Y-89827222D01*
X46519482Y-89840756D01*
X46640186Y-89939814D01*
X46723448Y-90041271D01*
X46752778Y-90077009D01*
X46752779Y-90077011D01*
X46836443Y-90233533D01*
X46836443Y-90233534D01*
X46887963Y-90403373D01*
X46905359Y-90580000D01*
X46887963Y-90756627D01*
X46853616Y-90869853D01*
X46836443Y-90926467D01*
X46793564Y-91006686D01*
X46752778Y-91082991D01*
X46723448Y-91118729D01*
X46640186Y-91220186D01*
X46538729Y-91303448D01*
X46502991Y-91332778D01*
X46502989Y-91332779D01*
X46346467Y-91416443D01*
X46289853Y-91433616D01*
X46176627Y-91467963D01*
X46110442Y-91474482D01*
X46044260Y-91481000D01*
X45955740Y-91481000D01*
X45889558Y-91474482D01*
X45823373Y-91467963D01*
X45710147Y-91433616D01*
X45653533Y-91416443D01*
X45497011Y-91332779D01*
X45497009Y-91332778D01*
X45461271Y-91303448D01*
X45359814Y-91220186D01*
X45276552Y-91118729D01*
X45247222Y-91082991D01*
X45206436Y-91006686D01*
X45163557Y-90926467D01*
X45146384Y-90869853D01*
X45112037Y-90756627D01*
X45094641Y-90580000D01*
X45112037Y-90403373D01*
X45163557Y-90233534D01*
X45163557Y-90233533D01*
X45247221Y-90077011D01*
X45247222Y-90077009D01*
X45276552Y-90041271D01*
X45359814Y-89939814D01*
X45480518Y-89840756D01*
X45497009Y-89827222D01*
X45514913Y-89817652D01*
X45653533Y-89743557D01*
X45710147Y-89726384D01*
X45823373Y-89692037D01*
X45889557Y-89685519D01*
X45955740Y-89679000D01*
X46044260Y-89679000D01*
X46110443Y-89685519D01*
X46110443Y-89685519D01*
G37*
G36*
X101564821Y-89329313D02*
X101564824Y-89329314D01*
X101564825Y-89329314D01*
X101725239Y-89377975D01*
X101725241Y-89377976D01*
X101725244Y-89377977D01*
X101873078Y-89456995D01*
X102002659Y-89563341D01*
X102109005Y-89692922D01*
X102188023Y-89840756D01*
X102188024Y-89840759D01*
X102188025Y-89840761D01*
X102218371Y-89940799D01*
X102236687Y-90001179D01*
X102253117Y-90168000D01*
X102236687Y-90334821D01*
X102236686Y-90334824D01*
X102236686Y-90334825D01*
X102215892Y-90403375D01*
X102188023Y-90495244D01*
X102109005Y-90643078D01*
X102002659Y-90772659D01*
X101873078Y-90879005D01*
X101725244Y-90958023D01*
X101725241Y-90958024D01*
X101725239Y-90958025D01*
X101564825Y-91006686D01*
X101564824Y-91006686D01*
X101564821Y-91006687D01*
X101439804Y-91019000D01*
X101356196Y-91019000D01*
X101231179Y-91006687D01*
X101231176Y-91006686D01*
X101231175Y-91006686D01*
X101070761Y-90958025D01*
X101070759Y-90958024D01*
X101070756Y-90958023D01*
X100922922Y-90879005D01*
X100793341Y-90772659D01*
X100686995Y-90643078D01*
X100607977Y-90495244D01*
X100580109Y-90403375D01*
X100559314Y-90334825D01*
X100559314Y-90334824D01*
X100559313Y-90334821D01*
X100542883Y-90168000D01*
X100559313Y-90001179D01*
X100577629Y-89940799D01*
X100607975Y-89840761D01*
X100607976Y-89840759D01*
X100607977Y-89840756D01*
X100686995Y-89692922D01*
X100793341Y-89563341D01*
X100922922Y-89456995D01*
X101070756Y-89377977D01*
X101070759Y-89377976D01*
X101070761Y-89377975D01*
X101231175Y-89329314D01*
X101231176Y-89329314D01*
X101231179Y-89329313D01*
X101356196Y-89317000D01*
X101439804Y-89317000D01*
X101564821Y-89329313D01*
X101564821Y-89329313D01*
G37*
G36*
X86324821Y-89329313D02*
X86324824Y-89329314D01*
X86324825Y-89329314D01*
X86485239Y-89377975D01*
X86485241Y-89377976D01*
X86485244Y-89377977D01*
X86633078Y-89456995D01*
X86762659Y-89563341D01*
X86869005Y-89692922D01*
X86948023Y-89840756D01*
X86948024Y-89840759D01*
X86948025Y-89840761D01*
X86978371Y-89940799D01*
X86996687Y-90001179D01*
X87013117Y-90168000D01*
X86996687Y-90334821D01*
X86996686Y-90334824D01*
X86996686Y-90334825D01*
X86975892Y-90403375D01*
X86948023Y-90495244D01*
X86869005Y-90643078D01*
X86762659Y-90772659D01*
X86633078Y-90879005D01*
X86485244Y-90958023D01*
X86485241Y-90958024D01*
X86485239Y-90958025D01*
X86324825Y-91006686D01*
X86324824Y-91006686D01*
X86324821Y-91006687D01*
X86199804Y-91019000D01*
X86116196Y-91019000D01*
X85991179Y-91006687D01*
X85991176Y-91006686D01*
X85991175Y-91006686D01*
X85830761Y-90958025D01*
X85830759Y-90958024D01*
X85830756Y-90958023D01*
X85682922Y-90879005D01*
X85553341Y-90772659D01*
X85446995Y-90643078D01*
X85367977Y-90495244D01*
X85340109Y-90403375D01*
X85319314Y-90334825D01*
X85319314Y-90334824D01*
X85319313Y-90334821D01*
X85302883Y-90168000D01*
X85319313Y-90001179D01*
X85337629Y-89940799D01*
X85367975Y-89840761D01*
X85367976Y-89840759D01*
X85367977Y-89840756D01*
X85446995Y-89692922D01*
X85553341Y-89563341D01*
X85682922Y-89456995D01*
X85830756Y-89377977D01*
X85830759Y-89377976D01*
X85830761Y-89377975D01*
X85991175Y-89329314D01*
X85991176Y-89329314D01*
X85991179Y-89329313D01*
X86116196Y-89317000D01*
X86199804Y-89317000D01*
X86324821Y-89329313D01*
X86324821Y-89329313D01*
G37*
G36*
X46110442Y-87145518D02*
X46176627Y-87152037D01*
X46289853Y-87186384D01*
X46346467Y-87203557D01*
X46485087Y-87277652D01*
X46502991Y-87287222D01*
X46519482Y-87300756D01*
X46640186Y-87399814D01*
X46723448Y-87501271D01*
X46752778Y-87537009D01*
X46752779Y-87537011D01*
X46836443Y-87693533D01*
X46836443Y-87693534D01*
X46887963Y-87863373D01*
X46905359Y-88040000D01*
X46887963Y-88216627D01*
X46859777Y-88309545D01*
X46836443Y-88386467D01*
X46793564Y-88466686D01*
X46752778Y-88542991D01*
X46723448Y-88578729D01*
X46640186Y-88680186D01*
X46538729Y-88763448D01*
X46502991Y-88792778D01*
X46502989Y-88792779D01*
X46346467Y-88876443D01*
X46289853Y-88893616D01*
X46176627Y-88927963D01*
X46110442Y-88934482D01*
X46044260Y-88941000D01*
X45955740Y-88941000D01*
X45889558Y-88934482D01*
X45823373Y-88927963D01*
X45710147Y-88893616D01*
X45653533Y-88876443D01*
X45497011Y-88792779D01*
X45497009Y-88792778D01*
X45461271Y-88763448D01*
X45359814Y-88680186D01*
X45276552Y-88578729D01*
X45247222Y-88542991D01*
X45206436Y-88466686D01*
X45163557Y-88386467D01*
X45140223Y-88309545D01*
X45112037Y-88216627D01*
X45094641Y-88040000D01*
X45112037Y-87863373D01*
X45163557Y-87693534D01*
X45163557Y-87693533D01*
X45247221Y-87537011D01*
X45247222Y-87537009D01*
X45276552Y-87501271D01*
X45359814Y-87399814D01*
X45480518Y-87300756D01*
X45497009Y-87287222D01*
X45514913Y-87277652D01*
X45653533Y-87203557D01*
X45710147Y-87186384D01*
X45823373Y-87152037D01*
X45889558Y-87145518D01*
X45955740Y-87139000D01*
X46044260Y-87139000D01*
X46110442Y-87145518D01*
X46110442Y-87145518D01*
G37*
G36*
X101564821Y-86789313D02*
X101564824Y-86789314D01*
X101564825Y-86789314D01*
X101725239Y-86837975D01*
X101725241Y-86837976D01*
X101725244Y-86837977D01*
X101873078Y-86916995D01*
X102002659Y-87023341D01*
X102109005Y-87152922D01*
X102188023Y-87300756D01*
X102188024Y-87300759D01*
X102188025Y-87300761D01*
X102231926Y-87445484D01*
X102236687Y-87461179D01*
X102253117Y-87628000D01*
X102236687Y-87794821D01*
X102236686Y-87794824D01*
X102236686Y-87794825D01*
X102215892Y-87863375D01*
X102188023Y-87955244D01*
X102109005Y-88103078D01*
X102002659Y-88232659D01*
X101873078Y-88339005D01*
X101725244Y-88418023D01*
X101725241Y-88418024D01*
X101725239Y-88418025D01*
X101564825Y-88466686D01*
X101564824Y-88466686D01*
X101564821Y-88466687D01*
X101439804Y-88479000D01*
X101356196Y-88479000D01*
X101231179Y-88466687D01*
X101231176Y-88466686D01*
X101231175Y-88466686D01*
X101070761Y-88418025D01*
X101070759Y-88418024D01*
X101070756Y-88418023D01*
X100922922Y-88339005D01*
X100793341Y-88232659D01*
X100686995Y-88103078D01*
X100607977Y-87955244D01*
X100580109Y-87863375D01*
X100559314Y-87794825D01*
X100559314Y-87794824D01*
X100559313Y-87794821D01*
X100542883Y-87628000D01*
X100559313Y-87461179D01*
X100564074Y-87445484D01*
X100607975Y-87300761D01*
X100607976Y-87300759D01*
X100607977Y-87300756D01*
X100686995Y-87152922D01*
X100793341Y-87023341D01*
X100922922Y-86916995D01*
X101070756Y-86837977D01*
X101070759Y-86837976D01*
X101070761Y-86837975D01*
X101231175Y-86789314D01*
X101231176Y-86789314D01*
X101231179Y-86789313D01*
X101356196Y-86777000D01*
X101439804Y-86777000D01*
X101564821Y-86789313D01*
X101564821Y-86789313D01*
G37*
G36*
X86324821Y-86789313D02*
X86324824Y-86789314D01*
X86324825Y-86789314D01*
X86485239Y-86837975D01*
X86485241Y-86837976D01*
X86485244Y-86837977D01*
X86633078Y-86916995D01*
X86762659Y-87023341D01*
X86869005Y-87152922D01*
X86948023Y-87300756D01*
X86948024Y-87300759D01*
X86948025Y-87300761D01*
X86991926Y-87445484D01*
X86996687Y-87461179D01*
X87013117Y-87628000D01*
X86996687Y-87794821D01*
X86996686Y-87794824D01*
X86996686Y-87794825D01*
X86975892Y-87863375D01*
X86948023Y-87955244D01*
X86869005Y-88103078D01*
X86762659Y-88232659D01*
X86633078Y-88339005D01*
X86485244Y-88418023D01*
X86485241Y-88418024D01*
X86485239Y-88418025D01*
X86324825Y-88466686D01*
X86324824Y-88466686D01*
X86324821Y-88466687D01*
X86199804Y-88479000D01*
X86116196Y-88479000D01*
X85991179Y-88466687D01*
X85991176Y-88466686D01*
X85991175Y-88466686D01*
X85830761Y-88418025D01*
X85830759Y-88418024D01*
X85830756Y-88418023D01*
X85682922Y-88339005D01*
X85553341Y-88232659D01*
X85446995Y-88103078D01*
X85367977Y-87955244D01*
X85340109Y-87863375D01*
X85319314Y-87794825D01*
X85319314Y-87794824D01*
X85319313Y-87794821D01*
X85302883Y-87628000D01*
X85319313Y-87461179D01*
X85324074Y-87445484D01*
X85367975Y-87300761D01*
X85367976Y-87300759D01*
X85367977Y-87300756D01*
X85446995Y-87152922D01*
X85553341Y-87023341D01*
X85682922Y-86916995D01*
X85830756Y-86837977D01*
X85830759Y-86837976D01*
X85830761Y-86837975D01*
X85991175Y-86789314D01*
X85991176Y-86789314D01*
X85991179Y-86789313D01*
X86116196Y-86777000D01*
X86199804Y-86777000D01*
X86324821Y-86789313D01*
X86324821Y-86789313D01*
G37*
G36*
X46901000Y-86401000D02*
X45099000Y-86401000D01*
X45099000Y-84599000D01*
X46901000Y-84599000D01*
X46901000Y-86401000D01*
X46901000Y-86401000D01*
G37*
G36*
X101564821Y-84249313D02*
X101564824Y-84249314D01*
X101564825Y-84249314D01*
X101725239Y-84297975D01*
X101725241Y-84297976D01*
X101725244Y-84297977D01*
X101873078Y-84376995D01*
X102002659Y-84483341D01*
X102109005Y-84612922D01*
X102188023Y-84760756D01*
X102236687Y-84921179D01*
X102253117Y-85088000D01*
X102236687Y-85254821D01*
X102188023Y-85415244D01*
X102109005Y-85563078D01*
X102002659Y-85692659D01*
X101873078Y-85799005D01*
X101725244Y-85878023D01*
X101725241Y-85878024D01*
X101725239Y-85878025D01*
X101564825Y-85926686D01*
X101564824Y-85926686D01*
X101564821Y-85926687D01*
X101439804Y-85939000D01*
X101356196Y-85939000D01*
X101231179Y-85926687D01*
X101231176Y-85926686D01*
X101231175Y-85926686D01*
X101070761Y-85878025D01*
X101070759Y-85878024D01*
X101070756Y-85878023D01*
X100922922Y-85799005D01*
X100793341Y-85692659D01*
X100686995Y-85563078D01*
X100607977Y-85415244D01*
X100559313Y-85254821D01*
X100542883Y-85088000D01*
X100559313Y-84921179D01*
X100607977Y-84760756D01*
X100686995Y-84612922D01*
X100793341Y-84483341D01*
X100922922Y-84376995D01*
X101070756Y-84297977D01*
X101070759Y-84297976D01*
X101070761Y-84297975D01*
X101231175Y-84249314D01*
X101231176Y-84249314D01*
X101231179Y-84249313D01*
X101356196Y-84237000D01*
X101439804Y-84237000D01*
X101564821Y-84249313D01*
X101564821Y-84249313D01*
G37*
G36*
X86324821Y-84249313D02*
X86324824Y-84249314D01*
X86324825Y-84249314D01*
X86485239Y-84297975D01*
X86485241Y-84297976D01*
X86485244Y-84297977D01*
X86633078Y-84376995D01*
X86762659Y-84483341D01*
X86869005Y-84612922D01*
X86948023Y-84760756D01*
X86996687Y-84921179D01*
X87013117Y-85088000D01*
X86996687Y-85254821D01*
X86948023Y-85415244D01*
X86869005Y-85563078D01*
X86762659Y-85692659D01*
X86633078Y-85799005D01*
X86485244Y-85878023D01*
X86485241Y-85878024D01*
X86485239Y-85878025D01*
X86324825Y-85926686D01*
X86324824Y-85926686D01*
X86324821Y-85926687D01*
X86199804Y-85939000D01*
X86116196Y-85939000D01*
X85991179Y-85926687D01*
X85991176Y-85926686D01*
X85991175Y-85926686D01*
X85830761Y-85878025D01*
X85830759Y-85878024D01*
X85830756Y-85878023D01*
X85682922Y-85799005D01*
X85553341Y-85692659D01*
X85446995Y-85563078D01*
X85367977Y-85415244D01*
X85319313Y-85254821D01*
X85302883Y-85088000D01*
X85319313Y-84921179D01*
X85367977Y-84760756D01*
X85446995Y-84612922D01*
X85553341Y-84483341D01*
X85682922Y-84376995D01*
X85830756Y-84297977D01*
X85830759Y-84297976D01*
X85830761Y-84297975D01*
X85991175Y-84249314D01*
X85991176Y-84249314D01*
X85991179Y-84249313D01*
X86116196Y-84237000D01*
X86199804Y-84237000D01*
X86324821Y-84249313D01*
X86324821Y-84249313D01*
G37*
G36*
X86324821Y-81709313D02*
X86324824Y-81709314D01*
X86324825Y-81709314D01*
X86485239Y-81757975D01*
X86485241Y-81757976D01*
X86485244Y-81757977D01*
X86633078Y-81836995D01*
X86762659Y-81943341D01*
X86869005Y-82072922D01*
X86948023Y-82220756D01*
X86996687Y-82381179D01*
X87013117Y-82548000D01*
X86996687Y-82714821D01*
X86948023Y-82875244D01*
X86869005Y-83023078D01*
X86762659Y-83152659D01*
X86633078Y-83259005D01*
X86485244Y-83338023D01*
X86485241Y-83338024D01*
X86485239Y-83338025D01*
X86324825Y-83386686D01*
X86324824Y-83386686D01*
X86324821Y-83386687D01*
X86199804Y-83399000D01*
X86116196Y-83399000D01*
X85991179Y-83386687D01*
X85991176Y-83386686D01*
X85991175Y-83386686D01*
X85830761Y-83338025D01*
X85830759Y-83338024D01*
X85830756Y-83338023D01*
X85682922Y-83259005D01*
X85553341Y-83152659D01*
X85446995Y-83023078D01*
X85367977Y-82875244D01*
X85319313Y-82714821D01*
X85302883Y-82548000D01*
X85319313Y-82381179D01*
X85367977Y-82220756D01*
X85446995Y-82072922D01*
X85553341Y-81943341D01*
X85682922Y-81836995D01*
X85830756Y-81757977D01*
X85830759Y-81757976D01*
X85830761Y-81757975D01*
X85991175Y-81709314D01*
X85991176Y-81709314D01*
X85991179Y-81709313D01*
X86116196Y-81697000D01*
X86199804Y-81697000D01*
X86324821Y-81709313D01*
X86324821Y-81709313D01*
G37*
G36*
X101564821Y-81709313D02*
X101564824Y-81709314D01*
X101564825Y-81709314D01*
X101725239Y-81757975D01*
X101725241Y-81757976D01*
X101725244Y-81757977D01*
X101873078Y-81836995D01*
X102002659Y-81943341D01*
X102109005Y-82072922D01*
X102188023Y-82220756D01*
X102236687Y-82381179D01*
X102253117Y-82548000D01*
X102236687Y-82714821D01*
X102188023Y-82875244D01*
X102109005Y-83023078D01*
X102002659Y-83152659D01*
X101873078Y-83259005D01*
X101725244Y-83338023D01*
X101725241Y-83338024D01*
X101725239Y-83338025D01*
X101564825Y-83386686D01*
X101564824Y-83386686D01*
X101564821Y-83386687D01*
X101439804Y-83399000D01*
X101356196Y-83399000D01*
X101231179Y-83386687D01*
X101231176Y-83386686D01*
X101231175Y-83386686D01*
X101070761Y-83338025D01*
X101070759Y-83338024D01*
X101070756Y-83338023D01*
X100922922Y-83259005D01*
X100793341Y-83152659D01*
X100686995Y-83023078D01*
X100607977Y-82875244D01*
X100559313Y-82714821D01*
X100542883Y-82548000D01*
X100559313Y-82381179D01*
X100607977Y-82220756D01*
X100686995Y-82072922D01*
X100793341Y-81943341D01*
X100922922Y-81836995D01*
X101070756Y-81757977D01*
X101070759Y-81757976D01*
X101070761Y-81757975D01*
X101231175Y-81709314D01*
X101231176Y-81709314D01*
X101231179Y-81709313D01*
X101356196Y-81697000D01*
X101439804Y-81697000D01*
X101564821Y-81709313D01*
X101564821Y-81709313D01*
G37*
G36*
X86324821Y-79169313D02*
X86324824Y-79169314D01*
X86324825Y-79169314D01*
X86485239Y-79217975D01*
X86485241Y-79217976D01*
X86485244Y-79217977D01*
X86633078Y-79296995D01*
X86762659Y-79403341D01*
X86869005Y-79532922D01*
X86948023Y-79680756D01*
X86996687Y-79841179D01*
X87013117Y-80008000D01*
X86996687Y-80174821D01*
X86948023Y-80335244D01*
X86869005Y-80483078D01*
X86762659Y-80612659D01*
X86633078Y-80719005D01*
X86485244Y-80798023D01*
X86485241Y-80798024D01*
X86485239Y-80798025D01*
X86324825Y-80846686D01*
X86324824Y-80846686D01*
X86324821Y-80846687D01*
X86199804Y-80859000D01*
X86116196Y-80859000D01*
X85991179Y-80846687D01*
X85991176Y-80846686D01*
X85991175Y-80846686D01*
X85830761Y-80798025D01*
X85830759Y-80798024D01*
X85830756Y-80798023D01*
X85682922Y-80719005D01*
X85553341Y-80612659D01*
X85446995Y-80483078D01*
X85367977Y-80335244D01*
X85319313Y-80174821D01*
X85302883Y-80008000D01*
X85319313Y-79841179D01*
X85367977Y-79680756D01*
X85446995Y-79532922D01*
X85553341Y-79403341D01*
X85682922Y-79296995D01*
X85830756Y-79217977D01*
X85830759Y-79217976D01*
X85830761Y-79217975D01*
X85991175Y-79169314D01*
X85991176Y-79169314D01*
X85991179Y-79169313D01*
X86116196Y-79157000D01*
X86199804Y-79157000D01*
X86324821Y-79169313D01*
X86324821Y-79169313D01*
G37*
G36*
X101564821Y-79169313D02*
X101564824Y-79169314D01*
X101564825Y-79169314D01*
X101725239Y-79217975D01*
X101725241Y-79217976D01*
X101725244Y-79217977D01*
X101873078Y-79296995D01*
X102002659Y-79403341D01*
X102109005Y-79532922D01*
X102188023Y-79680756D01*
X102236687Y-79841179D01*
X102253117Y-80008000D01*
X102236687Y-80174821D01*
X102188023Y-80335244D01*
X102109005Y-80483078D01*
X102002659Y-80612659D01*
X101873078Y-80719005D01*
X101725244Y-80798023D01*
X101725241Y-80798024D01*
X101725239Y-80798025D01*
X101564825Y-80846686D01*
X101564824Y-80846686D01*
X101564821Y-80846687D01*
X101439804Y-80859000D01*
X101356196Y-80859000D01*
X101231179Y-80846687D01*
X101231176Y-80846686D01*
X101231175Y-80846686D01*
X101070761Y-80798025D01*
X101070759Y-80798024D01*
X101070756Y-80798023D01*
X100922922Y-80719005D01*
X100793341Y-80612659D01*
X100686995Y-80483078D01*
X100607977Y-80335244D01*
X100559313Y-80174821D01*
X100542883Y-80008000D01*
X100559313Y-79841179D01*
X100607977Y-79680756D01*
X100686995Y-79532922D01*
X100793341Y-79403341D01*
X100922922Y-79296995D01*
X101070756Y-79217977D01*
X101070759Y-79217976D01*
X101070761Y-79217975D01*
X101231175Y-79169314D01*
X101231176Y-79169314D01*
X101231179Y-79169313D01*
X101356196Y-79157000D01*
X101439804Y-79157000D01*
X101564821Y-79169313D01*
X101564821Y-79169313D01*
G37*
G36*
X86324821Y-76629313D02*
X86324824Y-76629314D01*
X86324825Y-76629314D01*
X86485239Y-76677975D01*
X86485241Y-76677976D01*
X86485244Y-76677977D01*
X86633078Y-76756995D01*
X86762659Y-76863341D01*
X86869005Y-76992922D01*
X86948023Y-77140756D01*
X86996687Y-77301179D01*
X87013117Y-77468000D01*
X86996687Y-77634821D01*
X86948023Y-77795244D01*
X86869005Y-77943078D01*
X86762659Y-78072659D01*
X86633078Y-78179005D01*
X86485244Y-78258023D01*
X86485241Y-78258024D01*
X86485239Y-78258025D01*
X86324825Y-78306686D01*
X86324824Y-78306686D01*
X86324821Y-78306687D01*
X86199804Y-78319000D01*
X86116196Y-78319000D01*
X85991179Y-78306687D01*
X85991176Y-78306686D01*
X85991175Y-78306686D01*
X85830761Y-78258025D01*
X85830759Y-78258024D01*
X85830756Y-78258023D01*
X85682922Y-78179005D01*
X85553341Y-78072659D01*
X85446995Y-77943078D01*
X85367977Y-77795244D01*
X85319313Y-77634821D01*
X85302883Y-77468000D01*
X85319313Y-77301179D01*
X85367977Y-77140756D01*
X85446995Y-76992922D01*
X85553341Y-76863341D01*
X85682922Y-76756995D01*
X85830756Y-76677977D01*
X85830759Y-76677976D01*
X85830761Y-76677975D01*
X85991175Y-76629314D01*
X85991176Y-76629314D01*
X85991179Y-76629313D01*
X86116196Y-76617000D01*
X86199804Y-76617000D01*
X86324821Y-76629313D01*
X86324821Y-76629313D01*
G37*
G36*
X101564821Y-76629313D02*
X101564824Y-76629314D01*
X101564825Y-76629314D01*
X101725239Y-76677975D01*
X101725241Y-76677976D01*
X101725244Y-76677977D01*
X101873078Y-76756995D01*
X102002659Y-76863341D01*
X102109005Y-76992922D01*
X102188023Y-77140756D01*
X102236687Y-77301179D01*
X102253117Y-77468000D01*
X102236687Y-77634821D01*
X102188023Y-77795244D01*
X102109005Y-77943078D01*
X102002659Y-78072659D01*
X101873078Y-78179005D01*
X101725244Y-78258023D01*
X101725241Y-78258024D01*
X101725239Y-78258025D01*
X101564825Y-78306686D01*
X101564824Y-78306686D01*
X101564821Y-78306687D01*
X101439804Y-78319000D01*
X101356196Y-78319000D01*
X101231179Y-78306687D01*
X101231176Y-78306686D01*
X101231175Y-78306686D01*
X101070761Y-78258025D01*
X101070759Y-78258024D01*
X101070756Y-78258023D01*
X100922922Y-78179005D01*
X100793341Y-78072659D01*
X100686995Y-77943078D01*
X100607977Y-77795244D01*
X100559313Y-77634821D01*
X100542883Y-77468000D01*
X100559313Y-77301179D01*
X100607977Y-77140756D01*
X100686995Y-76992922D01*
X100793341Y-76863341D01*
X100922922Y-76756995D01*
X101070756Y-76677977D01*
X101070759Y-76677976D01*
X101070761Y-76677975D01*
X101231175Y-76629314D01*
X101231176Y-76629314D01*
X101231179Y-76629313D01*
X101356196Y-76617000D01*
X101439804Y-76617000D01*
X101564821Y-76629313D01*
X101564821Y-76629313D01*
G37*
G36*
X86324821Y-74089313D02*
X86324824Y-74089314D01*
X86324825Y-74089314D01*
X86485239Y-74137975D01*
X86485241Y-74137976D01*
X86485244Y-74137977D01*
X86633078Y-74216995D01*
X86762659Y-74323341D01*
X86869005Y-74452922D01*
X86948023Y-74600756D01*
X86996687Y-74761179D01*
X87013117Y-74928000D01*
X86996687Y-75094821D01*
X86948023Y-75255244D01*
X86869005Y-75403078D01*
X86762659Y-75532659D01*
X86633078Y-75639005D01*
X86485244Y-75718023D01*
X86485241Y-75718024D01*
X86485239Y-75718025D01*
X86324825Y-75766686D01*
X86324824Y-75766686D01*
X86324821Y-75766687D01*
X86199804Y-75779000D01*
X86116196Y-75779000D01*
X85991179Y-75766687D01*
X85991176Y-75766686D01*
X85991175Y-75766686D01*
X85830761Y-75718025D01*
X85830759Y-75718024D01*
X85830756Y-75718023D01*
X85682922Y-75639005D01*
X85553341Y-75532659D01*
X85446995Y-75403078D01*
X85367977Y-75255244D01*
X85319313Y-75094821D01*
X85302883Y-74928000D01*
X85319313Y-74761179D01*
X85367977Y-74600756D01*
X85446995Y-74452922D01*
X85553341Y-74323341D01*
X85682922Y-74216995D01*
X85830756Y-74137977D01*
X85830759Y-74137976D01*
X85830761Y-74137975D01*
X85991175Y-74089314D01*
X85991176Y-74089314D01*
X85991179Y-74089313D01*
X86116196Y-74077000D01*
X86199804Y-74077000D01*
X86324821Y-74089313D01*
X86324821Y-74089313D01*
G37*
G36*
X101564821Y-74089313D02*
X101564824Y-74089314D01*
X101564825Y-74089314D01*
X101725239Y-74137975D01*
X101725241Y-74137976D01*
X101725244Y-74137977D01*
X101873078Y-74216995D01*
X102002659Y-74323341D01*
X102109005Y-74452922D01*
X102188023Y-74600756D01*
X102236687Y-74761179D01*
X102253117Y-74928000D01*
X102236687Y-75094821D01*
X102188023Y-75255244D01*
X102109005Y-75403078D01*
X102002659Y-75532659D01*
X101873078Y-75639005D01*
X101725244Y-75718023D01*
X101725241Y-75718024D01*
X101725239Y-75718025D01*
X101564825Y-75766686D01*
X101564824Y-75766686D01*
X101564821Y-75766687D01*
X101439804Y-75779000D01*
X101356196Y-75779000D01*
X101231179Y-75766687D01*
X101231176Y-75766686D01*
X101231175Y-75766686D01*
X101070761Y-75718025D01*
X101070759Y-75718024D01*
X101070756Y-75718023D01*
X100922922Y-75639005D01*
X100793341Y-75532659D01*
X100686995Y-75403078D01*
X100607977Y-75255244D01*
X100559313Y-75094821D01*
X100542883Y-74928000D01*
X100559313Y-74761179D01*
X100607977Y-74600756D01*
X100686995Y-74452922D01*
X100793341Y-74323341D01*
X100922922Y-74216995D01*
X101070756Y-74137977D01*
X101070759Y-74137976D01*
X101070761Y-74137975D01*
X101231175Y-74089314D01*
X101231176Y-74089314D01*
X101231179Y-74089313D01*
X101356196Y-74077000D01*
X101439804Y-74077000D01*
X101564821Y-74089313D01*
X101564821Y-74089313D01*
G37*
G36*
X86324821Y-71549313D02*
X86324824Y-71549314D01*
X86324825Y-71549314D01*
X86485239Y-71597975D01*
X86485241Y-71597976D01*
X86485244Y-71597977D01*
X86633078Y-71676995D01*
X86762659Y-71783341D01*
X86869005Y-71912922D01*
X86948023Y-72060756D01*
X86996687Y-72221179D01*
X87013117Y-72388000D01*
X86996687Y-72554821D01*
X86948023Y-72715244D01*
X86869005Y-72863078D01*
X86762659Y-72992659D01*
X86633078Y-73099005D01*
X86485244Y-73178023D01*
X86485241Y-73178024D01*
X86485239Y-73178025D01*
X86324825Y-73226686D01*
X86324824Y-73226686D01*
X86324821Y-73226687D01*
X86199804Y-73239000D01*
X86116196Y-73239000D01*
X85991179Y-73226687D01*
X85991176Y-73226686D01*
X85991175Y-73226686D01*
X85830761Y-73178025D01*
X85830759Y-73178024D01*
X85830756Y-73178023D01*
X85682922Y-73099005D01*
X85553341Y-72992659D01*
X85446995Y-72863078D01*
X85367977Y-72715244D01*
X85319313Y-72554821D01*
X85302883Y-72388000D01*
X85319313Y-72221179D01*
X85367977Y-72060756D01*
X85446995Y-71912922D01*
X85553341Y-71783341D01*
X85682922Y-71676995D01*
X85830756Y-71597977D01*
X85830759Y-71597976D01*
X85830761Y-71597975D01*
X85991175Y-71549314D01*
X85991176Y-71549314D01*
X85991179Y-71549313D01*
X86116196Y-71537000D01*
X86199804Y-71537000D01*
X86324821Y-71549313D01*
X86324821Y-71549313D01*
G37*
G36*
X101564821Y-71549313D02*
X101564824Y-71549314D01*
X101564825Y-71549314D01*
X101725239Y-71597975D01*
X101725241Y-71597976D01*
X101725244Y-71597977D01*
X101873078Y-71676995D01*
X102002659Y-71783341D01*
X102109005Y-71912922D01*
X102188023Y-72060756D01*
X102236687Y-72221179D01*
X102253117Y-72388000D01*
X102236687Y-72554821D01*
X102188023Y-72715244D01*
X102109005Y-72863078D01*
X102002659Y-72992659D01*
X101873078Y-73099005D01*
X101725244Y-73178023D01*
X101725241Y-73178024D01*
X101725239Y-73178025D01*
X101564825Y-73226686D01*
X101564824Y-73226686D01*
X101564821Y-73226687D01*
X101439804Y-73239000D01*
X101356196Y-73239000D01*
X101231179Y-73226687D01*
X101231176Y-73226686D01*
X101231175Y-73226686D01*
X101070761Y-73178025D01*
X101070759Y-73178024D01*
X101070756Y-73178023D01*
X100922922Y-73099005D01*
X100793341Y-72992659D01*
X100686995Y-72863078D01*
X100607977Y-72715244D01*
X100559313Y-72554821D01*
X100542883Y-72388000D01*
X100559313Y-72221179D01*
X100607977Y-72060756D01*
X100686995Y-71912922D01*
X100793341Y-71783341D01*
X100922922Y-71676995D01*
X101070756Y-71597977D01*
X101070759Y-71597976D01*
X101070761Y-71597975D01*
X101231175Y-71549314D01*
X101231176Y-71549314D01*
X101231179Y-71549313D01*
X101356196Y-71537000D01*
X101439804Y-71537000D01*
X101564821Y-71549313D01*
X101564821Y-71549313D01*
G37*
G36*
X86324821Y-69009313D02*
X86324824Y-69009314D01*
X86324825Y-69009314D01*
X86485239Y-69057975D01*
X86485241Y-69057976D01*
X86485244Y-69057977D01*
X86633078Y-69136995D01*
X86762659Y-69243341D01*
X86869005Y-69372922D01*
X86948023Y-69520756D01*
X86996687Y-69681179D01*
X87013117Y-69848000D01*
X86996687Y-70014821D01*
X86948023Y-70175244D01*
X86869005Y-70323078D01*
X86762659Y-70452659D01*
X86633078Y-70559005D01*
X86485244Y-70638023D01*
X86485241Y-70638024D01*
X86485239Y-70638025D01*
X86324825Y-70686686D01*
X86324824Y-70686686D01*
X86324821Y-70686687D01*
X86199804Y-70699000D01*
X86116196Y-70699000D01*
X85991179Y-70686687D01*
X85991176Y-70686686D01*
X85991175Y-70686686D01*
X85830761Y-70638025D01*
X85830759Y-70638024D01*
X85830756Y-70638023D01*
X85682922Y-70559005D01*
X85553341Y-70452659D01*
X85446995Y-70323078D01*
X85367977Y-70175244D01*
X85319313Y-70014821D01*
X85302883Y-69848000D01*
X85319313Y-69681179D01*
X85367977Y-69520756D01*
X85446995Y-69372922D01*
X85553341Y-69243341D01*
X85682922Y-69136995D01*
X85830756Y-69057977D01*
X85830759Y-69057976D01*
X85830761Y-69057975D01*
X85991175Y-69009314D01*
X85991176Y-69009314D01*
X85991179Y-69009313D01*
X86116196Y-68997000D01*
X86199804Y-68997000D01*
X86324821Y-69009313D01*
X86324821Y-69009313D01*
G37*
G36*
X101564821Y-69009313D02*
X101564824Y-69009314D01*
X101564825Y-69009314D01*
X101725239Y-69057975D01*
X101725241Y-69057976D01*
X101725244Y-69057977D01*
X101873078Y-69136995D01*
X102002659Y-69243341D01*
X102109005Y-69372922D01*
X102188023Y-69520756D01*
X102236687Y-69681179D01*
X102253117Y-69848000D01*
X102236687Y-70014821D01*
X102188023Y-70175244D01*
X102109005Y-70323078D01*
X102002659Y-70452659D01*
X101873078Y-70559005D01*
X101725244Y-70638023D01*
X101725241Y-70638024D01*
X101725239Y-70638025D01*
X101564825Y-70686686D01*
X101564824Y-70686686D01*
X101564821Y-70686687D01*
X101439804Y-70699000D01*
X101356196Y-70699000D01*
X101231179Y-70686687D01*
X101231176Y-70686686D01*
X101231175Y-70686686D01*
X101070761Y-70638025D01*
X101070759Y-70638024D01*
X101070756Y-70638023D01*
X100922922Y-70559005D01*
X100793341Y-70452659D01*
X100686995Y-70323078D01*
X100607977Y-70175244D01*
X100559313Y-70014821D01*
X100542883Y-69848000D01*
X100559313Y-69681179D01*
X100607977Y-69520756D01*
X100686995Y-69372922D01*
X100793341Y-69243341D01*
X100922922Y-69136995D01*
X101070756Y-69057977D01*
X101070759Y-69057976D01*
X101070761Y-69057975D01*
X101231175Y-69009314D01*
X101231176Y-69009314D01*
X101231179Y-69009313D01*
X101356196Y-68997000D01*
X101439804Y-68997000D01*
X101564821Y-69009313D01*
X101564821Y-69009313D01*
G37*
G36*
X106871000Y-68209000D02*
X105069000Y-68209000D01*
X105069000Y-66407000D01*
X106871000Y-66407000D01*
X106871000Y-68209000D01*
X106871000Y-68209000D01*
G37*
G36*
X101564821Y-66469313D02*
X101564824Y-66469314D01*
X101564825Y-66469314D01*
X101725239Y-66517975D01*
X101725241Y-66517976D01*
X101725244Y-66517977D01*
X101873078Y-66596995D01*
X102002659Y-66703341D01*
X102109005Y-66832922D01*
X102188023Y-66980756D01*
X102236687Y-67141179D01*
X102253117Y-67308000D01*
X102236687Y-67474821D01*
X102188023Y-67635244D01*
X102109005Y-67783078D01*
X102002659Y-67912659D01*
X101873078Y-68019005D01*
X101725244Y-68098023D01*
X101725241Y-68098024D01*
X101725239Y-68098025D01*
X101564825Y-68146686D01*
X101564824Y-68146686D01*
X101564821Y-68146687D01*
X101439804Y-68159000D01*
X101356196Y-68159000D01*
X101231179Y-68146687D01*
X101231176Y-68146686D01*
X101231175Y-68146686D01*
X101070761Y-68098025D01*
X101070759Y-68098024D01*
X101070756Y-68098023D01*
X100922922Y-68019005D01*
X100793341Y-67912659D01*
X100686995Y-67783078D01*
X100607977Y-67635244D01*
X100559313Y-67474821D01*
X100542883Y-67308000D01*
X100559313Y-67141179D01*
X100607977Y-66980756D01*
X100686995Y-66832922D01*
X100793341Y-66703341D01*
X100922922Y-66596995D01*
X101070756Y-66517977D01*
X101070759Y-66517976D01*
X101070761Y-66517975D01*
X101231175Y-66469314D01*
X101231176Y-66469314D01*
X101231179Y-66469313D01*
X101356196Y-66457000D01*
X101439804Y-66457000D01*
X101564821Y-66469313D01*
X101564821Y-66469313D01*
G37*
G36*
X86324821Y-66469313D02*
X86324824Y-66469314D01*
X86324825Y-66469314D01*
X86485239Y-66517975D01*
X86485241Y-66517976D01*
X86485244Y-66517977D01*
X86633078Y-66596995D01*
X86762659Y-66703341D01*
X86869005Y-66832922D01*
X86948023Y-66980756D01*
X86996687Y-67141179D01*
X87013117Y-67308000D01*
X86996687Y-67474821D01*
X86948023Y-67635244D01*
X86869005Y-67783078D01*
X86762659Y-67912659D01*
X86633078Y-68019005D01*
X86485244Y-68098023D01*
X86485241Y-68098024D01*
X86485239Y-68098025D01*
X86324825Y-68146686D01*
X86324824Y-68146686D01*
X86324821Y-68146687D01*
X86199804Y-68159000D01*
X86116196Y-68159000D01*
X85991179Y-68146687D01*
X85991176Y-68146686D01*
X85991175Y-68146686D01*
X85830761Y-68098025D01*
X85830759Y-68098024D01*
X85830756Y-68098023D01*
X85682922Y-68019005D01*
X85553341Y-67912659D01*
X85446995Y-67783078D01*
X85367977Y-67635244D01*
X85319313Y-67474821D01*
X85302883Y-67308000D01*
X85319313Y-67141179D01*
X85367977Y-66980756D01*
X85446995Y-66832922D01*
X85553341Y-66703341D01*
X85682922Y-66596995D01*
X85830756Y-66517977D01*
X85830759Y-66517976D01*
X85830761Y-66517975D01*
X85991175Y-66469314D01*
X85991176Y-66469314D01*
X85991179Y-66469313D01*
X86116196Y-66457000D01*
X86199804Y-66457000D01*
X86324821Y-66469313D01*
X86324821Y-66469313D01*
G37*
G36*
X106080443Y-63873519D02*
X106146627Y-63880037D01*
X106259853Y-63914384D01*
X106316467Y-63931557D01*
X106403311Y-63977977D01*
X106472991Y-64015222D01*
X106508729Y-64044552D01*
X106610186Y-64127814D01*
X106693448Y-64229271D01*
X106722778Y-64265009D01*
X106722779Y-64265011D01*
X106806443Y-64421533D01*
X106823616Y-64478147D01*
X106857963Y-64591373D01*
X106875359Y-64768000D01*
X106857963Y-64944627D01*
X106823616Y-65057853D01*
X106806443Y-65114467D01*
X106781570Y-65161000D01*
X106722778Y-65270991D01*
X106693448Y-65306729D01*
X106610186Y-65408186D01*
X106508729Y-65491448D01*
X106472991Y-65520778D01*
X106472989Y-65520779D01*
X106316467Y-65604443D01*
X106309069Y-65606687D01*
X106146627Y-65655963D01*
X106080443Y-65662481D01*
X106014260Y-65669000D01*
X105925740Y-65669000D01*
X105859557Y-65662481D01*
X105793373Y-65655963D01*
X105630931Y-65606687D01*
X105623533Y-65604443D01*
X105467011Y-65520779D01*
X105467009Y-65520778D01*
X105431271Y-65491448D01*
X105329814Y-65408186D01*
X105246552Y-65306729D01*
X105217222Y-65270991D01*
X105158430Y-65161000D01*
X105133557Y-65114467D01*
X105116384Y-65057853D01*
X105082037Y-64944627D01*
X105064641Y-64768000D01*
X105082037Y-64591373D01*
X105116384Y-64478147D01*
X105133557Y-64421533D01*
X105217221Y-64265011D01*
X105217222Y-64265009D01*
X105246552Y-64229271D01*
X105329814Y-64127814D01*
X105431271Y-64044552D01*
X105467009Y-64015222D01*
X105536689Y-63977977D01*
X105623533Y-63931557D01*
X105680147Y-63914384D01*
X105793373Y-63880037D01*
X105859557Y-63873519D01*
X105925740Y-63867000D01*
X106014260Y-63867000D01*
X106080443Y-63873519D01*
X106080443Y-63873519D01*
G37*
G36*
X101564821Y-63929313D02*
X101564824Y-63929314D01*
X101564825Y-63929314D01*
X101725239Y-63977975D01*
X101725241Y-63977976D01*
X101725244Y-63977977D01*
X101873078Y-64056995D01*
X102002659Y-64163341D01*
X102109005Y-64292922D01*
X102188023Y-64440756D01*
X102188024Y-64440759D01*
X102188025Y-64440761D01*
X102233713Y-64591375D01*
X102236687Y-64601179D01*
X102253117Y-64768000D01*
X102236687Y-64934821D01*
X102236686Y-64934824D01*
X102236686Y-64934825D01*
X102233713Y-64944627D01*
X102188023Y-65095244D01*
X102109005Y-65243078D01*
X102002659Y-65372659D01*
X101873078Y-65479005D01*
X101725244Y-65558023D01*
X101725241Y-65558024D01*
X101725239Y-65558025D01*
X101564825Y-65606686D01*
X101564824Y-65606686D01*
X101564821Y-65606687D01*
X101439804Y-65619000D01*
X101356196Y-65619000D01*
X101231179Y-65606687D01*
X101231176Y-65606686D01*
X101231175Y-65606686D01*
X101070761Y-65558025D01*
X101070759Y-65558024D01*
X101070756Y-65558023D01*
X100922922Y-65479005D01*
X100793341Y-65372659D01*
X100686995Y-65243078D01*
X100607977Y-65095244D01*
X100562288Y-64944627D01*
X100559314Y-64934825D01*
X100559314Y-64934824D01*
X100559313Y-64934821D01*
X100542883Y-64768000D01*
X100559313Y-64601179D01*
X100562287Y-64591375D01*
X100607975Y-64440761D01*
X100607976Y-64440759D01*
X100607977Y-64440756D01*
X100686995Y-64292922D01*
X100793341Y-64163341D01*
X100922922Y-64056995D01*
X101070756Y-63977977D01*
X101070759Y-63977976D01*
X101070761Y-63977975D01*
X101231175Y-63929314D01*
X101231176Y-63929314D01*
X101231179Y-63929313D01*
X101356196Y-63917000D01*
X101439804Y-63917000D01*
X101564821Y-63929313D01*
X101564821Y-63929313D01*
G37*
G36*
X86324821Y-63929313D02*
X86324824Y-63929314D01*
X86324825Y-63929314D01*
X86485239Y-63977975D01*
X86485241Y-63977976D01*
X86485244Y-63977977D01*
X86633078Y-64056995D01*
X86762659Y-64163341D01*
X86869005Y-64292922D01*
X86948023Y-64440756D01*
X86948024Y-64440759D01*
X86948025Y-64440761D01*
X86993713Y-64591375D01*
X86996687Y-64601179D01*
X87013117Y-64768000D01*
X86996687Y-64934821D01*
X86996686Y-64934824D01*
X86996686Y-64934825D01*
X86993713Y-64944627D01*
X86948023Y-65095244D01*
X86869005Y-65243078D01*
X86762659Y-65372659D01*
X86633078Y-65479005D01*
X86485244Y-65558023D01*
X86485241Y-65558024D01*
X86485239Y-65558025D01*
X86324825Y-65606686D01*
X86324824Y-65606686D01*
X86324821Y-65606687D01*
X86199804Y-65619000D01*
X86116196Y-65619000D01*
X85991179Y-65606687D01*
X85991176Y-65606686D01*
X85991175Y-65606686D01*
X85830761Y-65558025D01*
X85830759Y-65558024D01*
X85830756Y-65558023D01*
X85682922Y-65479005D01*
X85553341Y-65372659D01*
X85446995Y-65243078D01*
X85367977Y-65095244D01*
X85322288Y-64944627D01*
X85319314Y-64934825D01*
X85319314Y-64934824D01*
X85319313Y-64934821D01*
X85302883Y-64768000D01*
X85319313Y-64601179D01*
X85322287Y-64591375D01*
X85367975Y-64440761D01*
X85367976Y-64440759D01*
X85367977Y-64440756D01*
X85446995Y-64292922D01*
X85553341Y-64163341D01*
X85682922Y-64056995D01*
X85830756Y-63977977D01*
X85830759Y-63977976D01*
X85830761Y-63977975D01*
X85991175Y-63929314D01*
X85991176Y-63929314D01*
X85991179Y-63929313D01*
X86116196Y-63917000D01*
X86199804Y-63917000D01*
X86324821Y-63929313D01*
X86324821Y-63929313D01*
G37*
G36*
X141071000Y-65161000D02*
X139269000Y-65161000D01*
X139269000Y-63359000D01*
X141071000Y-63359000D01*
X141071000Y-65161000D01*
X141071000Y-65161000D01*
G37*
G36*
X106080443Y-61333519D02*
X106146627Y-61340037D01*
X106257049Y-61373533D01*
X106316467Y-61391557D01*
X106403311Y-61437977D01*
X106472991Y-61475222D01*
X106508729Y-61504552D01*
X106610186Y-61587814D01*
X106693448Y-61689271D01*
X106722778Y-61725009D01*
X106722779Y-61725011D01*
X106806443Y-61881533D01*
X106823616Y-61938147D01*
X106857963Y-62051373D01*
X106875359Y-62228000D01*
X106857963Y-62404627D01*
X106837289Y-62472779D01*
X106806443Y-62574467D01*
X106781570Y-62621000D01*
X106722778Y-62730991D01*
X106693448Y-62766729D01*
X106610186Y-62868186D01*
X106508729Y-62951448D01*
X106472991Y-62980778D01*
X106472989Y-62980779D01*
X106316467Y-63064443D01*
X106309069Y-63066687D01*
X106146627Y-63115963D01*
X106080443Y-63122481D01*
X106014260Y-63129000D01*
X105925740Y-63129000D01*
X105859557Y-63122481D01*
X105793373Y-63115963D01*
X105630931Y-63066687D01*
X105623533Y-63064443D01*
X105467011Y-62980779D01*
X105467009Y-62980778D01*
X105431271Y-62951448D01*
X105329814Y-62868186D01*
X105246552Y-62766729D01*
X105217222Y-62730991D01*
X105158430Y-62621000D01*
X105133557Y-62574467D01*
X105102711Y-62472779D01*
X105082037Y-62404627D01*
X105064641Y-62228000D01*
X105082037Y-62051373D01*
X105116384Y-61938147D01*
X105133557Y-61881533D01*
X105217221Y-61725011D01*
X105217222Y-61725009D01*
X105246552Y-61689271D01*
X105329814Y-61587814D01*
X105431271Y-61504552D01*
X105467009Y-61475222D01*
X105536689Y-61437977D01*
X105623533Y-61391557D01*
X105682951Y-61373533D01*
X105793373Y-61340037D01*
X105859557Y-61333519D01*
X105925740Y-61327000D01*
X106014260Y-61327000D01*
X106080443Y-61333519D01*
X106080443Y-61333519D01*
G37*
G36*
X86324821Y-61389313D02*
X86324824Y-61389314D01*
X86324825Y-61389314D01*
X86485239Y-61437975D01*
X86485241Y-61437976D01*
X86485244Y-61437977D01*
X86633078Y-61516995D01*
X86762659Y-61623341D01*
X86869005Y-61752922D01*
X86948023Y-61900756D01*
X86948024Y-61900759D01*
X86948025Y-61900761D01*
X86993713Y-62051375D01*
X86996687Y-62061179D01*
X87013117Y-62228000D01*
X86996687Y-62394821D01*
X86996686Y-62394824D01*
X86996686Y-62394825D01*
X86993713Y-62404627D01*
X86948023Y-62555244D01*
X86869005Y-62703078D01*
X86762659Y-62832659D01*
X86633078Y-62939005D01*
X86485244Y-63018023D01*
X86485241Y-63018024D01*
X86485239Y-63018025D01*
X86324825Y-63066686D01*
X86324824Y-63066686D01*
X86324821Y-63066687D01*
X86199804Y-63079000D01*
X86116196Y-63079000D01*
X85991179Y-63066687D01*
X85991176Y-63066686D01*
X85991175Y-63066686D01*
X85830761Y-63018025D01*
X85830759Y-63018024D01*
X85830756Y-63018023D01*
X85682922Y-62939005D01*
X85553341Y-62832659D01*
X85446995Y-62703078D01*
X85367977Y-62555244D01*
X85322288Y-62404627D01*
X85319314Y-62394825D01*
X85319314Y-62394824D01*
X85319313Y-62394821D01*
X85302883Y-62228000D01*
X85319313Y-62061179D01*
X85322287Y-62051375D01*
X85367975Y-61900761D01*
X85367976Y-61900759D01*
X85367977Y-61900756D01*
X85446995Y-61752922D01*
X85553341Y-61623341D01*
X85682922Y-61516995D01*
X85830756Y-61437977D01*
X85830759Y-61437976D01*
X85830761Y-61437975D01*
X85991175Y-61389314D01*
X85991176Y-61389314D01*
X85991179Y-61389313D01*
X86116196Y-61377000D01*
X86199804Y-61377000D01*
X86324821Y-61389313D01*
X86324821Y-61389313D01*
G37*
G36*
X101564821Y-61389313D02*
X101564824Y-61389314D01*
X101564825Y-61389314D01*
X101725239Y-61437975D01*
X101725241Y-61437976D01*
X101725244Y-61437977D01*
X101873078Y-61516995D01*
X102002659Y-61623341D01*
X102109005Y-61752922D01*
X102188023Y-61900756D01*
X102188024Y-61900759D01*
X102188025Y-61900761D01*
X102233713Y-62051375D01*
X102236687Y-62061179D01*
X102253117Y-62228000D01*
X102236687Y-62394821D01*
X102236686Y-62394824D01*
X102236686Y-62394825D01*
X102233713Y-62404627D01*
X102188023Y-62555244D01*
X102109005Y-62703078D01*
X102002659Y-62832659D01*
X101873078Y-62939005D01*
X101725244Y-63018023D01*
X101725241Y-63018024D01*
X101725239Y-63018025D01*
X101564825Y-63066686D01*
X101564824Y-63066686D01*
X101564821Y-63066687D01*
X101439804Y-63079000D01*
X101356196Y-63079000D01*
X101231179Y-63066687D01*
X101231176Y-63066686D01*
X101231175Y-63066686D01*
X101070761Y-63018025D01*
X101070759Y-63018024D01*
X101070756Y-63018023D01*
X100922922Y-62939005D01*
X100793341Y-62832659D01*
X100686995Y-62703078D01*
X100607977Y-62555244D01*
X100562288Y-62404627D01*
X100559314Y-62394825D01*
X100559314Y-62394824D01*
X100559313Y-62394821D01*
X100542883Y-62228000D01*
X100559313Y-62061179D01*
X100562287Y-62051375D01*
X100607975Y-61900761D01*
X100607976Y-61900759D01*
X100607977Y-61900756D01*
X100686995Y-61752922D01*
X100793341Y-61623341D01*
X100922922Y-61516995D01*
X101070756Y-61437977D01*
X101070759Y-61437976D01*
X101070761Y-61437975D01*
X101231175Y-61389314D01*
X101231176Y-61389314D01*
X101231179Y-61389313D01*
X101356196Y-61377000D01*
X101439804Y-61377000D01*
X101564821Y-61389313D01*
X101564821Y-61389313D01*
G37*
G36*
X140280443Y-60825519D02*
X140346627Y-60832037D01*
X140459853Y-60866384D01*
X140516467Y-60883557D01*
X140655087Y-60957652D01*
X140672991Y-60967222D01*
X140708729Y-60996552D01*
X140810186Y-61079814D01*
X140893448Y-61181271D01*
X140922778Y-61217009D01*
X140922779Y-61217011D01*
X141006443Y-61373533D01*
X141011230Y-61389314D01*
X141057963Y-61543373D01*
X141075359Y-61720000D01*
X141057963Y-61896627D01*
X141023616Y-62009853D01*
X141006443Y-62066467D01*
X140932348Y-62205087D01*
X140922778Y-62222991D01*
X140918667Y-62228000D01*
X140810186Y-62360186D01*
X140708729Y-62443448D01*
X140672991Y-62472778D01*
X140672989Y-62472779D01*
X140516467Y-62556443D01*
X140459853Y-62573616D01*
X140346627Y-62607963D01*
X140280442Y-62614482D01*
X140214260Y-62621000D01*
X140125740Y-62621000D01*
X140059558Y-62614482D01*
X139993373Y-62607963D01*
X139880147Y-62573616D01*
X139823533Y-62556443D01*
X139667011Y-62472779D01*
X139667009Y-62472778D01*
X139631271Y-62443448D01*
X139529814Y-62360186D01*
X139421333Y-62228000D01*
X139417222Y-62222991D01*
X139407652Y-62205087D01*
X139333557Y-62066467D01*
X139316384Y-62009853D01*
X139282037Y-61896627D01*
X139264641Y-61720000D01*
X139282037Y-61543373D01*
X139328770Y-61389314D01*
X139333557Y-61373533D01*
X139417221Y-61217011D01*
X139417222Y-61217009D01*
X139446552Y-61181271D01*
X139529814Y-61079814D01*
X139631271Y-60996552D01*
X139667009Y-60967222D01*
X139684913Y-60957652D01*
X139823533Y-60883557D01*
X139880147Y-60866384D01*
X139993373Y-60832037D01*
X140059557Y-60825519D01*
X140125740Y-60819000D01*
X140214260Y-60819000D01*
X140280443Y-60825519D01*
X140280443Y-60825519D01*
G37*
G36*
X106080442Y-58793518D02*
X106146627Y-58800037D01*
X106257049Y-58833533D01*
X106316467Y-58851557D01*
X106403311Y-58897977D01*
X106472991Y-58935222D01*
X106508729Y-58964552D01*
X106610186Y-59047814D01*
X106693448Y-59149271D01*
X106722778Y-59185009D01*
X106722779Y-59185011D01*
X106806443Y-59341533D01*
X106823616Y-59398147D01*
X106857963Y-59511373D01*
X106875359Y-59688000D01*
X106857963Y-59864627D01*
X106837289Y-59932779D01*
X106806443Y-60034467D01*
X106781570Y-60081000D01*
X106722778Y-60190991D01*
X106693448Y-60226729D01*
X106610186Y-60328186D01*
X106508729Y-60411448D01*
X106472991Y-60440778D01*
X106472989Y-60440779D01*
X106316467Y-60524443D01*
X106309069Y-60526687D01*
X106146627Y-60575963D01*
X106080442Y-60582482D01*
X106014260Y-60589000D01*
X105925740Y-60589000D01*
X105859558Y-60582482D01*
X105793373Y-60575963D01*
X105630931Y-60526687D01*
X105623533Y-60524443D01*
X105467011Y-60440779D01*
X105467009Y-60440778D01*
X105431271Y-60411448D01*
X105329814Y-60328186D01*
X105246552Y-60226729D01*
X105217222Y-60190991D01*
X105158430Y-60081000D01*
X105133557Y-60034467D01*
X105102711Y-59932779D01*
X105082037Y-59864627D01*
X105064641Y-59688000D01*
X105082037Y-59511373D01*
X105116384Y-59398147D01*
X105133557Y-59341533D01*
X105217221Y-59185011D01*
X105217222Y-59185009D01*
X105246552Y-59149271D01*
X105329814Y-59047814D01*
X105431271Y-58964552D01*
X105467009Y-58935222D01*
X105536689Y-58897977D01*
X105623533Y-58851557D01*
X105682951Y-58833533D01*
X105793373Y-58800037D01*
X105859558Y-58793518D01*
X105925740Y-58787000D01*
X106014260Y-58787000D01*
X106080442Y-58793518D01*
X106080442Y-58793518D01*
G37*
G36*
X102249000Y-60539000D02*
X100547000Y-60539000D01*
X100547000Y-58837000D01*
X102249000Y-58837000D01*
X102249000Y-60539000D01*
X102249000Y-60539000D01*
G37*
G36*
X86324821Y-58849313D02*
X86324824Y-58849314D01*
X86324825Y-58849314D01*
X86485239Y-58897975D01*
X86485241Y-58897976D01*
X86485244Y-58897977D01*
X86633078Y-58976995D01*
X86762659Y-59083341D01*
X86869005Y-59212922D01*
X86948023Y-59360756D01*
X86948024Y-59360759D01*
X86948025Y-59360761D01*
X86993713Y-59511375D01*
X86996687Y-59521179D01*
X87013117Y-59688000D01*
X86996687Y-59854821D01*
X86996686Y-59854824D01*
X86996686Y-59854825D01*
X86993713Y-59864627D01*
X86948023Y-60015244D01*
X86869005Y-60163078D01*
X86762659Y-60292659D01*
X86633078Y-60399005D01*
X86485244Y-60478023D01*
X86485241Y-60478024D01*
X86485239Y-60478025D01*
X86324825Y-60526686D01*
X86324824Y-60526686D01*
X86324821Y-60526687D01*
X86199804Y-60539000D01*
X86116196Y-60539000D01*
X85991179Y-60526687D01*
X85991176Y-60526686D01*
X85991175Y-60526686D01*
X85830761Y-60478025D01*
X85830759Y-60478024D01*
X85830756Y-60478023D01*
X85682922Y-60399005D01*
X85553341Y-60292659D01*
X85446995Y-60163078D01*
X85367977Y-60015244D01*
X85322288Y-59864627D01*
X85319314Y-59854825D01*
X85319314Y-59854824D01*
X85319313Y-59854821D01*
X85302883Y-59688000D01*
X85319313Y-59521179D01*
X85322287Y-59511375D01*
X85367975Y-59360761D01*
X85367976Y-59360759D01*
X85367977Y-59360756D01*
X85446995Y-59212922D01*
X85553341Y-59083341D01*
X85682922Y-58976995D01*
X85830756Y-58897977D01*
X85830759Y-58897976D01*
X85830761Y-58897975D01*
X85991175Y-58849314D01*
X85991176Y-58849314D01*
X85991179Y-58849313D01*
X86116196Y-58837000D01*
X86199804Y-58837000D01*
X86324821Y-58849313D01*
X86324821Y-58849313D01*
G37*
G36*
X140280442Y-58285518D02*
X140346627Y-58292037D01*
X140459853Y-58326384D01*
X140516467Y-58343557D01*
X140655087Y-58417652D01*
X140672991Y-58427222D01*
X140708729Y-58456552D01*
X140810186Y-58539814D01*
X140893448Y-58641271D01*
X140922778Y-58677009D01*
X140922779Y-58677011D01*
X141006443Y-58833533D01*
X141011230Y-58849314D01*
X141057963Y-59003373D01*
X141075359Y-59180000D01*
X141057963Y-59356627D01*
X141023616Y-59469853D01*
X141006443Y-59526467D01*
X140932348Y-59665087D01*
X140922778Y-59682991D01*
X140918667Y-59688000D01*
X140810186Y-59820186D01*
X140708729Y-59903448D01*
X140672991Y-59932778D01*
X140672989Y-59932779D01*
X140516467Y-60016443D01*
X140459853Y-60033616D01*
X140346627Y-60067963D01*
X140280443Y-60074481D01*
X140214260Y-60081000D01*
X140125740Y-60081000D01*
X140059557Y-60074481D01*
X139993373Y-60067963D01*
X139880147Y-60033616D01*
X139823533Y-60016443D01*
X139667011Y-59932779D01*
X139667009Y-59932778D01*
X139631271Y-59903448D01*
X139529814Y-59820186D01*
X139421333Y-59688000D01*
X139417222Y-59682991D01*
X139407652Y-59665087D01*
X139333557Y-59526467D01*
X139316384Y-59469853D01*
X139282037Y-59356627D01*
X139264641Y-59180000D01*
X139282037Y-59003373D01*
X139328770Y-58849314D01*
X139333557Y-58833533D01*
X139417221Y-58677011D01*
X139417222Y-58677009D01*
X139446552Y-58641271D01*
X139529814Y-58539814D01*
X139631271Y-58456552D01*
X139667009Y-58427222D01*
X139684913Y-58417652D01*
X139823533Y-58343557D01*
X139880147Y-58326384D01*
X139993373Y-58292037D01*
X140059558Y-58285518D01*
X140125740Y-58279000D01*
X140214260Y-58279000D01*
X140280442Y-58285518D01*
X140280442Y-58285518D01*
G37*
G36*
X129901000Y-58401000D02*
X128099000Y-58401000D01*
X128099000Y-56599000D01*
X129901000Y-56599000D01*
X129901000Y-58401000D01*
X129901000Y-58401000D01*
G37*
G36*
X126570443Y-56605519D02*
X126636627Y-56612037D01*
X126749853Y-56646384D01*
X126806467Y-56663557D01*
X126945087Y-56737652D01*
X126962991Y-56747222D01*
X126998729Y-56776552D01*
X127100186Y-56859814D01*
X127183448Y-56961271D01*
X127212778Y-56997009D01*
X127212779Y-56997011D01*
X127296443Y-57153533D01*
X127296443Y-57153534D01*
X127347963Y-57323373D01*
X127365359Y-57500000D01*
X127347963Y-57676627D01*
X127313616Y-57789853D01*
X127296443Y-57846467D01*
X127222348Y-57985087D01*
X127212778Y-58002991D01*
X127183448Y-58038729D01*
X127100186Y-58140186D01*
X126998729Y-58223448D01*
X126962991Y-58252778D01*
X126962989Y-58252779D01*
X126806467Y-58336443D01*
X126749853Y-58353616D01*
X126636627Y-58387963D01*
X126570443Y-58394481D01*
X126504260Y-58401000D01*
X126415740Y-58401000D01*
X126349557Y-58394481D01*
X126283373Y-58387963D01*
X126170147Y-58353616D01*
X126113533Y-58336443D01*
X125957011Y-58252779D01*
X125957009Y-58252778D01*
X125921271Y-58223448D01*
X125819814Y-58140186D01*
X125736552Y-58038729D01*
X125707222Y-58002991D01*
X125697652Y-57985087D01*
X125623557Y-57846467D01*
X125606384Y-57789853D01*
X125572037Y-57676627D01*
X125554641Y-57500000D01*
X125572037Y-57323373D01*
X125623557Y-57153534D01*
X125623557Y-57153533D01*
X125707221Y-56997011D01*
X125707222Y-56997009D01*
X125736552Y-56961271D01*
X125819814Y-56859814D01*
X125921271Y-56776552D01*
X125957009Y-56747222D01*
X125974913Y-56737652D01*
X126113533Y-56663557D01*
X126170147Y-56646384D01*
X126283373Y-56612037D01*
X126349557Y-56605519D01*
X126415740Y-56599000D01*
X126504260Y-56599000D01*
X126570443Y-56605519D01*
X126570443Y-56605519D01*
G37*
G36*
X124030443Y-56605519D02*
X124096627Y-56612037D01*
X124209853Y-56646384D01*
X124266467Y-56663557D01*
X124405087Y-56737652D01*
X124422991Y-56747222D01*
X124458729Y-56776552D01*
X124560186Y-56859814D01*
X124643448Y-56961271D01*
X124672778Y-56997009D01*
X124672779Y-56997011D01*
X124756443Y-57153533D01*
X124756443Y-57153534D01*
X124807963Y-57323373D01*
X124825359Y-57500000D01*
X124807963Y-57676627D01*
X124773616Y-57789853D01*
X124756443Y-57846467D01*
X124682348Y-57985087D01*
X124672778Y-58002991D01*
X124643448Y-58038729D01*
X124560186Y-58140186D01*
X124458729Y-58223448D01*
X124422991Y-58252778D01*
X124422989Y-58252779D01*
X124266467Y-58336443D01*
X124209853Y-58353616D01*
X124096627Y-58387963D01*
X124030443Y-58394481D01*
X123964260Y-58401000D01*
X123875740Y-58401000D01*
X123809557Y-58394481D01*
X123743373Y-58387963D01*
X123630147Y-58353616D01*
X123573533Y-58336443D01*
X123417011Y-58252779D01*
X123417009Y-58252778D01*
X123381271Y-58223448D01*
X123279814Y-58140186D01*
X123196552Y-58038729D01*
X123167222Y-58002991D01*
X123157652Y-57985087D01*
X123083557Y-57846467D01*
X123066384Y-57789853D01*
X123032037Y-57676627D01*
X123014641Y-57500000D01*
X123032037Y-57323373D01*
X123083557Y-57153534D01*
X123083557Y-57153533D01*
X123167221Y-56997011D01*
X123167222Y-56997009D01*
X123196552Y-56961271D01*
X123279814Y-56859814D01*
X123381271Y-56776552D01*
X123417009Y-56747222D01*
X123434913Y-56737652D01*
X123573533Y-56663557D01*
X123630147Y-56646384D01*
X123743373Y-56612037D01*
X123809557Y-56605519D01*
X123875740Y-56599000D01*
X123964260Y-56599000D01*
X124030443Y-56605519D01*
X124030443Y-56605519D01*
G37*
G36*
X121490443Y-56605519D02*
X121556627Y-56612037D01*
X121669853Y-56646384D01*
X121726467Y-56663557D01*
X121865087Y-56737652D01*
X121882991Y-56747222D01*
X121918729Y-56776552D01*
X122020186Y-56859814D01*
X122103448Y-56961271D01*
X122132778Y-56997009D01*
X122132779Y-56997011D01*
X122216443Y-57153533D01*
X122216443Y-57153534D01*
X122267963Y-57323373D01*
X122285359Y-57500000D01*
X122267963Y-57676627D01*
X122233616Y-57789853D01*
X122216443Y-57846467D01*
X122142348Y-57985087D01*
X122132778Y-58002991D01*
X122103448Y-58038729D01*
X122020186Y-58140186D01*
X121918729Y-58223448D01*
X121882991Y-58252778D01*
X121882989Y-58252779D01*
X121726467Y-58336443D01*
X121669853Y-58353616D01*
X121556627Y-58387963D01*
X121490443Y-58394481D01*
X121424260Y-58401000D01*
X121335740Y-58401000D01*
X121269557Y-58394481D01*
X121203373Y-58387963D01*
X121090147Y-58353616D01*
X121033533Y-58336443D01*
X120877011Y-58252779D01*
X120877009Y-58252778D01*
X120841271Y-58223448D01*
X120739814Y-58140186D01*
X120656552Y-58038729D01*
X120627222Y-58002991D01*
X120617652Y-57985087D01*
X120543557Y-57846467D01*
X120526384Y-57789853D01*
X120492037Y-57676627D01*
X120474641Y-57500000D01*
X120492037Y-57323373D01*
X120543557Y-57153534D01*
X120543557Y-57153533D01*
X120627221Y-56997011D01*
X120627222Y-56997009D01*
X120656552Y-56961271D01*
X120739814Y-56859814D01*
X120841271Y-56776552D01*
X120877009Y-56747222D01*
X120894913Y-56737652D01*
X121033533Y-56663557D01*
X121090147Y-56646384D01*
X121203373Y-56612037D01*
X121269557Y-56605519D01*
X121335740Y-56599000D01*
X121424260Y-56599000D01*
X121490443Y-56605519D01*
X121490443Y-56605519D01*
G37*
G36*
X140280443Y-55745519D02*
X140346627Y-55752037D01*
X140459853Y-55786384D01*
X140516467Y-55803557D01*
X140646363Y-55872989D01*
X140672991Y-55887222D01*
X140708729Y-55916552D01*
X140810186Y-55999814D01*
X140893448Y-56101271D01*
X140922778Y-56137009D01*
X140922779Y-56137011D01*
X141006443Y-56293533D01*
X141006443Y-56293534D01*
X141057963Y-56463373D01*
X141075359Y-56640000D01*
X141057963Y-56816627D01*
X141044862Y-56859814D01*
X141006443Y-56986467D01*
X141000808Y-56997009D01*
X140922778Y-57142991D01*
X140893448Y-57178729D01*
X140810186Y-57280186D01*
X140708729Y-57363448D01*
X140672991Y-57392778D01*
X140672989Y-57392779D01*
X140516467Y-57476443D01*
X140459853Y-57493616D01*
X140346627Y-57527963D01*
X140280442Y-57534482D01*
X140214260Y-57541000D01*
X140125740Y-57541000D01*
X140059558Y-57534482D01*
X139993373Y-57527963D01*
X139880147Y-57493616D01*
X139823533Y-57476443D01*
X139667011Y-57392779D01*
X139667009Y-57392778D01*
X139631271Y-57363448D01*
X139529814Y-57280186D01*
X139446552Y-57178729D01*
X139417222Y-57142991D01*
X139339192Y-56997009D01*
X139333557Y-56986467D01*
X139295138Y-56859814D01*
X139282037Y-56816627D01*
X139264641Y-56640000D01*
X139282037Y-56463373D01*
X139333557Y-56293534D01*
X139333557Y-56293533D01*
X139417221Y-56137011D01*
X139417222Y-56137009D01*
X139446552Y-56101271D01*
X139529814Y-55999814D01*
X139631271Y-55916552D01*
X139667009Y-55887222D01*
X139693637Y-55872989D01*
X139823533Y-55803557D01*
X139880147Y-55786384D01*
X139993373Y-55752037D01*
X140059557Y-55745519D01*
X140125740Y-55739000D01*
X140214260Y-55739000D01*
X140280443Y-55745519D01*
X140280443Y-55745519D01*
G37*
G36*
X91631000Y-56271000D02*
X89829000Y-56271000D01*
X89829000Y-54469000D01*
X91631000Y-54469000D01*
X91631000Y-56271000D01*
X91631000Y-56271000D01*
G37*
G36*
X93380443Y-54475519D02*
X93446627Y-54482037D01*
X93559853Y-54516384D01*
X93616467Y-54533557D01*
X93755087Y-54607652D01*
X93772991Y-54617222D01*
X93808729Y-54646552D01*
X93910186Y-54729814D01*
X93993448Y-54831271D01*
X94022778Y-54867009D01*
X94022779Y-54867011D01*
X94106443Y-55023533D01*
X94106443Y-55023534D01*
X94157963Y-55193373D01*
X94175359Y-55370000D01*
X94157963Y-55546627D01*
X94141716Y-55600185D01*
X94106443Y-55716467D01*
X94087430Y-55752037D01*
X94022778Y-55872991D01*
X93993448Y-55908729D01*
X93910186Y-56010186D01*
X93808729Y-56093448D01*
X93772991Y-56122778D01*
X93772989Y-56122779D01*
X93616467Y-56206443D01*
X93559853Y-56223616D01*
X93446627Y-56257963D01*
X93380443Y-56264481D01*
X93314260Y-56271000D01*
X93225740Y-56271000D01*
X93159557Y-56264481D01*
X93093373Y-56257963D01*
X92980147Y-56223616D01*
X92923533Y-56206443D01*
X92767011Y-56122779D01*
X92767009Y-56122778D01*
X92731271Y-56093448D01*
X92629814Y-56010186D01*
X92546552Y-55908729D01*
X92517222Y-55872991D01*
X92452570Y-55752037D01*
X92433557Y-55716467D01*
X92398284Y-55600185D01*
X92382037Y-55546627D01*
X92364641Y-55370000D01*
X92382037Y-55193373D01*
X92433557Y-55023534D01*
X92433557Y-55023533D01*
X92517221Y-54867011D01*
X92517222Y-54867009D01*
X92546552Y-54831271D01*
X92629814Y-54729814D01*
X92731271Y-54646552D01*
X92767009Y-54617222D01*
X92784913Y-54607652D01*
X92923533Y-54533557D01*
X92980147Y-54516384D01*
X93093373Y-54482037D01*
X93159557Y-54475519D01*
X93225740Y-54469000D01*
X93314260Y-54469000D01*
X93380443Y-54475519D01*
X93380443Y-54475519D01*
G37*
G36*
X95920443Y-54475519D02*
X95986627Y-54482037D01*
X96099853Y-54516384D01*
X96156467Y-54533557D01*
X96295087Y-54607652D01*
X96312991Y-54617222D01*
X96348729Y-54646552D01*
X96450186Y-54729814D01*
X96533448Y-54831271D01*
X96562778Y-54867009D01*
X96562779Y-54867011D01*
X96646443Y-55023533D01*
X96646443Y-55023534D01*
X96697963Y-55193373D01*
X96715359Y-55370000D01*
X96697963Y-55546627D01*
X96681716Y-55600185D01*
X96646443Y-55716467D01*
X96627430Y-55752037D01*
X96562778Y-55872991D01*
X96533448Y-55908729D01*
X96450186Y-56010186D01*
X96348729Y-56093448D01*
X96312991Y-56122778D01*
X96312989Y-56122779D01*
X96156467Y-56206443D01*
X96099853Y-56223616D01*
X95986627Y-56257963D01*
X95920443Y-56264481D01*
X95854260Y-56271000D01*
X95765740Y-56271000D01*
X95699557Y-56264481D01*
X95633373Y-56257963D01*
X95520147Y-56223616D01*
X95463533Y-56206443D01*
X95307011Y-56122779D01*
X95307009Y-56122778D01*
X95271271Y-56093448D01*
X95169814Y-56010186D01*
X95086552Y-55908729D01*
X95057222Y-55872991D01*
X94992570Y-55752037D01*
X94973557Y-55716467D01*
X94938284Y-55600185D01*
X94922037Y-55546627D01*
X94904641Y-55370000D01*
X94922037Y-55193373D01*
X94973557Y-55023534D01*
X94973557Y-55023533D01*
X95057221Y-54867011D01*
X95057222Y-54867009D01*
X95086552Y-54831271D01*
X95169814Y-54729814D01*
X95271271Y-54646552D01*
X95307009Y-54617222D01*
X95324913Y-54607652D01*
X95463533Y-54533557D01*
X95520147Y-54516384D01*
X95633373Y-54482037D01*
X95699557Y-54475519D01*
X95765740Y-54469000D01*
X95854260Y-54469000D01*
X95920443Y-54475519D01*
X95920443Y-54475519D01*
G37*
G36*
X121490443Y-54065519D02*
X121556627Y-54072037D01*
X121669853Y-54106384D01*
X121726467Y-54123557D01*
X121865087Y-54197652D01*
X121882991Y-54207222D01*
X121918729Y-54236552D01*
X122020186Y-54319814D01*
X122103448Y-54421271D01*
X122132778Y-54457009D01*
X122132779Y-54457011D01*
X122216443Y-54613533D01*
X122217562Y-54617222D01*
X122267963Y-54783373D01*
X122285359Y-54960000D01*
X122267963Y-55136627D01*
X122233616Y-55249853D01*
X122216443Y-55306467D01*
X122182483Y-55370000D01*
X122132778Y-55462991D01*
X122103448Y-55498729D01*
X122020186Y-55600186D01*
X121918729Y-55683448D01*
X121882991Y-55712778D01*
X121882989Y-55712779D01*
X121726467Y-55796443D01*
X121669853Y-55813616D01*
X121556627Y-55847963D01*
X121490443Y-55854481D01*
X121424260Y-55861000D01*
X121335740Y-55861000D01*
X121269557Y-55854481D01*
X121203373Y-55847963D01*
X121090147Y-55813616D01*
X121033533Y-55796443D01*
X120877011Y-55712779D01*
X120877009Y-55712778D01*
X120841271Y-55683448D01*
X120739814Y-55600186D01*
X120656552Y-55498729D01*
X120627222Y-55462991D01*
X120577517Y-55370000D01*
X120543557Y-55306467D01*
X120526384Y-55249853D01*
X120492037Y-55136627D01*
X120474641Y-54960000D01*
X120492037Y-54783373D01*
X120542438Y-54617222D01*
X120543557Y-54613533D01*
X120627221Y-54457011D01*
X120627222Y-54457009D01*
X120656552Y-54421271D01*
X120739814Y-54319814D01*
X120841271Y-54236552D01*
X120877009Y-54207222D01*
X120894913Y-54197652D01*
X121033533Y-54123557D01*
X121090147Y-54106384D01*
X121203373Y-54072037D01*
X121269557Y-54065519D01*
X121335740Y-54059000D01*
X121424260Y-54059000D01*
X121490443Y-54065519D01*
X121490443Y-54065519D01*
G37*
G36*
X124030443Y-54065519D02*
X124096627Y-54072037D01*
X124209853Y-54106384D01*
X124266467Y-54123557D01*
X124405087Y-54197652D01*
X124422991Y-54207222D01*
X124458729Y-54236552D01*
X124560186Y-54319814D01*
X124643448Y-54421271D01*
X124672778Y-54457009D01*
X124672779Y-54457011D01*
X124756443Y-54613533D01*
X124757562Y-54617222D01*
X124807963Y-54783373D01*
X124825359Y-54960000D01*
X124807963Y-55136627D01*
X124773616Y-55249853D01*
X124756443Y-55306467D01*
X124722483Y-55370000D01*
X124672778Y-55462991D01*
X124643448Y-55498729D01*
X124560186Y-55600186D01*
X124458729Y-55683448D01*
X124422991Y-55712778D01*
X124422989Y-55712779D01*
X124266467Y-55796443D01*
X124209853Y-55813616D01*
X124096627Y-55847963D01*
X124030443Y-55854481D01*
X123964260Y-55861000D01*
X123875740Y-55861000D01*
X123809557Y-55854481D01*
X123743373Y-55847963D01*
X123630147Y-55813616D01*
X123573533Y-55796443D01*
X123417011Y-55712779D01*
X123417009Y-55712778D01*
X123381271Y-55683448D01*
X123279814Y-55600186D01*
X123196552Y-55498729D01*
X123167222Y-55462991D01*
X123117517Y-55370000D01*
X123083557Y-55306467D01*
X123066384Y-55249853D01*
X123032037Y-55136627D01*
X123014641Y-54960000D01*
X123032037Y-54783373D01*
X123082438Y-54617222D01*
X123083557Y-54613533D01*
X123167221Y-54457011D01*
X123167222Y-54457009D01*
X123196552Y-54421271D01*
X123279814Y-54319814D01*
X123381271Y-54236552D01*
X123417009Y-54207222D01*
X123434913Y-54197652D01*
X123573533Y-54123557D01*
X123630147Y-54106384D01*
X123743373Y-54072037D01*
X123809557Y-54065519D01*
X123875740Y-54059000D01*
X123964260Y-54059000D01*
X124030443Y-54065519D01*
X124030443Y-54065519D01*
G37*
G36*
X126570443Y-54065519D02*
X126636627Y-54072037D01*
X126749853Y-54106384D01*
X126806467Y-54123557D01*
X126945087Y-54197652D01*
X126962991Y-54207222D01*
X126998729Y-54236552D01*
X127100186Y-54319814D01*
X127183448Y-54421271D01*
X127212778Y-54457009D01*
X127212779Y-54457011D01*
X127296443Y-54613533D01*
X127297562Y-54617222D01*
X127347963Y-54783373D01*
X127365359Y-54960000D01*
X127347963Y-55136627D01*
X127313616Y-55249853D01*
X127296443Y-55306467D01*
X127262483Y-55370000D01*
X127212778Y-55462991D01*
X127183448Y-55498729D01*
X127100186Y-55600186D01*
X126998729Y-55683448D01*
X126962991Y-55712778D01*
X126962989Y-55712779D01*
X126806467Y-55796443D01*
X126749853Y-55813616D01*
X126636627Y-55847963D01*
X126570443Y-55854481D01*
X126504260Y-55861000D01*
X126415740Y-55861000D01*
X126349557Y-55854481D01*
X126283373Y-55847963D01*
X126170147Y-55813616D01*
X126113533Y-55796443D01*
X125957011Y-55712779D01*
X125957009Y-55712778D01*
X125921271Y-55683448D01*
X125819814Y-55600186D01*
X125736552Y-55498729D01*
X125707222Y-55462991D01*
X125657517Y-55370000D01*
X125623557Y-55306467D01*
X125606384Y-55249853D01*
X125572037Y-55136627D01*
X125554641Y-54960000D01*
X125572037Y-54783373D01*
X125622438Y-54617222D01*
X125623557Y-54613533D01*
X125707221Y-54457011D01*
X125707222Y-54457009D01*
X125736552Y-54421271D01*
X125819814Y-54319814D01*
X125921271Y-54236552D01*
X125957009Y-54207222D01*
X125974913Y-54197652D01*
X126113533Y-54123557D01*
X126170147Y-54106384D01*
X126283373Y-54072037D01*
X126349557Y-54065519D01*
X126415740Y-54059000D01*
X126504260Y-54059000D01*
X126570443Y-54065519D01*
X126570443Y-54065519D01*
G37*
G36*
X129110443Y-54065519D02*
X129176627Y-54072037D01*
X129289853Y-54106384D01*
X129346467Y-54123557D01*
X129485087Y-54197652D01*
X129502991Y-54207222D01*
X129538729Y-54236552D01*
X129640186Y-54319814D01*
X129723448Y-54421271D01*
X129752778Y-54457009D01*
X129752779Y-54457011D01*
X129836443Y-54613533D01*
X129837562Y-54617222D01*
X129887963Y-54783373D01*
X129905359Y-54960000D01*
X129887963Y-55136627D01*
X129853616Y-55249853D01*
X129836443Y-55306467D01*
X129802483Y-55370000D01*
X129752778Y-55462991D01*
X129723448Y-55498729D01*
X129640186Y-55600186D01*
X129538729Y-55683448D01*
X129502991Y-55712778D01*
X129502989Y-55712779D01*
X129346467Y-55796443D01*
X129289853Y-55813616D01*
X129176627Y-55847963D01*
X129110443Y-55854481D01*
X129044260Y-55861000D01*
X128955740Y-55861000D01*
X128889557Y-55854481D01*
X128823373Y-55847963D01*
X128710147Y-55813616D01*
X128653533Y-55796443D01*
X128497011Y-55712779D01*
X128497009Y-55712778D01*
X128461271Y-55683448D01*
X128359814Y-55600186D01*
X128276552Y-55498729D01*
X128247222Y-55462991D01*
X128197517Y-55370000D01*
X128163557Y-55306467D01*
X128146384Y-55249853D01*
X128112037Y-55136627D01*
X128094641Y-54960000D01*
X128112037Y-54783373D01*
X128162438Y-54617222D01*
X128163557Y-54613533D01*
X128247221Y-54457011D01*
X128247222Y-54457009D01*
X128276552Y-54421271D01*
X128359814Y-54319814D01*
X128461271Y-54236552D01*
X128497009Y-54207222D01*
X128514913Y-54197652D01*
X128653533Y-54123557D01*
X128710147Y-54106384D01*
X128823373Y-54072037D01*
X128889557Y-54065519D01*
X128955740Y-54059000D01*
X129044260Y-54059000D01*
X129110443Y-54065519D01*
X129110443Y-54065519D01*
G37*
G36*
X66700443Y-51905519D02*
X66766627Y-51912037D01*
X66879853Y-51946384D01*
X66936467Y-51963557D01*
X67075087Y-52037652D01*
X67092991Y-52047222D01*
X67128729Y-52076552D01*
X67230186Y-52159814D01*
X67313448Y-52261271D01*
X67342778Y-52297009D01*
X67342779Y-52297011D01*
X67426443Y-52453533D01*
X67426443Y-52453534D01*
X67477963Y-52623373D01*
X67495359Y-52800000D01*
X67477963Y-52976627D01*
X67443616Y-53089853D01*
X67426443Y-53146467D01*
X67352348Y-53285087D01*
X67342778Y-53302991D01*
X67313448Y-53338729D01*
X67230186Y-53440186D01*
X67128729Y-53523448D01*
X67092991Y-53552778D01*
X67092989Y-53552779D01*
X66936467Y-53636443D01*
X66879853Y-53653616D01*
X66766627Y-53687963D01*
X66700443Y-53694481D01*
X66634260Y-53701000D01*
X66545740Y-53701000D01*
X66479557Y-53694481D01*
X66413373Y-53687963D01*
X66300147Y-53653616D01*
X66243533Y-53636443D01*
X66087011Y-53552779D01*
X66087009Y-53552778D01*
X66051271Y-53523448D01*
X65949814Y-53440186D01*
X65866552Y-53338729D01*
X65837222Y-53302991D01*
X65827652Y-53285087D01*
X65753557Y-53146467D01*
X65736384Y-53089853D01*
X65702037Y-52976627D01*
X65684641Y-52800000D01*
X65702037Y-52623373D01*
X65753557Y-52453534D01*
X65753557Y-52453533D01*
X65837221Y-52297011D01*
X65837222Y-52297009D01*
X65866552Y-52261271D01*
X65949814Y-52159814D01*
X66051271Y-52076552D01*
X66087009Y-52047222D01*
X66104913Y-52037652D01*
X66243533Y-51963557D01*
X66300147Y-51946384D01*
X66413373Y-51912037D01*
X66479558Y-51905518D01*
X66545740Y-51899000D01*
X66634260Y-51899000D01*
X66700443Y-51905519D01*
X66700443Y-51905519D01*
G37*
G36*
X64160443Y-51905519D02*
X64226627Y-51912037D01*
X64339853Y-51946384D01*
X64396467Y-51963557D01*
X64535087Y-52037652D01*
X64552991Y-52047222D01*
X64588729Y-52076552D01*
X64690186Y-52159814D01*
X64773448Y-52261271D01*
X64802778Y-52297009D01*
X64802779Y-52297011D01*
X64886443Y-52453533D01*
X64886443Y-52453534D01*
X64937963Y-52623373D01*
X64955359Y-52800000D01*
X64937963Y-52976627D01*
X64903616Y-53089853D01*
X64886443Y-53146467D01*
X64812348Y-53285087D01*
X64802778Y-53302991D01*
X64773448Y-53338729D01*
X64690186Y-53440186D01*
X64588729Y-53523448D01*
X64552991Y-53552778D01*
X64552989Y-53552779D01*
X64396467Y-53636443D01*
X64339853Y-53653616D01*
X64226627Y-53687963D01*
X64160443Y-53694481D01*
X64094260Y-53701000D01*
X64005740Y-53701000D01*
X63939557Y-53694481D01*
X63873373Y-53687963D01*
X63760147Y-53653616D01*
X63703533Y-53636443D01*
X63547011Y-53552779D01*
X63547009Y-53552778D01*
X63511271Y-53523448D01*
X63409814Y-53440186D01*
X63326552Y-53338729D01*
X63297222Y-53302991D01*
X63287652Y-53285087D01*
X63213557Y-53146467D01*
X63196384Y-53089853D01*
X63162037Y-52976627D01*
X63144641Y-52800000D01*
X63162037Y-52623373D01*
X63213557Y-52453534D01*
X63213557Y-52453533D01*
X63297221Y-52297011D01*
X63297222Y-52297009D01*
X63326552Y-52261271D01*
X63409814Y-52159814D01*
X63511271Y-52076552D01*
X63547009Y-52047222D01*
X63564913Y-52037652D01*
X63703533Y-51963557D01*
X63760147Y-51946384D01*
X63873373Y-51912037D01*
X63939558Y-51905518D01*
X64005740Y-51899000D01*
X64094260Y-51899000D01*
X64160443Y-51905519D01*
X64160443Y-51905519D01*
G37*
G36*
X61620443Y-51905519D02*
X61686627Y-51912037D01*
X61799853Y-51946384D01*
X61856467Y-51963557D01*
X61995087Y-52037652D01*
X62012991Y-52047222D01*
X62048729Y-52076552D01*
X62150186Y-52159814D01*
X62233448Y-52261271D01*
X62262778Y-52297009D01*
X62262779Y-52297011D01*
X62346443Y-52453533D01*
X62346443Y-52453534D01*
X62397963Y-52623373D01*
X62415359Y-52800000D01*
X62397963Y-52976627D01*
X62363616Y-53089853D01*
X62346443Y-53146467D01*
X62272348Y-53285087D01*
X62262778Y-53302991D01*
X62233448Y-53338729D01*
X62150186Y-53440186D01*
X62048729Y-53523448D01*
X62012991Y-53552778D01*
X62012989Y-53552779D01*
X61856467Y-53636443D01*
X61799853Y-53653616D01*
X61686627Y-53687963D01*
X61620443Y-53694481D01*
X61554260Y-53701000D01*
X61465740Y-53701000D01*
X61399557Y-53694481D01*
X61333373Y-53687963D01*
X61220147Y-53653616D01*
X61163533Y-53636443D01*
X61007011Y-53552779D01*
X61007009Y-53552778D01*
X60971271Y-53523448D01*
X60869814Y-53440186D01*
X60786552Y-53338729D01*
X60757222Y-53302991D01*
X60747652Y-53285087D01*
X60673557Y-53146467D01*
X60656384Y-53089853D01*
X60622037Y-52976627D01*
X60604641Y-52800000D01*
X60622037Y-52623373D01*
X60673557Y-52453534D01*
X60673557Y-52453533D01*
X60757221Y-52297011D01*
X60757222Y-52297009D01*
X60786552Y-52261271D01*
X60869814Y-52159814D01*
X60971271Y-52076552D01*
X61007009Y-52047222D01*
X61024913Y-52037652D01*
X61163533Y-51963557D01*
X61220147Y-51946384D01*
X61333373Y-51912037D01*
X61399558Y-51905518D01*
X61465740Y-51899000D01*
X61554260Y-51899000D01*
X61620443Y-51905519D01*
X61620443Y-51905519D01*
G37*
G36*
X59080443Y-51905519D02*
X59146627Y-51912037D01*
X59259853Y-51946384D01*
X59316467Y-51963557D01*
X59455087Y-52037652D01*
X59472991Y-52047222D01*
X59508729Y-52076552D01*
X59610186Y-52159814D01*
X59693448Y-52261271D01*
X59722778Y-52297009D01*
X59722779Y-52297011D01*
X59806443Y-52453533D01*
X59806443Y-52453534D01*
X59857963Y-52623373D01*
X59875359Y-52800000D01*
X59857963Y-52976627D01*
X59823616Y-53089853D01*
X59806443Y-53146467D01*
X59732348Y-53285087D01*
X59722778Y-53302991D01*
X59693448Y-53338729D01*
X59610186Y-53440186D01*
X59508729Y-53523448D01*
X59472991Y-53552778D01*
X59472989Y-53552779D01*
X59316467Y-53636443D01*
X59259853Y-53653616D01*
X59146627Y-53687963D01*
X59080443Y-53694481D01*
X59014260Y-53701000D01*
X58925740Y-53701000D01*
X58859557Y-53694481D01*
X58793373Y-53687963D01*
X58680147Y-53653616D01*
X58623533Y-53636443D01*
X58467011Y-53552779D01*
X58467009Y-53552778D01*
X58431271Y-53523448D01*
X58329814Y-53440186D01*
X58246552Y-53338729D01*
X58217222Y-53302991D01*
X58207652Y-53285087D01*
X58133557Y-53146467D01*
X58116384Y-53089853D01*
X58082037Y-52976627D01*
X58064641Y-52800000D01*
X58082037Y-52623373D01*
X58133557Y-52453534D01*
X58133557Y-52453533D01*
X58217221Y-52297011D01*
X58217222Y-52297009D01*
X58246552Y-52261271D01*
X58329814Y-52159814D01*
X58431271Y-52076552D01*
X58467009Y-52047222D01*
X58484913Y-52037652D01*
X58623533Y-51963557D01*
X58680147Y-51946384D01*
X58793373Y-51912037D01*
X58859558Y-51905518D01*
X58925740Y-51899000D01*
X59014260Y-51899000D01*
X59080443Y-51905519D01*
X59080443Y-51905519D01*
G37*
G36*
X76860443Y-51905519D02*
X76926627Y-51912037D01*
X77039853Y-51946384D01*
X77096467Y-51963557D01*
X77235087Y-52037652D01*
X77252991Y-52047222D01*
X77288729Y-52076552D01*
X77390186Y-52159814D01*
X77473448Y-52261271D01*
X77502778Y-52297009D01*
X77502779Y-52297011D01*
X77586443Y-52453533D01*
X77586443Y-52453534D01*
X77637963Y-52623373D01*
X77655359Y-52800000D01*
X77637963Y-52976627D01*
X77603616Y-53089853D01*
X77586443Y-53146467D01*
X77512348Y-53285087D01*
X77502778Y-53302991D01*
X77473448Y-53338729D01*
X77390186Y-53440186D01*
X77288729Y-53523448D01*
X77252991Y-53552778D01*
X77252989Y-53552779D01*
X77096467Y-53636443D01*
X77039853Y-53653616D01*
X76926627Y-53687963D01*
X76860443Y-53694481D01*
X76794260Y-53701000D01*
X76705740Y-53701000D01*
X76639557Y-53694481D01*
X76573373Y-53687963D01*
X76460147Y-53653616D01*
X76403533Y-53636443D01*
X76247011Y-53552779D01*
X76247009Y-53552778D01*
X76211271Y-53523448D01*
X76109814Y-53440186D01*
X76026552Y-53338729D01*
X75997222Y-53302991D01*
X75987652Y-53285087D01*
X75913557Y-53146467D01*
X75896384Y-53089853D01*
X75862037Y-52976627D01*
X75844641Y-52800000D01*
X75862037Y-52623373D01*
X75913557Y-52453534D01*
X75913557Y-52453533D01*
X75997221Y-52297011D01*
X75997222Y-52297009D01*
X76026552Y-52261271D01*
X76109814Y-52159814D01*
X76211271Y-52076552D01*
X76247009Y-52047222D01*
X76264913Y-52037652D01*
X76403533Y-51963557D01*
X76460147Y-51946384D01*
X76573373Y-51912037D01*
X76639558Y-51905518D01*
X76705740Y-51899000D01*
X76794260Y-51899000D01*
X76860443Y-51905519D01*
X76860443Y-51905519D01*
G37*
G36*
X79400443Y-51905519D02*
X79466627Y-51912037D01*
X79579853Y-51946384D01*
X79636467Y-51963557D01*
X79775087Y-52037652D01*
X79792991Y-52047222D01*
X79828729Y-52076552D01*
X79930186Y-52159814D01*
X80013448Y-52261271D01*
X80042778Y-52297009D01*
X80042779Y-52297011D01*
X80126443Y-52453533D01*
X80126443Y-52453534D01*
X80177963Y-52623373D01*
X80195359Y-52800000D01*
X80177963Y-52976627D01*
X80143616Y-53089853D01*
X80126443Y-53146467D01*
X80052348Y-53285087D01*
X80042778Y-53302991D01*
X80013448Y-53338729D01*
X79930186Y-53440186D01*
X79828729Y-53523448D01*
X79792991Y-53552778D01*
X79792989Y-53552779D01*
X79636467Y-53636443D01*
X79579853Y-53653616D01*
X79466627Y-53687963D01*
X79400443Y-53694481D01*
X79334260Y-53701000D01*
X79245740Y-53701000D01*
X79179557Y-53694481D01*
X79113373Y-53687963D01*
X79000147Y-53653616D01*
X78943533Y-53636443D01*
X78787011Y-53552779D01*
X78787009Y-53552778D01*
X78751271Y-53523448D01*
X78649814Y-53440186D01*
X78566552Y-53338729D01*
X78537222Y-53302991D01*
X78527652Y-53285087D01*
X78453557Y-53146467D01*
X78436384Y-53089853D01*
X78402037Y-52976627D01*
X78384641Y-52800000D01*
X78402037Y-52623373D01*
X78453557Y-52453534D01*
X78453557Y-52453533D01*
X78537221Y-52297011D01*
X78537222Y-52297009D01*
X78566552Y-52261271D01*
X78649814Y-52159814D01*
X78751271Y-52076552D01*
X78787009Y-52047222D01*
X78804913Y-52037652D01*
X78943533Y-51963557D01*
X79000147Y-51946384D01*
X79113373Y-51912037D01*
X79179558Y-51905518D01*
X79245740Y-51899000D01*
X79334260Y-51899000D01*
X79400443Y-51905519D01*
X79400443Y-51905519D01*
G37*
G36*
X81940443Y-51905519D02*
X82006627Y-51912037D01*
X82119853Y-51946384D01*
X82176467Y-51963557D01*
X82315087Y-52037652D01*
X82332991Y-52047222D01*
X82368729Y-52076552D01*
X82470186Y-52159814D01*
X82553448Y-52261271D01*
X82582778Y-52297009D01*
X82582779Y-52297011D01*
X82666443Y-52453533D01*
X82666443Y-52453534D01*
X82717963Y-52623373D01*
X82735359Y-52800000D01*
X82717963Y-52976627D01*
X82683616Y-53089853D01*
X82666443Y-53146467D01*
X82592348Y-53285087D01*
X82582778Y-53302991D01*
X82553448Y-53338729D01*
X82470186Y-53440186D01*
X82368729Y-53523448D01*
X82332991Y-53552778D01*
X82332989Y-53552779D01*
X82176467Y-53636443D01*
X82119853Y-53653616D01*
X82006627Y-53687963D01*
X81940443Y-53694481D01*
X81874260Y-53701000D01*
X81785740Y-53701000D01*
X81719557Y-53694481D01*
X81653373Y-53687963D01*
X81540147Y-53653616D01*
X81483533Y-53636443D01*
X81327011Y-53552779D01*
X81327009Y-53552778D01*
X81291271Y-53523448D01*
X81189814Y-53440186D01*
X81106552Y-53338729D01*
X81077222Y-53302991D01*
X81067652Y-53285087D01*
X80993557Y-53146467D01*
X80976384Y-53089853D01*
X80942037Y-52976627D01*
X80924641Y-52800000D01*
X80942037Y-52623373D01*
X80993557Y-52453534D01*
X80993557Y-52453533D01*
X81077221Y-52297011D01*
X81077222Y-52297009D01*
X81106552Y-52261271D01*
X81189814Y-52159814D01*
X81291271Y-52076552D01*
X81327009Y-52047222D01*
X81344913Y-52037652D01*
X81483533Y-51963557D01*
X81540147Y-51946384D01*
X81653373Y-51912037D01*
X81719558Y-51905518D01*
X81785740Y-51899000D01*
X81874260Y-51899000D01*
X81940443Y-51905519D01*
X81940443Y-51905519D01*
G37*
G36*
X84480443Y-51905519D02*
X84546627Y-51912037D01*
X84659853Y-51946384D01*
X84716467Y-51963557D01*
X84855087Y-52037652D01*
X84872991Y-52047222D01*
X84908729Y-52076552D01*
X85010186Y-52159814D01*
X85093448Y-52261271D01*
X85122778Y-52297009D01*
X85122779Y-52297011D01*
X85206443Y-52453533D01*
X85206443Y-52453534D01*
X85257963Y-52623373D01*
X85275359Y-52800000D01*
X85257963Y-52976627D01*
X85223616Y-53089853D01*
X85206443Y-53146467D01*
X85132348Y-53285087D01*
X85122778Y-53302991D01*
X85093448Y-53338729D01*
X85010186Y-53440186D01*
X84908729Y-53523448D01*
X84872991Y-53552778D01*
X84872989Y-53552779D01*
X84716467Y-53636443D01*
X84659853Y-53653616D01*
X84546627Y-53687963D01*
X84480443Y-53694481D01*
X84414260Y-53701000D01*
X84325740Y-53701000D01*
X84259557Y-53694481D01*
X84193373Y-53687963D01*
X84080147Y-53653616D01*
X84023533Y-53636443D01*
X83867011Y-53552779D01*
X83867009Y-53552778D01*
X83831271Y-53523448D01*
X83729814Y-53440186D01*
X83646552Y-53338729D01*
X83617222Y-53302991D01*
X83607652Y-53285087D01*
X83533557Y-53146467D01*
X83516384Y-53089853D01*
X83482037Y-52976627D01*
X83464641Y-52800000D01*
X83482037Y-52623373D01*
X83533557Y-52453534D01*
X83533557Y-52453533D01*
X83617221Y-52297011D01*
X83617222Y-52297009D01*
X83646552Y-52261271D01*
X83729814Y-52159814D01*
X83831271Y-52076552D01*
X83867009Y-52047222D01*
X83884913Y-52037652D01*
X84023533Y-51963557D01*
X84080147Y-51946384D01*
X84193373Y-51912037D01*
X84259558Y-51905518D01*
X84325740Y-51899000D01*
X84414260Y-51899000D01*
X84480443Y-51905519D01*
X84480443Y-51905519D01*
G37*
G36*
X69240443Y-51905519D02*
X69306627Y-51912037D01*
X69419853Y-51946384D01*
X69476467Y-51963557D01*
X69615087Y-52037652D01*
X69632991Y-52047222D01*
X69668729Y-52076552D01*
X69770186Y-52159814D01*
X69853448Y-52261271D01*
X69882778Y-52297009D01*
X69882779Y-52297011D01*
X69966443Y-52453533D01*
X69966443Y-52453534D01*
X70017963Y-52623373D01*
X70035359Y-52800000D01*
X70017963Y-52976627D01*
X69983616Y-53089853D01*
X69966443Y-53146467D01*
X69892348Y-53285087D01*
X69882778Y-53302991D01*
X69853448Y-53338729D01*
X69770186Y-53440186D01*
X69668729Y-53523448D01*
X69632991Y-53552778D01*
X69632989Y-53552779D01*
X69476467Y-53636443D01*
X69419853Y-53653616D01*
X69306627Y-53687963D01*
X69240443Y-53694481D01*
X69174260Y-53701000D01*
X69085740Y-53701000D01*
X69019557Y-53694481D01*
X68953373Y-53687963D01*
X68840147Y-53653616D01*
X68783533Y-53636443D01*
X68627011Y-53552779D01*
X68627009Y-53552778D01*
X68591271Y-53523448D01*
X68489814Y-53440186D01*
X68406552Y-53338729D01*
X68377222Y-53302991D01*
X68367652Y-53285087D01*
X68293557Y-53146467D01*
X68276384Y-53089853D01*
X68242037Y-52976627D01*
X68224641Y-52800000D01*
X68242037Y-52623373D01*
X68293557Y-52453534D01*
X68293557Y-52453533D01*
X68377221Y-52297011D01*
X68377222Y-52297009D01*
X68406552Y-52261271D01*
X68489814Y-52159814D01*
X68591271Y-52076552D01*
X68627009Y-52047222D01*
X68644913Y-52037652D01*
X68783533Y-51963557D01*
X68840147Y-51946384D01*
X68953373Y-51912037D01*
X69019558Y-51905518D01*
X69085740Y-51899000D01*
X69174260Y-51899000D01*
X69240443Y-51905519D01*
X69240443Y-51905519D01*
G37*
G36*
X71780443Y-51905519D02*
X71846627Y-51912037D01*
X71959853Y-51946384D01*
X72016467Y-51963557D01*
X72155087Y-52037652D01*
X72172991Y-52047222D01*
X72208729Y-52076552D01*
X72310186Y-52159814D01*
X72393448Y-52261271D01*
X72422778Y-52297009D01*
X72422779Y-52297011D01*
X72506443Y-52453533D01*
X72506443Y-52453534D01*
X72557963Y-52623373D01*
X72575359Y-52800000D01*
X72557963Y-52976627D01*
X72523616Y-53089853D01*
X72506443Y-53146467D01*
X72432348Y-53285087D01*
X72422778Y-53302991D01*
X72393448Y-53338729D01*
X72310186Y-53440186D01*
X72208729Y-53523448D01*
X72172991Y-53552778D01*
X72172989Y-53552779D01*
X72016467Y-53636443D01*
X71959853Y-53653616D01*
X71846627Y-53687963D01*
X71780443Y-53694481D01*
X71714260Y-53701000D01*
X71625740Y-53701000D01*
X71559557Y-53694481D01*
X71493373Y-53687963D01*
X71380147Y-53653616D01*
X71323533Y-53636443D01*
X71167011Y-53552779D01*
X71167009Y-53552778D01*
X71131271Y-53523448D01*
X71029814Y-53440186D01*
X70946552Y-53338729D01*
X70917222Y-53302991D01*
X70907652Y-53285087D01*
X70833557Y-53146467D01*
X70816384Y-53089853D01*
X70782037Y-52976627D01*
X70764641Y-52800000D01*
X70782037Y-52623373D01*
X70833557Y-52453534D01*
X70833557Y-52453533D01*
X70917221Y-52297011D01*
X70917222Y-52297009D01*
X70946552Y-52261271D01*
X71029814Y-52159814D01*
X71131271Y-52076552D01*
X71167009Y-52047222D01*
X71184913Y-52037652D01*
X71323533Y-51963557D01*
X71380147Y-51946384D01*
X71493373Y-51912037D01*
X71559558Y-51905518D01*
X71625740Y-51899000D01*
X71714260Y-51899000D01*
X71780443Y-51905519D01*
X71780443Y-51905519D01*
G37*
G36*
X74320443Y-51905519D02*
X74386627Y-51912037D01*
X74499853Y-51946384D01*
X74556467Y-51963557D01*
X74695087Y-52037652D01*
X74712991Y-52047222D01*
X74748729Y-52076552D01*
X74850186Y-52159814D01*
X74933448Y-52261271D01*
X74962778Y-52297009D01*
X74962779Y-52297011D01*
X75046443Y-52453533D01*
X75046443Y-52453534D01*
X75097963Y-52623373D01*
X75115359Y-52800000D01*
X75097963Y-52976627D01*
X75063616Y-53089853D01*
X75046443Y-53146467D01*
X74972348Y-53285087D01*
X74962778Y-53302991D01*
X74933448Y-53338729D01*
X74850186Y-53440186D01*
X74748729Y-53523448D01*
X74712991Y-53552778D01*
X74712989Y-53552779D01*
X74556467Y-53636443D01*
X74499853Y-53653616D01*
X74386627Y-53687963D01*
X74320443Y-53694481D01*
X74254260Y-53701000D01*
X74165740Y-53701000D01*
X74099557Y-53694481D01*
X74033373Y-53687963D01*
X73920147Y-53653616D01*
X73863533Y-53636443D01*
X73707011Y-53552779D01*
X73707009Y-53552778D01*
X73671271Y-53523448D01*
X73569814Y-53440186D01*
X73486552Y-53338729D01*
X73457222Y-53302991D01*
X73447652Y-53285087D01*
X73373557Y-53146467D01*
X73356384Y-53089853D01*
X73322037Y-52976627D01*
X73304641Y-52800000D01*
X73322037Y-52623373D01*
X73373557Y-52453534D01*
X73373557Y-52453533D01*
X73457221Y-52297011D01*
X73457222Y-52297009D01*
X73486552Y-52261271D01*
X73569814Y-52159814D01*
X73671271Y-52076552D01*
X73707009Y-52047222D01*
X73724913Y-52037652D01*
X73863533Y-51963557D01*
X73920147Y-51946384D01*
X74033373Y-51912037D01*
X74099558Y-51905518D01*
X74165740Y-51899000D01*
X74254260Y-51899000D01*
X74320443Y-51905519D01*
X74320443Y-51905519D01*
G37*
G36*
X76860443Y-49365519D02*
X76926627Y-49372037D01*
X77039853Y-49406384D01*
X77096467Y-49423557D01*
X77235087Y-49497652D01*
X77252991Y-49507222D01*
X77288729Y-49536552D01*
X77390186Y-49619814D01*
X77473448Y-49721271D01*
X77502778Y-49757009D01*
X77502779Y-49757011D01*
X77586443Y-49913533D01*
X77586443Y-49913534D01*
X77637963Y-50083373D01*
X77655359Y-50260000D01*
X77637963Y-50436627D01*
X77603616Y-50549853D01*
X77586443Y-50606467D01*
X77512348Y-50745087D01*
X77502778Y-50762991D01*
X77473448Y-50798729D01*
X77390186Y-50900186D01*
X77288729Y-50983448D01*
X77252991Y-51012778D01*
X77252989Y-51012779D01*
X77096467Y-51096443D01*
X77039853Y-51113616D01*
X76926627Y-51147963D01*
X76860442Y-51154482D01*
X76794260Y-51161000D01*
X76705740Y-51161000D01*
X76639557Y-51154481D01*
X76573373Y-51147963D01*
X76460147Y-51113616D01*
X76403533Y-51096443D01*
X76247011Y-51012779D01*
X76247009Y-51012778D01*
X76211271Y-50983448D01*
X76109814Y-50900186D01*
X76026552Y-50798729D01*
X75997222Y-50762991D01*
X75987652Y-50745087D01*
X75913557Y-50606467D01*
X75896384Y-50549853D01*
X75862037Y-50436627D01*
X75844641Y-50260000D01*
X75862037Y-50083373D01*
X75913557Y-49913534D01*
X75913557Y-49913533D01*
X75997221Y-49757011D01*
X75997222Y-49757009D01*
X76026552Y-49721271D01*
X76109814Y-49619814D01*
X76211271Y-49536552D01*
X76247009Y-49507222D01*
X76264913Y-49497652D01*
X76403533Y-49423557D01*
X76460147Y-49406384D01*
X76573373Y-49372037D01*
X76639557Y-49365519D01*
X76705740Y-49359000D01*
X76794260Y-49359000D01*
X76860443Y-49365519D01*
X76860443Y-49365519D01*
G37*
G36*
X74320443Y-49365519D02*
X74386627Y-49372037D01*
X74499853Y-49406384D01*
X74556467Y-49423557D01*
X74695087Y-49497652D01*
X74712991Y-49507222D01*
X74748729Y-49536552D01*
X74850186Y-49619814D01*
X74933448Y-49721271D01*
X74962778Y-49757009D01*
X74962779Y-49757011D01*
X75046443Y-49913533D01*
X75046443Y-49913534D01*
X75097963Y-50083373D01*
X75115359Y-50260000D01*
X75097963Y-50436627D01*
X75063616Y-50549853D01*
X75046443Y-50606467D01*
X74972348Y-50745087D01*
X74962778Y-50762991D01*
X74933448Y-50798729D01*
X74850186Y-50900186D01*
X74748729Y-50983448D01*
X74712991Y-51012778D01*
X74712989Y-51012779D01*
X74556467Y-51096443D01*
X74499853Y-51113616D01*
X74386627Y-51147963D01*
X74320442Y-51154482D01*
X74254260Y-51161000D01*
X74165740Y-51161000D01*
X74099557Y-51154481D01*
X74033373Y-51147963D01*
X73920147Y-51113616D01*
X73863533Y-51096443D01*
X73707011Y-51012779D01*
X73707009Y-51012778D01*
X73671271Y-50983448D01*
X73569814Y-50900186D01*
X73486552Y-50798729D01*
X73457222Y-50762991D01*
X73447652Y-50745087D01*
X73373557Y-50606467D01*
X73356384Y-50549853D01*
X73322037Y-50436627D01*
X73304641Y-50260000D01*
X73322037Y-50083373D01*
X73373557Y-49913534D01*
X73373557Y-49913533D01*
X73457221Y-49757011D01*
X73457222Y-49757009D01*
X73486552Y-49721271D01*
X73569814Y-49619814D01*
X73671271Y-49536552D01*
X73707009Y-49507222D01*
X73724913Y-49497652D01*
X73863533Y-49423557D01*
X73920147Y-49406384D01*
X74033373Y-49372037D01*
X74099557Y-49365519D01*
X74165740Y-49359000D01*
X74254260Y-49359000D01*
X74320443Y-49365519D01*
X74320443Y-49365519D01*
G37*
G36*
X79400443Y-49365519D02*
X79466627Y-49372037D01*
X79579853Y-49406384D01*
X79636467Y-49423557D01*
X79775087Y-49497652D01*
X79792991Y-49507222D01*
X79828729Y-49536552D01*
X79930186Y-49619814D01*
X80013448Y-49721271D01*
X80042778Y-49757009D01*
X80042779Y-49757011D01*
X80126443Y-49913533D01*
X80126443Y-49913534D01*
X80177963Y-50083373D01*
X80195359Y-50260000D01*
X80177963Y-50436627D01*
X80143616Y-50549853D01*
X80126443Y-50606467D01*
X80052348Y-50745087D01*
X80042778Y-50762991D01*
X80013448Y-50798729D01*
X79930186Y-50900186D01*
X79828729Y-50983448D01*
X79792991Y-51012778D01*
X79792989Y-51012779D01*
X79636467Y-51096443D01*
X79579853Y-51113616D01*
X79466627Y-51147963D01*
X79400442Y-51154482D01*
X79334260Y-51161000D01*
X79245740Y-51161000D01*
X79179557Y-51154481D01*
X79113373Y-51147963D01*
X79000147Y-51113616D01*
X78943533Y-51096443D01*
X78787011Y-51012779D01*
X78787009Y-51012778D01*
X78751271Y-50983448D01*
X78649814Y-50900186D01*
X78566552Y-50798729D01*
X78537222Y-50762991D01*
X78527652Y-50745087D01*
X78453557Y-50606467D01*
X78436384Y-50549853D01*
X78402037Y-50436627D01*
X78384641Y-50260000D01*
X78402037Y-50083373D01*
X78453557Y-49913534D01*
X78453557Y-49913533D01*
X78537221Y-49757011D01*
X78537222Y-49757009D01*
X78566552Y-49721271D01*
X78649814Y-49619814D01*
X78751271Y-49536552D01*
X78787009Y-49507222D01*
X78804913Y-49497652D01*
X78943533Y-49423557D01*
X79000147Y-49406384D01*
X79113373Y-49372037D01*
X79179557Y-49365519D01*
X79245740Y-49359000D01*
X79334260Y-49359000D01*
X79400443Y-49365519D01*
X79400443Y-49365519D01*
G37*
G36*
X71780443Y-49365519D02*
X71846627Y-49372037D01*
X71959853Y-49406384D01*
X72016467Y-49423557D01*
X72155087Y-49497652D01*
X72172991Y-49507222D01*
X72208729Y-49536552D01*
X72310186Y-49619814D01*
X72393448Y-49721271D01*
X72422778Y-49757009D01*
X72422779Y-49757011D01*
X72506443Y-49913533D01*
X72506443Y-49913534D01*
X72557963Y-50083373D01*
X72575359Y-50260000D01*
X72557963Y-50436627D01*
X72523616Y-50549853D01*
X72506443Y-50606467D01*
X72432348Y-50745087D01*
X72422778Y-50762991D01*
X72393448Y-50798729D01*
X72310186Y-50900186D01*
X72208729Y-50983448D01*
X72172991Y-51012778D01*
X72172989Y-51012779D01*
X72016467Y-51096443D01*
X71959853Y-51113616D01*
X71846627Y-51147963D01*
X71780442Y-51154482D01*
X71714260Y-51161000D01*
X71625740Y-51161000D01*
X71559557Y-51154481D01*
X71493373Y-51147963D01*
X71380147Y-51113616D01*
X71323533Y-51096443D01*
X71167011Y-51012779D01*
X71167009Y-51012778D01*
X71131271Y-50983448D01*
X71029814Y-50900186D01*
X70946552Y-50798729D01*
X70917222Y-50762991D01*
X70907652Y-50745087D01*
X70833557Y-50606467D01*
X70816384Y-50549853D01*
X70782037Y-50436627D01*
X70764641Y-50260000D01*
X70782037Y-50083373D01*
X70833557Y-49913534D01*
X70833557Y-49913533D01*
X70917221Y-49757011D01*
X70917222Y-49757009D01*
X70946552Y-49721271D01*
X71029814Y-49619814D01*
X71131271Y-49536552D01*
X71167009Y-49507222D01*
X71184913Y-49497652D01*
X71323533Y-49423557D01*
X71380147Y-49406384D01*
X71493373Y-49372037D01*
X71559557Y-49365519D01*
X71625740Y-49359000D01*
X71714260Y-49359000D01*
X71780443Y-49365519D01*
X71780443Y-49365519D01*
G37*
G36*
X81940443Y-49365519D02*
X82006627Y-49372037D01*
X82119853Y-49406384D01*
X82176467Y-49423557D01*
X82315087Y-49497652D01*
X82332991Y-49507222D01*
X82368729Y-49536552D01*
X82470186Y-49619814D01*
X82553448Y-49721271D01*
X82582778Y-49757009D01*
X82582779Y-49757011D01*
X82666443Y-49913533D01*
X82666443Y-49913534D01*
X82717963Y-50083373D01*
X82735359Y-50260000D01*
X82717963Y-50436627D01*
X82683616Y-50549853D01*
X82666443Y-50606467D01*
X82592348Y-50745087D01*
X82582778Y-50762991D01*
X82553448Y-50798729D01*
X82470186Y-50900186D01*
X82368729Y-50983448D01*
X82332991Y-51012778D01*
X82332989Y-51012779D01*
X82176467Y-51096443D01*
X82119853Y-51113616D01*
X82006627Y-51147963D01*
X81940442Y-51154482D01*
X81874260Y-51161000D01*
X81785740Y-51161000D01*
X81719557Y-51154481D01*
X81653373Y-51147963D01*
X81540147Y-51113616D01*
X81483533Y-51096443D01*
X81327011Y-51012779D01*
X81327009Y-51012778D01*
X81291271Y-50983448D01*
X81189814Y-50900186D01*
X81106552Y-50798729D01*
X81077222Y-50762991D01*
X81067652Y-50745087D01*
X80993557Y-50606467D01*
X80976384Y-50549853D01*
X80942037Y-50436627D01*
X80924641Y-50260000D01*
X80942037Y-50083373D01*
X80993557Y-49913534D01*
X80993557Y-49913533D01*
X81077221Y-49757011D01*
X81077222Y-49757009D01*
X81106552Y-49721271D01*
X81189814Y-49619814D01*
X81291271Y-49536552D01*
X81327009Y-49507222D01*
X81344913Y-49497652D01*
X81483533Y-49423557D01*
X81540147Y-49406384D01*
X81653373Y-49372037D01*
X81719557Y-49365519D01*
X81785740Y-49359000D01*
X81874260Y-49359000D01*
X81940443Y-49365519D01*
X81940443Y-49365519D01*
G37*
G36*
X69240443Y-49365519D02*
X69306627Y-49372037D01*
X69419853Y-49406384D01*
X69476467Y-49423557D01*
X69615087Y-49497652D01*
X69632991Y-49507222D01*
X69668729Y-49536552D01*
X69770186Y-49619814D01*
X69853448Y-49721271D01*
X69882778Y-49757009D01*
X69882779Y-49757011D01*
X69966443Y-49913533D01*
X69966443Y-49913534D01*
X70017963Y-50083373D01*
X70035359Y-50260000D01*
X70017963Y-50436627D01*
X69983616Y-50549853D01*
X69966443Y-50606467D01*
X69892348Y-50745087D01*
X69882778Y-50762991D01*
X69853448Y-50798729D01*
X69770186Y-50900186D01*
X69668729Y-50983448D01*
X69632991Y-51012778D01*
X69632989Y-51012779D01*
X69476467Y-51096443D01*
X69419853Y-51113616D01*
X69306627Y-51147963D01*
X69240442Y-51154482D01*
X69174260Y-51161000D01*
X69085740Y-51161000D01*
X69019557Y-51154481D01*
X68953373Y-51147963D01*
X68840147Y-51113616D01*
X68783533Y-51096443D01*
X68627011Y-51012779D01*
X68627009Y-51012778D01*
X68591271Y-50983448D01*
X68489814Y-50900186D01*
X68406552Y-50798729D01*
X68377222Y-50762991D01*
X68367652Y-50745087D01*
X68293557Y-50606467D01*
X68276384Y-50549853D01*
X68242037Y-50436627D01*
X68224641Y-50260000D01*
X68242037Y-50083373D01*
X68293557Y-49913534D01*
X68293557Y-49913533D01*
X68377221Y-49757011D01*
X68377222Y-49757009D01*
X68406552Y-49721271D01*
X68489814Y-49619814D01*
X68591271Y-49536552D01*
X68627009Y-49507222D01*
X68644913Y-49497652D01*
X68783533Y-49423557D01*
X68840147Y-49406384D01*
X68953373Y-49372037D01*
X69019557Y-49365519D01*
X69085740Y-49359000D01*
X69174260Y-49359000D01*
X69240443Y-49365519D01*
X69240443Y-49365519D01*
G37*
G36*
X85271000Y-51161000D02*
X83469000Y-51161000D01*
X83469000Y-49359000D01*
X85271000Y-49359000D01*
X85271000Y-51161000D01*
X85271000Y-51161000D01*
G37*
G36*
X66700443Y-49365519D02*
X66766627Y-49372037D01*
X66879853Y-49406384D01*
X66936467Y-49423557D01*
X67075087Y-49497652D01*
X67092991Y-49507222D01*
X67128729Y-49536552D01*
X67230186Y-49619814D01*
X67313448Y-49721271D01*
X67342778Y-49757009D01*
X67342779Y-49757011D01*
X67426443Y-49913533D01*
X67426443Y-49913534D01*
X67477963Y-50083373D01*
X67495359Y-50260000D01*
X67477963Y-50436627D01*
X67443616Y-50549853D01*
X67426443Y-50606467D01*
X67352348Y-50745087D01*
X67342778Y-50762991D01*
X67313448Y-50798729D01*
X67230186Y-50900186D01*
X67128729Y-50983448D01*
X67092991Y-51012778D01*
X67092989Y-51012779D01*
X66936467Y-51096443D01*
X66879853Y-51113616D01*
X66766627Y-51147963D01*
X66700442Y-51154482D01*
X66634260Y-51161000D01*
X66545740Y-51161000D01*
X66479557Y-51154481D01*
X66413373Y-51147963D01*
X66300147Y-51113616D01*
X66243533Y-51096443D01*
X66087011Y-51012779D01*
X66087009Y-51012778D01*
X66051271Y-50983448D01*
X65949814Y-50900186D01*
X65866552Y-50798729D01*
X65837222Y-50762991D01*
X65827652Y-50745087D01*
X65753557Y-50606467D01*
X65736384Y-50549853D01*
X65702037Y-50436627D01*
X65684641Y-50260000D01*
X65702037Y-50083373D01*
X65753557Y-49913534D01*
X65753557Y-49913533D01*
X65837221Y-49757011D01*
X65837222Y-49757009D01*
X65866552Y-49721271D01*
X65949814Y-49619814D01*
X66051271Y-49536552D01*
X66087009Y-49507222D01*
X66104913Y-49497652D01*
X66243533Y-49423557D01*
X66300147Y-49406384D01*
X66413373Y-49372037D01*
X66479557Y-49365519D01*
X66545740Y-49359000D01*
X66634260Y-49359000D01*
X66700443Y-49365519D01*
X66700443Y-49365519D01*
G37*
G36*
X64160443Y-49365519D02*
X64226627Y-49372037D01*
X64339853Y-49406384D01*
X64396467Y-49423557D01*
X64535087Y-49497652D01*
X64552991Y-49507222D01*
X64588729Y-49536552D01*
X64690186Y-49619814D01*
X64773448Y-49721271D01*
X64802778Y-49757009D01*
X64802779Y-49757011D01*
X64886443Y-49913533D01*
X64886443Y-49913534D01*
X64937963Y-50083373D01*
X64955359Y-50260000D01*
X64937963Y-50436627D01*
X64903616Y-50549853D01*
X64886443Y-50606467D01*
X64812348Y-50745087D01*
X64802778Y-50762991D01*
X64773448Y-50798729D01*
X64690186Y-50900186D01*
X64588729Y-50983448D01*
X64552991Y-51012778D01*
X64552989Y-51012779D01*
X64396467Y-51096443D01*
X64339853Y-51113616D01*
X64226627Y-51147963D01*
X64160442Y-51154482D01*
X64094260Y-51161000D01*
X64005740Y-51161000D01*
X63939557Y-51154481D01*
X63873373Y-51147963D01*
X63760147Y-51113616D01*
X63703533Y-51096443D01*
X63547011Y-51012779D01*
X63547009Y-51012778D01*
X63511271Y-50983448D01*
X63409814Y-50900186D01*
X63326552Y-50798729D01*
X63297222Y-50762991D01*
X63287652Y-50745087D01*
X63213557Y-50606467D01*
X63196384Y-50549853D01*
X63162037Y-50436627D01*
X63144641Y-50260000D01*
X63162037Y-50083373D01*
X63213557Y-49913534D01*
X63213557Y-49913533D01*
X63297221Y-49757011D01*
X63297222Y-49757009D01*
X63326552Y-49721271D01*
X63409814Y-49619814D01*
X63511271Y-49536552D01*
X63547009Y-49507222D01*
X63564913Y-49497652D01*
X63703533Y-49423557D01*
X63760147Y-49406384D01*
X63873373Y-49372037D01*
X63939557Y-49365519D01*
X64005740Y-49359000D01*
X64094260Y-49359000D01*
X64160443Y-49365519D01*
X64160443Y-49365519D01*
G37*
G36*
X61620443Y-49365519D02*
X61686627Y-49372037D01*
X61799853Y-49406384D01*
X61856467Y-49423557D01*
X61995087Y-49497652D01*
X62012991Y-49507222D01*
X62048729Y-49536552D01*
X62150186Y-49619814D01*
X62233448Y-49721271D01*
X62262778Y-49757009D01*
X62262779Y-49757011D01*
X62346443Y-49913533D01*
X62346443Y-49913534D01*
X62397963Y-50083373D01*
X62415359Y-50260000D01*
X62397963Y-50436627D01*
X62363616Y-50549853D01*
X62346443Y-50606467D01*
X62272348Y-50745087D01*
X62262778Y-50762991D01*
X62233448Y-50798729D01*
X62150186Y-50900186D01*
X62048729Y-50983448D01*
X62012991Y-51012778D01*
X62012989Y-51012779D01*
X61856467Y-51096443D01*
X61799853Y-51113616D01*
X61686627Y-51147963D01*
X61620442Y-51154482D01*
X61554260Y-51161000D01*
X61465740Y-51161000D01*
X61399557Y-51154481D01*
X61333373Y-51147963D01*
X61220147Y-51113616D01*
X61163533Y-51096443D01*
X61007011Y-51012779D01*
X61007009Y-51012778D01*
X60971271Y-50983448D01*
X60869814Y-50900186D01*
X60786552Y-50798729D01*
X60757222Y-50762991D01*
X60747652Y-50745087D01*
X60673557Y-50606467D01*
X60656384Y-50549853D01*
X60622037Y-50436627D01*
X60604641Y-50260000D01*
X60622037Y-50083373D01*
X60673557Y-49913534D01*
X60673557Y-49913533D01*
X60757221Y-49757011D01*
X60757222Y-49757009D01*
X60786552Y-49721271D01*
X60869814Y-49619814D01*
X60971271Y-49536552D01*
X61007009Y-49507222D01*
X61024913Y-49497652D01*
X61163533Y-49423557D01*
X61220147Y-49406384D01*
X61333373Y-49372037D01*
X61399557Y-49365519D01*
X61465740Y-49359000D01*
X61554260Y-49359000D01*
X61620443Y-49365519D01*
X61620443Y-49365519D01*
G37*
G36*
X59080443Y-49365519D02*
X59146627Y-49372037D01*
X59259853Y-49406384D01*
X59316467Y-49423557D01*
X59455087Y-49497652D01*
X59472991Y-49507222D01*
X59508729Y-49536552D01*
X59610186Y-49619814D01*
X59693448Y-49721271D01*
X59722778Y-49757009D01*
X59722779Y-49757011D01*
X59806443Y-49913533D01*
X59806443Y-49913534D01*
X59857963Y-50083373D01*
X59875359Y-50260000D01*
X59857963Y-50436627D01*
X59823616Y-50549853D01*
X59806443Y-50606467D01*
X59732348Y-50745087D01*
X59722778Y-50762991D01*
X59693448Y-50798729D01*
X59610186Y-50900186D01*
X59508729Y-50983448D01*
X59472991Y-51012778D01*
X59472989Y-51012779D01*
X59316467Y-51096443D01*
X59259853Y-51113616D01*
X59146627Y-51147963D01*
X59080442Y-51154482D01*
X59014260Y-51161000D01*
X58925740Y-51161000D01*
X58859557Y-51154481D01*
X58793373Y-51147963D01*
X58680147Y-51113616D01*
X58623533Y-51096443D01*
X58467011Y-51012779D01*
X58467009Y-51012778D01*
X58431271Y-50983448D01*
X58329814Y-50900186D01*
X58246552Y-50798729D01*
X58217222Y-50762991D01*
X58207652Y-50745087D01*
X58133557Y-50606467D01*
X58116384Y-50549853D01*
X58082037Y-50436627D01*
X58064641Y-50260000D01*
X58082037Y-50083373D01*
X58133557Y-49913534D01*
X58133557Y-49913533D01*
X58217221Y-49757011D01*
X58217222Y-49757009D01*
X58246552Y-49721271D01*
X58329814Y-49619814D01*
X58431271Y-49536552D01*
X58467009Y-49507222D01*
X58484913Y-49497652D01*
X58623533Y-49423557D01*
X58680147Y-49406384D01*
X58793373Y-49372037D01*
X58859557Y-49365519D01*
X58925740Y-49359000D01*
X59014260Y-49359000D01*
X59080443Y-49365519D01*
X59080443Y-49365519D01*
G37*
M02*
