G04 #@! TF.GenerationSoftware,KiCad,Pcbnew,(5.0.1-3-g963ef8bb5)*
G04 #@! TF.CreationDate,2018-11-12T23:42:08-05:00*
G04 #@! TF.ProjectId,EuroSID,4575726F5349442E6B696361645F7063,rev?*
G04 #@! TF.SameCoordinates,Original*
G04 #@! TF.FileFunction,Copper,L2,Bot,Signal*
G04 #@! TF.FilePolarity,Positive*
%FSLAX46Y46*%
G04 Gerber Fmt 4.6, Leading zero omitted, Abs format (unit mm)*
G04 Created by KiCad (PCBNEW (5.0.1-3-g963ef8bb5)) date Monday, November 12, 2018 at 11:42:08 PM*
%MOMM*%
%LPD*%
G01*
G04 APERTURE LIST*
G04 #@! TA.AperFunction,ComponentPad*
%ADD10O,1.700000X1.700000*%
G04 #@! TD*
G04 #@! TA.AperFunction,ComponentPad*
%ADD11R,1.700000X1.700000*%
G04 #@! TD*
G04 #@! TA.AperFunction,ComponentPad*
%ADD12O,1.600000X1.600000*%
G04 #@! TD*
G04 #@! TA.AperFunction,ComponentPad*
%ADD13R,1.600000X1.600000*%
G04 #@! TD*
G04 #@! TA.AperFunction,ComponentPad*
%ADD14C,5.600000*%
G04 #@! TD*
G04 #@! TA.AperFunction,ViaPad*
%ADD15C,0.800000*%
G04 #@! TD*
G04 #@! TA.AperFunction,Conductor*
%ADD16C,0.750000*%
G04 #@! TD*
G04 #@! TA.AperFunction,Conductor*
%ADD17C,0.300000*%
G04 #@! TD*
G04 #@! TA.AperFunction,Conductor*
%ADD18C,0.250000*%
G04 #@! TD*
G04 #@! TA.AperFunction,Conductor*
%ADD19C,0.254000*%
G04 #@! TD*
G04 APERTURE END LIST*
D10*
G04 #@! TO.P,J26,8*
G04 #@! TO.N,GND*
X69140000Y-96010000D03*
G04 #@! TO.P,J26,7*
G04 #@! TO.N,RELEASE*
X69140000Y-93470000D03*
G04 #@! TO.P,J26,6*
G04 #@! TO.N,RESONANCE*
X66600000Y-96010000D03*
G04 #@! TO.P,J26,5*
G04 #@! TO.N,SUSTAIN*
X66600000Y-93470000D03*
G04 #@! TO.P,J26,4*
G04 #@! TO.N,CUTOFF*
X64060000Y-96010000D03*
G04 #@! TO.P,J26,3*
G04 #@! TO.N,DECAY*
X64060000Y-93470000D03*
G04 #@! TO.P,J26,2*
G04 #@! TO.N,PWM*
X61520000Y-96010000D03*
D11*
G04 #@! TO.P,J26,1*
G04 #@! TO.N,ATTACK*
X61520000Y-93470000D03*
G04 #@! TD*
G04 #@! TO.P,J24,1*
G04 #@! TO.N,FREQ_A*
X84370000Y-50260000D03*
D10*
G04 #@! TO.P,J24,2*
G04 #@! TO.N,GATE_3*
X84370000Y-52800000D03*
G04 #@! TO.P,J24,3*
G04 #@! TO.N,FREQ_B*
X81830000Y-50260000D03*
G04 #@! TO.P,J24,4*
G04 #@! TO.N,GATE_2*
X81830000Y-52800000D03*
G04 #@! TO.P,J24,5*
G04 #@! TO.N,FREQ_SW*
X79290000Y-50260000D03*
G04 #@! TO.P,J24,6*
G04 #@! TO.N,GATE_1*
X79290000Y-52800000D03*
G04 #@! TO.P,J24,7*
G04 #@! TO.N,FILTER_SW*
X76750000Y-50260000D03*
G04 #@! TO.P,J24,8*
G04 #@! TO.N,LED_LATCH*
X76750000Y-52800000D03*
G04 #@! TO.P,J24,9*
G04 #@! TO.N,FILTEREXT_SW*
X74210000Y-50260000D03*
G04 #@! TO.P,J24,10*
G04 #@! TO.N,LED_CLK*
X74210000Y-52800000D03*
G04 #@! TO.P,J24,11*
G04 #@! TO.N,FILTER3_SW*
X71670000Y-50260000D03*
G04 #@! TO.P,J24,12*
G04 #@! TO.N,LED_DATA*
X71670000Y-52800000D03*
G04 #@! TO.P,J24,13*
G04 #@! TO.N,FILTER2_SW*
X69130000Y-50260000D03*
G04 #@! TO.P,J24,14*
G04 #@! TO.N,N/C*
X69130000Y-52800000D03*
G04 #@! TO.P,J24,15*
G04 #@! TO.N,FILTER1_SW*
X66590000Y-50260000D03*
G04 #@! TO.P,J24,16*
G04 #@! TO.N,N/C*
X66590000Y-52800000D03*
G04 #@! TO.P,J24,17*
G04 #@! TO.N,MODE_SW*
X64050000Y-50260000D03*
G04 #@! TO.P,J24,18*
G04 #@! TO.N,N/C*
X64050000Y-52800000D03*
G04 #@! TO.P,J24,19*
G04 #@! TO.N,VOICE_SW*
X61510000Y-50260000D03*
G04 #@! TO.P,J24,20*
G04 #@! TO.N,MOD_SW*
X61510000Y-52800000D03*
G04 #@! TO.P,J24,21*
G04 #@! TO.N,SET_SW*
X58970000Y-50260000D03*
G04 #@! TO.P,J24,22*
G04 #@! TO.N,SHAPE_SW*
X58970000Y-52800000D03*
G04 #@! TD*
D12*
G04 #@! TO.P,U8,28*
G04 #@! TO.N,Net-(JP1-Pad2)*
X86158000Y-59688000D03*
G04 #@! TO.P,U8,14*
G04 #@! TO.N,GND*
X101398000Y-92708000D03*
G04 #@! TO.P,U8,27*
G04 #@! TO.N,Net-(C35-Pad2)*
X86158000Y-62228000D03*
G04 #@! TO.P,U8,13*
G04 #@! TO.N,/SID Chip/A4*
X101398000Y-90168000D03*
G04 #@! TO.P,U8,26*
G04 #@! TO.N,Net-(C36-Pad2)*
X86158000Y-64768000D03*
G04 #@! TO.P,U8,12*
G04 #@! TO.N,/SID Chip/A3*
X101398000Y-87628000D03*
G04 #@! TO.P,U8,25*
G04 #@! TO.N,+5V*
X86158000Y-67308000D03*
G04 #@! TO.P,U8,11*
G04 #@! TO.N,/SID Chip/A2*
X101398000Y-85088000D03*
G04 #@! TO.P,U8,24*
G04 #@! TO.N,N/C*
X86158000Y-69848000D03*
G04 #@! TO.P,U8,10*
G04 #@! TO.N,/SID Chip/A1*
X101398000Y-82548000D03*
G04 #@! TO.P,U8,23*
G04 #@! TO.N,N/C*
X86158000Y-72388000D03*
G04 #@! TO.P,U8,9*
G04 #@! TO.N,/SID Chip/A0*
X101398000Y-80008000D03*
G04 #@! TO.P,U8,22*
G04 #@! TO.N,/SID Chip/D7*
X86158000Y-74928000D03*
G04 #@! TO.P,U8,8*
G04 #@! TO.N,SID_CS*
X101398000Y-77468000D03*
G04 #@! TO.P,U8,21*
G04 #@! TO.N,/SID Chip/D6*
X86158000Y-77468000D03*
G04 #@! TO.P,U8,7*
G04 #@! TO.N,GND*
X101398000Y-74928000D03*
G04 #@! TO.P,U8,20*
G04 #@! TO.N,/SID Chip/D5*
X86158000Y-80008000D03*
G04 #@! TO.P,U8,6*
G04 #@! TO.N,Net-(U5-Pad2)*
X101398000Y-72388000D03*
G04 #@! TO.P,U8,19*
G04 #@! TO.N,/SID Chip/D4*
X86158000Y-82548000D03*
G04 #@! TO.P,U8,5*
G04 #@! TO.N,SID_RES*
X101398000Y-69848000D03*
G04 #@! TO.P,U8,18*
G04 #@! TO.N,/SID Chip/D3*
X86158000Y-85088000D03*
G04 #@! TO.P,U8,4*
G04 #@! TO.N,Net-(J14-Pad1)*
X101398000Y-67308000D03*
G04 #@! TO.P,U8,17*
G04 #@! TO.N,/SID Chip/D2*
X86158000Y-87628000D03*
G04 #@! TO.P,U8,3*
G04 #@! TO.N,Net-(J14-Pad2)*
X101398000Y-64768000D03*
G04 #@! TO.P,U8,16*
G04 #@! TO.N,/SID Chip/D1*
X86158000Y-90168000D03*
G04 #@! TO.P,U8,2*
G04 #@! TO.N,Net-(J14-Pad3)*
X101398000Y-62228000D03*
G04 #@! TO.P,U8,15*
G04 #@! TO.N,/SID Chip/D0*
X86158000Y-92708000D03*
D13*
G04 #@! TO.P,U8,1*
G04 #@! TO.N,Net-(J14-Pad4)*
X101398000Y-59688000D03*
G04 #@! TD*
D10*
G04 #@! TO.P,JP1,3*
G04 #@! TO.N,+9V*
X95810000Y-55370000D03*
G04 #@! TO.P,JP1,2*
G04 #@! TO.N,Net-(JP1-Pad2)*
X93270000Y-55370000D03*
D11*
G04 #@! TO.P,JP1,1*
G04 #@! TO.N,+12V*
X90730000Y-55370000D03*
G04 #@! TD*
G04 #@! TO.P,J16,1*
G04 #@! TO.N,GND*
X133910000Y-121664000D03*
D10*
G04 #@! TO.P,J16,2*
G04 #@! TO.N,N/C*
X133910000Y-124204000D03*
G04 #@! TO.P,J16,3*
X133910000Y-126744000D03*
G04 #@! TO.P,J16,4*
G04 #@! TO.N,RX*
X133910000Y-129284000D03*
G04 #@! TO.P,J16,5*
G04 #@! TO.N,TX*
X133910000Y-131824000D03*
G04 #@! TO.P,J16,6*
G04 #@! TO.N,N/C*
X133910000Y-134364000D03*
G04 #@! TD*
D11*
G04 #@! TO.P,J17,1*
G04 #@! TO.N,+3V3*
X129338000Y-111504000D03*
D10*
G04 #@! TO.P,J17,2*
G04 #@! TO.N,SWDIO*
X129338000Y-114044000D03*
G04 #@! TO.P,J17,3*
G04 #@! TO.N,GND*
X126798000Y-111504000D03*
G04 #@! TO.P,J17,4*
G04 #@! TO.N,SWCLK*
X126798000Y-114044000D03*
G04 #@! TO.P,J17,5*
G04 #@! TO.N,GND*
X124258000Y-111504000D03*
G04 #@! TO.P,J17,6*
G04 #@! TO.N,N/C*
X124258000Y-114044000D03*
G04 #@! TO.P,J17,7*
X121718000Y-111504000D03*
G04 #@! TO.P,J17,8*
X121718000Y-114044000D03*
G04 #@! TO.P,J17,9*
G04 #@! TO.N,GND*
X119178000Y-111504000D03*
G04 #@! TO.P,J17,10*
G04 #@! TO.N,RESET*
X119178000Y-114044000D03*
G04 #@! TD*
D11*
G04 #@! TO.P,J19,1*
G04 #@! TO.N,+3.3VA*
X46000000Y-85500000D03*
D10*
G04 #@! TO.P,J19,2*
G04 #@! TO.N,-12V*
X46000000Y-88040000D03*
G04 #@! TO.P,J19,3*
G04 #@! TO.N,-10V_REF*
X46000000Y-90580000D03*
G04 #@! TO.P,J19,4*
G04 #@! TO.N,+12V*
X46000000Y-93120000D03*
G04 #@! TO.P,J19,5*
G04 #@! TO.N,+3V3*
X46000000Y-95660000D03*
G04 #@! TO.P,J19,6*
G04 #@! TO.N,+5V*
X46000000Y-98200000D03*
G04 #@! TO.P,J19,7*
G04 #@! TO.N,GND*
X46000000Y-100740000D03*
G04 #@! TD*
G04 #@! TO.P,J29,4*
G04 #@! TO.N,GND*
X140170000Y-56640000D03*
G04 #@! TO.P,J29,3*
G04 #@! TO.N,SID1_EXT*
X140170000Y-59180000D03*
G04 #@! TO.P,J29,2*
G04 #@! TO.N,SID1_OUT*
X140170000Y-61720000D03*
D11*
G04 #@! TO.P,J29,1*
X140170000Y-64260000D03*
G04 #@! TD*
D14*
G04 #@! TO.P,H1,1*
G04 #@! TO.N,GND*
X120700000Y-89660000D03*
G04 #@! TD*
D11*
G04 #@! TO.P,J14,1*
G04 #@! TO.N,Net-(J14-Pad1)*
X105970000Y-67308000D03*
D10*
G04 #@! TO.P,J14,2*
G04 #@! TO.N,Net-(J14-Pad2)*
X105970000Y-64768000D03*
G04 #@! TO.P,J14,3*
G04 #@! TO.N,Net-(J14-Pad3)*
X105970000Y-62228000D03*
G04 #@! TO.P,J14,4*
G04 #@! TO.N,Net-(J14-Pad4)*
X105970000Y-59688000D03*
G04 #@! TD*
D11*
G04 #@! TO.P,J15,1*
G04 #@! TO.N,Net-(D26-Pad1)*
X45518000Y-126490000D03*
D10*
G04 #@! TO.P,J15,2*
X48058000Y-126490000D03*
G04 #@! TO.P,J15,3*
G04 #@! TO.N,GND*
X45518000Y-123950000D03*
G04 #@! TO.P,J15,4*
X48058000Y-123950000D03*
G04 #@! TO.P,J15,5*
X45518000Y-121410000D03*
G04 #@! TO.P,J15,6*
X48058000Y-121410000D03*
G04 #@! TO.P,J15,7*
X45518000Y-118870000D03*
G04 #@! TO.P,J15,8*
X48058000Y-118870000D03*
G04 #@! TO.P,J15,9*
G04 #@! TO.N,Net-(D25-Pad2)*
X45518000Y-116330000D03*
G04 #@! TO.P,J15,10*
X48058000Y-116330000D03*
G04 #@! TO.P,J15,11*
G04 #@! TO.N,N/C*
X45518000Y-113790000D03*
G04 #@! TO.P,J15,12*
X48058000Y-113790000D03*
G04 #@! TO.P,J15,13*
X45518000Y-111250000D03*
G04 #@! TO.P,J15,14*
X48058000Y-111250000D03*
G04 #@! TO.P,J15,15*
X45518000Y-108710000D03*
G04 #@! TO.P,J15,16*
X48058000Y-108710000D03*
G04 #@! TD*
D11*
G04 #@! TO.P,J25,1*
G04 #@! TO.N,CUTOFF_CV*
X129000000Y-57500000D03*
D10*
G04 #@! TO.P,J25,2*
G04 #@! TO.N,SHAPE_CV*
X129000000Y-54960000D03*
G04 #@! TO.P,J25,3*
G04 #@! TO.N,IN3_CV*
X126460000Y-57500000D03*
G04 #@! TO.P,J25,4*
G04 #@! TO.N,PWM_CV*
X126460000Y-54960000D03*
G04 #@! TO.P,J25,5*
G04 #@! TO.N,IN2_CV*
X123920000Y-57500000D03*
G04 #@! TO.P,J25,6*
G04 #@! TO.N,SET_CV*
X123920000Y-54960000D03*
G04 #@! TO.P,J25,7*
G04 #@! TO.N,IN1_CV*
X121380000Y-57500000D03*
G04 #@! TO.P,J25,8*
G04 #@! TO.N,GND*
X121380000Y-54960000D03*
G04 #@! TD*
D11*
G04 #@! TO.P,J27,1*
G04 #@! TO.N,SET_ATTEN*
X140120000Y-102260000D03*
D10*
G04 #@! TO.P,J27,2*
G04 #@! TO.N,PWM_ATTEN*
X140120000Y-99720000D03*
G04 #@! TO.P,J27,3*
G04 #@! TO.N,FREQ_ATTEN*
X140120000Y-97180000D03*
G04 #@! TO.P,J27,4*
G04 #@! TO.N,GND*
X140120000Y-94640000D03*
G04 #@! TD*
D15*
G04 #@! TO.N,GND*
X107270000Y-139250000D03*
X104520000Y-108500000D03*
X136520000Y-110750000D03*
X98520000Y-64500000D03*
X98020000Y-67750000D03*
X109424400Y-67500000D03*
X132020000Y-56000000D03*
X124270000Y-64250000D03*
X50770000Y-96250000D03*
X48270000Y-92750000D03*
X50020000Y-88500000D03*
X71270000Y-98000000D03*
X72520000Y-95000000D03*
X83770000Y-106500000D03*
X90020000Y-108250000D03*
X95270000Y-104250000D03*
X82020000Y-65750000D03*
X80270000Y-59750000D03*
X80520000Y-70750000D03*
X76770000Y-113000000D03*
X55770000Y-99000000D03*
X115236652Y-90273586D03*
X75636286Y-123874445D03*
X115876000Y-100074000D03*
X110796000Y-100836000D03*
X76760000Y-117600000D03*
X81840000Y-113790000D03*
X119940000Y-103630000D03*
X121210000Y-75690000D03*
X107240000Y-54100000D03*
X112320000Y-49020000D03*
X100890000Y-54100000D03*
X89460000Y-69340000D03*
X69140000Y-56640000D03*
X66600000Y-66800000D03*
X67870000Y-60450000D03*
X51360000Y-52830000D03*
X70410000Y-84580000D03*
X75490000Y-73150000D03*
X69140000Y-76960000D03*
X61520000Y-88390000D03*
X140260000Y-89660000D03*
X140260000Y-82040000D03*
X140260000Y-71880000D03*
X132640000Y-102360000D03*
X132640000Y-90930000D03*
X132640000Y-76960000D03*
X125020000Y-69340000D03*
X121210000Y-79500000D03*
X116130000Y-84580000D03*
X107240000Y-76960000D03*
X97080000Y-75690000D03*
X97080000Y-83310000D03*
X108510000Y-97280000D03*
X103430000Y-103630000D03*
X99620000Y-101090000D03*
X84380000Y-103630000D03*
X100890000Y-137920000D03*
X83110000Y-137920000D03*
X80570000Y-134110000D03*
X83110000Y-126490000D03*
X76760000Y-108710000D03*
X65330000Y-102360000D03*
X58980000Y-118870000D03*
X60250000Y-134110000D03*
X60250000Y-130300000D03*
X109475200Y-71321200D03*
X109424400Y-62634400D03*
X128982400Y-121003600D03*
X127878034Y-137056400D03*
X128378701Y-135475691D03*
X125274000Y-136802400D03*
X112435970Y-135873884D03*
X110935958Y-135837200D03*
X119178350Y-138866969D03*
X120549600Y-137869200D03*
X114961600Y-137970800D03*
X110237200Y-117701600D03*
X114758400Y-117854000D03*
X98291000Y-131951000D03*
X99268187Y-127583878D03*
X97334000Y-124254800D03*
X99670800Y-124305600D03*
X97994400Y-117549200D03*
X95048000Y-118412800D03*
X89663200Y-118348000D03*
X88393200Y-115212400D03*
X53290400Y-119733600D03*
X83872000Y-94740000D03*
X78588800Y-94892400D03*
X104649200Y-95705200D03*
X100483600Y-96213200D03*
X46432400Y-137920000D03*
X123648400Y-138464990D03*
X110745200Y-138478800D03*
X125563414Y-119205710D03*
X124664400Y-118006400D03*
X124613600Y-115974400D03*
X124461200Y-106322400D03*
X124410400Y-108710000D03*
X128322000Y-122527600D03*
X128576000Y-124204000D03*
X127458400Y-116888800D03*
X133351200Y-119073200D03*
X119025600Y-99515200D03*
X122073600Y-102563200D03*
X122226000Y-108913200D03*
X117806400Y-108964000D03*
X115723600Y-106932000D03*
X112726400Y-103325200D03*
X98136458Y-93683542D03*
X93019164Y-91250493D03*
X93270000Y-94740000D03*
G04 #@! TO.N,+5V*
X50770000Y-98500000D03*
X107152163Y-92112163D03*
X88190000Y-126490000D03*
X116130000Y-79500000D03*
X104713570Y-85695113D03*
X83110000Y-92200000D03*
X80570000Y-83310000D03*
G04 #@! TO.N,+3V3*
X74770000Y-138500000D03*
X49270000Y-96000000D03*
X122299642Y-131052605D03*
X115622000Y-123219977D03*
X102922000Y-135380000D03*
X116130000Y-130808000D03*
X79554000Y-136396000D03*
G04 #@! TO.N,+3.3VA*
X58770000Y-105000000D03*
X54770000Y-91000000D03*
X79300000Y-122680000D03*
X115622000Y-128776000D03*
G04 #@! TO.N,RESONANCE*
X84666734Y-117313265D03*
X111050000Y-132840000D03*
X104700000Y-129526000D03*
X104700000Y-127760000D03*
G04 #@! TO.N,PWM*
X87232136Y-102047865D03*
X72950000Y-99820000D03*
X74220000Y-101090000D03*
X99620000Y-108710000D03*
X113899832Y-121100168D03*
G04 #@! TO.N,FREQ_ATTEN*
X124353390Y-135530394D03*
X137647852Y-132767852D03*
X114889183Y-134015021D03*
X132573086Y-137689989D03*
G04 #@! TO.N,CUTOFF*
X95686988Y-127839209D03*
X83959620Y-118020381D03*
G04 #@! TO.N,ATTACK*
X114793086Y-126720012D03*
X111050000Y-121410000D03*
X108510000Y-126490000D03*
X92000000Y-116330000D03*
G04 #@! TO.N,DECAY*
X94529668Y-109685977D03*
X111050000Y-125220000D03*
G04 #@! TO.N,SUSTAIN*
X111050000Y-126490000D03*
X85650000Y-111250000D03*
G04 #@! TO.N,-12V*
X53065931Y-95175942D03*
G04 #@! TO.N,RELEASE*
X111050000Y-127743990D03*
X94540000Y-111185989D03*
G04 #@! TO.N,SID1_EXT*
X136870000Y-64000000D03*
X137235131Y-62261814D03*
X137270000Y-59500000D03*
G04 #@! TO.N,+9V*
X93778000Y-134110000D03*
X94082800Y-130808000D03*
X94438400Y-125220000D03*
X89053600Y-85392800D03*
X93727200Y-70457600D03*
X94692400Y-62990000D03*
G04 #@! TO.N,-10V_REF*
X54880563Y-92489437D03*
X55170000Y-96010000D03*
G04 #@! TO.N,/SID Chip/D7*
X83110000Y-74420000D03*
X83110000Y-83310000D03*
G04 #@! TO.N,SID_LATCH*
X116357088Y-93751182D03*
X96009337Y-87960663D03*
X103296385Y-88028001D03*
X99620000Y-88390000D03*
G04 #@! TO.N,SID_CLK*
X94540000Y-94740000D03*
X94540000Y-93108001D03*
X104065000Y-86485000D03*
X98350000Y-88390000D03*
G04 #@! TO.N,/SID Chip/D0*
X83110000Y-90930000D03*
X78030000Y-90930000D03*
G04 #@! TO.N,/SID Chip/D1*
X83110000Y-89660000D03*
X78030000Y-88390000D03*
G04 #@! TO.N,/SID Chip/D2*
X83110000Y-87120000D03*
X78030000Y-87120000D03*
G04 #@! TO.N,/SID Chip/D3*
X83110000Y-84580000D03*
X79300000Y-84580000D03*
G04 #@! TO.N,SID_CS*
X89979988Y-78992000D03*
X111558000Y-124204000D03*
G04 #@! TO.N,SID_RES*
X91158670Y-69156290D03*
X111558000Y-123188000D03*
G04 #@! TO.N,GATE_3*
X117460785Y-129230499D03*
G04 #@! TO.N,GATE_2*
X118684765Y-128694938D03*
X121667200Y-133551200D03*
X124772505Y-133087496D03*
X93270000Y-61720000D03*
X90730000Y-61720000D03*
G04 #@! TO.N,GATE_1*
X121932990Y-135880405D03*
X117685782Y-127327059D03*
X120028977Y-128299977D03*
X93270000Y-101090000D03*
X90730000Y-101090000D03*
G04 #@! TO.N,PWM_ATTEN*
X130770000Y-140000000D03*
G04 #@! TO.N,FREQ_A*
X109526000Y-98549333D03*
X87928591Y-98718574D03*
X117400000Y-61778009D03*
X117400000Y-68070000D03*
X123750000Y-98550000D03*
X78030000Y-99820000D03*
X80570000Y-102360000D03*
X112320000Y-125220000D03*
G04 #@! TO.N,FREQ_B*
X125020000Y-98550000D03*
X119872703Y-125287305D03*
X118670000Y-61778009D03*
X118670000Y-68070000D03*
G04 #@! TO.N,FREQ_SW*
X119940000Y-61778009D03*
X119939992Y-126299954D03*
X119940000Y-68070000D03*
X126290000Y-98550000D03*
G04 #@! TO.N,FILTER_SW*
X133809197Y-60764506D03*
X76760000Y-47024999D03*
X129993690Y-124808990D03*
X133910000Y-116330000D03*
X130100000Y-131570000D03*
G04 #@! TO.N,LED_LATCH*
X122480000Y-116330000D03*
X95810000Y-62990000D03*
G04 #@! TO.N,FILTEREXT_SW*
X74220000Y-47024999D03*
X120914739Y-140949958D03*
X128897324Y-129083456D03*
G04 #@! TO.N,LED_CLK*
X110724442Y-106378879D03*
X118624627Y-117259147D03*
X117556112Y-116222792D03*
X119940000Y-118870000D03*
X116130000Y-108710000D03*
X98350000Y-61720000D03*
G04 #@! TO.N,FILTER3_SW*
X129238940Y-128120680D03*
X113511589Y-138131160D03*
X71680000Y-47024999D03*
X109611932Y-142143021D03*
X109780000Y-139190000D03*
G04 #@! TO.N,LED_DATA*
X74347000Y-96835500D03*
X118670000Y-118759158D03*
X76506000Y-99058000D03*
X84380000Y-97534000D03*
X108764000Y-106932000D03*
X79300000Y-56640000D03*
G04 #@! TO.N,FILTER2_SW*
X118391437Y-137223786D03*
X69140000Y-47024999D03*
X127974308Y-127908150D03*
G04 #@! TO.N,FILTER1_SW*
X66346000Y-47024999D03*
X118924000Y-139952000D03*
X127560000Y-126998000D03*
G04 #@! TO.N,MODE_SW*
X63298000Y-83310000D03*
X77823368Y-95535935D03*
X120783389Y-122145188D03*
X108038990Y-108098635D03*
X62282000Y-48258000D03*
X62282000Y-55624000D03*
X82856000Y-96518000D03*
G04 #@! TO.N,VOICE_SW*
X132809843Y-60800752D03*
X131370000Y-134110000D03*
G04 #@! TO.N,MOD_SW*
X121748060Y-117061940D03*
X94032000Y-60450000D03*
G04 #@! TO.N,SET_SW*
X135270619Y-61435526D03*
X106519340Y-56434021D03*
X133405764Y-118074678D03*
X120484990Y-60800583D03*
X96064000Y-51052000D03*
X128576000Y-116330000D03*
X123496000Y-123950000D03*
G04 #@! TO.N,SHAPE_SW*
X134788007Y-60559678D03*
X119809895Y-60062852D03*
X75236000Y-54862000D03*
X83872000Y-55878000D03*
X134672000Y-117092000D03*
G04 #@! TO.N,CUTOFF_CV*
X131919990Y-67600000D03*
X129770000Y-60800000D03*
X116076412Y-136790349D03*
X127740011Y-98507817D03*
X127560000Y-68070000D03*
G04 #@! TO.N,SHAPE_CV*
X131370000Y-60800000D03*
X132670000Y-69400000D03*
X128830000Y-68350010D03*
X122110590Y-126666388D03*
X121421661Y-128696972D03*
X127560000Y-99820000D03*
X117400000Y-130300000D03*
G04 #@! TO.N,IN3_CV*
X133715512Y-137725512D03*
G04 #@! TO.N,PWM_CV*
X129825001Y-106374231D03*
X136070000Y-107700000D03*
X136070000Y-62200000D03*
X136270000Y-59300000D03*
X131970000Y-53300000D03*
X120016836Y-130806358D03*
G04 #@! TO.N,IN2_CV*
X130213387Y-115604990D03*
X118567640Y-130207962D03*
X123779893Y-126821229D03*
X122279926Y-129552593D03*
X132640000Y-115060000D03*
G04 #@! TO.N,SET_CV*
X117976412Y-134304263D03*
G04 #@! TO.N,IN1_CV*
X120443995Y-134562665D03*
X111812000Y-96010000D03*
X111354800Y-107998800D03*
X121108400Y-123645200D03*
X122480000Y-128166400D03*
G04 #@! TD*
D16*
G04 #@! TO.N,GND*
X97130800Y-118412800D02*
X97994400Y-117549200D01*
D17*
X123648400Y-138428000D02*
X125274000Y-136802400D01*
D18*
X133910000Y-119632000D02*
X133910000Y-121664000D01*
D17*
X114961600Y-137970800D02*
X115857769Y-138866969D01*
D18*
X128576000Y-122781600D02*
X128322000Y-122527600D01*
D17*
X109424400Y-67500000D02*
X109424400Y-71270400D01*
X93270000Y-94740000D02*
X93270000Y-91501329D01*
D18*
X124410400Y-106373200D02*
X124461200Y-106322400D01*
X124410400Y-108710000D02*
X124410400Y-106373200D01*
D16*
X46000000Y-100740000D02*
X47770000Y-98970000D01*
D18*
X119580329Y-138464990D02*
X119178350Y-138866969D01*
D16*
X99268187Y-127583878D02*
X99268187Y-130973813D01*
X78588800Y-94892400D02*
X83719600Y-94892400D01*
D18*
X127058401Y-117710723D02*
X125563414Y-119205710D01*
D17*
X128378701Y-135475691D02*
X127878034Y-135976358D01*
D16*
X97384800Y-124305600D02*
X97334000Y-124254800D01*
D17*
X120176119Y-137869200D02*
X119178350Y-138866969D01*
D16*
X49770000Y-94000000D02*
X54770000Y-99000000D01*
X114758400Y-117854000D02*
X110389600Y-117854000D01*
X95048000Y-118412800D02*
X97130800Y-118412800D01*
X88393200Y-117078000D02*
X89663200Y-118348000D01*
X98136458Y-93683542D02*
X98136458Y-93866058D01*
D17*
X115857769Y-138866969D02*
X119178350Y-138866969D01*
D18*
X123648400Y-138464990D02*
X119580329Y-138464990D01*
D16*
X53290400Y-119733600D02*
X48921600Y-119733600D01*
D17*
X127878034Y-135976358D02*
X127878034Y-137056400D01*
D16*
X98136458Y-93866058D02*
X100483600Y-96213200D01*
X47770000Y-95000000D02*
X48770000Y-94000000D01*
X76770000Y-113000000D02*
X76770000Y-108720000D01*
X48770000Y-94000000D02*
X49770000Y-94000000D01*
D17*
X93270000Y-91501329D02*
X93019164Y-91250493D01*
D18*
X124613600Y-115974400D02*
X124613600Y-117955600D01*
D16*
X110389600Y-117854000D02*
X110237200Y-117701600D01*
D17*
X128322000Y-122527600D02*
X128322000Y-121664000D01*
D16*
X88393200Y-115212400D02*
X88393200Y-117078000D01*
D18*
X127058401Y-117288799D02*
X127058401Y-117710723D01*
D17*
X109424400Y-71270400D02*
X109475200Y-71321200D01*
D16*
X54770000Y-99000000D02*
X55770000Y-99000000D01*
X99670800Y-124305600D02*
X97384800Y-124305600D01*
X76770000Y-108720000D02*
X76760000Y-108710000D01*
D17*
X123648400Y-138464990D02*
X123648400Y-138428000D01*
D16*
X99268187Y-130973813D02*
X98291000Y-131951000D01*
D17*
X120549600Y-137869200D02*
X120176119Y-137869200D01*
D16*
X47770000Y-98970000D02*
X47770000Y-95000000D01*
X83719600Y-94892400D02*
X83872000Y-94740000D01*
D18*
X110745200Y-138478800D02*
X110745200Y-136027958D01*
X110745200Y-136027958D02*
X110935958Y-135837200D01*
X110972642Y-135873884D02*
X110935958Y-135837200D01*
D16*
X104649200Y-95705200D02*
X104395200Y-95705200D01*
D17*
X128322000Y-121664000D02*
X128982400Y-121003600D01*
D18*
X124613600Y-117955600D02*
X124664400Y-118006400D01*
X112435970Y-135873884D02*
X110972642Y-135873884D01*
X128576000Y-124204000D02*
X128576000Y-122781600D01*
X127458400Y-116888800D02*
X127058401Y-117288799D01*
X133351200Y-119073200D02*
X133910000Y-119632000D01*
D16*
X104395200Y-95705200D02*
X101398000Y-92708000D01*
X48921600Y-119733600D02*
X48058000Y-118870000D01*
D17*
X109424400Y-62634400D02*
X109424400Y-67500000D01*
G04 #@! TO.N,+5V*
X80570000Y-83310000D02*
X80570000Y-75849998D01*
D16*
X58440000Y-106170000D02*
X67870000Y-106170000D01*
D17*
X116130000Y-79500000D02*
X109934887Y-85695113D01*
X82749999Y-73669999D02*
X83110000Y-73669999D01*
X104713570Y-85695113D02*
X107152163Y-88133706D01*
X83470001Y-73669999D02*
X83860001Y-74059999D01*
X83110000Y-73669999D02*
X83470001Y-73669999D01*
X107152163Y-88133706D02*
X107152163Y-92112163D01*
X83860001Y-74059999D02*
X83860001Y-91449999D01*
D16*
X50770000Y-98500000D02*
X58440000Y-106170000D01*
X88190000Y-126490000D02*
X67870000Y-106170000D01*
D17*
X83860001Y-91449999D02*
X83110000Y-92200000D01*
X83110000Y-73669999D02*
X83110000Y-70356000D01*
X76111599Y-97928401D02*
X67870000Y-106170000D01*
X76111599Y-94125999D02*
X76111599Y-97928401D01*
X80570000Y-75849998D02*
X82749999Y-73669999D01*
X83110000Y-70356000D02*
X86158000Y-67308000D01*
X83110000Y-92200000D02*
X78037598Y-92200000D01*
X109934887Y-85695113D02*
X104713570Y-85695113D01*
X78037598Y-92200000D02*
X76111599Y-94125999D01*
G04 #@! TO.N,+3V3*
X111844991Y-133663011D02*
X111844991Y-132643243D01*
X113680234Y-130808000D02*
X114700002Y-130808000D01*
X115622000Y-130808000D02*
X115864001Y-131050001D01*
X121284287Y-130037250D02*
X122299642Y-131052605D01*
X102922000Y-136396000D02*
X109112002Y-136396000D01*
D16*
X49270000Y-96000000D02*
X49270000Y-98821876D01*
D17*
X118847022Y-131050001D02*
X119285949Y-130611074D01*
X111844991Y-132643243D02*
X113680234Y-130808000D01*
X114700002Y-130808000D02*
X115622000Y-130808000D01*
X115622000Y-127082919D02*
X115622000Y-123219977D01*
X115864001Y-131050001D02*
X118847022Y-131050001D01*
X119285949Y-130611074D02*
X119285949Y-130427250D01*
X116372001Y-129136001D02*
X116372001Y-127832920D01*
X79554000Y-136396000D02*
X102922000Y-136396000D01*
X119285949Y-130427250D02*
X119675949Y-130037250D01*
X119675949Y-130037250D02*
X121284287Y-130037250D01*
D16*
X49270000Y-98821876D02*
X74770000Y-124321876D01*
X74770000Y-124321876D02*
X74770000Y-138500000D01*
D17*
X109112002Y-136396000D02*
X111844991Y-133663011D01*
X115622000Y-130808000D02*
X116130000Y-130808000D01*
X114700002Y-130808000D02*
X116372001Y-129136001D01*
X116372001Y-127832920D02*
X115622000Y-127082919D01*
D18*
X102922000Y-135380000D02*
X102922000Y-136396000D01*
D17*
G04 #@! TO.N,+3.3VA*
X97930998Y-132701002D02*
X94005996Y-128776000D01*
D16*
X79300000Y-127760000D02*
X79300000Y-122680000D01*
D17*
X115622000Y-128776000D02*
X114892989Y-129505011D01*
D16*
X54770000Y-91000000D02*
X58770000Y-95000000D01*
X58770000Y-95000000D02*
X58770000Y-105000000D01*
D17*
X105044234Y-128776000D02*
X102576004Y-128776000D01*
X102576004Y-128776000D02*
X98651002Y-132701002D01*
X80316000Y-128776000D02*
X79300000Y-127760000D01*
X94005996Y-128776000D02*
X80316000Y-128776000D01*
X98651002Y-132701002D02*
X97930998Y-132701002D01*
X114892989Y-129505011D02*
X105773245Y-129505011D01*
X105773245Y-129505011D02*
X105044234Y-128776000D01*
G04 #@! TO.N,RESONANCE*
X93690443Y-126420013D02*
X85066733Y-117796303D01*
X104700000Y-127760000D02*
X103360013Y-126420013D01*
X85066733Y-117796303D02*
X85066733Y-117713264D01*
X108014000Y-132840000D02*
X111050000Y-132840000D01*
X85066733Y-117713264D02*
X84666734Y-117313265D01*
X103360013Y-126420013D02*
X93690443Y-126420013D01*
X104700000Y-129526000D02*
X108014000Y-132840000D01*
G04 #@! TO.N,PWM*
X113899832Y-121100168D02*
X111954477Y-119154813D01*
X100943979Y-108710000D02*
X99620000Y-108710000D01*
X65330000Y-99820000D02*
X61520000Y-96010000D01*
X109771687Y-119154813D02*
X108987187Y-118370313D01*
X86274271Y-101090000D02*
X87232136Y-102047865D01*
X111954477Y-119154813D02*
X109771687Y-119154813D01*
X108987187Y-118370313D02*
X108987187Y-116753208D01*
X72950000Y-99820000D02*
X65330000Y-99820000D01*
X108987187Y-116753208D02*
X100943979Y-108710000D01*
X74220000Y-101090000D02*
X86274271Y-101090000D01*
G04 #@! TO.N,FREQ_ATTEN*
X120965596Y-135768901D02*
X121604102Y-135130395D01*
X137495223Y-132767852D02*
X137647852Y-132767852D01*
X123953391Y-135130395D02*
X124353390Y-135530394D01*
X132573086Y-137689989D02*
X137495223Y-132767852D01*
X121604102Y-135130395D02*
X123953391Y-135130395D01*
X116643063Y-135768901D02*
X120965596Y-135768901D01*
X114889183Y-134015021D02*
X116643063Y-135768901D01*
G04 #@! TO.N,CUTOFF*
X93778448Y-127839209D02*
X95686988Y-127839209D01*
X83959620Y-118020381D02*
X93778448Y-127839209D01*
G04 #@! TO.N,ATTACK*
X111050000Y-121410000D02*
X114109999Y-124469999D01*
X98350000Y-116330000D02*
X108510000Y-126490000D01*
X114109999Y-126036925D02*
X114793086Y-126720012D01*
X92000000Y-116330000D02*
X98350000Y-116330000D01*
X114109999Y-124469999D02*
X114109999Y-126036925D01*
G04 #@! TO.N,DECAY*
X111050000Y-125220000D02*
X95515977Y-109685977D01*
X95515977Y-109685977D02*
X94529668Y-109685977D01*
G04 #@! TO.N,SUSTAIN*
X87029698Y-110435987D02*
X94995987Y-110435987D01*
X86215685Y-111250000D02*
X87029698Y-110435987D01*
X94995987Y-110435987D02*
X111050000Y-126490000D01*
X85650000Y-111250000D02*
X86215685Y-111250000D01*
D16*
G04 #@! TO.N,-12V*
X52630000Y-94740011D02*
X53065931Y-95175942D01*
X46000000Y-88040000D02*
X52630000Y-94740011D01*
D17*
G04 #@! TO.N,RELEASE*
X94540000Y-111185989D02*
X111050000Y-127695989D01*
X111050000Y-127695989D02*
X111050000Y-127743990D01*
D18*
G04 #@! TO.N,SID1_EXT*
X136870000Y-62626945D02*
X137235131Y-62261814D01*
X140260000Y-59180000D02*
X137590000Y-59180000D01*
X136870000Y-64000000D02*
X136870000Y-62626945D01*
X137590000Y-59180000D02*
X137270000Y-59500000D01*
G04 #@! TO.N,+9V*
X85599200Y-110081600D02*
X84481600Y-111199200D01*
X84481600Y-111199200D02*
X84481600Y-115263200D01*
X89053600Y-85392800D02*
X88653601Y-85792799D01*
X88653601Y-85792799D02*
X88653601Y-108093999D01*
X94082800Y-130808000D02*
X94082800Y-133805200D01*
X94692400Y-62990000D02*
X93727200Y-63955200D01*
X88653601Y-108093999D02*
X86666000Y-110081600D01*
X84481600Y-115263200D02*
X94438400Y-125220000D01*
X94082800Y-133805200D02*
X93778000Y-134110000D01*
X86666000Y-110081600D02*
X85599200Y-110081600D01*
X93727200Y-63955200D02*
X93727200Y-70457600D01*
D16*
G04 #@! TO.N,-10V_REF*
X55170000Y-96010000D02*
X55170000Y-92778874D01*
X55170000Y-92778874D02*
X54880563Y-92489437D01*
D17*
G04 #@! TO.N,/SID Chip/D7*
X83110000Y-83310000D02*
X83110000Y-74420000D01*
G04 #@! TO.N,SID_LATCH*
X106923182Y-93751182D02*
X116357088Y-93751182D01*
X101950001Y-88778001D02*
X106923182Y-93751182D01*
X100483999Y-89140001D02*
X100845999Y-88778001D01*
X99620000Y-88390000D02*
X100019999Y-88789999D01*
X96009337Y-87960663D02*
X97188675Y-89140001D01*
X97188675Y-89140001D02*
X100483999Y-89140001D01*
X100845999Y-88778001D02*
X101950001Y-88778001D01*
X102534387Y-88789999D02*
X103296385Y-88028001D01*
X100019999Y-88789999D02*
X102534387Y-88789999D01*
G04 #@! TO.N,SID_CLK*
X102787999Y-86477999D02*
X100262001Y-86477999D01*
X104065000Y-86485000D02*
X102787999Y-86477999D01*
X94540000Y-93108001D02*
X94540000Y-94740000D01*
X100262001Y-86477999D02*
X98350000Y-88390000D01*
G04 #@! TO.N,/SID Chip/D0*
X78030000Y-90930000D02*
X83110000Y-90930000D01*
G04 #@! TO.N,/SID Chip/D1*
X78030000Y-88390000D02*
X81840000Y-88390000D01*
X81840000Y-88390000D02*
X83110000Y-89660000D01*
G04 #@! TO.N,/SID Chip/D2*
X78030000Y-87120000D02*
X83110000Y-87120000D01*
G04 #@! TO.N,/SID Chip/D3*
X79300000Y-84580000D02*
X83110000Y-84580000D01*
G04 #@! TO.N,SID_CS*
X111558000Y-124204000D02*
X110992315Y-124204000D01*
X89979988Y-103191673D02*
X89979988Y-78992000D01*
X110992315Y-124204000D02*
X89979988Y-103191673D01*
G04 #@! TO.N,SID_RES*
X91323966Y-71314980D02*
X91323966Y-69321586D01*
X91746000Y-71737014D02*
X91323966Y-71314980D01*
X91746000Y-103376000D02*
X91746000Y-71737014D01*
X111558000Y-123188000D02*
X91746000Y-103376000D01*
X91323966Y-69321586D02*
X91158670Y-69156290D01*
G04 #@! TO.N,GATE_3*
X91823976Y-71107868D02*
X92246011Y-71529903D01*
X115982002Y-122469975D02*
X116649998Y-123137971D01*
X83121998Y-56238002D02*
X84761007Y-57877011D01*
X111410001Y-120659999D02*
X113219977Y-122469975D01*
X91823976Y-69502532D02*
X91823976Y-71107868D01*
X84761007Y-57877011D02*
X88224930Y-57877011D01*
X88224930Y-57877011D02*
X92098967Y-61751048D01*
X116649998Y-127403795D02*
X117460785Y-128214582D01*
X92098967Y-69227541D02*
X91823976Y-69502532D01*
X92246011Y-71529903D02*
X92246011Y-103168891D01*
X83121998Y-54088002D02*
X83121998Y-56238002D01*
X116649998Y-123137971D02*
X116649998Y-127403795D01*
X92098967Y-61751048D02*
X92098967Y-69227541D01*
X117460785Y-128214582D02*
X117460785Y-129230499D01*
X113219977Y-122469975D02*
X115982002Y-122469975D01*
X84380000Y-52830000D02*
X83121998Y-54088002D01*
X92246011Y-103168891D02*
X109737119Y-120659999D01*
X109737119Y-120659999D02*
X111410001Y-120659999D01*
G04 #@! TO.N,GATE_2*
X122232504Y-133087496D02*
X124772505Y-133087496D01*
X115334510Y-117222276D02*
X115445279Y-117222276D01*
X92323987Y-69709643D02*
X92323987Y-70900757D01*
X81840000Y-52830000D02*
X81840000Y-55663126D01*
X92323987Y-70900757D02*
X93089968Y-71666738D01*
X92598978Y-62391022D02*
X92598978Y-69434652D01*
X116182378Y-117959375D02*
X116182378Y-118070144D01*
X115445279Y-117222276D02*
X116182378Y-117959375D01*
X121667200Y-133551200D02*
X122232504Y-133087496D01*
X107288988Y-104459641D02*
X107288988Y-109176754D01*
X107288988Y-109176754D02*
X115334510Y-117222276D01*
X92598978Y-69434652D02*
X92323987Y-69709643D01*
X93089968Y-71666738D02*
X93089968Y-90260621D01*
X87387022Y-58377022D02*
X90730000Y-61720000D01*
X93270000Y-61720000D02*
X92598978Y-62391022D01*
X93089968Y-90260621D02*
X107288988Y-104459641D01*
X81840000Y-55663126D02*
X84553896Y-58377022D01*
X84553896Y-58377022D02*
X87387022Y-58377022D01*
X118684765Y-120572531D02*
X118684765Y-128694938D01*
X116182378Y-118070144D02*
X118684765Y-120572531D01*
G04 #@! TO.N,GATE_1*
X90408669Y-63938669D02*
X90408669Y-69516291D01*
X124685992Y-136280404D02*
X122332989Y-136280404D01*
X113374802Y-118654802D02*
X117685782Y-122965782D01*
X79300000Y-54532002D02*
X85605999Y-60838001D01*
X85605999Y-60838001D02*
X87308001Y-60838001D01*
X79300000Y-52830000D02*
X79300000Y-54532002D01*
X125560989Y-135405407D02*
X124685992Y-136280404D01*
X122332989Y-136280404D02*
X121932990Y-135880405D01*
X120028977Y-128299977D02*
X120912556Y-127416398D01*
X90730000Y-69837622D02*
X90730000Y-101090000D01*
X94039596Y-101090000D02*
X109487198Y-116537602D01*
X87308001Y-60838001D02*
X90408669Y-63938669D01*
X93270000Y-101090000D02*
X94039596Y-101090000D01*
X109487198Y-116537602D02*
X109487198Y-118163202D01*
X109487198Y-118163202D02*
X109978798Y-118654802D01*
X90408669Y-69516291D02*
X90730000Y-69837622D01*
X117685782Y-122965782D02*
X117685782Y-127327059D01*
X123195602Y-127416398D02*
X125560989Y-129781785D01*
X109978798Y-118654802D02*
X113374802Y-118654802D01*
X125560989Y-129781785D02*
X125560989Y-135405407D01*
X120912556Y-127416398D02*
X123195602Y-127416398D01*
G04 #@! TO.N,PWM_ATTEN*
X138919999Y-134850001D02*
X133770000Y-140000000D01*
X140120000Y-99720000D02*
X138919999Y-100920001D01*
X133770000Y-140000000D02*
X130770000Y-140000000D01*
X138919999Y-100920001D02*
X138919999Y-134850001D01*
D18*
G04 #@! TO.N,FREQ_A*
X86827165Y-99820000D02*
X87928591Y-98718574D01*
X112320000Y-129030000D02*
X105970000Y-129030000D01*
X84031589Y-112171589D02*
X80570000Y-108710000D01*
X93459398Y-125517202D02*
X93459398Y-125080609D01*
X109526000Y-98549333D02*
X116130000Y-98550000D01*
X117400000Y-68070000D02*
X117400000Y-61778009D01*
X116130000Y-98550000D02*
X123750000Y-98550000D01*
X84031589Y-115652800D02*
X84031589Y-112171589D01*
X93887198Y-125945002D02*
X93459398Y-125517202D01*
X80570000Y-108710000D02*
X80570000Y-102360000D01*
X105970000Y-127760000D02*
X103430000Y-125220000D01*
X103430000Y-125220000D02*
X95511404Y-125220000D01*
X112320000Y-125220000D02*
X112320000Y-129030000D01*
X95511404Y-125220000D02*
X94786402Y-125945002D01*
X94786402Y-125945002D02*
X93887198Y-125945002D01*
X105970000Y-129030000D02*
X105970000Y-127760000D01*
X93459398Y-125080609D02*
X84031589Y-115652800D01*
X78030000Y-99820000D02*
X86827165Y-99820000D01*
G04 #@! TO.N,FREQ_B*
X118670000Y-68070000D02*
X118670000Y-61778009D01*
X120590097Y-125287305D02*
X119872703Y-125287305D01*
X125020000Y-98550000D02*
X123082999Y-100487001D01*
X123750000Y-115275002D02*
X123750000Y-121640010D01*
X123082999Y-100487001D02*
X123082999Y-114608001D01*
X123082999Y-114608001D02*
X123750000Y-115275002D01*
X123750000Y-121640010D02*
X121884201Y-123505809D01*
X121884201Y-123505809D02*
X121884201Y-123993201D01*
X121884201Y-123993201D02*
X120590097Y-125287305D01*
G04 #@! TO.N,FREQ_SW*
X122334212Y-123905734D02*
X122334212Y-124471419D01*
X125622999Y-99217001D02*
X125622999Y-118120805D01*
X124447398Y-119296406D02*
X124447398Y-121792548D01*
X124447398Y-121792548D02*
X122334212Y-123905734D01*
X126290000Y-98550000D02*
X125622999Y-99217001D01*
X120505677Y-126299954D02*
X119939992Y-126299954D01*
X119940000Y-68070000D02*
X119940000Y-61778009D01*
X122334212Y-124471419D02*
X120505677Y-126299954D01*
X125622999Y-118120805D02*
X124447398Y-119296406D01*
G04 #@! TO.N,FILTER_SW*
X133910000Y-116330000D02*
X133910000Y-60865309D01*
X130100000Y-124915300D02*
X129993690Y-124808990D01*
X76760000Y-50290000D02*
X76760000Y-47024999D01*
X133910000Y-60865309D02*
X133809197Y-60764506D01*
X130100000Y-131570000D02*
X130100000Y-124915300D01*
D17*
G04 #@! TO.N,LED_LATCH*
X94477202Y-88327202D02*
X117977999Y-111827999D01*
X121914315Y-116330000D02*
X122480000Y-116330000D01*
X118741997Y-112843999D02*
X119754001Y-112843999D01*
X117977999Y-112080001D02*
X118741997Y-112843999D01*
X94477202Y-64322798D02*
X94477202Y-88327202D01*
X120517999Y-113607997D02*
X120517999Y-114933684D01*
X120517999Y-114933684D02*
X121914315Y-116330000D01*
X119754001Y-112843999D02*
X120517999Y-113607997D01*
X95810000Y-62990000D02*
X94477202Y-64322798D01*
X117977999Y-111827999D02*
X117977999Y-112080001D01*
D18*
G04 #@! TO.N,FILTEREXT_SW*
X129199401Y-134930399D02*
X129199401Y-138187009D01*
X74220000Y-50290000D02*
X74220000Y-47024999D01*
X128897324Y-129083456D02*
X128897324Y-134628322D01*
X126436452Y-140949958D02*
X120914739Y-140949958D01*
X128897324Y-134628322D02*
X129199401Y-134930399D01*
X129199401Y-138187009D02*
X126436452Y-140949958D01*
D17*
G04 #@! TO.N,LED_CLK*
X104267998Y-97280000D02*
X104700000Y-97280000D01*
X110324443Y-106778878D02*
X110724442Y-106378879D01*
X104700000Y-97280000D02*
X116130000Y-108710000D01*
X110324443Y-108991123D02*
X110324443Y-106778878D01*
X118624627Y-117554627D02*
X118624627Y-117259147D01*
X94977212Y-65092788D02*
X94977212Y-87989214D01*
X98350000Y-61720000D02*
X94977212Y-65092788D01*
X119940000Y-118870000D02*
X118624627Y-117554627D01*
X94977212Y-87989214D02*
X104267998Y-97280000D01*
X117556112Y-116222792D02*
X110324443Y-108991123D01*
D18*
G04 #@! TO.N,FILTER3_SW*
X127153024Y-137370802D02*
X124298934Y-140224892D01*
X128887923Y-127748928D02*
X128699310Y-127937541D01*
X128699310Y-127937541D02*
X128699310Y-128256152D01*
X127864012Y-129091450D02*
X127864012Y-134460186D01*
X113511589Y-139043007D02*
X113511589Y-138131160D01*
X71680000Y-50290000D02*
X71680000Y-47024999D01*
X109780000Y-141974953D02*
X109611932Y-142143021D01*
X115596498Y-141127916D02*
X113511589Y-139043007D01*
X109780000Y-139190000D02*
X109780000Y-141974953D01*
X129238940Y-128120680D02*
X128887923Y-127748928D01*
X128699310Y-128256152D02*
X127864012Y-129091450D01*
X120566803Y-140224892D02*
X119663779Y-141127916D01*
X119663779Y-141127916D02*
X115596498Y-141127916D01*
X124298934Y-140224892D02*
X120566803Y-140224892D01*
X127864012Y-134460186D02*
X127153024Y-135171174D01*
X127153024Y-135171174D02*
X127153024Y-137370802D01*
D17*
G04 #@! TO.N,LED_DATA*
X74220000Y-82040000D02*
X79300000Y-76960000D01*
D18*
X108764000Y-106932000D02*
X108764000Y-108853158D01*
X82856000Y-99058000D02*
X76506000Y-99058000D01*
D17*
X74347000Y-96835500D02*
X74220000Y-82040000D01*
X79300000Y-76960000D02*
X79300000Y-56640000D01*
D18*
X84380000Y-97534000D02*
X82856000Y-99058000D01*
X108764000Y-108853158D02*
X118670000Y-118759158D01*
G04 #@! TO.N,FILTER2_SW*
X69140000Y-50290000D02*
X69140000Y-47024999D01*
X117991438Y-137623785D02*
X118391437Y-137223786D01*
X126703013Y-137184402D02*
X124112534Y-139774881D01*
X115687587Y-137623785D02*
X117991438Y-137623785D01*
X119399508Y-140677905D02*
X116595703Y-140677905D01*
X115309601Y-137245799D02*
X115687587Y-137623785D01*
X114236599Y-138318801D02*
X114236599Y-137622799D01*
X126703013Y-129179445D02*
X126703013Y-137184402D01*
X114613599Y-137245799D02*
X115309601Y-137245799D01*
X127974308Y-127908150D02*
X126703013Y-129179445D01*
X116595703Y-140677905D02*
X114236599Y-138318801D01*
X124112534Y-139774881D02*
X120302532Y-139774881D01*
X114236599Y-137622799D02*
X114613599Y-137245799D01*
X120302532Y-139774881D02*
X119399508Y-140677905D01*
G04 #@! TO.N,FILTER1_SW*
X66600000Y-50290000D02*
X66600000Y-47278999D01*
X66600000Y-47278999D02*
X66346000Y-47024999D01*
X127560000Y-126998000D02*
X126253002Y-128304998D01*
X123945603Y-139305401D02*
X119879138Y-139305401D01*
X126253002Y-128304998D02*
X126253002Y-136998002D01*
X119879138Y-139305401D02*
X119232539Y-139952000D01*
X126253002Y-136998002D02*
X123945603Y-139305401D01*
X119232539Y-139952000D02*
X118924000Y-139952000D01*
G04 #@! TO.N,MODE_SW*
X108038990Y-108098635D02*
X108038990Y-109144221D01*
X63298000Y-56640000D02*
X62282000Y-55624000D01*
X120383390Y-121745189D02*
X120783389Y-122145188D01*
X108038990Y-109144221D02*
X116657389Y-117762620D01*
X78805433Y-96518000D02*
X77823368Y-95535935D01*
X64060000Y-50036000D02*
X64060000Y-50290000D01*
X63298000Y-83310000D02*
X63298000Y-56640000D01*
X120383390Y-121586388D02*
X120383390Y-121745189D01*
X116657389Y-117762620D02*
X116657389Y-117860387D01*
X82856000Y-96518000D02*
X78805433Y-96518000D01*
X116657389Y-117860387D02*
X120383390Y-121586388D01*
X62282000Y-48258000D02*
X64060000Y-50036000D01*
G04 #@! TO.N,VOICE_SW*
X132422999Y-133057001D02*
X132422999Y-116736999D01*
X131370000Y-134110000D02*
X132422999Y-133057001D01*
X133459989Y-115700009D02*
X133459989Y-61450898D01*
X133459989Y-61450898D02*
X132809843Y-60800752D01*
X132422999Y-116736999D02*
X133459989Y-115700009D01*
G04 #@! TO.N,MOD_SW*
X93564979Y-71469983D02*
X93564979Y-88086743D01*
X93564979Y-88086743D02*
X112529013Y-107050777D01*
X94032000Y-62577398D02*
X93073989Y-63535409D01*
X120456938Y-117061940D02*
X121748060Y-117061940D01*
X93073989Y-63535409D02*
X93073989Y-69631407D01*
X112529013Y-108231803D02*
X118002999Y-113705789D01*
X93073989Y-69631407D02*
X92849798Y-69855598D01*
X92849798Y-69855598D02*
X92849798Y-70754802D01*
X94032000Y-60450000D02*
X94032000Y-62577398D01*
X112529013Y-107050777D02*
X112529013Y-108231803D01*
X92849798Y-70754802D02*
X93564979Y-71469983D01*
X118002999Y-113705789D02*
X118002999Y-114608001D01*
X118002999Y-114608001D02*
X120456938Y-117061940D01*
G04 #@! TO.N,SET_SW*
X134844980Y-111383157D02*
X134844980Y-110616843D01*
X120484990Y-60800583D02*
X116456593Y-60800583D01*
X84453989Y-46299989D02*
X62970011Y-46299989D01*
X128576000Y-118870000D02*
X128576000Y-116330000D01*
X135270619Y-62473621D02*
X135270619Y-61435526D01*
X62970011Y-46299989D02*
X58980000Y-50290000D01*
X95650999Y-51465001D02*
X89619001Y-51465001D01*
X123496000Y-123950000D02*
X128576000Y-118870000D01*
X96064000Y-51052000D02*
X95650999Y-51465001D01*
X135444999Y-111983176D02*
X134844980Y-111383157D01*
X135444999Y-117843001D02*
X135444999Y-111983176D01*
X133405764Y-118074678D02*
X135213322Y-118074678D01*
X135344969Y-101409733D02*
X135444999Y-101309703D01*
X89619001Y-51465001D02*
X84453989Y-46299989D01*
X135444999Y-62648001D02*
X135270619Y-62473621D01*
X134844980Y-110616843D02*
X135344969Y-110116854D01*
X116456593Y-60800583D02*
X112090031Y-56434021D01*
X135344969Y-110116854D02*
X135344969Y-101409733D01*
X135213322Y-118074678D02*
X135444999Y-117843001D01*
X135444999Y-101309703D02*
X135444999Y-62648001D01*
X112090031Y-56434021D02*
X106519340Y-56434021D01*
G04 #@! TO.N,SHAPE_SW*
X134672000Y-110153413D02*
X134672000Y-61909911D01*
X84555588Y-56561588D02*
X105318769Y-56561588D01*
X134394969Y-111569557D02*
X134394969Y-110430443D01*
X134672000Y-61909911D02*
X134545617Y-61783528D01*
X134672000Y-111846588D02*
X134394969Y-111569557D01*
X134545617Y-61783528D02*
X134545617Y-60802068D01*
X134672000Y-117092000D02*
X134672000Y-111846588D01*
X134545617Y-60802068D02*
X134788007Y-60559678D01*
X134394969Y-110430443D02*
X134672000Y-110153413D01*
X61012000Y-54862000D02*
X58980000Y-52830000D01*
X75236000Y-54862000D02*
X61012000Y-54862000D01*
X83872000Y-55878000D02*
X84555588Y-56561588D01*
X115456062Y-55709019D02*
X119809895Y-60062852D01*
X105318769Y-56561588D02*
X106171338Y-55709019D01*
X106171338Y-55709019D02*
X115456062Y-55709019D01*
D17*
G04 #@! TO.N,CUTOFF_CV*
X129770000Y-60800000D02*
X131919990Y-62949990D01*
X131919990Y-62949990D02*
X131919990Y-67600000D01*
D18*
X113401667Y-137406159D02*
X114017477Y-136790349D01*
X112786588Y-137783159D02*
X113163588Y-137406159D01*
X114017477Y-136790349D02*
X116076412Y-136790349D01*
X130938389Y-110819387D02*
X130938389Y-131804613D01*
X129099999Y-108980997D02*
X130938389Y-110819387D01*
X129730020Y-138292802D02*
X126347850Y-141674968D01*
X126347850Y-141674968D02*
X115507142Y-141674968D01*
X113163588Y-137406159D02*
X113401667Y-137406159D01*
X129099999Y-99867805D02*
X129099999Y-108980997D01*
X127740011Y-98507817D02*
X129099999Y-99867805D01*
X129730020Y-133012982D02*
X129730020Y-138292802D01*
X115507142Y-141674968D02*
X112786588Y-138954414D01*
X130938389Y-131804613D02*
X129730020Y-133012982D01*
X112786588Y-138954414D02*
X112786588Y-137783159D01*
G04 #@! TO.N,SHAPE_CV*
X118935131Y-129469892D02*
X119292794Y-129112228D01*
X117400000Y-130300000D02*
X117799999Y-129900001D01*
X119292794Y-129112228D02*
X121006405Y-129112228D01*
X127396978Y-121380000D02*
X122110590Y-126666388D01*
X127560000Y-99820000D02*
X127973001Y-100233001D01*
X129301002Y-118975583D02*
X127396978Y-120879607D01*
D17*
X132670000Y-62100000D02*
X131370000Y-60800000D01*
X132670000Y-69400000D02*
X132670000Y-62100000D01*
D18*
X121006405Y-129112228D02*
X121421661Y-128696972D01*
X127973001Y-114653997D02*
X129301002Y-115981998D01*
X118246711Y-129469892D02*
X118935131Y-129469892D01*
X117799999Y-129900001D02*
X117816602Y-129900001D01*
X117816602Y-129900001D02*
X118246711Y-129469892D01*
X127973001Y-100233001D02*
X127973001Y-114653997D01*
X129301002Y-115981998D02*
X129301002Y-118975583D01*
X127396978Y-120879607D02*
X127396978Y-121380000D01*
D17*
G04 #@! TO.N,IN3_CV*
X135148008Y-59809677D02*
X134428006Y-59809677D01*
X137595133Y-61511812D02*
X137511812Y-61511812D01*
D18*
X138444988Y-99653246D02*
X138601024Y-99497210D01*
D17*
X134237674Y-60000009D02*
X126970009Y-60000009D01*
X126460000Y-59490000D02*
X126460000Y-57500000D01*
X135338340Y-60000009D02*
X135148008Y-59809677D01*
X137511812Y-61511812D02*
X136000009Y-60000009D01*
D18*
X133715512Y-137725512D02*
X138444988Y-132996036D01*
D17*
X136000009Y-60000009D02*
X135338340Y-60000009D01*
X126970009Y-60000009D02*
X126460000Y-59490000D01*
D18*
X138601024Y-99497210D02*
X138601024Y-62601024D01*
X138444988Y-132996036D02*
X138444988Y-99653246D01*
D17*
X138601024Y-62517703D02*
X137595133Y-61511812D01*
X138601024Y-62601024D02*
X138601024Y-62517703D01*
X134428006Y-59809677D02*
X134237674Y-60000009D01*
G04 #@! TO.N,PWM_CV*
X135819980Y-103393512D02*
X136070000Y-103643532D01*
X131970000Y-53300000D02*
X136270000Y-57600000D01*
D18*
X113400032Y-134874998D02*
X113799812Y-135274778D01*
X126534251Y-142124980D02*
X130180032Y-138479203D01*
X113799812Y-135274778D02*
X113799811Y-136371603D01*
X118701413Y-134652264D02*
X118324413Y-135029264D01*
X112336576Y-139140814D02*
X115320742Y-142124980D01*
D17*
X135819980Y-101606488D02*
X135819980Y-103393512D01*
D18*
X112977188Y-136956147D02*
X112336576Y-137596759D01*
X113215267Y-136956147D02*
X112977188Y-136956147D01*
D17*
X136070000Y-103643532D02*
X136070000Y-107700000D01*
D18*
X118324413Y-135029264D02*
X117628411Y-135029264D01*
X131388401Y-110632987D02*
X129825001Y-109069588D01*
D17*
X136070000Y-101356468D02*
X135819980Y-101606488D01*
D18*
X129825001Y-109069588D02*
X129825001Y-106374231D01*
X130180032Y-138479203D02*
X130180033Y-133199381D01*
X131388401Y-131991013D02*
X131388401Y-110632987D01*
X118701413Y-132121781D02*
X118701413Y-134652264D01*
X115320742Y-142124980D02*
X126534251Y-142124980D01*
X112336576Y-137596759D02*
X112336576Y-139140814D01*
X120016836Y-130806358D02*
X118701413Y-132121781D01*
X117628411Y-135029264D02*
X115259135Y-132659988D01*
X130180033Y-133199381D02*
X131388401Y-131991013D01*
D17*
X136270000Y-57600000D02*
X136270000Y-59300000D01*
D18*
X115259135Y-132659988D02*
X113400032Y-132659988D01*
X113799811Y-136371603D02*
X113215267Y-136956147D01*
D17*
X136070000Y-62200000D02*
X136070000Y-101356468D01*
D18*
X113400032Y-132659988D02*
X113400032Y-134874998D01*
G04 #@! TO.N,IN2_CV*
X131359125Y-106277715D02*
X132640000Y-107558590D01*
X131170000Y-63900000D02*
X131359125Y-106277715D01*
X123779893Y-125678259D02*
X123779893Y-126821229D01*
X119479194Y-129562239D02*
X121704595Y-129562239D01*
X121714241Y-129552593D02*
X122279926Y-129552593D01*
X132640000Y-107558590D02*
X132640000Y-115060000D01*
D17*
X131170000Y-63900000D02*
X129117919Y-63900000D01*
X123920000Y-58702081D02*
X123920000Y-57500000D01*
D18*
X121704595Y-129562239D02*
X121714241Y-129552593D01*
X127846989Y-121611163D02*
X123779893Y-125678259D01*
X118567640Y-130207962D02*
X118833471Y-130207962D01*
X127846989Y-121066007D02*
X127846989Y-121611163D01*
X130213387Y-118699609D02*
X127846989Y-121066007D01*
X130213387Y-115604990D02*
X130213387Y-118699609D01*
X118833471Y-130207962D02*
X119479194Y-129562239D01*
D17*
X129117919Y-63900000D02*
X123920000Y-58702081D01*
D18*
G04 #@! TO.N,SET_CV*
X131838411Y-110446587D02*
X131838411Y-132177413D01*
X112950022Y-132209978D02*
X115882127Y-132209978D01*
X112950022Y-135061398D02*
X112950022Y-132209978D01*
X113349802Y-135461178D02*
X112950022Y-135061398D01*
X130630042Y-133385782D02*
X130630042Y-138665603D01*
X113028867Y-136506137D02*
X113349802Y-136185202D01*
X130550011Y-105125000D02*
X130550011Y-109158188D01*
X126720650Y-142574990D02*
X115134342Y-142574990D01*
X111886566Y-137410359D02*
X112790788Y-136506137D01*
X115882127Y-132209978D02*
X117976412Y-134304263D01*
X115134342Y-142574990D02*
X111886566Y-139327214D01*
X130366431Y-138929214D02*
X126720650Y-142574990D01*
X130550011Y-109158188D02*
X131838411Y-110446587D01*
X131838411Y-132177413D02*
X130630042Y-133385782D01*
X123070001Y-55809999D02*
X123920000Y-54960000D01*
X111886566Y-139327214D02*
X111886566Y-137410359D01*
X130550011Y-105125000D02*
X130550011Y-104955011D01*
X130550011Y-105125000D02*
X130550011Y-66880011D01*
X130630042Y-138665603D02*
X130366431Y-138929214D01*
X122744999Y-59074999D02*
X122744999Y-56135001D01*
X122744999Y-56135001D02*
X123070001Y-55809999D01*
X130550011Y-66880011D02*
X122744999Y-59074999D01*
X113349802Y-136185202D02*
X113349802Y-135461178D01*
X112790788Y-136506137D02*
X113028867Y-136506137D01*
G04 #@! TO.N,IN1_CV*
X120443995Y-133259264D02*
X120443995Y-134562665D01*
X123024013Y-131787987D02*
X121915272Y-131787987D01*
X111405600Y-108049600D02*
X111354800Y-107998800D01*
X123546800Y-131265200D02*
X123024013Y-131787987D01*
X121508399Y-123245201D02*
X121508399Y-118761999D01*
X117124988Y-94008602D02*
X117124988Y-86008602D01*
X120651200Y-69086000D02*
X121210000Y-68527200D01*
X121108400Y-123645200D02*
X121508399Y-123245201D01*
X117124988Y-86008602D02*
X118084999Y-85048591D01*
X118084999Y-85048591D02*
X118084999Y-70331401D01*
X121915272Y-131787987D02*
X120443995Y-133259264D01*
X122480000Y-128166400D02*
X123546800Y-129233200D01*
X115123590Y-96010000D02*
X117124988Y-94008602D01*
X121508399Y-118761999D02*
X111405600Y-108659200D01*
X111405600Y-108659200D02*
X111405600Y-108049600D01*
X118084999Y-70331401D02*
X119330400Y-69086000D01*
X111812000Y-96010000D02*
X115123590Y-96010000D01*
D17*
X121380000Y-68357200D02*
X121210000Y-68527200D01*
X121380000Y-57500000D02*
X121380000Y-68357200D01*
D18*
X119330400Y-69086000D02*
X120651200Y-69086000D01*
X123546800Y-129233200D02*
X123546800Y-131265200D01*
G04 #@! TD*
D19*
G04 #@! TO.N,GND*
G36*
X140765001Y-55310336D02*
X140526892Y-55198514D01*
X140297000Y-55319181D01*
X140297000Y-56513000D01*
X140317000Y-56513000D01*
X140317000Y-56767000D01*
X140297000Y-56767000D01*
X140297000Y-56787000D01*
X140043000Y-56787000D01*
X140043000Y-56767000D01*
X138849845Y-56767000D01*
X138728524Y-56996890D01*
X138898355Y-57406924D01*
X139288642Y-57835183D01*
X139418478Y-57896157D01*
X139099375Y-58109375D01*
X138891822Y-58420000D01*
X137664846Y-58420000D01*
X137589999Y-58405112D01*
X137515152Y-58420000D01*
X137515148Y-58420000D01*
X137293463Y-58464096D01*
X137292110Y-58465000D01*
X137064126Y-58465000D01*
X137055000Y-58468780D01*
X137055000Y-57677310D01*
X137070378Y-57599999D01*
X137055000Y-57522688D01*
X137055000Y-57522684D01*
X137009454Y-57293708D01*
X136942845Y-57194021D01*
X136879749Y-57099591D01*
X136879747Y-57099589D01*
X136835953Y-57034047D01*
X136770411Y-56990253D01*
X136063268Y-56283110D01*
X138728524Y-56283110D01*
X138849845Y-56513000D01*
X140043000Y-56513000D01*
X140043000Y-55319181D01*
X139813108Y-55198514D01*
X139288642Y-55444817D01*
X138898355Y-55873076D01*
X138728524Y-56283110D01*
X136063268Y-56283110D01*
X133005000Y-53224843D01*
X133005000Y-53094126D01*
X132847431Y-52713720D01*
X132556280Y-52422569D01*
X132175874Y-52265000D01*
X131764126Y-52265000D01*
X131383720Y-52422569D01*
X131092569Y-52713720D01*
X130935000Y-53094126D01*
X130935000Y-53505874D01*
X131092569Y-53886280D01*
X131383720Y-54177431D01*
X131764126Y-54335000D01*
X131894843Y-54335000D01*
X135485000Y-57925158D01*
X135485001Y-58621288D01*
X135392569Y-58713720D01*
X135260840Y-59031742D01*
X135225324Y-59024677D01*
X135225320Y-59024677D01*
X135148008Y-59009299D01*
X135070696Y-59024677D01*
X134505317Y-59024677D01*
X134428005Y-59009299D01*
X134350693Y-59024677D01*
X134350690Y-59024677D01*
X134121714Y-59070223D01*
X133905028Y-59215009D01*
X127295166Y-59215009D01*
X127245000Y-59164843D01*
X127245000Y-58761474D01*
X127530625Y-58570625D01*
X127542816Y-58552381D01*
X127551843Y-58597765D01*
X127692191Y-58807809D01*
X127902235Y-58948157D01*
X128150000Y-58997440D01*
X129850000Y-58997440D01*
X130097765Y-58948157D01*
X130307809Y-58807809D01*
X130448157Y-58597765D01*
X130497440Y-58350000D01*
X130497440Y-56650000D01*
X130448157Y-56402235D01*
X130307809Y-56192191D01*
X130097765Y-56051843D01*
X130052381Y-56042816D01*
X130070625Y-56030625D01*
X130398839Y-55539418D01*
X130514092Y-54960000D01*
X130398839Y-54380582D01*
X130070625Y-53889375D01*
X129579418Y-53561161D01*
X129146256Y-53475000D01*
X128853744Y-53475000D01*
X128420582Y-53561161D01*
X127929375Y-53889375D01*
X127730000Y-54187761D01*
X127530625Y-53889375D01*
X127039418Y-53561161D01*
X126606256Y-53475000D01*
X126313744Y-53475000D01*
X125880582Y-53561161D01*
X125389375Y-53889375D01*
X125190000Y-54187761D01*
X124990625Y-53889375D01*
X124499418Y-53561161D01*
X124066256Y-53475000D01*
X123773744Y-53475000D01*
X123340582Y-53561161D01*
X122849375Y-53889375D01*
X122636157Y-54208478D01*
X122575183Y-54078642D01*
X122146924Y-53688355D01*
X121736890Y-53518524D01*
X121507000Y-53639845D01*
X121507000Y-54833000D01*
X121527000Y-54833000D01*
X121527000Y-55087000D01*
X121507000Y-55087000D01*
X121507000Y-55107000D01*
X121253000Y-55107000D01*
X121253000Y-55087000D01*
X120059181Y-55087000D01*
X119938514Y-55316892D01*
X120184817Y-55841358D01*
X120609786Y-56228647D01*
X120309375Y-56429375D01*
X119981161Y-56920582D01*
X119865908Y-57500000D01*
X119981161Y-58079418D01*
X120309375Y-58570625D01*
X120595000Y-58761474D01*
X120595000Y-59384246D01*
X120396175Y-59185421D01*
X120015769Y-59027852D01*
X119849697Y-59027852D01*
X116046393Y-55224549D01*
X116003991Y-55161090D01*
X115752599Y-54993115D01*
X115530914Y-54949019D01*
X115530909Y-54949019D01*
X115456062Y-54934131D01*
X115381215Y-54949019D01*
X106246186Y-54949019D01*
X106171338Y-54934131D01*
X106096490Y-54949019D01*
X106096486Y-54949019D01*
X105874801Y-54993115D01*
X105623409Y-55161090D01*
X105581009Y-55224546D01*
X105003968Y-55801588D01*
X97238244Y-55801588D01*
X97324092Y-55370000D01*
X97208839Y-54790582D01*
X97083573Y-54603108D01*
X119938514Y-54603108D01*
X120059181Y-54833000D01*
X121253000Y-54833000D01*
X121253000Y-53639845D01*
X121023110Y-53518524D01*
X120613076Y-53688355D01*
X120184817Y-54078642D01*
X119938514Y-54603108D01*
X97083573Y-54603108D01*
X96880625Y-54299375D01*
X96389418Y-53971161D01*
X95956256Y-53885000D01*
X95663744Y-53885000D01*
X95230582Y-53971161D01*
X94739375Y-54299375D01*
X94540000Y-54597761D01*
X94340625Y-54299375D01*
X93849418Y-53971161D01*
X93416256Y-53885000D01*
X93123744Y-53885000D01*
X92690582Y-53971161D01*
X92199375Y-54299375D01*
X92187184Y-54317619D01*
X92178157Y-54272235D01*
X92037809Y-54062191D01*
X91827765Y-53921843D01*
X91580000Y-53872560D01*
X89880000Y-53872560D01*
X89632235Y-53921843D01*
X89422191Y-54062191D01*
X89281843Y-54272235D01*
X89232560Y-54520000D01*
X89232560Y-55801588D01*
X84907000Y-55801588D01*
X84907000Y-55672126D01*
X84749431Y-55291720D01*
X84458280Y-55000569D01*
X84077874Y-54843000D01*
X83906998Y-54843000D01*
X83906998Y-54413159D01*
X84066446Y-54253712D01*
X84223744Y-54285000D01*
X84516256Y-54285000D01*
X84949418Y-54198839D01*
X85440625Y-53870625D01*
X85768839Y-53379418D01*
X85884092Y-52800000D01*
X85768839Y-52220582D01*
X85440625Y-51729375D01*
X85422381Y-51717184D01*
X85467765Y-51708157D01*
X85677809Y-51567809D01*
X85818157Y-51357765D01*
X85867440Y-51110000D01*
X85867440Y-49410000D01*
X85818157Y-49162235D01*
X85677809Y-48952191D01*
X85467765Y-48811843D01*
X85220000Y-48762560D01*
X83520000Y-48762560D01*
X83272235Y-48811843D01*
X83062191Y-48952191D01*
X82921843Y-49162235D01*
X82912816Y-49207619D01*
X82900625Y-49189375D01*
X82409418Y-48861161D01*
X81976256Y-48775000D01*
X81683744Y-48775000D01*
X81250582Y-48861161D01*
X80759375Y-49189375D01*
X80560000Y-49487761D01*
X80360625Y-49189375D01*
X79869418Y-48861161D01*
X79436256Y-48775000D01*
X79143744Y-48775000D01*
X78710582Y-48861161D01*
X78219375Y-49189375D01*
X78020000Y-49487761D01*
X77820625Y-49189375D01*
X77520000Y-48988504D01*
X77520000Y-47728710D01*
X77637431Y-47611279D01*
X77795000Y-47230873D01*
X77795000Y-47059989D01*
X84139188Y-47059989D01*
X89028672Y-51949474D01*
X89071072Y-52012930D01*
X89322464Y-52180905D01*
X89544149Y-52225001D01*
X89544153Y-52225001D01*
X89619000Y-52239889D01*
X89693847Y-52225001D01*
X95576152Y-52225001D01*
X95650999Y-52239889D01*
X95725846Y-52225001D01*
X95725851Y-52225001D01*
X95947536Y-52180905D01*
X96088075Y-52087000D01*
X96269874Y-52087000D01*
X96650280Y-51929431D01*
X96941431Y-51638280D01*
X97099000Y-51257874D01*
X97099000Y-50846126D01*
X96941431Y-50465720D01*
X96650280Y-50174569D01*
X96269874Y-50017000D01*
X95858126Y-50017000D01*
X95477720Y-50174569D01*
X95186569Y-50465720D01*
X95087456Y-50705001D01*
X89933803Y-50705001D01*
X85044320Y-45815519D01*
X85001918Y-45752060D01*
X84750526Y-45584085D01*
X84528841Y-45539989D01*
X84528836Y-45539989D01*
X84453989Y-45525101D01*
X84379142Y-45539989D01*
X63044859Y-45539989D01*
X62970011Y-45525101D01*
X62895163Y-45539989D01*
X62895159Y-45539989D01*
X62721616Y-45574509D01*
X62673473Y-45584085D01*
X62486429Y-45709065D01*
X62422082Y-45752060D01*
X62379682Y-45815516D01*
X59369772Y-48825427D01*
X59116256Y-48775000D01*
X58823744Y-48775000D01*
X58390582Y-48861161D01*
X57899375Y-49189375D01*
X57571161Y-49680582D01*
X57455908Y-50260000D01*
X57571161Y-50839418D01*
X57899375Y-51330625D01*
X58197761Y-51530000D01*
X57899375Y-51729375D01*
X57571161Y-52220582D01*
X57455908Y-52800000D01*
X57571161Y-53379418D01*
X57899375Y-53870625D01*
X58390582Y-54198839D01*
X58823744Y-54285000D01*
X59116256Y-54285000D01*
X59319726Y-54244527D01*
X60421671Y-55346473D01*
X60464071Y-55409929D01*
X60715463Y-55577904D01*
X60937148Y-55622000D01*
X60937153Y-55622000D01*
X61012000Y-55636888D01*
X61086847Y-55622000D01*
X61247000Y-55622000D01*
X61247000Y-55829874D01*
X61404569Y-56210280D01*
X61695720Y-56501431D01*
X62076126Y-56659000D01*
X62242199Y-56659000D01*
X62538001Y-56954803D01*
X62538000Y-82606289D01*
X62420569Y-82723720D01*
X62263000Y-83104126D01*
X62263000Y-83515874D01*
X62420569Y-83896280D01*
X62711720Y-84187431D01*
X63092126Y-84345000D01*
X63503874Y-84345000D01*
X63884280Y-84187431D01*
X64175431Y-83896280D01*
X64333000Y-83515874D01*
X64333000Y-83104126D01*
X64175431Y-82723720D01*
X64058000Y-82606289D01*
X64058000Y-56714847D01*
X64072888Y-56640000D01*
X64058000Y-56565153D01*
X64058000Y-56565148D01*
X64013904Y-56343463D01*
X63845929Y-56092071D01*
X63782473Y-56049671D01*
X63354802Y-55622000D01*
X74532289Y-55622000D01*
X74649720Y-55739431D01*
X75030126Y-55897000D01*
X75441874Y-55897000D01*
X75822280Y-55739431D01*
X76113431Y-55448280D01*
X76271000Y-55067874D01*
X76271000Y-54656126D01*
X76113431Y-54275720D01*
X75822280Y-53984569D01*
X75441874Y-53827000D01*
X75309774Y-53827000D01*
X75480000Y-53572239D01*
X75679375Y-53870625D01*
X76170582Y-54198839D01*
X76603744Y-54285000D01*
X76896256Y-54285000D01*
X77329418Y-54198839D01*
X77820625Y-53870625D01*
X78020000Y-53572239D01*
X78219375Y-53870625D01*
X78515001Y-54068156D01*
X78515001Y-54454686D01*
X78499622Y-54532002D01*
X78560546Y-54838293D01*
X78690251Y-55032410D01*
X78690254Y-55032413D01*
X78734048Y-55097955D01*
X78799590Y-55141749D01*
X79262841Y-55605000D01*
X79094126Y-55605000D01*
X78713720Y-55762569D01*
X78422569Y-56053720D01*
X78265000Y-56434126D01*
X78265000Y-56845874D01*
X78422569Y-57226280D01*
X78515001Y-57318712D01*
X78515000Y-76634842D01*
X73717184Y-81432659D01*
X73649211Y-81478926D01*
X73565478Y-81606600D01*
X73480546Y-81733709D01*
X73479863Y-81737142D01*
X73477945Y-81740067D01*
X73449431Y-81890140D01*
X73419622Y-82040000D01*
X73435664Y-82120650D01*
X73556196Y-96162593D01*
X73469569Y-96249220D01*
X73312000Y-96629626D01*
X73312000Y-97041374D01*
X73469569Y-97421780D01*
X73760720Y-97712931D01*
X74141126Y-97870500D01*
X74552874Y-97870500D01*
X74933280Y-97712931D01*
X75224431Y-97421780D01*
X75326600Y-97175122D01*
X75326600Y-97603242D01*
X73761777Y-99168066D01*
X73536280Y-98942569D01*
X73155874Y-98785000D01*
X72744126Y-98785000D01*
X72363720Y-98942569D01*
X72271289Y-99035000D01*
X65655157Y-99035000D01*
X64115157Y-97495000D01*
X64206256Y-97495000D01*
X64639418Y-97408839D01*
X65130625Y-97080625D01*
X65330000Y-96782239D01*
X65529375Y-97080625D01*
X66020582Y-97408839D01*
X66453744Y-97495000D01*
X66746256Y-97495000D01*
X67179418Y-97408839D01*
X67670625Y-97080625D01*
X67883843Y-96761522D01*
X67944817Y-96891358D01*
X68373076Y-97281645D01*
X68783110Y-97451476D01*
X69013000Y-97330155D01*
X69013000Y-96137000D01*
X69267000Y-96137000D01*
X69267000Y-97330155D01*
X69496890Y-97451476D01*
X69906924Y-97281645D01*
X70335183Y-96891358D01*
X70581486Y-96366892D01*
X70460819Y-96137000D01*
X69267000Y-96137000D01*
X69013000Y-96137000D01*
X68993000Y-96137000D01*
X68993000Y-95883000D01*
X69013000Y-95883000D01*
X69013000Y-95863000D01*
X69267000Y-95863000D01*
X69267000Y-95883000D01*
X70460819Y-95883000D01*
X70581486Y-95653108D01*
X70335183Y-95128642D01*
X69910214Y-94741353D01*
X70210625Y-94540625D01*
X70538839Y-94049418D01*
X70654092Y-93470000D01*
X70538839Y-92890582D01*
X70210625Y-92399375D01*
X69719418Y-92071161D01*
X69286256Y-91985000D01*
X68993744Y-91985000D01*
X68560582Y-92071161D01*
X68069375Y-92399375D01*
X67870000Y-92697761D01*
X67670625Y-92399375D01*
X67179418Y-92071161D01*
X66746256Y-91985000D01*
X66453744Y-91985000D01*
X66020582Y-92071161D01*
X65529375Y-92399375D01*
X65330000Y-92697761D01*
X65130625Y-92399375D01*
X64639418Y-92071161D01*
X64206256Y-91985000D01*
X63913744Y-91985000D01*
X63480582Y-92071161D01*
X62989375Y-92399375D01*
X62977184Y-92417619D01*
X62968157Y-92372235D01*
X62827809Y-92162191D01*
X62617765Y-92021843D01*
X62370000Y-91972560D01*
X60670000Y-91972560D01*
X60422235Y-92021843D01*
X60212191Y-92162191D01*
X60071843Y-92372235D01*
X60022560Y-92620000D01*
X60022560Y-94320000D01*
X60071843Y-94567765D01*
X60212191Y-94777809D01*
X60422235Y-94918157D01*
X60467619Y-94927184D01*
X60449375Y-94939375D01*
X60121161Y-95430582D01*
X60005908Y-96010000D01*
X60121161Y-96589418D01*
X60449375Y-97080625D01*
X60940582Y-97408839D01*
X61373744Y-97495000D01*
X61666256Y-97495000D01*
X61856918Y-97457075D01*
X64720251Y-100320408D01*
X64764047Y-100385953D01*
X65023708Y-100559454D01*
X65252684Y-100605000D01*
X65252688Y-100605000D01*
X65330000Y-100620378D01*
X65407312Y-100605000D01*
X72271289Y-100605000D01*
X72298066Y-100631777D01*
X67769843Y-105160000D01*
X59805000Y-105160000D01*
X59805000Y-104794126D01*
X59780000Y-104733771D01*
X59780000Y-95099470D01*
X59799786Y-94999999D01*
X59780000Y-94900528D01*
X59780000Y-94900524D01*
X59721399Y-94605918D01*
X59498169Y-94271831D01*
X59413838Y-94215483D01*
X55672431Y-90474076D01*
X55647431Y-90413720D01*
X55356280Y-90122569D01*
X54975874Y-89965000D01*
X54564126Y-89965000D01*
X54183720Y-90122569D01*
X53892569Y-90413720D01*
X53735000Y-90794126D01*
X53735000Y-91205874D01*
X53892569Y-91586280D01*
X54106289Y-91800000D01*
X54003132Y-91903157D01*
X53845563Y-92283563D01*
X53845563Y-92695311D01*
X54003132Y-93075717D01*
X54160001Y-93232586D01*
X54160000Y-95743770D01*
X54135000Y-95804126D01*
X54135000Y-96215874D01*
X54292569Y-96596280D01*
X54583720Y-96887431D01*
X54964126Y-97045000D01*
X55375874Y-97045000D01*
X55756280Y-96887431D01*
X56047431Y-96596280D01*
X56205000Y-96215874D01*
X56205000Y-95804126D01*
X56180000Y-95743771D01*
X56180000Y-93838355D01*
X57760000Y-95418355D01*
X57760001Y-104061646D01*
X51672431Y-97974076D01*
X51647431Y-97913720D01*
X51356280Y-97622569D01*
X50975874Y-97465000D01*
X50564126Y-97465000D01*
X50280000Y-97582689D01*
X50280000Y-96266229D01*
X50305000Y-96205874D01*
X50305000Y-95794126D01*
X50147431Y-95413720D01*
X49856280Y-95122569D01*
X49475874Y-94965000D01*
X49064126Y-94965000D01*
X48683720Y-95122569D01*
X48392569Y-95413720D01*
X48235000Y-95794126D01*
X48235000Y-96205874D01*
X48260000Y-96266230D01*
X48260001Y-98722401D01*
X48240214Y-98821876D01*
X48260001Y-98921352D01*
X48302620Y-99135613D01*
X48318602Y-99215958D01*
X48485482Y-99465713D01*
X48485485Y-99465716D01*
X48541832Y-99550045D01*
X48626161Y-99606392D01*
X73760000Y-124740232D01*
X73760001Y-138233768D01*
X73735000Y-138294126D01*
X73735000Y-138705874D01*
X73892569Y-139086280D01*
X74183720Y-139377431D01*
X74564126Y-139535000D01*
X74975874Y-139535000D01*
X75356280Y-139377431D01*
X75647431Y-139086280D01*
X75805000Y-138705874D01*
X75805000Y-138294126D01*
X75780000Y-138233771D01*
X75780000Y-124421347D01*
X75799786Y-124321876D01*
X75780000Y-124222405D01*
X75780000Y-124222400D01*
X75721399Y-123927794D01*
X75656645Y-123830883D01*
X75554518Y-123678038D01*
X75554516Y-123678036D01*
X75498169Y-123593707D01*
X75413841Y-123537361D01*
X59056479Y-107180000D01*
X67451645Y-107180000D01*
X87287569Y-127015925D01*
X87312569Y-127076280D01*
X87603720Y-127367431D01*
X87984126Y-127525000D01*
X88395874Y-127525000D01*
X88776280Y-127367431D01*
X89067431Y-127076280D01*
X89225000Y-126695874D01*
X89225000Y-126284126D01*
X89067431Y-125903720D01*
X88776280Y-125612569D01*
X88715925Y-125587569D01*
X69139256Y-106010901D01*
X73408223Y-101741934D01*
X73633720Y-101967431D01*
X74014126Y-102125000D01*
X74425874Y-102125000D01*
X74806280Y-101967431D01*
X74898711Y-101875000D01*
X79650618Y-101875000D01*
X79535000Y-102154126D01*
X79535000Y-102565874D01*
X79692569Y-102946280D01*
X79810001Y-103063712D01*
X79810000Y-108635153D01*
X79795112Y-108710000D01*
X79810000Y-108784847D01*
X79810000Y-108784851D01*
X79854096Y-109006536D01*
X80022071Y-109257929D01*
X80085530Y-109300331D01*
X83271590Y-112486392D01*
X83271589Y-115577953D01*
X83256701Y-115652800D01*
X83271589Y-115727647D01*
X83271589Y-115727651D01*
X83315685Y-115949336D01*
X83483660Y-116200729D01*
X83547119Y-116243131D01*
X83910138Y-116606150D01*
X83789303Y-116726985D01*
X83667469Y-117021118D01*
X83373340Y-117142950D01*
X83082189Y-117434101D01*
X82924620Y-117814507D01*
X82924620Y-118226255D01*
X83082189Y-118606661D01*
X83373340Y-118897812D01*
X83753746Y-119055381D01*
X83884463Y-119055381D01*
X92820082Y-127991000D01*
X80641158Y-127991000D01*
X80310000Y-127659843D01*
X80310000Y-122946229D01*
X80335000Y-122885874D01*
X80335000Y-122474126D01*
X80177431Y-122093720D01*
X79886280Y-121802569D01*
X79505874Y-121645000D01*
X79094126Y-121645000D01*
X78713720Y-121802569D01*
X78422569Y-122093720D01*
X78265000Y-122474126D01*
X78265000Y-122885874D01*
X78290001Y-122946232D01*
X78290000Y-127859475D01*
X78348601Y-128154081D01*
X78571831Y-128488169D01*
X78905918Y-128711399D01*
X79199673Y-128769831D01*
X79706253Y-129276411D01*
X79750047Y-129341953D01*
X79815589Y-129385747D01*
X79815591Y-129385749D01*
X79994079Y-129505011D01*
X80009708Y-129515454D01*
X80238684Y-129561000D01*
X80238688Y-129561000D01*
X80316000Y-129576378D01*
X80393312Y-129561000D01*
X93680839Y-129561000D01*
X93892839Y-129773000D01*
X93876926Y-129773000D01*
X93496520Y-129930569D01*
X93205369Y-130221720D01*
X93047800Y-130602126D01*
X93047800Y-131013874D01*
X93205369Y-131394280D01*
X93322800Y-131511711D01*
X93322801Y-133178274D01*
X93191720Y-133232569D01*
X92900569Y-133523720D01*
X92743000Y-133904126D01*
X92743000Y-134315874D01*
X92900569Y-134696280D01*
X93191720Y-134987431D01*
X93572126Y-135145000D01*
X93983874Y-135145000D01*
X94364280Y-134987431D01*
X94655431Y-134696280D01*
X94813000Y-134315874D01*
X94813000Y-134029866D01*
X94842800Y-133880052D01*
X94842800Y-133880048D01*
X94857688Y-133805201D01*
X94842800Y-133730354D01*
X94842800Y-131511711D01*
X94960231Y-131394280D01*
X95117800Y-131013874D01*
X95117800Y-130997961D01*
X97321251Y-133201413D01*
X97365045Y-133266955D01*
X97430587Y-133310749D01*
X97430589Y-133310751D01*
X97573069Y-133405953D01*
X97624706Y-133440456D01*
X97853682Y-133486002D01*
X97853685Y-133486002D01*
X97930997Y-133501380D01*
X98008309Y-133486002D01*
X98573690Y-133486002D01*
X98651002Y-133501380D01*
X98728314Y-133486002D01*
X98728318Y-133486002D01*
X98957294Y-133440456D01*
X99216955Y-133266955D01*
X99260751Y-133201410D01*
X102901162Y-129561000D01*
X103665000Y-129561000D01*
X103665000Y-129731874D01*
X103822569Y-130112280D01*
X104113720Y-130403431D01*
X104494126Y-130561000D01*
X104624843Y-130561000D01*
X107404251Y-133340408D01*
X107448047Y-133405953D01*
X107707708Y-133579454D01*
X107936684Y-133625000D01*
X107936688Y-133625000D01*
X108014000Y-133640378D01*
X108091312Y-133625000D01*
X110371289Y-133625000D01*
X110463720Y-133717431D01*
X110616945Y-133780899D01*
X108786845Y-135611000D01*
X103946592Y-135611000D01*
X103957000Y-135585874D01*
X103957000Y-135174126D01*
X103799431Y-134793720D01*
X103508280Y-134502569D01*
X103127874Y-134345000D01*
X102716126Y-134345000D01*
X102335720Y-134502569D01*
X102044569Y-134793720D01*
X101887000Y-135174126D01*
X101887000Y-135585874D01*
X101897408Y-135611000D01*
X80232711Y-135611000D01*
X80140280Y-135518569D01*
X79759874Y-135361000D01*
X79348126Y-135361000D01*
X78967720Y-135518569D01*
X78676569Y-135809720D01*
X78519000Y-136190126D01*
X78519000Y-136601874D01*
X78676569Y-136982280D01*
X78967720Y-137273431D01*
X79348126Y-137431000D01*
X79759874Y-137431000D01*
X80140280Y-137273431D01*
X80232711Y-137181000D01*
X109034690Y-137181000D01*
X109112002Y-137196378D01*
X109189314Y-137181000D01*
X109189318Y-137181000D01*
X109418294Y-137135454D01*
X109677955Y-136961953D01*
X109721751Y-136896408D01*
X112190022Y-134428138D01*
X112190022Y-134986551D01*
X112175134Y-135061398D01*
X112190022Y-135136245D01*
X112190022Y-135136249D01*
X112234118Y-135357934D01*
X112402093Y-135609327D01*
X112465551Y-135651729D01*
X112585838Y-135772015D01*
X112494251Y-135790233D01*
X112242859Y-135958208D01*
X112200459Y-136021664D01*
X111402094Y-136820030D01*
X111338638Y-136862430D01*
X111296238Y-136925886D01*
X111296237Y-136925887D01*
X111170663Y-137113822D01*
X111111678Y-137410359D01*
X111126567Y-137485211D01*
X111126566Y-139252367D01*
X111111678Y-139327214D01*
X111126566Y-139402061D01*
X111126566Y-139402065D01*
X111170662Y-139623750D01*
X111338637Y-139875143D01*
X111402096Y-139917545D01*
X113749550Y-142265000D01*
X110646932Y-142265000D01*
X110646932Y-141937147D01*
X110540000Y-141678990D01*
X110540000Y-139893711D01*
X110657431Y-139776280D01*
X110815000Y-139395874D01*
X110815000Y-138984126D01*
X110657431Y-138603720D01*
X110366280Y-138312569D01*
X109985874Y-138155000D01*
X109574126Y-138155000D01*
X109193720Y-138312569D01*
X108902569Y-138603720D01*
X108745000Y-138984126D01*
X108745000Y-139395874D01*
X108902569Y-139776280D01*
X109020000Y-139893711D01*
X109020001Y-141271241D01*
X108734501Y-141556741D01*
X108576932Y-141937147D01*
X108576932Y-142265000D01*
X42235000Y-142265000D01*
X42235000Y-125640000D01*
X44020560Y-125640000D01*
X44020560Y-127340000D01*
X44069843Y-127587765D01*
X44210191Y-127797809D01*
X44420235Y-127938157D01*
X44668000Y-127987440D01*
X46368000Y-127987440D01*
X46615765Y-127938157D01*
X46825809Y-127797809D01*
X46966157Y-127587765D01*
X46975184Y-127542381D01*
X46987375Y-127560625D01*
X47478582Y-127888839D01*
X47911744Y-127975000D01*
X48204256Y-127975000D01*
X48637418Y-127888839D01*
X49128625Y-127560625D01*
X49456839Y-127069418D01*
X49572092Y-126490000D01*
X49456839Y-125910582D01*
X49128625Y-125419375D01*
X48809522Y-125206157D01*
X48939358Y-125145183D01*
X49329645Y-124716924D01*
X49499476Y-124306890D01*
X49378155Y-124077000D01*
X48185000Y-124077000D01*
X48185000Y-124097000D01*
X47931000Y-124097000D01*
X47931000Y-124077000D01*
X45645000Y-124077000D01*
X45645000Y-124097000D01*
X45391000Y-124097000D01*
X45391000Y-124077000D01*
X44197845Y-124077000D01*
X44076524Y-124306890D01*
X44246355Y-124716924D01*
X44523708Y-125021261D01*
X44420235Y-125041843D01*
X44210191Y-125182191D01*
X44069843Y-125392235D01*
X44020560Y-125640000D01*
X42235000Y-125640000D01*
X42235000Y-121766890D01*
X44076524Y-121766890D01*
X44246355Y-122176924D01*
X44636642Y-122605183D01*
X44795954Y-122680000D01*
X44636642Y-122754817D01*
X44246355Y-123183076D01*
X44076524Y-123593110D01*
X44197845Y-123823000D01*
X45391000Y-123823000D01*
X45391000Y-121537000D01*
X45645000Y-121537000D01*
X45645000Y-123823000D01*
X47931000Y-123823000D01*
X47931000Y-121537000D01*
X48185000Y-121537000D01*
X48185000Y-123823000D01*
X49378155Y-123823000D01*
X49499476Y-123593110D01*
X49329645Y-123183076D01*
X48939358Y-122754817D01*
X48780046Y-122680000D01*
X48939358Y-122605183D01*
X49329645Y-122176924D01*
X49499476Y-121766890D01*
X49378155Y-121537000D01*
X48185000Y-121537000D01*
X47931000Y-121537000D01*
X45645000Y-121537000D01*
X45391000Y-121537000D01*
X44197845Y-121537000D01*
X44076524Y-121766890D01*
X42235000Y-121766890D01*
X42235000Y-119226890D01*
X44076524Y-119226890D01*
X44246355Y-119636924D01*
X44636642Y-120065183D01*
X44795954Y-120140000D01*
X44636642Y-120214817D01*
X44246355Y-120643076D01*
X44076524Y-121053110D01*
X44197845Y-121283000D01*
X45391000Y-121283000D01*
X45391000Y-118997000D01*
X45645000Y-118997000D01*
X45645000Y-121283000D01*
X47931000Y-121283000D01*
X47931000Y-118997000D01*
X48185000Y-118997000D01*
X48185000Y-121283000D01*
X49378155Y-121283000D01*
X49499476Y-121053110D01*
X49329645Y-120643076D01*
X48939358Y-120214817D01*
X48780046Y-120140000D01*
X48939358Y-120065183D01*
X49329645Y-119636924D01*
X49499476Y-119226890D01*
X49378155Y-118997000D01*
X48185000Y-118997000D01*
X47931000Y-118997000D01*
X45645000Y-118997000D01*
X45391000Y-118997000D01*
X44197845Y-118997000D01*
X44076524Y-119226890D01*
X42235000Y-119226890D01*
X42235000Y-108710000D01*
X44003908Y-108710000D01*
X44119161Y-109289418D01*
X44447375Y-109780625D01*
X44745761Y-109980000D01*
X44447375Y-110179375D01*
X44119161Y-110670582D01*
X44003908Y-111250000D01*
X44119161Y-111829418D01*
X44447375Y-112320625D01*
X44745761Y-112520000D01*
X44447375Y-112719375D01*
X44119161Y-113210582D01*
X44003908Y-113790000D01*
X44119161Y-114369418D01*
X44447375Y-114860625D01*
X44745761Y-115060000D01*
X44447375Y-115259375D01*
X44119161Y-115750582D01*
X44003908Y-116330000D01*
X44119161Y-116909418D01*
X44447375Y-117400625D01*
X44766478Y-117613843D01*
X44636642Y-117674817D01*
X44246355Y-118103076D01*
X44076524Y-118513110D01*
X44197845Y-118743000D01*
X45391000Y-118743000D01*
X45391000Y-118723000D01*
X45645000Y-118723000D01*
X45645000Y-118743000D01*
X47931000Y-118743000D01*
X47931000Y-118723000D01*
X48185000Y-118723000D01*
X48185000Y-118743000D01*
X49378155Y-118743000D01*
X49499476Y-118513110D01*
X49329645Y-118103076D01*
X48939358Y-117674817D01*
X48809522Y-117613843D01*
X49128625Y-117400625D01*
X49456839Y-116909418D01*
X49572092Y-116330000D01*
X49456839Y-115750582D01*
X49128625Y-115259375D01*
X48830239Y-115060000D01*
X49128625Y-114860625D01*
X49456839Y-114369418D01*
X49572092Y-113790000D01*
X49456839Y-113210582D01*
X49128625Y-112719375D01*
X48830239Y-112520000D01*
X49128625Y-112320625D01*
X49456839Y-111829418D01*
X49572092Y-111250000D01*
X49456839Y-110670582D01*
X49128625Y-110179375D01*
X48830239Y-109980000D01*
X49128625Y-109780625D01*
X49456839Y-109289418D01*
X49572092Y-108710000D01*
X49456839Y-108130582D01*
X49128625Y-107639375D01*
X48637418Y-107311161D01*
X48204256Y-107225000D01*
X47911744Y-107225000D01*
X47478582Y-107311161D01*
X46987375Y-107639375D01*
X46788000Y-107937761D01*
X46588625Y-107639375D01*
X46097418Y-107311161D01*
X45664256Y-107225000D01*
X45371744Y-107225000D01*
X44938582Y-107311161D01*
X44447375Y-107639375D01*
X44119161Y-108130582D01*
X44003908Y-108710000D01*
X42235000Y-108710000D01*
X42235000Y-101096890D01*
X44558524Y-101096890D01*
X44728355Y-101506924D01*
X45118642Y-101935183D01*
X45643108Y-102181486D01*
X45873000Y-102060819D01*
X45873000Y-100867000D01*
X46127000Y-100867000D01*
X46127000Y-102060819D01*
X46356892Y-102181486D01*
X46881358Y-101935183D01*
X47271645Y-101506924D01*
X47441476Y-101096890D01*
X47320155Y-100867000D01*
X46127000Y-100867000D01*
X45873000Y-100867000D01*
X44679845Y-100867000D01*
X44558524Y-101096890D01*
X42235000Y-101096890D01*
X42235000Y-88040000D01*
X44485908Y-88040000D01*
X44601161Y-88619418D01*
X44929375Y-89110625D01*
X45227761Y-89310000D01*
X44929375Y-89509375D01*
X44601161Y-90000582D01*
X44485908Y-90580000D01*
X44601161Y-91159418D01*
X44929375Y-91650625D01*
X45227761Y-91850000D01*
X44929375Y-92049375D01*
X44601161Y-92540582D01*
X44485908Y-93120000D01*
X44601161Y-93699418D01*
X44929375Y-94190625D01*
X45227761Y-94390000D01*
X44929375Y-94589375D01*
X44601161Y-95080582D01*
X44485908Y-95660000D01*
X44601161Y-96239418D01*
X44929375Y-96730625D01*
X45227761Y-96930000D01*
X44929375Y-97129375D01*
X44601161Y-97620582D01*
X44485908Y-98200000D01*
X44601161Y-98779418D01*
X44929375Y-99270625D01*
X45248478Y-99483843D01*
X45118642Y-99544817D01*
X44728355Y-99973076D01*
X44558524Y-100383110D01*
X44679845Y-100613000D01*
X45873000Y-100613000D01*
X45873000Y-100593000D01*
X46127000Y-100593000D01*
X46127000Y-100613000D01*
X47320155Y-100613000D01*
X47441476Y-100383110D01*
X47271645Y-99973076D01*
X46881358Y-99544817D01*
X46751522Y-99483843D01*
X47070625Y-99270625D01*
X47398839Y-98779418D01*
X47514092Y-98200000D01*
X47398839Y-97620582D01*
X47070625Y-97129375D01*
X46772239Y-96930000D01*
X47070625Y-96730625D01*
X47398839Y-96239418D01*
X47514092Y-95660000D01*
X47398839Y-95080582D01*
X47070625Y-94589375D01*
X46772239Y-94390000D01*
X47070625Y-94190625D01*
X47398839Y-93699418D01*
X47514092Y-93120000D01*
X47398839Y-92540582D01*
X47070625Y-92049375D01*
X46772239Y-91850000D01*
X47070625Y-91650625D01*
X47398839Y-91159418D01*
X47443538Y-90934698D01*
X51843996Y-95381624D01*
X51845482Y-95383848D01*
X51913868Y-95452234D01*
X51982050Y-95521136D01*
X51984271Y-95522637D01*
X52163500Y-95701866D01*
X52188500Y-95762222D01*
X52479651Y-96053373D01*
X52860057Y-96210942D01*
X53271805Y-96210942D01*
X53652211Y-96053373D01*
X53943362Y-95762222D01*
X54100931Y-95381816D01*
X54100931Y-94970068D01*
X53943362Y-94589662D01*
X53652211Y-94298511D01*
X53591855Y-94273511D01*
X53346105Y-94027761D01*
X47498497Y-88118404D01*
X47514092Y-88040000D01*
X47398839Y-87460582D01*
X47070625Y-86969375D01*
X47052381Y-86957184D01*
X47097765Y-86948157D01*
X47307809Y-86807809D01*
X47448157Y-86597765D01*
X47497440Y-86350000D01*
X47497440Y-84650000D01*
X47448157Y-84402235D01*
X47307809Y-84192191D01*
X47097765Y-84051843D01*
X46850000Y-84002560D01*
X45150000Y-84002560D01*
X44902235Y-84051843D01*
X44692191Y-84192191D01*
X44551843Y-84402235D01*
X44502560Y-84650000D01*
X44502560Y-86350000D01*
X44551843Y-86597765D01*
X44692191Y-86807809D01*
X44902235Y-86948157D01*
X44947619Y-86957184D01*
X44929375Y-86969375D01*
X44601161Y-87460582D01*
X44485908Y-88040000D01*
X42235000Y-88040000D01*
X42235000Y-43735000D01*
X140765001Y-43735000D01*
X140765001Y-55310336D01*
X140765001Y-55310336D01*
G37*
X140765001Y-55310336D02*
X140526892Y-55198514D01*
X140297000Y-55319181D01*
X140297000Y-56513000D01*
X140317000Y-56513000D01*
X140317000Y-56767000D01*
X140297000Y-56767000D01*
X140297000Y-56787000D01*
X140043000Y-56787000D01*
X140043000Y-56767000D01*
X138849845Y-56767000D01*
X138728524Y-56996890D01*
X138898355Y-57406924D01*
X139288642Y-57835183D01*
X139418478Y-57896157D01*
X139099375Y-58109375D01*
X138891822Y-58420000D01*
X137664846Y-58420000D01*
X137589999Y-58405112D01*
X137515152Y-58420000D01*
X137515148Y-58420000D01*
X137293463Y-58464096D01*
X137292110Y-58465000D01*
X137064126Y-58465000D01*
X137055000Y-58468780D01*
X137055000Y-57677310D01*
X137070378Y-57599999D01*
X137055000Y-57522688D01*
X137055000Y-57522684D01*
X137009454Y-57293708D01*
X136942845Y-57194021D01*
X136879749Y-57099591D01*
X136879747Y-57099589D01*
X136835953Y-57034047D01*
X136770411Y-56990253D01*
X136063268Y-56283110D01*
X138728524Y-56283110D01*
X138849845Y-56513000D01*
X140043000Y-56513000D01*
X140043000Y-55319181D01*
X139813108Y-55198514D01*
X139288642Y-55444817D01*
X138898355Y-55873076D01*
X138728524Y-56283110D01*
X136063268Y-56283110D01*
X133005000Y-53224843D01*
X133005000Y-53094126D01*
X132847431Y-52713720D01*
X132556280Y-52422569D01*
X132175874Y-52265000D01*
X131764126Y-52265000D01*
X131383720Y-52422569D01*
X131092569Y-52713720D01*
X130935000Y-53094126D01*
X130935000Y-53505874D01*
X131092569Y-53886280D01*
X131383720Y-54177431D01*
X131764126Y-54335000D01*
X131894843Y-54335000D01*
X135485000Y-57925158D01*
X135485001Y-58621288D01*
X135392569Y-58713720D01*
X135260840Y-59031742D01*
X135225324Y-59024677D01*
X135225320Y-59024677D01*
X135148008Y-59009299D01*
X135070696Y-59024677D01*
X134505317Y-59024677D01*
X134428005Y-59009299D01*
X134350693Y-59024677D01*
X134350690Y-59024677D01*
X134121714Y-59070223D01*
X133905028Y-59215009D01*
X127295166Y-59215009D01*
X127245000Y-59164843D01*
X127245000Y-58761474D01*
X127530625Y-58570625D01*
X127542816Y-58552381D01*
X127551843Y-58597765D01*
X127692191Y-58807809D01*
X127902235Y-58948157D01*
X128150000Y-58997440D01*
X129850000Y-58997440D01*
X130097765Y-58948157D01*
X130307809Y-58807809D01*
X130448157Y-58597765D01*
X130497440Y-58350000D01*
X130497440Y-56650000D01*
X130448157Y-56402235D01*
X130307809Y-56192191D01*
X130097765Y-56051843D01*
X130052381Y-56042816D01*
X130070625Y-56030625D01*
X130398839Y-55539418D01*
X130514092Y-54960000D01*
X130398839Y-54380582D01*
X130070625Y-53889375D01*
X129579418Y-53561161D01*
X129146256Y-53475000D01*
X128853744Y-53475000D01*
X128420582Y-53561161D01*
X127929375Y-53889375D01*
X127730000Y-54187761D01*
X127530625Y-53889375D01*
X127039418Y-53561161D01*
X126606256Y-53475000D01*
X126313744Y-53475000D01*
X125880582Y-53561161D01*
X125389375Y-53889375D01*
X125190000Y-54187761D01*
X124990625Y-53889375D01*
X124499418Y-53561161D01*
X124066256Y-53475000D01*
X123773744Y-53475000D01*
X123340582Y-53561161D01*
X122849375Y-53889375D01*
X122636157Y-54208478D01*
X122575183Y-54078642D01*
X122146924Y-53688355D01*
X121736890Y-53518524D01*
X121507000Y-53639845D01*
X121507000Y-54833000D01*
X121527000Y-54833000D01*
X121527000Y-55087000D01*
X121507000Y-55087000D01*
X121507000Y-55107000D01*
X121253000Y-55107000D01*
X121253000Y-55087000D01*
X120059181Y-55087000D01*
X119938514Y-55316892D01*
X120184817Y-55841358D01*
X120609786Y-56228647D01*
X120309375Y-56429375D01*
X119981161Y-56920582D01*
X119865908Y-57500000D01*
X119981161Y-58079418D01*
X120309375Y-58570625D01*
X120595000Y-58761474D01*
X120595000Y-59384246D01*
X120396175Y-59185421D01*
X120015769Y-59027852D01*
X119849697Y-59027852D01*
X116046393Y-55224549D01*
X116003991Y-55161090D01*
X115752599Y-54993115D01*
X115530914Y-54949019D01*
X115530909Y-54949019D01*
X115456062Y-54934131D01*
X115381215Y-54949019D01*
X106246186Y-54949019D01*
X106171338Y-54934131D01*
X106096490Y-54949019D01*
X106096486Y-54949019D01*
X105874801Y-54993115D01*
X105623409Y-55161090D01*
X105581009Y-55224546D01*
X105003968Y-55801588D01*
X97238244Y-55801588D01*
X97324092Y-55370000D01*
X97208839Y-54790582D01*
X97083573Y-54603108D01*
X119938514Y-54603108D01*
X120059181Y-54833000D01*
X121253000Y-54833000D01*
X121253000Y-53639845D01*
X121023110Y-53518524D01*
X120613076Y-53688355D01*
X120184817Y-54078642D01*
X119938514Y-54603108D01*
X97083573Y-54603108D01*
X96880625Y-54299375D01*
X96389418Y-53971161D01*
X95956256Y-53885000D01*
X95663744Y-53885000D01*
X95230582Y-53971161D01*
X94739375Y-54299375D01*
X94540000Y-54597761D01*
X94340625Y-54299375D01*
X93849418Y-53971161D01*
X93416256Y-53885000D01*
X93123744Y-53885000D01*
X92690582Y-53971161D01*
X92199375Y-54299375D01*
X92187184Y-54317619D01*
X92178157Y-54272235D01*
X92037809Y-54062191D01*
X91827765Y-53921843D01*
X91580000Y-53872560D01*
X89880000Y-53872560D01*
X89632235Y-53921843D01*
X89422191Y-54062191D01*
X89281843Y-54272235D01*
X89232560Y-54520000D01*
X89232560Y-55801588D01*
X84907000Y-55801588D01*
X84907000Y-55672126D01*
X84749431Y-55291720D01*
X84458280Y-55000569D01*
X84077874Y-54843000D01*
X83906998Y-54843000D01*
X83906998Y-54413159D01*
X84066446Y-54253712D01*
X84223744Y-54285000D01*
X84516256Y-54285000D01*
X84949418Y-54198839D01*
X85440625Y-53870625D01*
X85768839Y-53379418D01*
X85884092Y-52800000D01*
X85768839Y-52220582D01*
X85440625Y-51729375D01*
X85422381Y-51717184D01*
X85467765Y-51708157D01*
X85677809Y-51567809D01*
X85818157Y-51357765D01*
X85867440Y-51110000D01*
X85867440Y-49410000D01*
X85818157Y-49162235D01*
X85677809Y-48952191D01*
X85467765Y-48811843D01*
X85220000Y-48762560D01*
X83520000Y-48762560D01*
X83272235Y-48811843D01*
X83062191Y-48952191D01*
X82921843Y-49162235D01*
X82912816Y-49207619D01*
X82900625Y-49189375D01*
X82409418Y-48861161D01*
X81976256Y-48775000D01*
X81683744Y-48775000D01*
X81250582Y-48861161D01*
X80759375Y-49189375D01*
X80560000Y-49487761D01*
X80360625Y-49189375D01*
X79869418Y-48861161D01*
X79436256Y-48775000D01*
X79143744Y-48775000D01*
X78710582Y-48861161D01*
X78219375Y-49189375D01*
X78020000Y-49487761D01*
X77820625Y-49189375D01*
X77520000Y-48988504D01*
X77520000Y-47728710D01*
X77637431Y-47611279D01*
X77795000Y-47230873D01*
X77795000Y-47059989D01*
X84139188Y-47059989D01*
X89028672Y-51949474D01*
X89071072Y-52012930D01*
X89322464Y-52180905D01*
X89544149Y-52225001D01*
X89544153Y-52225001D01*
X89619000Y-52239889D01*
X89693847Y-52225001D01*
X95576152Y-52225001D01*
X95650999Y-52239889D01*
X95725846Y-52225001D01*
X95725851Y-52225001D01*
X95947536Y-52180905D01*
X96088075Y-52087000D01*
X96269874Y-52087000D01*
X96650280Y-51929431D01*
X96941431Y-51638280D01*
X97099000Y-51257874D01*
X97099000Y-50846126D01*
X96941431Y-50465720D01*
X96650280Y-50174569D01*
X96269874Y-50017000D01*
X95858126Y-50017000D01*
X95477720Y-50174569D01*
X95186569Y-50465720D01*
X95087456Y-50705001D01*
X89933803Y-50705001D01*
X85044320Y-45815519D01*
X85001918Y-45752060D01*
X84750526Y-45584085D01*
X84528841Y-45539989D01*
X84528836Y-45539989D01*
X84453989Y-45525101D01*
X84379142Y-45539989D01*
X63044859Y-45539989D01*
X62970011Y-45525101D01*
X62895163Y-45539989D01*
X62895159Y-45539989D01*
X62721616Y-45574509D01*
X62673473Y-45584085D01*
X62486429Y-45709065D01*
X62422082Y-45752060D01*
X62379682Y-45815516D01*
X59369772Y-48825427D01*
X59116256Y-48775000D01*
X58823744Y-48775000D01*
X58390582Y-48861161D01*
X57899375Y-49189375D01*
X57571161Y-49680582D01*
X57455908Y-50260000D01*
X57571161Y-50839418D01*
X57899375Y-51330625D01*
X58197761Y-51530000D01*
X57899375Y-51729375D01*
X57571161Y-52220582D01*
X57455908Y-52800000D01*
X57571161Y-53379418D01*
X57899375Y-53870625D01*
X58390582Y-54198839D01*
X58823744Y-54285000D01*
X59116256Y-54285000D01*
X59319726Y-54244527D01*
X60421671Y-55346473D01*
X60464071Y-55409929D01*
X60715463Y-55577904D01*
X60937148Y-55622000D01*
X60937153Y-55622000D01*
X61012000Y-55636888D01*
X61086847Y-55622000D01*
X61247000Y-55622000D01*
X61247000Y-55829874D01*
X61404569Y-56210280D01*
X61695720Y-56501431D01*
X62076126Y-56659000D01*
X62242199Y-56659000D01*
X62538001Y-56954803D01*
X62538000Y-82606289D01*
X62420569Y-82723720D01*
X62263000Y-83104126D01*
X62263000Y-83515874D01*
X62420569Y-83896280D01*
X62711720Y-84187431D01*
X63092126Y-84345000D01*
X63503874Y-84345000D01*
X63884280Y-84187431D01*
X64175431Y-83896280D01*
X64333000Y-83515874D01*
X64333000Y-83104126D01*
X64175431Y-82723720D01*
X64058000Y-82606289D01*
X64058000Y-56714847D01*
X64072888Y-56640000D01*
X64058000Y-56565153D01*
X64058000Y-56565148D01*
X64013904Y-56343463D01*
X63845929Y-56092071D01*
X63782473Y-56049671D01*
X63354802Y-55622000D01*
X74532289Y-55622000D01*
X74649720Y-55739431D01*
X75030126Y-55897000D01*
X75441874Y-55897000D01*
X75822280Y-55739431D01*
X76113431Y-55448280D01*
X76271000Y-55067874D01*
X76271000Y-54656126D01*
X76113431Y-54275720D01*
X75822280Y-53984569D01*
X75441874Y-53827000D01*
X75309774Y-53827000D01*
X75480000Y-53572239D01*
X75679375Y-53870625D01*
X76170582Y-54198839D01*
X76603744Y-54285000D01*
X76896256Y-54285000D01*
X77329418Y-54198839D01*
X77820625Y-53870625D01*
X78020000Y-53572239D01*
X78219375Y-53870625D01*
X78515001Y-54068156D01*
X78515001Y-54454686D01*
X78499622Y-54532002D01*
X78560546Y-54838293D01*
X78690251Y-55032410D01*
X78690254Y-55032413D01*
X78734048Y-55097955D01*
X78799590Y-55141749D01*
X79262841Y-55605000D01*
X79094126Y-55605000D01*
X78713720Y-55762569D01*
X78422569Y-56053720D01*
X78265000Y-56434126D01*
X78265000Y-56845874D01*
X78422569Y-57226280D01*
X78515001Y-57318712D01*
X78515000Y-76634842D01*
X73717184Y-81432659D01*
X73649211Y-81478926D01*
X73565478Y-81606600D01*
X73480546Y-81733709D01*
X73479863Y-81737142D01*
X73477945Y-81740067D01*
X73449431Y-81890140D01*
X73419622Y-82040000D01*
X73435664Y-82120650D01*
X73556196Y-96162593D01*
X73469569Y-96249220D01*
X73312000Y-96629626D01*
X73312000Y-97041374D01*
X73469569Y-97421780D01*
X73760720Y-97712931D01*
X74141126Y-97870500D01*
X74552874Y-97870500D01*
X74933280Y-97712931D01*
X75224431Y-97421780D01*
X75326600Y-97175122D01*
X75326600Y-97603242D01*
X73761777Y-99168066D01*
X73536280Y-98942569D01*
X73155874Y-98785000D01*
X72744126Y-98785000D01*
X72363720Y-98942569D01*
X72271289Y-99035000D01*
X65655157Y-99035000D01*
X64115157Y-97495000D01*
X64206256Y-97495000D01*
X64639418Y-97408839D01*
X65130625Y-97080625D01*
X65330000Y-96782239D01*
X65529375Y-97080625D01*
X66020582Y-97408839D01*
X66453744Y-97495000D01*
X66746256Y-97495000D01*
X67179418Y-97408839D01*
X67670625Y-97080625D01*
X67883843Y-96761522D01*
X67944817Y-96891358D01*
X68373076Y-97281645D01*
X68783110Y-97451476D01*
X69013000Y-97330155D01*
X69013000Y-96137000D01*
X69267000Y-96137000D01*
X69267000Y-97330155D01*
X69496890Y-97451476D01*
X69906924Y-97281645D01*
X70335183Y-96891358D01*
X70581486Y-96366892D01*
X70460819Y-96137000D01*
X69267000Y-96137000D01*
X69013000Y-96137000D01*
X68993000Y-96137000D01*
X68993000Y-95883000D01*
X69013000Y-95883000D01*
X69013000Y-95863000D01*
X69267000Y-95863000D01*
X69267000Y-95883000D01*
X70460819Y-95883000D01*
X70581486Y-95653108D01*
X70335183Y-95128642D01*
X69910214Y-94741353D01*
X70210625Y-94540625D01*
X70538839Y-94049418D01*
X70654092Y-93470000D01*
X70538839Y-92890582D01*
X70210625Y-92399375D01*
X69719418Y-92071161D01*
X69286256Y-91985000D01*
X68993744Y-91985000D01*
X68560582Y-92071161D01*
X68069375Y-92399375D01*
X67870000Y-92697761D01*
X67670625Y-92399375D01*
X67179418Y-92071161D01*
X66746256Y-91985000D01*
X66453744Y-91985000D01*
X66020582Y-92071161D01*
X65529375Y-92399375D01*
X65330000Y-92697761D01*
X65130625Y-92399375D01*
X64639418Y-92071161D01*
X64206256Y-91985000D01*
X63913744Y-91985000D01*
X63480582Y-92071161D01*
X62989375Y-92399375D01*
X62977184Y-92417619D01*
X62968157Y-92372235D01*
X62827809Y-92162191D01*
X62617765Y-92021843D01*
X62370000Y-91972560D01*
X60670000Y-91972560D01*
X60422235Y-92021843D01*
X60212191Y-92162191D01*
X60071843Y-92372235D01*
X60022560Y-92620000D01*
X60022560Y-94320000D01*
X60071843Y-94567765D01*
X60212191Y-94777809D01*
X60422235Y-94918157D01*
X60467619Y-94927184D01*
X60449375Y-94939375D01*
X60121161Y-95430582D01*
X60005908Y-96010000D01*
X60121161Y-96589418D01*
X60449375Y-97080625D01*
X60940582Y-97408839D01*
X61373744Y-97495000D01*
X61666256Y-97495000D01*
X61856918Y-97457075D01*
X64720251Y-100320408D01*
X64764047Y-100385953D01*
X65023708Y-100559454D01*
X65252684Y-100605000D01*
X65252688Y-100605000D01*
X65330000Y-100620378D01*
X65407312Y-100605000D01*
X72271289Y-100605000D01*
X72298066Y-100631777D01*
X67769843Y-105160000D01*
X59805000Y-105160000D01*
X59805000Y-104794126D01*
X59780000Y-104733771D01*
X59780000Y-95099470D01*
X59799786Y-94999999D01*
X59780000Y-94900528D01*
X59780000Y-94900524D01*
X59721399Y-94605918D01*
X59498169Y-94271831D01*
X59413838Y-94215483D01*
X55672431Y-90474076D01*
X55647431Y-90413720D01*
X55356280Y-90122569D01*
X54975874Y-89965000D01*
X54564126Y-89965000D01*
X54183720Y-90122569D01*
X53892569Y-90413720D01*
X53735000Y-90794126D01*
X53735000Y-91205874D01*
X53892569Y-91586280D01*
X54106289Y-91800000D01*
X54003132Y-91903157D01*
X53845563Y-92283563D01*
X53845563Y-92695311D01*
X54003132Y-93075717D01*
X54160001Y-93232586D01*
X54160000Y-95743770D01*
X54135000Y-95804126D01*
X54135000Y-96215874D01*
X54292569Y-96596280D01*
X54583720Y-96887431D01*
X54964126Y-97045000D01*
X55375874Y-97045000D01*
X55756280Y-96887431D01*
X56047431Y-96596280D01*
X56205000Y-96215874D01*
X56205000Y-95804126D01*
X56180000Y-95743771D01*
X56180000Y-93838355D01*
X57760000Y-95418355D01*
X57760001Y-104061646D01*
X51672431Y-97974076D01*
X51647431Y-97913720D01*
X51356280Y-97622569D01*
X50975874Y-97465000D01*
X50564126Y-97465000D01*
X50280000Y-97582689D01*
X50280000Y-96266229D01*
X50305000Y-96205874D01*
X50305000Y-95794126D01*
X50147431Y-95413720D01*
X49856280Y-95122569D01*
X49475874Y-94965000D01*
X49064126Y-94965000D01*
X48683720Y-95122569D01*
X48392569Y-95413720D01*
X48235000Y-95794126D01*
X48235000Y-96205874D01*
X48260000Y-96266230D01*
X48260001Y-98722401D01*
X48240214Y-98821876D01*
X48260001Y-98921352D01*
X48302620Y-99135613D01*
X48318602Y-99215958D01*
X48485482Y-99465713D01*
X48485485Y-99465716D01*
X48541832Y-99550045D01*
X48626161Y-99606392D01*
X73760000Y-124740232D01*
X73760001Y-138233768D01*
X73735000Y-138294126D01*
X73735000Y-138705874D01*
X73892569Y-139086280D01*
X74183720Y-139377431D01*
X74564126Y-139535000D01*
X74975874Y-139535000D01*
X75356280Y-139377431D01*
X75647431Y-139086280D01*
X75805000Y-138705874D01*
X75805000Y-138294126D01*
X75780000Y-138233771D01*
X75780000Y-124421347D01*
X75799786Y-124321876D01*
X75780000Y-124222405D01*
X75780000Y-124222400D01*
X75721399Y-123927794D01*
X75656645Y-123830883D01*
X75554518Y-123678038D01*
X75554516Y-123678036D01*
X75498169Y-123593707D01*
X75413841Y-123537361D01*
X59056479Y-107180000D01*
X67451645Y-107180000D01*
X87287569Y-127015925D01*
X87312569Y-127076280D01*
X87603720Y-127367431D01*
X87984126Y-127525000D01*
X88395874Y-127525000D01*
X88776280Y-127367431D01*
X89067431Y-127076280D01*
X89225000Y-126695874D01*
X89225000Y-126284126D01*
X89067431Y-125903720D01*
X88776280Y-125612569D01*
X88715925Y-125587569D01*
X69139256Y-106010901D01*
X73408223Y-101741934D01*
X73633720Y-101967431D01*
X74014126Y-102125000D01*
X74425874Y-102125000D01*
X74806280Y-101967431D01*
X74898711Y-101875000D01*
X79650618Y-101875000D01*
X79535000Y-102154126D01*
X79535000Y-102565874D01*
X79692569Y-102946280D01*
X79810001Y-103063712D01*
X79810000Y-108635153D01*
X79795112Y-108710000D01*
X79810000Y-108784847D01*
X79810000Y-108784851D01*
X79854096Y-109006536D01*
X80022071Y-109257929D01*
X80085530Y-109300331D01*
X83271590Y-112486392D01*
X83271589Y-115577953D01*
X83256701Y-115652800D01*
X83271589Y-115727647D01*
X83271589Y-115727651D01*
X83315685Y-115949336D01*
X83483660Y-116200729D01*
X83547119Y-116243131D01*
X83910138Y-116606150D01*
X83789303Y-116726985D01*
X83667469Y-117021118D01*
X83373340Y-117142950D01*
X83082189Y-117434101D01*
X82924620Y-117814507D01*
X82924620Y-118226255D01*
X83082189Y-118606661D01*
X83373340Y-118897812D01*
X83753746Y-119055381D01*
X83884463Y-119055381D01*
X92820082Y-127991000D01*
X80641158Y-127991000D01*
X80310000Y-127659843D01*
X80310000Y-122946229D01*
X80335000Y-122885874D01*
X80335000Y-122474126D01*
X80177431Y-122093720D01*
X79886280Y-121802569D01*
X79505874Y-121645000D01*
X79094126Y-121645000D01*
X78713720Y-121802569D01*
X78422569Y-122093720D01*
X78265000Y-122474126D01*
X78265000Y-122885874D01*
X78290001Y-122946232D01*
X78290000Y-127859475D01*
X78348601Y-128154081D01*
X78571831Y-128488169D01*
X78905918Y-128711399D01*
X79199673Y-128769831D01*
X79706253Y-129276411D01*
X79750047Y-129341953D01*
X79815589Y-129385747D01*
X79815591Y-129385749D01*
X79994079Y-129505011D01*
X80009708Y-129515454D01*
X80238684Y-129561000D01*
X80238688Y-129561000D01*
X80316000Y-129576378D01*
X80393312Y-129561000D01*
X93680839Y-129561000D01*
X93892839Y-129773000D01*
X93876926Y-129773000D01*
X93496520Y-129930569D01*
X93205369Y-130221720D01*
X93047800Y-130602126D01*
X93047800Y-131013874D01*
X93205369Y-131394280D01*
X93322800Y-131511711D01*
X93322801Y-133178274D01*
X93191720Y-133232569D01*
X92900569Y-133523720D01*
X92743000Y-133904126D01*
X92743000Y-134315874D01*
X92900569Y-134696280D01*
X93191720Y-134987431D01*
X93572126Y-135145000D01*
X93983874Y-135145000D01*
X94364280Y-134987431D01*
X94655431Y-134696280D01*
X94813000Y-134315874D01*
X94813000Y-134029866D01*
X94842800Y-133880052D01*
X94842800Y-133880048D01*
X94857688Y-133805201D01*
X94842800Y-133730354D01*
X94842800Y-131511711D01*
X94960231Y-131394280D01*
X95117800Y-131013874D01*
X95117800Y-130997961D01*
X97321251Y-133201413D01*
X97365045Y-133266955D01*
X97430587Y-133310749D01*
X97430589Y-133310751D01*
X97573069Y-133405953D01*
X97624706Y-133440456D01*
X97853682Y-133486002D01*
X97853685Y-133486002D01*
X97930997Y-133501380D01*
X98008309Y-133486002D01*
X98573690Y-133486002D01*
X98651002Y-133501380D01*
X98728314Y-133486002D01*
X98728318Y-133486002D01*
X98957294Y-133440456D01*
X99216955Y-133266955D01*
X99260751Y-133201410D01*
X102901162Y-129561000D01*
X103665000Y-129561000D01*
X103665000Y-129731874D01*
X103822569Y-130112280D01*
X104113720Y-130403431D01*
X104494126Y-130561000D01*
X104624843Y-130561000D01*
X107404251Y-133340408D01*
X107448047Y-133405953D01*
X107707708Y-133579454D01*
X107936684Y-133625000D01*
X107936688Y-133625000D01*
X108014000Y-133640378D01*
X108091312Y-133625000D01*
X110371289Y-133625000D01*
X110463720Y-133717431D01*
X110616945Y-133780899D01*
X108786845Y-135611000D01*
X103946592Y-135611000D01*
X103957000Y-135585874D01*
X103957000Y-135174126D01*
X103799431Y-134793720D01*
X103508280Y-134502569D01*
X103127874Y-134345000D01*
X102716126Y-134345000D01*
X102335720Y-134502569D01*
X102044569Y-134793720D01*
X101887000Y-135174126D01*
X101887000Y-135585874D01*
X101897408Y-135611000D01*
X80232711Y-135611000D01*
X80140280Y-135518569D01*
X79759874Y-135361000D01*
X79348126Y-135361000D01*
X78967720Y-135518569D01*
X78676569Y-135809720D01*
X78519000Y-136190126D01*
X78519000Y-136601874D01*
X78676569Y-136982280D01*
X78967720Y-137273431D01*
X79348126Y-137431000D01*
X79759874Y-137431000D01*
X80140280Y-137273431D01*
X80232711Y-137181000D01*
X109034690Y-137181000D01*
X109112002Y-137196378D01*
X109189314Y-137181000D01*
X109189318Y-137181000D01*
X109418294Y-137135454D01*
X109677955Y-136961953D01*
X109721751Y-136896408D01*
X112190022Y-134428138D01*
X112190022Y-134986551D01*
X112175134Y-135061398D01*
X112190022Y-135136245D01*
X112190022Y-135136249D01*
X112234118Y-135357934D01*
X112402093Y-135609327D01*
X112465551Y-135651729D01*
X112585838Y-135772015D01*
X112494251Y-135790233D01*
X112242859Y-135958208D01*
X112200459Y-136021664D01*
X111402094Y-136820030D01*
X111338638Y-136862430D01*
X111296238Y-136925886D01*
X111296237Y-136925887D01*
X111170663Y-137113822D01*
X111111678Y-137410359D01*
X111126567Y-137485211D01*
X111126566Y-139252367D01*
X111111678Y-139327214D01*
X111126566Y-139402061D01*
X111126566Y-139402065D01*
X111170662Y-139623750D01*
X111338637Y-139875143D01*
X111402096Y-139917545D01*
X113749550Y-142265000D01*
X110646932Y-142265000D01*
X110646932Y-141937147D01*
X110540000Y-141678990D01*
X110540000Y-139893711D01*
X110657431Y-139776280D01*
X110815000Y-139395874D01*
X110815000Y-138984126D01*
X110657431Y-138603720D01*
X110366280Y-138312569D01*
X109985874Y-138155000D01*
X109574126Y-138155000D01*
X109193720Y-138312569D01*
X108902569Y-138603720D01*
X108745000Y-138984126D01*
X108745000Y-139395874D01*
X108902569Y-139776280D01*
X109020000Y-139893711D01*
X109020001Y-141271241D01*
X108734501Y-141556741D01*
X108576932Y-141937147D01*
X108576932Y-142265000D01*
X42235000Y-142265000D01*
X42235000Y-125640000D01*
X44020560Y-125640000D01*
X44020560Y-127340000D01*
X44069843Y-127587765D01*
X44210191Y-127797809D01*
X44420235Y-127938157D01*
X44668000Y-127987440D01*
X46368000Y-127987440D01*
X46615765Y-127938157D01*
X46825809Y-127797809D01*
X46966157Y-127587765D01*
X46975184Y-127542381D01*
X46987375Y-127560625D01*
X47478582Y-127888839D01*
X47911744Y-127975000D01*
X48204256Y-127975000D01*
X48637418Y-127888839D01*
X49128625Y-127560625D01*
X49456839Y-127069418D01*
X49572092Y-126490000D01*
X49456839Y-125910582D01*
X49128625Y-125419375D01*
X48809522Y-125206157D01*
X48939358Y-125145183D01*
X49329645Y-124716924D01*
X49499476Y-124306890D01*
X49378155Y-124077000D01*
X48185000Y-124077000D01*
X48185000Y-124097000D01*
X47931000Y-124097000D01*
X47931000Y-124077000D01*
X45645000Y-124077000D01*
X45645000Y-124097000D01*
X45391000Y-124097000D01*
X45391000Y-124077000D01*
X44197845Y-124077000D01*
X44076524Y-124306890D01*
X44246355Y-124716924D01*
X44523708Y-125021261D01*
X44420235Y-125041843D01*
X44210191Y-125182191D01*
X44069843Y-125392235D01*
X44020560Y-125640000D01*
X42235000Y-125640000D01*
X42235000Y-121766890D01*
X44076524Y-121766890D01*
X44246355Y-122176924D01*
X44636642Y-122605183D01*
X44795954Y-122680000D01*
X44636642Y-122754817D01*
X44246355Y-123183076D01*
X44076524Y-123593110D01*
X44197845Y-123823000D01*
X45391000Y-123823000D01*
X45391000Y-121537000D01*
X45645000Y-121537000D01*
X45645000Y-123823000D01*
X47931000Y-123823000D01*
X47931000Y-121537000D01*
X48185000Y-121537000D01*
X48185000Y-123823000D01*
X49378155Y-123823000D01*
X49499476Y-123593110D01*
X49329645Y-123183076D01*
X48939358Y-122754817D01*
X48780046Y-122680000D01*
X48939358Y-122605183D01*
X49329645Y-122176924D01*
X49499476Y-121766890D01*
X49378155Y-121537000D01*
X48185000Y-121537000D01*
X47931000Y-121537000D01*
X45645000Y-121537000D01*
X45391000Y-121537000D01*
X44197845Y-121537000D01*
X44076524Y-121766890D01*
X42235000Y-121766890D01*
X42235000Y-119226890D01*
X44076524Y-119226890D01*
X44246355Y-119636924D01*
X44636642Y-120065183D01*
X44795954Y-120140000D01*
X44636642Y-120214817D01*
X44246355Y-120643076D01*
X44076524Y-121053110D01*
X44197845Y-121283000D01*
X45391000Y-121283000D01*
X45391000Y-118997000D01*
X45645000Y-118997000D01*
X45645000Y-121283000D01*
X47931000Y-121283000D01*
X47931000Y-118997000D01*
X48185000Y-118997000D01*
X48185000Y-121283000D01*
X49378155Y-121283000D01*
X49499476Y-121053110D01*
X49329645Y-120643076D01*
X48939358Y-120214817D01*
X48780046Y-120140000D01*
X48939358Y-120065183D01*
X49329645Y-119636924D01*
X49499476Y-119226890D01*
X49378155Y-118997000D01*
X48185000Y-118997000D01*
X47931000Y-118997000D01*
X45645000Y-118997000D01*
X45391000Y-118997000D01*
X44197845Y-118997000D01*
X44076524Y-119226890D01*
X42235000Y-119226890D01*
X42235000Y-108710000D01*
X44003908Y-108710000D01*
X44119161Y-109289418D01*
X44447375Y-109780625D01*
X44745761Y-109980000D01*
X44447375Y-110179375D01*
X44119161Y-110670582D01*
X44003908Y-111250000D01*
X44119161Y-111829418D01*
X44447375Y-112320625D01*
X44745761Y-112520000D01*
X44447375Y-112719375D01*
X44119161Y-113210582D01*
X44003908Y-113790000D01*
X44119161Y-114369418D01*
X44447375Y-114860625D01*
X44745761Y-115060000D01*
X44447375Y-115259375D01*
X44119161Y-115750582D01*
X44003908Y-116330000D01*
X44119161Y-116909418D01*
X44447375Y-117400625D01*
X44766478Y-117613843D01*
X44636642Y-117674817D01*
X44246355Y-118103076D01*
X44076524Y-118513110D01*
X44197845Y-118743000D01*
X45391000Y-118743000D01*
X45391000Y-118723000D01*
X45645000Y-118723000D01*
X45645000Y-118743000D01*
X47931000Y-118743000D01*
X47931000Y-118723000D01*
X48185000Y-118723000D01*
X48185000Y-118743000D01*
X49378155Y-118743000D01*
X49499476Y-118513110D01*
X49329645Y-118103076D01*
X48939358Y-117674817D01*
X48809522Y-117613843D01*
X49128625Y-117400625D01*
X49456839Y-116909418D01*
X49572092Y-116330000D01*
X49456839Y-115750582D01*
X49128625Y-115259375D01*
X48830239Y-115060000D01*
X49128625Y-114860625D01*
X49456839Y-114369418D01*
X49572092Y-113790000D01*
X49456839Y-113210582D01*
X49128625Y-112719375D01*
X48830239Y-112520000D01*
X49128625Y-112320625D01*
X49456839Y-111829418D01*
X49572092Y-111250000D01*
X49456839Y-110670582D01*
X49128625Y-110179375D01*
X48830239Y-109980000D01*
X49128625Y-109780625D01*
X49456839Y-109289418D01*
X49572092Y-108710000D01*
X49456839Y-108130582D01*
X49128625Y-107639375D01*
X48637418Y-107311161D01*
X48204256Y-107225000D01*
X47911744Y-107225000D01*
X47478582Y-107311161D01*
X46987375Y-107639375D01*
X46788000Y-107937761D01*
X46588625Y-107639375D01*
X46097418Y-107311161D01*
X45664256Y-107225000D01*
X45371744Y-107225000D01*
X44938582Y-107311161D01*
X44447375Y-107639375D01*
X44119161Y-108130582D01*
X44003908Y-108710000D01*
X42235000Y-108710000D01*
X42235000Y-101096890D01*
X44558524Y-101096890D01*
X44728355Y-101506924D01*
X45118642Y-101935183D01*
X45643108Y-102181486D01*
X45873000Y-102060819D01*
X45873000Y-100867000D01*
X46127000Y-100867000D01*
X46127000Y-102060819D01*
X46356892Y-102181486D01*
X46881358Y-101935183D01*
X47271645Y-101506924D01*
X47441476Y-101096890D01*
X47320155Y-100867000D01*
X46127000Y-100867000D01*
X45873000Y-100867000D01*
X44679845Y-100867000D01*
X44558524Y-101096890D01*
X42235000Y-101096890D01*
X42235000Y-88040000D01*
X44485908Y-88040000D01*
X44601161Y-88619418D01*
X44929375Y-89110625D01*
X45227761Y-89310000D01*
X44929375Y-89509375D01*
X44601161Y-90000582D01*
X44485908Y-90580000D01*
X44601161Y-91159418D01*
X44929375Y-91650625D01*
X45227761Y-91850000D01*
X44929375Y-92049375D01*
X44601161Y-92540582D01*
X44485908Y-93120000D01*
X44601161Y-93699418D01*
X44929375Y-94190625D01*
X45227761Y-94390000D01*
X44929375Y-94589375D01*
X44601161Y-95080582D01*
X44485908Y-95660000D01*
X44601161Y-96239418D01*
X44929375Y-96730625D01*
X45227761Y-96930000D01*
X44929375Y-97129375D01*
X44601161Y-97620582D01*
X44485908Y-98200000D01*
X44601161Y-98779418D01*
X44929375Y-99270625D01*
X45248478Y-99483843D01*
X45118642Y-99544817D01*
X44728355Y-99973076D01*
X44558524Y-100383110D01*
X44679845Y-100613000D01*
X45873000Y-100613000D01*
X45873000Y-100593000D01*
X46127000Y-100593000D01*
X46127000Y-100613000D01*
X47320155Y-100613000D01*
X47441476Y-100383110D01*
X47271645Y-99973076D01*
X46881358Y-99544817D01*
X46751522Y-99483843D01*
X47070625Y-99270625D01*
X47398839Y-98779418D01*
X47514092Y-98200000D01*
X47398839Y-97620582D01*
X47070625Y-97129375D01*
X46772239Y-96930000D01*
X47070625Y-96730625D01*
X47398839Y-96239418D01*
X47514092Y-95660000D01*
X47398839Y-95080582D01*
X47070625Y-94589375D01*
X46772239Y-94390000D01*
X47070625Y-94190625D01*
X47398839Y-93699418D01*
X47514092Y-93120000D01*
X47398839Y-92540582D01*
X47070625Y-92049375D01*
X46772239Y-91850000D01*
X47070625Y-91650625D01*
X47398839Y-91159418D01*
X47443538Y-90934698D01*
X51843996Y-95381624D01*
X51845482Y-95383848D01*
X51913868Y-95452234D01*
X51982050Y-95521136D01*
X51984271Y-95522637D01*
X52163500Y-95701866D01*
X52188500Y-95762222D01*
X52479651Y-96053373D01*
X52860057Y-96210942D01*
X53271805Y-96210942D01*
X53652211Y-96053373D01*
X53943362Y-95762222D01*
X54100931Y-95381816D01*
X54100931Y-94970068D01*
X53943362Y-94589662D01*
X53652211Y-94298511D01*
X53591855Y-94273511D01*
X53346105Y-94027761D01*
X47498497Y-88118404D01*
X47514092Y-88040000D01*
X47398839Y-87460582D01*
X47070625Y-86969375D01*
X47052381Y-86957184D01*
X47097765Y-86948157D01*
X47307809Y-86807809D01*
X47448157Y-86597765D01*
X47497440Y-86350000D01*
X47497440Y-84650000D01*
X47448157Y-84402235D01*
X47307809Y-84192191D01*
X47097765Y-84051843D01*
X46850000Y-84002560D01*
X45150000Y-84002560D01*
X44902235Y-84051843D01*
X44692191Y-84192191D01*
X44551843Y-84402235D01*
X44502560Y-84650000D01*
X44502560Y-86350000D01*
X44551843Y-86597765D01*
X44692191Y-86807809D01*
X44902235Y-86948157D01*
X44947619Y-86957184D01*
X44929375Y-86969375D01*
X44601161Y-87460582D01*
X44485908Y-88040000D01*
X42235000Y-88040000D01*
X42235000Y-43735000D01*
X140765001Y-43735000D01*
X140765001Y-55310336D01*
G36*
X128349396Y-135176251D02*
X128412851Y-135218650D01*
X128439401Y-135245200D01*
X128439402Y-137872206D01*
X126121651Y-140189958D01*
X125408669Y-140189958D01*
X127637497Y-137961131D01*
X127700953Y-137918731D01*
X127773561Y-137810066D01*
X127868928Y-137667340D01*
X127892199Y-137550349D01*
X127913024Y-137445654D01*
X127913024Y-137445650D01*
X127927912Y-137370802D01*
X127913024Y-137295954D01*
X127913024Y-135485975D01*
X128298668Y-135100332D01*
X128349396Y-135176251D01*
X128349396Y-135176251D01*
G37*
X128349396Y-135176251D02*
X128412851Y-135218650D01*
X128439401Y-135245200D01*
X128439402Y-137872206D01*
X126121651Y-140189958D01*
X125408669Y-140189958D01*
X127637497Y-137961131D01*
X127700953Y-137918731D01*
X127773561Y-137810066D01*
X127868928Y-137667340D01*
X127892199Y-137550349D01*
X127913024Y-137445654D01*
X127913024Y-137445650D01*
X127927912Y-137370802D01*
X127913024Y-137295954D01*
X127913024Y-135485975D01*
X128298668Y-135100332D01*
X128349396Y-135176251D01*
G36*
X121346710Y-136757836D02*
X121727116Y-136915405D01*
X121870373Y-136915405D01*
X122026697Y-137019858D01*
X122255673Y-137065404D01*
X122255676Y-137065404D01*
X122332988Y-137080782D01*
X122410300Y-137065404D01*
X124608680Y-137065404D01*
X124685992Y-137080782D01*
X124763304Y-137065404D01*
X124763308Y-137065404D01*
X124992284Y-137019858D01*
X125251945Y-136846357D01*
X125295741Y-136780812D01*
X125493003Y-136583550D01*
X125493003Y-136683199D01*
X123630802Y-138545401D01*
X119953984Y-138545401D01*
X119879137Y-138530513D01*
X119804290Y-138545401D01*
X119804286Y-138545401D01*
X119582601Y-138589497D01*
X119331209Y-138757472D01*
X119288809Y-138820928D01*
X119174325Y-138935412D01*
X119129874Y-138917000D01*
X118718126Y-138917000D01*
X118337720Y-139074569D01*
X118046569Y-139365720D01*
X117889000Y-139746126D01*
X117889000Y-139917905D01*
X116910505Y-139917905D01*
X115213961Y-138221362D01*
X115391050Y-138339689D01*
X115612735Y-138383785D01*
X115612740Y-138383785D01*
X115687587Y-138398673D01*
X115762434Y-138383785D01*
X117916591Y-138383785D01*
X117991438Y-138398673D01*
X118066285Y-138383785D01*
X118066290Y-138383785D01*
X118287975Y-138339689D01*
X118409055Y-138258786D01*
X118597311Y-138258786D01*
X118977717Y-138101217D01*
X119268868Y-137810066D01*
X119426437Y-137429660D01*
X119426437Y-137017912D01*
X119268868Y-136637506D01*
X119185263Y-136553901D01*
X120888284Y-136553901D01*
X120965596Y-136569279D01*
X121042908Y-136553901D01*
X121042912Y-136553901D01*
X121126207Y-136537333D01*
X121346710Y-136757836D01*
X121346710Y-136757836D01*
G37*
X121346710Y-136757836D02*
X121727116Y-136915405D01*
X121870373Y-136915405D01*
X122026697Y-137019858D01*
X122255673Y-137065404D01*
X122255676Y-137065404D01*
X122332988Y-137080782D01*
X122410300Y-137065404D01*
X124608680Y-137065404D01*
X124685992Y-137080782D01*
X124763304Y-137065404D01*
X124763308Y-137065404D01*
X124992284Y-137019858D01*
X125251945Y-136846357D01*
X125295741Y-136780812D01*
X125493003Y-136583550D01*
X125493003Y-136683199D01*
X123630802Y-138545401D01*
X119953984Y-138545401D01*
X119879137Y-138530513D01*
X119804290Y-138545401D01*
X119804286Y-138545401D01*
X119582601Y-138589497D01*
X119331209Y-138757472D01*
X119288809Y-138820928D01*
X119174325Y-138935412D01*
X119129874Y-138917000D01*
X118718126Y-138917000D01*
X118337720Y-139074569D01*
X118046569Y-139365720D01*
X117889000Y-139746126D01*
X117889000Y-139917905D01*
X116910505Y-139917905D01*
X115213961Y-138221362D01*
X115391050Y-138339689D01*
X115612735Y-138383785D01*
X115612740Y-138383785D01*
X115687587Y-138398673D01*
X115762434Y-138383785D01*
X117916591Y-138383785D01*
X117991438Y-138398673D01*
X118066285Y-138383785D01*
X118066290Y-138383785D01*
X118287975Y-138339689D01*
X118409055Y-138258786D01*
X118597311Y-138258786D01*
X118977717Y-138101217D01*
X119268868Y-137810066D01*
X119426437Y-137429660D01*
X119426437Y-137017912D01*
X119268868Y-136637506D01*
X119185263Y-136553901D01*
X120888284Y-136553901D01*
X120965596Y-136569279D01*
X121042908Y-136553901D01*
X121042912Y-136553901D01*
X121126207Y-136537333D01*
X121346710Y-136757836D01*
G36*
X137841024Y-99189180D02*
X137729085Y-99356709D01*
X137670100Y-99653246D01*
X137684989Y-99728098D01*
X137684988Y-131732852D01*
X137441978Y-131732852D01*
X137061572Y-131890421D01*
X136770421Y-132181572D01*
X136628347Y-132524570D01*
X135318710Y-133834207D01*
X135308839Y-133784582D01*
X134980625Y-133293375D01*
X134682239Y-133094000D01*
X134980625Y-132894625D01*
X135308839Y-132403418D01*
X135424092Y-131824000D01*
X135308839Y-131244582D01*
X134980625Y-130753375D01*
X134682239Y-130554000D01*
X134980625Y-130354625D01*
X135308839Y-129863418D01*
X135424092Y-129284000D01*
X135308839Y-128704582D01*
X134980625Y-128213375D01*
X134682239Y-128014000D01*
X134980625Y-127814625D01*
X135308839Y-127323418D01*
X135424092Y-126744000D01*
X135308839Y-126164582D01*
X134980625Y-125673375D01*
X134682239Y-125474000D01*
X134980625Y-125274625D01*
X135308839Y-124783418D01*
X135424092Y-124204000D01*
X135308839Y-123624582D01*
X134980625Y-123133375D01*
X134958967Y-123118904D01*
X135119698Y-123052327D01*
X135298327Y-122873699D01*
X135395000Y-122640310D01*
X135395000Y-121949750D01*
X135236250Y-121791000D01*
X134037000Y-121791000D01*
X134037000Y-121811000D01*
X133783000Y-121811000D01*
X133783000Y-121791000D01*
X133763000Y-121791000D01*
X133763000Y-121537000D01*
X133783000Y-121537000D01*
X133783000Y-120337750D01*
X134037000Y-120337750D01*
X134037000Y-121537000D01*
X135236250Y-121537000D01*
X135395000Y-121378250D01*
X135395000Y-120687690D01*
X135298327Y-120454301D01*
X135119698Y-120275673D01*
X134886309Y-120179000D01*
X134195750Y-120179000D01*
X134037000Y-120337750D01*
X133783000Y-120337750D01*
X133624250Y-120179000D01*
X133182999Y-120179000D01*
X133182999Y-119102682D01*
X133199890Y-119109678D01*
X133611638Y-119109678D01*
X133992044Y-118952109D01*
X134109475Y-118834678D01*
X135138475Y-118834678D01*
X135213322Y-118849566D01*
X135288169Y-118834678D01*
X135288174Y-118834678D01*
X135509859Y-118790582D01*
X135761251Y-118622607D01*
X135803653Y-118559148D01*
X135929469Y-118433332D01*
X135992928Y-118390930D01*
X136160903Y-118139538D01*
X136204999Y-117917853D01*
X136204999Y-117917849D01*
X136219887Y-117843001D01*
X136204999Y-117768153D01*
X136204999Y-112058022D01*
X136219887Y-111983175D01*
X136204999Y-111908328D01*
X136204999Y-111908324D01*
X136160903Y-111686639D01*
X135992928Y-111435247D01*
X135929472Y-111392847D01*
X135604980Y-111068356D01*
X135604980Y-110931644D01*
X135829442Y-110707183D01*
X135892898Y-110664783D01*
X136060873Y-110413391D01*
X136104969Y-110191706D01*
X136104969Y-110191702D01*
X136119857Y-110116855D01*
X136104969Y-110042008D01*
X136104969Y-108735000D01*
X136275874Y-108735000D01*
X136656280Y-108577431D01*
X136947431Y-108286280D01*
X137105000Y-107905874D01*
X137105000Y-107494126D01*
X136947431Y-107113720D01*
X136855000Y-107021289D01*
X136855000Y-103720844D01*
X136870378Y-103643532D01*
X136855000Y-103566220D01*
X136855000Y-103566216D01*
X136809454Y-103337240D01*
X136635953Y-103077579D01*
X136604980Y-103056883D01*
X136604980Y-101943117D01*
X136635953Y-101922421D01*
X136809454Y-101662760D01*
X136855000Y-101433784D01*
X136855000Y-101433780D01*
X136870378Y-101356468D01*
X136855000Y-101279156D01*
X136855000Y-65035000D01*
X137075874Y-65035000D01*
X137456280Y-64877431D01*
X137747431Y-64586280D01*
X137841025Y-64360324D01*
X137841024Y-99189180D01*
X137841024Y-99189180D01*
G37*
X137841024Y-99189180D02*
X137729085Y-99356709D01*
X137670100Y-99653246D01*
X137684989Y-99728098D01*
X137684988Y-131732852D01*
X137441978Y-131732852D01*
X137061572Y-131890421D01*
X136770421Y-132181572D01*
X136628347Y-132524570D01*
X135318710Y-133834207D01*
X135308839Y-133784582D01*
X134980625Y-133293375D01*
X134682239Y-133094000D01*
X134980625Y-132894625D01*
X135308839Y-132403418D01*
X135424092Y-131824000D01*
X135308839Y-131244582D01*
X134980625Y-130753375D01*
X134682239Y-130554000D01*
X134980625Y-130354625D01*
X135308839Y-129863418D01*
X135424092Y-129284000D01*
X135308839Y-128704582D01*
X134980625Y-128213375D01*
X134682239Y-128014000D01*
X134980625Y-127814625D01*
X135308839Y-127323418D01*
X135424092Y-126744000D01*
X135308839Y-126164582D01*
X134980625Y-125673375D01*
X134682239Y-125474000D01*
X134980625Y-125274625D01*
X135308839Y-124783418D01*
X135424092Y-124204000D01*
X135308839Y-123624582D01*
X134980625Y-123133375D01*
X134958967Y-123118904D01*
X135119698Y-123052327D01*
X135298327Y-122873699D01*
X135395000Y-122640310D01*
X135395000Y-121949750D01*
X135236250Y-121791000D01*
X134037000Y-121791000D01*
X134037000Y-121811000D01*
X133783000Y-121811000D01*
X133783000Y-121791000D01*
X133763000Y-121791000D01*
X133763000Y-121537000D01*
X133783000Y-121537000D01*
X133783000Y-120337750D01*
X134037000Y-120337750D01*
X134037000Y-121537000D01*
X135236250Y-121537000D01*
X135395000Y-121378250D01*
X135395000Y-120687690D01*
X135298327Y-120454301D01*
X135119698Y-120275673D01*
X134886309Y-120179000D01*
X134195750Y-120179000D01*
X134037000Y-120337750D01*
X133783000Y-120337750D01*
X133624250Y-120179000D01*
X133182999Y-120179000D01*
X133182999Y-119102682D01*
X133199890Y-119109678D01*
X133611638Y-119109678D01*
X133992044Y-118952109D01*
X134109475Y-118834678D01*
X135138475Y-118834678D01*
X135213322Y-118849566D01*
X135288169Y-118834678D01*
X135288174Y-118834678D01*
X135509859Y-118790582D01*
X135761251Y-118622607D01*
X135803653Y-118559148D01*
X135929469Y-118433332D01*
X135992928Y-118390930D01*
X136160903Y-118139538D01*
X136204999Y-117917853D01*
X136204999Y-117917849D01*
X136219887Y-117843001D01*
X136204999Y-117768153D01*
X136204999Y-112058022D01*
X136219887Y-111983175D01*
X136204999Y-111908328D01*
X136204999Y-111908324D01*
X136160903Y-111686639D01*
X135992928Y-111435247D01*
X135929472Y-111392847D01*
X135604980Y-111068356D01*
X135604980Y-110931644D01*
X135829442Y-110707183D01*
X135892898Y-110664783D01*
X136060873Y-110413391D01*
X136104969Y-110191706D01*
X136104969Y-110191702D01*
X136119857Y-110116855D01*
X136104969Y-110042008D01*
X136104969Y-108735000D01*
X136275874Y-108735000D01*
X136656280Y-108577431D01*
X136947431Y-108286280D01*
X137105000Y-107905874D01*
X137105000Y-107494126D01*
X136947431Y-107113720D01*
X136855000Y-107021289D01*
X136855000Y-103720844D01*
X136870378Y-103643532D01*
X136855000Y-103566220D01*
X136855000Y-103566216D01*
X136809454Y-103337240D01*
X136635953Y-103077579D01*
X136604980Y-103056883D01*
X136604980Y-101943117D01*
X136635953Y-101922421D01*
X136809454Y-101662760D01*
X136855000Y-101433784D01*
X136855000Y-101433780D01*
X136870378Y-101356468D01*
X136855000Y-101279156D01*
X136855000Y-65035000D01*
X137075874Y-65035000D01*
X137456280Y-64877431D01*
X137747431Y-64586280D01*
X137841025Y-64360324D01*
X137841024Y-99189180D01*
G36*
X103665000Y-127835158D02*
X103665000Y-127965874D01*
X103675408Y-127991000D01*
X102653315Y-127991000D01*
X102576003Y-127975622D01*
X102498691Y-127991000D01*
X102498688Y-127991000D01*
X102287539Y-128033000D01*
X102269712Y-128036546D01*
X102075595Y-128166251D01*
X102075593Y-128166253D01*
X102010051Y-128210047D01*
X101966257Y-128275589D01*
X98325845Y-131916002D01*
X98256156Y-131916002D01*
X94964362Y-128624209D01*
X95008277Y-128624209D01*
X95100708Y-128716640D01*
X95481114Y-128874209D01*
X95892862Y-128874209D01*
X96273268Y-128716640D01*
X96564419Y-128425489D01*
X96721988Y-128045083D01*
X96721988Y-127633335D01*
X96564419Y-127252929D01*
X96516503Y-127205013D01*
X103034856Y-127205013D01*
X103665000Y-127835158D01*
X103665000Y-127835158D01*
G37*
X103665000Y-127835158D02*
X103665000Y-127965874D01*
X103675408Y-127991000D01*
X102653315Y-127991000D01*
X102576003Y-127975622D01*
X102498691Y-127991000D01*
X102498688Y-127991000D01*
X102287539Y-128033000D01*
X102269712Y-128036546D01*
X102075595Y-128166251D01*
X102075593Y-128166253D01*
X102010051Y-128210047D01*
X101966257Y-128275589D01*
X98325845Y-131916002D01*
X98256156Y-131916002D01*
X94964362Y-128624209D01*
X95008277Y-128624209D01*
X95100708Y-128716640D01*
X95481114Y-128874209D01*
X95892862Y-128874209D01*
X96273268Y-128716640D01*
X96564419Y-128425489D01*
X96721988Y-128045083D01*
X96721988Y-127633335D01*
X96564419Y-127252929D01*
X96516503Y-127205013D01*
X103034856Y-127205013D01*
X103665000Y-127835158D01*
G36*
X130178390Y-123773990D02*
X129787816Y-123773990D01*
X129407410Y-123931559D01*
X129116259Y-124222710D01*
X128958690Y-124603116D01*
X128958690Y-125014864D01*
X129116259Y-125395270D01*
X129340001Y-125619012D01*
X129340001Y-127085680D01*
X129266596Y-127085680D01*
X129204867Y-127041823D01*
X129193854Y-127039302D01*
X129184460Y-127033025D01*
X129046877Y-127005658D01*
X128910144Y-126974359D01*
X128899004Y-126976244D01*
X128887922Y-126974040D01*
X128750348Y-127001405D01*
X128612038Y-127024815D01*
X128602466Y-127030821D01*
X128595000Y-127032306D01*
X128595000Y-126792126D01*
X128437431Y-126411720D01*
X128146280Y-126120569D01*
X127765874Y-125963000D01*
X127354126Y-125963000D01*
X126973720Y-126120569D01*
X126682569Y-126411720D01*
X126525000Y-126792126D01*
X126525000Y-126958198D01*
X125768532Y-127714667D01*
X125705073Y-127757069D01*
X125537098Y-128008462D01*
X125493002Y-128230147D01*
X125493002Y-128230151D01*
X125478114Y-128304998D01*
X125493002Y-128379845D01*
X125493002Y-128603640D01*
X124477097Y-127587736D01*
X124657324Y-127407509D01*
X124814893Y-127027103D01*
X124814893Y-126615355D01*
X124657324Y-126234949D01*
X124539893Y-126117518D01*
X124539893Y-125993060D01*
X128331465Y-122201490D01*
X128394918Y-122159092D01*
X128437316Y-122095639D01*
X128437318Y-122095637D01*
X128521555Y-121969567D01*
X128562893Y-121907700D01*
X128606989Y-121686015D01*
X128606989Y-121686011D01*
X128621877Y-121611164D01*
X128606989Y-121536317D01*
X128606989Y-121380808D01*
X130178389Y-119809408D01*
X130178390Y-123773990D01*
X130178390Y-123773990D01*
G37*
X130178390Y-123773990D02*
X129787816Y-123773990D01*
X129407410Y-123931559D01*
X129116259Y-124222710D01*
X128958690Y-124603116D01*
X128958690Y-125014864D01*
X129116259Y-125395270D01*
X129340001Y-125619012D01*
X129340001Y-127085680D01*
X129266596Y-127085680D01*
X129204867Y-127041823D01*
X129193854Y-127039302D01*
X129184460Y-127033025D01*
X129046877Y-127005658D01*
X128910144Y-126974359D01*
X128899004Y-126976244D01*
X128887922Y-126974040D01*
X128750348Y-127001405D01*
X128612038Y-127024815D01*
X128602466Y-127030821D01*
X128595000Y-127032306D01*
X128595000Y-126792126D01*
X128437431Y-126411720D01*
X128146280Y-126120569D01*
X127765874Y-125963000D01*
X127354126Y-125963000D01*
X126973720Y-126120569D01*
X126682569Y-126411720D01*
X126525000Y-126792126D01*
X126525000Y-126958198D01*
X125768532Y-127714667D01*
X125705073Y-127757069D01*
X125537098Y-128008462D01*
X125493002Y-128230147D01*
X125493002Y-128230151D01*
X125478114Y-128304998D01*
X125493002Y-128379845D01*
X125493002Y-128603640D01*
X124477097Y-127587736D01*
X124657324Y-127407509D01*
X124814893Y-127027103D01*
X124814893Y-126615355D01*
X124657324Y-126234949D01*
X124539893Y-126117518D01*
X124539893Y-125993060D01*
X128331465Y-122201490D01*
X128394918Y-122159092D01*
X128437316Y-122095639D01*
X128437318Y-122095637D01*
X128521555Y-121969567D01*
X128562893Y-121907700D01*
X128606989Y-121686015D01*
X128606989Y-121686011D01*
X128621877Y-121611164D01*
X128606989Y-121536317D01*
X128606989Y-121380808D01*
X130178389Y-119809408D01*
X130178390Y-123773990D01*
G36*
X93505000Y-111391863D02*
X93662569Y-111772269D01*
X93953720Y-112063420D01*
X94334126Y-112220989D01*
X94464843Y-112220989D01*
X97788854Y-115545000D01*
X92678711Y-115545000D01*
X92586280Y-115452569D01*
X92205874Y-115295000D01*
X91794126Y-115295000D01*
X91413720Y-115452569D01*
X91122569Y-115743720D01*
X90965000Y-116124126D01*
X90965000Y-116535874D01*
X91122569Y-116916280D01*
X91413720Y-117207431D01*
X91794126Y-117365000D01*
X92205874Y-117365000D01*
X92586280Y-117207431D01*
X92678711Y-117115000D01*
X98024843Y-117115000D01*
X107475000Y-126565158D01*
X107475000Y-126695874D01*
X107632569Y-127076280D01*
X107923720Y-127367431D01*
X108304126Y-127525000D01*
X108715874Y-127525000D01*
X109096280Y-127367431D01*
X109353782Y-127109929D01*
X110015000Y-127771147D01*
X110015000Y-127949864D01*
X110147604Y-128270000D01*
X106730000Y-128270000D01*
X106730000Y-127834846D01*
X106744888Y-127759999D01*
X106730000Y-127685152D01*
X106730000Y-127685148D01*
X106685904Y-127463463D01*
X106622891Y-127369158D01*
X106560329Y-127275526D01*
X106560327Y-127275524D01*
X106517929Y-127212071D01*
X106454476Y-127169673D01*
X104020331Y-124735530D01*
X103977929Y-124672071D01*
X103726537Y-124504096D01*
X103504852Y-124460000D01*
X103504847Y-124460000D01*
X103430000Y-124445112D01*
X103355153Y-124460000D01*
X95586252Y-124460000D01*
X95511404Y-124445112D01*
X95436556Y-124460000D01*
X95436552Y-124460000D01*
X95263009Y-124494520D01*
X95214866Y-124504096D01*
X95197686Y-124515575D01*
X95024680Y-124342569D01*
X94644274Y-124185000D01*
X94478202Y-124185000D01*
X85241600Y-114948399D01*
X85241600Y-112201111D01*
X85444126Y-112285000D01*
X85855874Y-112285000D01*
X86236280Y-112127431D01*
X86337578Y-112026133D01*
X86521977Y-111989454D01*
X86781638Y-111815953D01*
X86825434Y-111750408D01*
X87354856Y-111220987D01*
X93505000Y-111220987D01*
X93505000Y-111391863D01*
X93505000Y-111391863D01*
G37*
X93505000Y-111391863D02*
X93662569Y-111772269D01*
X93953720Y-112063420D01*
X94334126Y-112220989D01*
X94464843Y-112220989D01*
X97788854Y-115545000D01*
X92678711Y-115545000D01*
X92586280Y-115452569D01*
X92205874Y-115295000D01*
X91794126Y-115295000D01*
X91413720Y-115452569D01*
X91122569Y-115743720D01*
X90965000Y-116124126D01*
X90965000Y-116535874D01*
X91122569Y-116916280D01*
X91413720Y-117207431D01*
X91794126Y-117365000D01*
X92205874Y-117365000D01*
X92586280Y-117207431D01*
X92678711Y-117115000D01*
X98024843Y-117115000D01*
X107475000Y-126565158D01*
X107475000Y-126695874D01*
X107632569Y-127076280D01*
X107923720Y-127367431D01*
X108304126Y-127525000D01*
X108715874Y-127525000D01*
X109096280Y-127367431D01*
X109353782Y-127109929D01*
X110015000Y-127771147D01*
X110015000Y-127949864D01*
X110147604Y-128270000D01*
X106730000Y-128270000D01*
X106730000Y-127834846D01*
X106744888Y-127759999D01*
X106730000Y-127685152D01*
X106730000Y-127685148D01*
X106685904Y-127463463D01*
X106622891Y-127369158D01*
X106560329Y-127275526D01*
X106560327Y-127275524D01*
X106517929Y-127212071D01*
X106454476Y-127169673D01*
X104020331Y-124735530D01*
X103977929Y-124672071D01*
X103726537Y-124504096D01*
X103504852Y-124460000D01*
X103504847Y-124460000D01*
X103430000Y-124445112D01*
X103355153Y-124460000D01*
X95586252Y-124460000D01*
X95511404Y-124445112D01*
X95436556Y-124460000D01*
X95436552Y-124460000D01*
X95263009Y-124494520D01*
X95214866Y-124504096D01*
X95197686Y-124515575D01*
X95024680Y-124342569D01*
X94644274Y-124185000D01*
X94478202Y-124185000D01*
X85241600Y-114948399D01*
X85241600Y-112201111D01*
X85444126Y-112285000D01*
X85855874Y-112285000D01*
X86236280Y-112127431D01*
X86337578Y-112026133D01*
X86521977Y-111989454D01*
X86781638Y-111815953D01*
X86825434Y-111750408D01*
X87354856Y-111220987D01*
X93505000Y-111220987D01*
X93505000Y-111391863D01*
G36*
X93951740Y-92232550D02*
X93662569Y-92521721D01*
X93505000Y-92902127D01*
X93505000Y-93313875D01*
X93662569Y-93694281D01*
X93755000Y-93786712D01*
X93755001Y-94061288D01*
X93662569Y-94153720D01*
X93505000Y-94534126D01*
X93505000Y-94945874D01*
X93662569Y-95326280D01*
X93953720Y-95617431D01*
X94334126Y-95775000D01*
X94745874Y-95775000D01*
X95126280Y-95617431D01*
X95417431Y-95326280D01*
X95575000Y-94945874D01*
X95575000Y-94534126D01*
X95417431Y-94153720D01*
X95325000Y-94061289D01*
X95325000Y-93786712D01*
X95415451Y-93696261D01*
X106503988Y-104784798D01*
X106503989Y-109099437D01*
X106488610Y-109176754D01*
X106549534Y-109483045D01*
X106679239Y-109677162D01*
X106679242Y-109677165D01*
X106723036Y-109742707D01*
X106788578Y-109786501D01*
X114724763Y-117722687D01*
X114768557Y-117788229D01*
X114834099Y-117832023D01*
X114834101Y-117832025D01*
X114908984Y-117882060D01*
X115028218Y-117961730D01*
X115086086Y-117973241D01*
X115431413Y-118318568D01*
X115442924Y-118376436D01*
X115616425Y-118636097D01*
X115681970Y-118679893D01*
X117899765Y-120897688D01*
X117899765Y-122069607D01*
X113984551Y-118154394D01*
X113940755Y-118088849D01*
X113681094Y-117915348D01*
X113452118Y-117869802D01*
X113452114Y-117869802D01*
X113374802Y-117854424D01*
X113297490Y-117869802D01*
X110303955Y-117869802D01*
X110272198Y-117838045D01*
X110272198Y-116614912D01*
X110287576Y-116537601D01*
X110272198Y-116460290D01*
X110272198Y-116460286D01*
X110226652Y-116231310D01*
X110135572Y-116095000D01*
X110096947Y-116037193D01*
X110096945Y-116037191D01*
X110053151Y-115971649D01*
X109987609Y-115927855D01*
X94649345Y-100589592D01*
X94605549Y-100524047D01*
X94345888Y-100350546D01*
X94116912Y-100305000D01*
X94116908Y-100305000D01*
X94039596Y-100289622D01*
X93962284Y-100305000D01*
X93948711Y-100305000D01*
X93856280Y-100212569D01*
X93475874Y-100055000D01*
X93064126Y-100055000D01*
X93031011Y-100068717D01*
X93031011Y-91311821D01*
X93951740Y-92232550D01*
X93951740Y-92232550D01*
G37*
X93951740Y-92232550D02*
X93662569Y-92521721D01*
X93505000Y-92902127D01*
X93505000Y-93313875D01*
X93662569Y-93694281D01*
X93755000Y-93786712D01*
X93755001Y-94061288D01*
X93662569Y-94153720D01*
X93505000Y-94534126D01*
X93505000Y-94945874D01*
X93662569Y-95326280D01*
X93953720Y-95617431D01*
X94334126Y-95775000D01*
X94745874Y-95775000D01*
X95126280Y-95617431D01*
X95417431Y-95326280D01*
X95575000Y-94945874D01*
X95575000Y-94534126D01*
X95417431Y-94153720D01*
X95325000Y-94061289D01*
X95325000Y-93786712D01*
X95415451Y-93696261D01*
X106503988Y-104784798D01*
X106503989Y-109099437D01*
X106488610Y-109176754D01*
X106549534Y-109483045D01*
X106679239Y-109677162D01*
X106679242Y-109677165D01*
X106723036Y-109742707D01*
X106788578Y-109786501D01*
X114724763Y-117722687D01*
X114768557Y-117788229D01*
X114834099Y-117832023D01*
X114834101Y-117832025D01*
X114908984Y-117882060D01*
X115028218Y-117961730D01*
X115086086Y-117973241D01*
X115431413Y-118318568D01*
X115442924Y-118376436D01*
X115616425Y-118636097D01*
X115681970Y-118679893D01*
X117899765Y-120897688D01*
X117899765Y-122069607D01*
X113984551Y-118154394D01*
X113940755Y-118088849D01*
X113681094Y-117915348D01*
X113452118Y-117869802D01*
X113452114Y-117869802D01*
X113374802Y-117854424D01*
X113297490Y-117869802D01*
X110303955Y-117869802D01*
X110272198Y-117838045D01*
X110272198Y-116614912D01*
X110287576Y-116537601D01*
X110272198Y-116460290D01*
X110272198Y-116460286D01*
X110226652Y-116231310D01*
X110135572Y-116095000D01*
X110096947Y-116037193D01*
X110096945Y-116037191D01*
X110053151Y-115971649D01*
X109987609Y-115927855D01*
X94649345Y-100589592D01*
X94605549Y-100524047D01*
X94345888Y-100350546D01*
X94116912Y-100305000D01*
X94116908Y-100305000D01*
X94039596Y-100289622D01*
X93962284Y-100305000D01*
X93948711Y-100305000D01*
X93856280Y-100212569D01*
X93475874Y-100055000D01*
X93064126Y-100055000D01*
X93031011Y-100068717D01*
X93031011Y-91311821D01*
X93951740Y-92232550D01*
G36*
X127843246Y-115599043D02*
X127698569Y-115743720D01*
X127541000Y-116124126D01*
X127541000Y-116535874D01*
X127698569Y-116916280D01*
X127816001Y-117033712D01*
X127816000Y-118555198D01*
X125207398Y-121163801D01*
X125207398Y-119611207D01*
X126107472Y-118711134D01*
X126170928Y-118668734D01*
X126338903Y-118417342D01*
X126382999Y-118195657D01*
X126382999Y-118195652D01*
X126397887Y-118120805D01*
X126382999Y-118045958D01*
X126382999Y-115475543D01*
X126651744Y-115529000D01*
X126944256Y-115529000D01*
X127377418Y-115442839D01*
X127563024Y-115318821D01*
X127843246Y-115599043D01*
X127843246Y-115599043D01*
G37*
X127843246Y-115599043D02*
X127698569Y-115743720D01*
X127541000Y-116124126D01*
X127541000Y-116535874D01*
X127698569Y-116916280D01*
X127816001Y-117033712D01*
X127816000Y-118555198D01*
X125207398Y-121163801D01*
X125207398Y-119611207D01*
X126107472Y-118711134D01*
X126170928Y-118668734D01*
X126338903Y-118417342D01*
X126382999Y-118195657D01*
X126382999Y-118195652D01*
X126397887Y-118120805D01*
X126382999Y-118045958D01*
X126382999Y-115475543D01*
X126651744Y-115529000D01*
X126944256Y-115529000D01*
X127377418Y-115442839D01*
X127563024Y-115318821D01*
X127843246Y-115599043D01*
G36*
X124863000Y-117806002D02*
X124510000Y-118159002D01*
X124510000Y-115507966D01*
X124837418Y-115442839D01*
X124863000Y-115425746D01*
X124863000Y-117806002D01*
X124863000Y-117806002D01*
G37*
X124863000Y-117806002D02*
X124510000Y-118159002D01*
X124510000Y-115507966D01*
X124837418Y-115442839D01*
X124863000Y-115425746D01*
X124863000Y-117806002D01*
G36*
X124863000Y-110165288D02*
X124614890Y-110062524D01*
X124385000Y-110183845D01*
X124385000Y-111377000D01*
X124405000Y-111377000D01*
X124405000Y-111631000D01*
X124385000Y-111631000D01*
X124385000Y-111651000D01*
X124131000Y-111651000D01*
X124131000Y-111631000D01*
X124111000Y-111631000D01*
X124111000Y-111377000D01*
X124131000Y-111377000D01*
X124131000Y-110183845D01*
X123901110Y-110062524D01*
X123842999Y-110086593D01*
X123842999Y-100801802D01*
X124862999Y-99781803D01*
X124863000Y-110165288D01*
X124863000Y-110165288D01*
G37*
X124863000Y-110165288D02*
X124614890Y-110062524D01*
X124385000Y-110183845D01*
X124385000Y-111377000D01*
X124405000Y-111377000D01*
X124405000Y-111631000D01*
X124385000Y-111631000D01*
X124385000Y-111651000D01*
X124131000Y-111651000D01*
X124131000Y-111631000D01*
X124111000Y-111631000D01*
X124111000Y-111377000D01*
X124131000Y-111377000D01*
X124131000Y-110183845D01*
X123901110Y-110062524D01*
X123842999Y-110086593D01*
X123842999Y-100801802D01*
X124862999Y-99781803D01*
X124863000Y-110165288D01*
G36*
X126525000Y-99614126D02*
X126525000Y-100025874D01*
X126682569Y-100406280D01*
X126973720Y-100697431D01*
X127213001Y-100796544D01*
X127213002Y-110086593D01*
X127154890Y-110062524D01*
X126925000Y-110183845D01*
X126925000Y-111377000D01*
X126945000Y-111377000D01*
X126945000Y-111631000D01*
X126925000Y-111631000D01*
X126925000Y-111651000D01*
X126671000Y-111651000D01*
X126671000Y-111631000D01*
X126651000Y-111631000D01*
X126651000Y-111377000D01*
X126671000Y-111377000D01*
X126671000Y-110183845D01*
X126441110Y-110062524D01*
X126382999Y-110086593D01*
X126382999Y-99585000D01*
X126495874Y-99585000D01*
X126545595Y-99564405D01*
X126525000Y-99614126D01*
X126525000Y-99614126D01*
G37*
X126525000Y-99614126D02*
X126525000Y-100025874D01*
X126682569Y-100406280D01*
X126973720Y-100697431D01*
X127213001Y-100796544D01*
X127213002Y-110086593D01*
X127154890Y-110062524D01*
X126925000Y-110183845D01*
X126925000Y-111377000D01*
X126945000Y-111377000D01*
X126945000Y-111631000D01*
X126925000Y-111631000D01*
X126925000Y-111651000D01*
X126671000Y-111651000D01*
X126671000Y-111631000D01*
X126651000Y-111631000D01*
X126651000Y-111377000D01*
X126671000Y-111377000D01*
X126671000Y-110183845D01*
X126441110Y-110062524D01*
X126382999Y-110086593D01*
X126382999Y-99585000D01*
X126495874Y-99585000D01*
X126545595Y-99564405D01*
X126525000Y-99614126D01*
G36*
X122197070Y-59622928D02*
X122260529Y-59665330D01*
X129790012Y-67194814D01*
X129790012Y-67963099D01*
X129707431Y-67763730D01*
X129416280Y-67472579D01*
X129035874Y-67315010D01*
X128624126Y-67315010D01*
X128372817Y-67419106D01*
X128146280Y-67192569D01*
X127765874Y-67035000D01*
X127354126Y-67035000D01*
X126973720Y-67192569D01*
X126682569Y-67483720D01*
X126525000Y-67864126D01*
X126525000Y-68275874D01*
X126682569Y-68656280D01*
X126973720Y-68947431D01*
X127354126Y-69105000D01*
X127765874Y-69105000D01*
X128017183Y-69000904D01*
X128243720Y-69227441D01*
X128624126Y-69385010D01*
X129035874Y-69385010D01*
X129416280Y-69227441D01*
X129707431Y-68936290D01*
X129790012Y-68736922D01*
X129790011Y-99532518D01*
X129766420Y-99497211D01*
X129690328Y-99383331D01*
X129690326Y-99383329D01*
X129647928Y-99319876D01*
X129584475Y-99277478D01*
X128775011Y-98468015D01*
X128775011Y-98301943D01*
X128617442Y-97921537D01*
X128326291Y-97630386D01*
X127945885Y-97472817D01*
X127534137Y-97472817D01*
X127153731Y-97630386D01*
X126993914Y-97790203D01*
X126876280Y-97672569D01*
X126495874Y-97515000D01*
X126084126Y-97515000D01*
X125703720Y-97672569D01*
X125655000Y-97721289D01*
X125606280Y-97672569D01*
X125225874Y-97515000D01*
X124814126Y-97515000D01*
X124433720Y-97672569D01*
X124385000Y-97721289D01*
X124336280Y-97672569D01*
X123955874Y-97515000D01*
X123544126Y-97515000D01*
X123163720Y-97672569D01*
X123046289Y-97790000D01*
X116125706Y-97790000D01*
X110229783Y-97789405D01*
X110112280Y-97671902D01*
X109731874Y-97514333D01*
X109320126Y-97514333D01*
X108939720Y-97671902D01*
X108648569Y-97963053D01*
X108491000Y-98343459D01*
X108491000Y-98755207D01*
X108648569Y-99135613D01*
X108939720Y-99426764D01*
X109320126Y-99584333D01*
X109731874Y-99584333D01*
X110112280Y-99426764D01*
X110229640Y-99309404D01*
X116055107Y-99309992D01*
X116055148Y-99310000D01*
X116135455Y-99310000D01*
X116204775Y-99310007D01*
X116204810Y-99310000D01*
X123046289Y-99310000D01*
X123115744Y-99379455D01*
X122598529Y-99896670D01*
X122535070Y-99939072D01*
X122367095Y-100190465D01*
X122322999Y-100412150D01*
X122322999Y-100412154D01*
X122308111Y-100487001D01*
X122322999Y-100561848D01*
X122323000Y-110122254D01*
X122297418Y-110105161D01*
X121864256Y-110019000D01*
X121571744Y-110019000D01*
X121138582Y-110105161D01*
X120647375Y-110433375D01*
X120434157Y-110752478D01*
X120373183Y-110622642D01*
X119944924Y-110232355D01*
X119534890Y-110062524D01*
X119305000Y-110183845D01*
X119305000Y-111377000D01*
X119325000Y-111377000D01*
X119325000Y-111631000D01*
X119305000Y-111631000D01*
X119305000Y-111651000D01*
X119051000Y-111651000D01*
X119051000Y-111631000D01*
X119031000Y-111631000D01*
X119031000Y-111377000D01*
X119051000Y-111377000D01*
X119051000Y-110183845D01*
X118821110Y-110062524D01*
X118411076Y-110232355D01*
X117982817Y-110622642D01*
X117950856Y-110690698D01*
X116781934Y-109521777D01*
X117007431Y-109296280D01*
X117165000Y-108915874D01*
X117165000Y-108504126D01*
X117007431Y-108123720D01*
X116716280Y-107832569D01*
X116335874Y-107675000D01*
X116205158Y-107675000D01*
X105309749Y-96779592D01*
X105265953Y-96714047D01*
X105006292Y-96540546D01*
X104777316Y-96495000D01*
X104777312Y-96495000D01*
X104700000Y-96479622D01*
X104622688Y-96495000D01*
X104593155Y-96495000D01*
X102053179Y-93955024D01*
X102253134Y-93860389D01*
X102629041Y-93445423D01*
X102789904Y-93057039D01*
X102667915Y-92835000D01*
X101525000Y-92835000D01*
X101525000Y-92855000D01*
X101271000Y-92855000D01*
X101271000Y-92835000D01*
X101251000Y-92835000D01*
X101251000Y-92581000D01*
X101271000Y-92581000D01*
X101271000Y-92561000D01*
X101525000Y-92561000D01*
X101525000Y-92581000D01*
X102667915Y-92581000D01*
X102789904Y-92358961D01*
X102629041Y-91970577D01*
X102253134Y-91555611D01*
X102048892Y-91458947D01*
X102432577Y-91202577D01*
X102749740Y-90727909D01*
X102756378Y-90694536D01*
X106313435Y-94251593D01*
X106357229Y-94317135D01*
X106422771Y-94360929D01*
X106422773Y-94360931D01*
X106616890Y-94490636D01*
X106845866Y-94536182D01*
X106845869Y-94536182D01*
X106923181Y-94551560D01*
X107000493Y-94536182D01*
X115522607Y-94536182D01*
X114808789Y-95250000D01*
X112515711Y-95250000D01*
X112398280Y-95132569D01*
X112017874Y-94975000D01*
X111606126Y-94975000D01*
X111225720Y-95132569D01*
X110934569Y-95423720D01*
X110777000Y-95804126D01*
X110777000Y-96215874D01*
X110934569Y-96596280D01*
X111225720Y-96887431D01*
X111606126Y-97045000D01*
X112017874Y-97045000D01*
X112398280Y-96887431D01*
X112515711Y-96770000D01*
X115048743Y-96770000D01*
X115123590Y-96784888D01*
X115198437Y-96770000D01*
X115198442Y-96770000D01*
X115420127Y-96725904D01*
X115671519Y-96557929D01*
X115713921Y-96494470D01*
X117609461Y-94598931D01*
X117672917Y-94556531D01*
X117840892Y-94305139D01*
X117884988Y-94083454D01*
X117884988Y-94083450D01*
X117899876Y-94008603D01*
X117884988Y-93933756D01*
X117884988Y-92112340D01*
X118427265Y-92112340D01*
X118745501Y-92566203D01*
X120006434Y-93092936D01*
X121372956Y-93097035D01*
X122637027Y-92577878D01*
X122654499Y-92566203D01*
X122972735Y-92112340D01*
X120700000Y-89839605D01*
X118427265Y-92112340D01*
X117884988Y-92112340D01*
X117884988Y-91678440D01*
X118247660Y-91932735D01*
X120520395Y-89660000D01*
X120879605Y-89660000D01*
X123152340Y-91932735D01*
X123606203Y-91614499D01*
X124132936Y-90353566D01*
X124137035Y-88987044D01*
X123617878Y-87722973D01*
X123606203Y-87705501D01*
X123152340Y-87387265D01*
X120879605Y-89660000D01*
X120520395Y-89660000D01*
X118247660Y-87387265D01*
X117884988Y-87641560D01*
X117884988Y-87207660D01*
X118427265Y-87207660D01*
X120700000Y-89480395D01*
X122972735Y-87207660D01*
X122654499Y-86753797D01*
X121393566Y-86227064D01*
X120027044Y-86222965D01*
X118762973Y-86742122D01*
X118745501Y-86753797D01*
X118427265Y-87207660D01*
X117884988Y-87207660D01*
X117884988Y-86323403D01*
X118569472Y-85638920D01*
X118632928Y-85596520D01*
X118800903Y-85345128D01*
X118844999Y-85123443D01*
X118844999Y-85123439D01*
X118859887Y-85048591D01*
X118844999Y-84973743D01*
X118844999Y-70646202D01*
X119645202Y-69846000D01*
X120576353Y-69846000D01*
X120651200Y-69860888D01*
X120726047Y-69846000D01*
X120726052Y-69846000D01*
X120947737Y-69801904D01*
X121199129Y-69633929D01*
X121241531Y-69570470D01*
X121603859Y-69208143D01*
X121710408Y-69136949D01*
X121880408Y-68966949D01*
X121945953Y-68923153D01*
X122119454Y-68663492D01*
X122165000Y-68434516D01*
X122165000Y-68434512D01*
X122180378Y-68357201D01*
X122165000Y-68279890D01*
X122165000Y-59574932D01*
X122197070Y-59622928D01*
X122197070Y-59622928D01*
G37*
X122197070Y-59622928D02*
X122260529Y-59665330D01*
X129790012Y-67194814D01*
X129790012Y-67963099D01*
X129707431Y-67763730D01*
X129416280Y-67472579D01*
X129035874Y-67315010D01*
X128624126Y-67315010D01*
X128372817Y-67419106D01*
X128146280Y-67192569D01*
X127765874Y-67035000D01*
X127354126Y-67035000D01*
X126973720Y-67192569D01*
X126682569Y-67483720D01*
X126525000Y-67864126D01*
X126525000Y-68275874D01*
X126682569Y-68656280D01*
X126973720Y-68947431D01*
X127354126Y-69105000D01*
X127765874Y-69105000D01*
X128017183Y-69000904D01*
X128243720Y-69227441D01*
X128624126Y-69385010D01*
X129035874Y-69385010D01*
X129416280Y-69227441D01*
X129707431Y-68936290D01*
X129790012Y-68736922D01*
X129790011Y-99532518D01*
X129766420Y-99497211D01*
X129690328Y-99383331D01*
X129690326Y-99383329D01*
X129647928Y-99319876D01*
X129584475Y-99277478D01*
X128775011Y-98468015D01*
X128775011Y-98301943D01*
X128617442Y-97921537D01*
X128326291Y-97630386D01*
X127945885Y-97472817D01*
X127534137Y-97472817D01*
X127153731Y-97630386D01*
X126993914Y-97790203D01*
X126876280Y-97672569D01*
X126495874Y-97515000D01*
X126084126Y-97515000D01*
X125703720Y-97672569D01*
X125655000Y-97721289D01*
X125606280Y-97672569D01*
X125225874Y-97515000D01*
X124814126Y-97515000D01*
X124433720Y-97672569D01*
X124385000Y-97721289D01*
X124336280Y-97672569D01*
X123955874Y-97515000D01*
X123544126Y-97515000D01*
X123163720Y-97672569D01*
X123046289Y-97790000D01*
X116125706Y-97790000D01*
X110229783Y-97789405D01*
X110112280Y-97671902D01*
X109731874Y-97514333D01*
X109320126Y-97514333D01*
X108939720Y-97671902D01*
X108648569Y-97963053D01*
X108491000Y-98343459D01*
X108491000Y-98755207D01*
X108648569Y-99135613D01*
X108939720Y-99426764D01*
X109320126Y-99584333D01*
X109731874Y-99584333D01*
X110112280Y-99426764D01*
X110229640Y-99309404D01*
X116055107Y-99309992D01*
X116055148Y-99310000D01*
X116135455Y-99310000D01*
X116204775Y-99310007D01*
X116204810Y-99310000D01*
X123046289Y-99310000D01*
X123115744Y-99379455D01*
X122598529Y-99896670D01*
X122535070Y-99939072D01*
X122367095Y-100190465D01*
X122322999Y-100412150D01*
X122322999Y-100412154D01*
X122308111Y-100487001D01*
X122322999Y-100561848D01*
X122323000Y-110122254D01*
X122297418Y-110105161D01*
X121864256Y-110019000D01*
X121571744Y-110019000D01*
X121138582Y-110105161D01*
X120647375Y-110433375D01*
X120434157Y-110752478D01*
X120373183Y-110622642D01*
X119944924Y-110232355D01*
X119534890Y-110062524D01*
X119305000Y-110183845D01*
X119305000Y-111377000D01*
X119325000Y-111377000D01*
X119325000Y-111631000D01*
X119305000Y-111631000D01*
X119305000Y-111651000D01*
X119051000Y-111651000D01*
X119051000Y-111631000D01*
X119031000Y-111631000D01*
X119031000Y-111377000D01*
X119051000Y-111377000D01*
X119051000Y-110183845D01*
X118821110Y-110062524D01*
X118411076Y-110232355D01*
X117982817Y-110622642D01*
X117950856Y-110690698D01*
X116781934Y-109521777D01*
X117007431Y-109296280D01*
X117165000Y-108915874D01*
X117165000Y-108504126D01*
X117007431Y-108123720D01*
X116716280Y-107832569D01*
X116335874Y-107675000D01*
X116205158Y-107675000D01*
X105309749Y-96779592D01*
X105265953Y-96714047D01*
X105006292Y-96540546D01*
X104777316Y-96495000D01*
X104777312Y-96495000D01*
X104700000Y-96479622D01*
X104622688Y-96495000D01*
X104593155Y-96495000D01*
X102053179Y-93955024D01*
X102253134Y-93860389D01*
X102629041Y-93445423D01*
X102789904Y-93057039D01*
X102667915Y-92835000D01*
X101525000Y-92835000D01*
X101525000Y-92855000D01*
X101271000Y-92855000D01*
X101271000Y-92835000D01*
X101251000Y-92835000D01*
X101251000Y-92581000D01*
X101271000Y-92581000D01*
X101271000Y-92561000D01*
X101525000Y-92561000D01*
X101525000Y-92581000D01*
X102667915Y-92581000D01*
X102789904Y-92358961D01*
X102629041Y-91970577D01*
X102253134Y-91555611D01*
X102048892Y-91458947D01*
X102432577Y-91202577D01*
X102749740Y-90727909D01*
X102756378Y-90694536D01*
X106313435Y-94251593D01*
X106357229Y-94317135D01*
X106422771Y-94360929D01*
X106422773Y-94360931D01*
X106616890Y-94490636D01*
X106845866Y-94536182D01*
X106845869Y-94536182D01*
X106923181Y-94551560D01*
X107000493Y-94536182D01*
X115522607Y-94536182D01*
X114808789Y-95250000D01*
X112515711Y-95250000D01*
X112398280Y-95132569D01*
X112017874Y-94975000D01*
X111606126Y-94975000D01*
X111225720Y-95132569D01*
X110934569Y-95423720D01*
X110777000Y-95804126D01*
X110777000Y-96215874D01*
X110934569Y-96596280D01*
X111225720Y-96887431D01*
X111606126Y-97045000D01*
X112017874Y-97045000D01*
X112398280Y-96887431D01*
X112515711Y-96770000D01*
X115048743Y-96770000D01*
X115123590Y-96784888D01*
X115198437Y-96770000D01*
X115198442Y-96770000D01*
X115420127Y-96725904D01*
X115671519Y-96557929D01*
X115713921Y-96494470D01*
X117609461Y-94598931D01*
X117672917Y-94556531D01*
X117840892Y-94305139D01*
X117884988Y-94083454D01*
X117884988Y-94083450D01*
X117899876Y-94008603D01*
X117884988Y-93933756D01*
X117884988Y-92112340D01*
X118427265Y-92112340D01*
X118745501Y-92566203D01*
X120006434Y-93092936D01*
X121372956Y-93097035D01*
X122637027Y-92577878D01*
X122654499Y-92566203D01*
X122972735Y-92112340D01*
X120700000Y-89839605D01*
X118427265Y-92112340D01*
X117884988Y-92112340D01*
X117884988Y-91678440D01*
X118247660Y-91932735D01*
X120520395Y-89660000D01*
X120879605Y-89660000D01*
X123152340Y-91932735D01*
X123606203Y-91614499D01*
X124132936Y-90353566D01*
X124137035Y-88987044D01*
X123617878Y-87722973D01*
X123606203Y-87705501D01*
X123152340Y-87387265D01*
X120879605Y-89660000D01*
X120520395Y-89660000D01*
X118247660Y-87387265D01*
X117884988Y-87641560D01*
X117884988Y-87207660D01*
X118427265Y-87207660D01*
X120700000Y-89480395D01*
X122972735Y-87207660D01*
X122654499Y-86753797D01*
X121393566Y-86227064D01*
X120027044Y-86222965D01*
X118762973Y-86742122D01*
X118745501Y-86753797D01*
X118427265Y-87207660D01*
X117884988Y-87207660D01*
X117884988Y-86323403D01*
X118569472Y-85638920D01*
X118632928Y-85596520D01*
X118800903Y-85345128D01*
X118844999Y-85123443D01*
X118844999Y-85123439D01*
X118859887Y-85048591D01*
X118844999Y-84973743D01*
X118844999Y-70646202D01*
X119645202Y-69846000D01*
X120576353Y-69846000D01*
X120651200Y-69860888D01*
X120726047Y-69846000D01*
X120726052Y-69846000D01*
X120947737Y-69801904D01*
X121199129Y-69633929D01*
X121241531Y-69570470D01*
X121603859Y-69208143D01*
X121710408Y-69136949D01*
X121880408Y-68966949D01*
X121945953Y-68923153D01*
X122119454Y-68663492D01*
X122165000Y-68434516D01*
X122165000Y-68434512D01*
X122180378Y-68357201D01*
X122165000Y-68279890D01*
X122165000Y-59574932D01*
X122197070Y-59622928D01*
G36*
X86197136Y-102123022D02*
X86197136Y-102253739D01*
X86354705Y-102634145D01*
X86645856Y-102925296D01*
X87026262Y-103082865D01*
X87438010Y-103082865D01*
X87818416Y-102925296D01*
X87893602Y-102850110D01*
X87893602Y-107779195D01*
X86351199Y-109321600D01*
X85674046Y-109321600D01*
X85599199Y-109306712D01*
X85524352Y-109321600D01*
X85524348Y-109321600D01*
X85302663Y-109365696D01*
X85051271Y-109533671D01*
X85008871Y-109597127D01*
X83997130Y-110608869D01*
X83933671Y-110651271D01*
X83794443Y-110859641D01*
X81330000Y-108395199D01*
X81330000Y-103063711D01*
X81447431Y-102946280D01*
X81605000Y-102565874D01*
X81605000Y-102154126D01*
X81489382Y-101875000D01*
X85949114Y-101875000D01*
X86197136Y-102123022D01*
X86197136Y-102123022D01*
G37*
X86197136Y-102123022D02*
X86197136Y-102253739D01*
X86354705Y-102634145D01*
X86645856Y-102925296D01*
X87026262Y-103082865D01*
X87438010Y-103082865D01*
X87818416Y-102925296D01*
X87893602Y-102850110D01*
X87893602Y-107779195D01*
X86351199Y-109321600D01*
X85674046Y-109321600D01*
X85599199Y-109306712D01*
X85524352Y-109321600D01*
X85524348Y-109321600D01*
X85302663Y-109365696D01*
X85051271Y-109533671D01*
X85008871Y-109597127D01*
X83997130Y-110608869D01*
X83933671Y-110651271D01*
X83794443Y-110859641D01*
X81330000Y-108395199D01*
X81330000Y-103063711D01*
X81447431Y-102946280D01*
X81605000Y-102565874D01*
X81605000Y-102154126D01*
X81489382Y-101875000D01*
X85949114Y-101875000D01*
X86197136Y-102123022D01*
G36*
X89414035Y-103757626D02*
X89479580Y-103801422D01*
X94329135Y-108650977D01*
X94323794Y-108650977D01*
X93943388Y-108808546D01*
X93652237Y-109099697D01*
X93494668Y-109480103D01*
X93494668Y-109650987D01*
X88171415Y-109650987D01*
X89138077Y-108684326D01*
X89201530Y-108641928D01*
X89243928Y-108578475D01*
X89243930Y-108578473D01*
X89346363Y-108425170D01*
X89369505Y-108390536D01*
X89413601Y-108168851D01*
X89413601Y-108168847D01*
X89428489Y-108094000D01*
X89413601Y-108019153D01*
X89413601Y-103756976D01*
X89414035Y-103757626D01*
X89414035Y-103757626D01*
G37*
X89414035Y-103757626D02*
X89479580Y-103801422D01*
X94329135Y-108650977D01*
X94323794Y-108650977D01*
X93943388Y-108808546D01*
X93652237Y-109099697D01*
X93494668Y-109480103D01*
X93494668Y-109650987D01*
X88171415Y-109650987D01*
X89138077Y-108684326D01*
X89201530Y-108641928D01*
X89243928Y-108578475D01*
X89243930Y-108578473D01*
X89346363Y-108425170D01*
X89369505Y-108390536D01*
X89413601Y-108168851D01*
X89413601Y-108168847D01*
X89428489Y-108094000D01*
X89413601Y-108019153D01*
X89413601Y-103756976D01*
X89414035Y-103757626D01*
G36*
X99514439Y-107675000D02*
X99414126Y-107675000D01*
X99033720Y-107832569D01*
X98742569Y-108123720D01*
X98616165Y-108428887D01*
X93031011Y-102843734D01*
X93031011Y-102111283D01*
X93064126Y-102125000D01*
X93475874Y-102125000D01*
X93821342Y-101981903D01*
X99514439Y-107675000D01*
X99514439Y-107675000D01*
G37*
X99514439Y-107675000D02*
X99414126Y-107675000D01*
X99033720Y-107832569D01*
X98742569Y-108123720D01*
X98616165Y-108428887D01*
X93031011Y-102843734D01*
X93031011Y-102111283D01*
X93064126Y-102125000D01*
X93475874Y-102125000D01*
X93821342Y-101981903D01*
X99514439Y-107675000D01*
G36*
X132083720Y-70277431D02*
X132464126Y-70435000D01*
X132699990Y-70435000D01*
X132699989Y-106543778D01*
X132117721Y-105961510D01*
X131957907Y-70151618D01*
X132083720Y-70277431D01*
X132083720Y-70277431D01*
G37*
X132083720Y-70277431D02*
X132464126Y-70435000D01*
X132699990Y-70435000D01*
X132699989Y-106543778D01*
X132117721Y-105961510D01*
X131957907Y-70151618D01*
X132083720Y-70277431D01*
G36*
X110021522Y-105618088D02*
X109847011Y-105792599D01*
X109689442Y-106173005D01*
X109689442Y-106316262D01*
X109652272Y-106371892D01*
X109641431Y-106345720D01*
X109350280Y-106054569D01*
X108969874Y-105897000D01*
X108558126Y-105897000D01*
X108177720Y-106054569D01*
X108073988Y-106158301D01*
X108073988Y-104536953D01*
X108089366Y-104459641D01*
X108073988Y-104382329D01*
X108073988Y-104382325D01*
X108028442Y-104153349D01*
X107854941Y-103893688D01*
X107789396Y-103849892D01*
X93874968Y-89935464D01*
X93874968Y-89471533D01*
X110021522Y-105618088D01*
X110021522Y-105618088D01*
G37*
X110021522Y-105618088D02*
X109847011Y-105792599D01*
X109689442Y-106173005D01*
X109689442Y-106316262D01*
X109652272Y-106371892D01*
X109641431Y-106345720D01*
X109350280Y-106054569D01*
X108969874Y-105897000D01*
X108558126Y-105897000D01*
X108177720Y-106054569D01*
X108073988Y-106158301D01*
X108073988Y-104536953D01*
X108089366Y-104459641D01*
X108073988Y-104382329D01*
X108073988Y-104382325D01*
X108028442Y-104153349D01*
X107854941Y-103893688D01*
X107789396Y-103849892D01*
X93874968Y-89935464D01*
X93874968Y-89471533D01*
X110021522Y-105618088D01*
G36*
X89623669Y-64263826D02*
X89623670Y-69438974D01*
X89608291Y-69516291D01*
X89669215Y-69822582D01*
X89798920Y-70016699D01*
X89798923Y-70016702D01*
X89842717Y-70082244D01*
X89908260Y-70126039D01*
X89945000Y-70162779D01*
X89945000Y-77957000D01*
X89774114Y-77957000D01*
X89393708Y-78114569D01*
X89102557Y-78405720D01*
X88944988Y-78786126D01*
X88944988Y-79197874D01*
X89102557Y-79578280D01*
X89194989Y-79670712D01*
X89194989Y-84357800D01*
X88847726Y-84357800D01*
X88467320Y-84515369D01*
X88176169Y-84806520D01*
X88018600Y-85186926D01*
X88018600Y-85375183D01*
X87937697Y-85496263D01*
X87893601Y-85717948D01*
X87893601Y-85717952D01*
X87878713Y-85792799D01*
X87893601Y-85867646D01*
X87893602Y-97683574D01*
X87722717Y-97683574D01*
X87342311Y-97841143D01*
X87051160Y-98132294D01*
X86893591Y-98512700D01*
X86893591Y-98678772D01*
X86512364Y-99060000D01*
X83928802Y-99060000D01*
X84419802Y-98569000D01*
X84585874Y-98569000D01*
X84966280Y-98411431D01*
X85257431Y-98120280D01*
X85415000Y-97739874D01*
X85415000Y-97328126D01*
X85257431Y-96947720D01*
X84966280Y-96656569D01*
X84585874Y-96499000D01*
X84174126Y-96499000D01*
X83891000Y-96616274D01*
X83891000Y-96312126D01*
X83733431Y-95931720D01*
X83442280Y-95640569D01*
X83061874Y-95483000D01*
X82650126Y-95483000D01*
X82269720Y-95640569D01*
X82152289Y-95758000D01*
X79120235Y-95758000D01*
X78858368Y-95496133D01*
X78858368Y-95330061D01*
X78700799Y-94949655D01*
X78409648Y-94658504D01*
X78029242Y-94500935D01*
X77617494Y-94500935D01*
X77237088Y-94658504D01*
X76945937Y-94949655D01*
X76896599Y-95068768D01*
X76896599Y-94451156D01*
X78362756Y-92985000D01*
X82431289Y-92985000D01*
X82523720Y-93077431D01*
X82904126Y-93235000D01*
X83315874Y-93235000D01*
X83696280Y-93077431D01*
X83987431Y-92786280D01*
X84145000Y-92405874D01*
X84145000Y-92275157D01*
X84360409Y-92059748D01*
X84425954Y-92015952D01*
X84599455Y-91756291D01*
X84645001Y-91527315D01*
X84645001Y-91527311D01*
X84660379Y-91449999D01*
X84645001Y-91372687D01*
X84645001Y-74137309D01*
X84660379Y-74059998D01*
X84645001Y-73982687D01*
X84645001Y-73982683D01*
X84599455Y-73753707D01*
X84425954Y-73494046D01*
X84360409Y-73450250D01*
X84079750Y-73169591D01*
X84035954Y-73104046D01*
X83895000Y-73009863D01*
X83895000Y-70681157D01*
X84700407Y-69875750D01*
X84806260Y-70407909D01*
X85123423Y-70882577D01*
X85475758Y-71118000D01*
X85123423Y-71353423D01*
X84806260Y-71828091D01*
X84694887Y-72388000D01*
X84806260Y-72947909D01*
X85123423Y-73422577D01*
X85475758Y-73658000D01*
X85123423Y-73893423D01*
X84806260Y-74368091D01*
X84694887Y-74928000D01*
X84806260Y-75487909D01*
X85123423Y-75962577D01*
X85475758Y-76198000D01*
X85123423Y-76433423D01*
X84806260Y-76908091D01*
X84694887Y-77468000D01*
X84806260Y-78027909D01*
X85123423Y-78502577D01*
X85475758Y-78738000D01*
X85123423Y-78973423D01*
X84806260Y-79448091D01*
X84694887Y-80008000D01*
X84806260Y-80567909D01*
X85123423Y-81042577D01*
X85475758Y-81278000D01*
X85123423Y-81513423D01*
X84806260Y-81988091D01*
X84694887Y-82548000D01*
X84806260Y-83107909D01*
X85123423Y-83582577D01*
X85475758Y-83818000D01*
X85123423Y-84053423D01*
X84806260Y-84528091D01*
X84694887Y-85088000D01*
X84806260Y-85647909D01*
X85123423Y-86122577D01*
X85475758Y-86358000D01*
X85123423Y-86593423D01*
X84806260Y-87068091D01*
X84694887Y-87628000D01*
X84806260Y-88187909D01*
X85123423Y-88662577D01*
X85475758Y-88898000D01*
X85123423Y-89133423D01*
X84806260Y-89608091D01*
X84694887Y-90168000D01*
X84806260Y-90727909D01*
X85123423Y-91202577D01*
X85475758Y-91438000D01*
X85123423Y-91673423D01*
X84806260Y-92148091D01*
X84694887Y-92708000D01*
X84806260Y-93267909D01*
X85123423Y-93742577D01*
X85598091Y-94059740D01*
X86016667Y-94143000D01*
X86299333Y-94143000D01*
X86717909Y-94059740D01*
X87192577Y-93742577D01*
X87509740Y-93267909D01*
X87621113Y-92708000D01*
X87509740Y-92148091D01*
X87192577Y-91673423D01*
X86840242Y-91438000D01*
X87192577Y-91202577D01*
X87509740Y-90727909D01*
X87621113Y-90168000D01*
X87509740Y-89608091D01*
X87192577Y-89133423D01*
X86840242Y-88898000D01*
X87192577Y-88662577D01*
X87509740Y-88187909D01*
X87621113Y-87628000D01*
X87509740Y-87068091D01*
X87192577Y-86593423D01*
X86840242Y-86358000D01*
X87192577Y-86122577D01*
X87509740Y-85647909D01*
X87621113Y-85088000D01*
X87509740Y-84528091D01*
X87192577Y-84053423D01*
X86840242Y-83818000D01*
X87192577Y-83582577D01*
X87509740Y-83107909D01*
X87621113Y-82548000D01*
X87509740Y-81988091D01*
X87192577Y-81513423D01*
X86840242Y-81278000D01*
X87192577Y-81042577D01*
X87509740Y-80567909D01*
X87621113Y-80008000D01*
X87509740Y-79448091D01*
X87192577Y-78973423D01*
X86840242Y-78738000D01*
X87192577Y-78502577D01*
X87509740Y-78027909D01*
X87621113Y-77468000D01*
X87509740Y-76908091D01*
X87192577Y-76433423D01*
X86840242Y-76198000D01*
X87192577Y-75962577D01*
X87509740Y-75487909D01*
X87621113Y-74928000D01*
X87509740Y-74368091D01*
X87192577Y-73893423D01*
X86840242Y-73658000D01*
X87192577Y-73422577D01*
X87509740Y-72947909D01*
X87621113Y-72388000D01*
X87509740Y-71828091D01*
X87192577Y-71353423D01*
X86840242Y-71118000D01*
X87192577Y-70882577D01*
X87509740Y-70407909D01*
X87621113Y-69848000D01*
X87509740Y-69288091D01*
X87192577Y-68813423D01*
X86840242Y-68578000D01*
X87192577Y-68342577D01*
X87509740Y-67867909D01*
X87621113Y-67308000D01*
X87509740Y-66748091D01*
X87192577Y-66273423D01*
X86840242Y-66038000D01*
X87192577Y-65802577D01*
X87509740Y-65327909D01*
X87621113Y-64768000D01*
X87509740Y-64208091D01*
X87192577Y-63733423D01*
X86840242Y-63498000D01*
X87192577Y-63262577D01*
X87509740Y-62787909D01*
X87615593Y-62255750D01*
X89623669Y-64263826D01*
X89623669Y-64263826D01*
G37*
X89623669Y-64263826D02*
X89623670Y-69438974D01*
X89608291Y-69516291D01*
X89669215Y-69822582D01*
X89798920Y-70016699D01*
X89798923Y-70016702D01*
X89842717Y-70082244D01*
X89908260Y-70126039D01*
X89945000Y-70162779D01*
X89945000Y-77957000D01*
X89774114Y-77957000D01*
X89393708Y-78114569D01*
X89102557Y-78405720D01*
X88944988Y-78786126D01*
X88944988Y-79197874D01*
X89102557Y-79578280D01*
X89194989Y-79670712D01*
X89194989Y-84357800D01*
X88847726Y-84357800D01*
X88467320Y-84515369D01*
X88176169Y-84806520D01*
X88018600Y-85186926D01*
X88018600Y-85375183D01*
X87937697Y-85496263D01*
X87893601Y-85717948D01*
X87893601Y-85717952D01*
X87878713Y-85792799D01*
X87893601Y-85867646D01*
X87893602Y-97683574D01*
X87722717Y-97683574D01*
X87342311Y-97841143D01*
X87051160Y-98132294D01*
X86893591Y-98512700D01*
X86893591Y-98678772D01*
X86512364Y-99060000D01*
X83928802Y-99060000D01*
X84419802Y-98569000D01*
X84585874Y-98569000D01*
X84966280Y-98411431D01*
X85257431Y-98120280D01*
X85415000Y-97739874D01*
X85415000Y-97328126D01*
X85257431Y-96947720D01*
X84966280Y-96656569D01*
X84585874Y-96499000D01*
X84174126Y-96499000D01*
X83891000Y-96616274D01*
X83891000Y-96312126D01*
X83733431Y-95931720D01*
X83442280Y-95640569D01*
X83061874Y-95483000D01*
X82650126Y-95483000D01*
X82269720Y-95640569D01*
X82152289Y-95758000D01*
X79120235Y-95758000D01*
X78858368Y-95496133D01*
X78858368Y-95330061D01*
X78700799Y-94949655D01*
X78409648Y-94658504D01*
X78029242Y-94500935D01*
X77617494Y-94500935D01*
X77237088Y-94658504D01*
X76945937Y-94949655D01*
X76896599Y-95068768D01*
X76896599Y-94451156D01*
X78362756Y-92985000D01*
X82431289Y-92985000D01*
X82523720Y-93077431D01*
X82904126Y-93235000D01*
X83315874Y-93235000D01*
X83696280Y-93077431D01*
X83987431Y-92786280D01*
X84145000Y-92405874D01*
X84145000Y-92275157D01*
X84360409Y-92059748D01*
X84425954Y-92015952D01*
X84599455Y-91756291D01*
X84645001Y-91527315D01*
X84645001Y-91527311D01*
X84660379Y-91449999D01*
X84645001Y-91372687D01*
X84645001Y-74137309D01*
X84660379Y-74059998D01*
X84645001Y-73982687D01*
X84645001Y-73982683D01*
X84599455Y-73753707D01*
X84425954Y-73494046D01*
X84360409Y-73450250D01*
X84079750Y-73169591D01*
X84035954Y-73104046D01*
X83895000Y-73009863D01*
X83895000Y-70681157D01*
X84700407Y-69875750D01*
X84806260Y-70407909D01*
X85123423Y-70882577D01*
X85475758Y-71118000D01*
X85123423Y-71353423D01*
X84806260Y-71828091D01*
X84694887Y-72388000D01*
X84806260Y-72947909D01*
X85123423Y-73422577D01*
X85475758Y-73658000D01*
X85123423Y-73893423D01*
X84806260Y-74368091D01*
X84694887Y-74928000D01*
X84806260Y-75487909D01*
X85123423Y-75962577D01*
X85475758Y-76198000D01*
X85123423Y-76433423D01*
X84806260Y-76908091D01*
X84694887Y-77468000D01*
X84806260Y-78027909D01*
X85123423Y-78502577D01*
X85475758Y-78738000D01*
X85123423Y-78973423D01*
X84806260Y-79448091D01*
X84694887Y-80008000D01*
X84806260Y-80567909D01*
X85123423Y-81042577D01*
X85475758Y-81278000D01*
X85123423Y-81513423D01*
X84806260Y-81988091D01*
X84694887Y-82548000D01*
X84806260Y-83107909D01*
X85123423Y-83582577D01*
X85475758Y-83818000D01*
X85123423Y-84053423D01*
X84806260Y-84528091D01*
X84694887Y-85088000D01*
X84806260Y-85647909D01*
X85123423Y-86122577D01*
X85475758Y-86358000D01*
X85123423Y-86593423D01*
X84806260Y-87068091D01*
X84694887Y-87628000D01*
X84806260Y-88187909D01*
X85123423Y-88662577D01*
X85475758Y-88898000D01*
X85123423Y-89133423D01*
X84806260Y-89608091D01*
X84694887Y-90168000D01*
X84806260Y-90727909D01*
X85123423Y-91202577D01*
X85475758Y-91438000D01*
X85123423Y-91673423D01*
X84806260Y-92148091D01*
X84694887Y-92708000D01*
X84806260Y-93267909D01*
X85123423Y-93742577D01*
X85598091Y-94059740D01*
X86016667Y-94143000D01*
X86299333Y-94143000D01*
X86717909Y-94059740D01*
X87192577Y-93742577D01*
X87509740Y-93267909D01*
X87621113Y-92708000D01*
X87509740Y-92148091D01*
X87192577Y-91673423D01*
X86840242Y-91438000D01*
X87192577Y-91202577D01*
X87509740Y-90727909D01*
X87621113Y-90168000D01*
X87509740Y-89608091D01*
X87192577Y-89133423D01*
X86840242Y-88898000D01*
X87192577Y-88662577D01*
X87509740Y-88187909D01*
X87621113Y-87628000D01*
X87509740Y-87068091D01*
X87192577Y-86593423D01*
X86840242Y-86358000D01*
X87192577Y-86122577D01*
X87509740Y-85647909D01*
X87621113Y-85088000D01*
X87509740Y-84528091D01*
X87192577Y-84053423D01*
X86840242Y-83818000D01*
X87192577Y-83582577D01*
X87509740Y-83107909D01*
X87621113Y-82548000D01*
X87509740Y-81988091D01*
X87192577Y-81513423D01*
X86840242Y-81278000D01*
X87192577Y-81042577D01*
X87509740Y-80567909D01*
X87621113Y-80008000D01*
X87509740Y-79448091D01*
X87192577Y-78973423D01*
X86840242Y-78738000D01*
X87192577Y-78502577D01*
X87509740Y-78027909D01*
X87621113Y-77468000D01*
X87509740Y-76908091D01*
X87192577Y-76433423D01*
X86840242Y-76198000D01*
X87192577Y-75962577D01*
X87509740Y-75487909D01*
X87621113Y-74928000D01*
X87509740Y-74368091D01*
X87192577Y-73893423D01*
X86840242Y-73658000D01*
X87192577Y-73422577D01*
X87509740Y-72947909D01*
X87621113Y-72388000D01*
X87509740Y-71828091D01*
X87192577Y-71353423D01*
X86840242Y-71118000D01*
X87192577Y-70882577D01*
X87509740Y-70407909D01*
X87621113Y-69848000D01*
X87509740Y-69288091D01*
X87192577Y-68813423D01*
X86840242Y-68578000D01*
X87192577Y-68342577D01*
X87509740Y-67867909D01*
X87621113Y-67308000D01*
X87509740Y-66748091D01*
X87192577Y-66273423D01*
X86840242Y-66038000D01*
X87192577Y-65802577D01*
X87509740Y-65327909D01*
X87621113Y-64768000D01*
X87509740Y-64208091D01*
X87192577Y-63733423D01*
X86840242Y-63498000D01*
X87192577Y-63262577D01*
X87509740Y-62787909D01*
X87615593Y-62255750D01*
X89623669Y-64263826D01*
G36*
X140765000Y-93333817D02*
X140476892Y-93198514D01*
X140247000Y-93319181D01*
X140247000Y-94513000D01*
X140267000Y-94513000D01*
X140267000Y-94767000D01*
X140247000Y-94767000D01*
X140247000Y-94787000D01*
X139993000Y-94787000D01*
X139993000Y-94767000D01*
X139973000Y-94767000D01*
X139973000Y-94513000D01*
X139993000Y-94513000D01*
X139993000Y-93319181D01*
X139763108Y-93198514D01*
X139361024Y-93387343D01*
X139361024Y-65757440D01*
X140765001Y-65757440D01*
X140765000Y-93333817D01*
X140765000Y-93333817D01*
G37*
X140765000Y-93333817D02*
X140476892Y-93198514D01*
X140247000Y-93319181D01*
X140247000Y-94513000D01*
X140267000Y-94513000D01*
X140267000Y-94767000D01*
X140247000Y-94767000D01*
X140247000Y-94787000D01*
X139993000Y-94787000D01*
X139993000Y-94767000D01*
X139973000Y-94767000D01*
X139973000Y-94513000D01*
X139993000Y-94513000D01*
X139993000Y-93319181D01*
X139763108Y-93198514D01*
X139361024Y-93387343D01*
X139361024Y-65757440D01*
X140765001Y-65757440D01*
X140765000Y-93333817D01*
G36*
X105933060Y-57311452D02*
X106313466Y-57469021D01*
X106725214Y-57469021D01*
X107105620Y-57311452D01*
X107223051Y-57194021D01*
X111775230Y-57194021D01*
X115866264Y-61285056D01*
X115908664Y-61348512D01*
X116160056Y-61516487D01*
X116370695Y-61558386D01*
X116365000Y-61572135D01*
X116365000Y-61983883D01*
X116522569Y-62364289D01*
X116640001Y-62481721D01*
X116640000Y-67366289D01*
X116522569Y-67483720D01*
X116365000Y-67864126D01*
X116365000Y-68275874D01*
X116522569Y-68656280D01*
X116813720Y-68947431D01*
X117194126Y-69105000D01*
X117605874Y-69105000D01*
X117986280Y-68947431D01*
X118035000Y-68898711D01*
X118083720Y-68947431D01*
X118303240Y-69038359D01*
X117600527Y-69741072D01*
X117537071Y-69783472D01*
X117494671Y-69846928D01*
X117494670Y-69846929D01*
X117369096Y-70034864D01*
X117310111Y-70331401D01*
X117325000Y-70406253D01*
X117324999Y-84733789D01*
X116640516Y-85418273D01*
X116577060Y-85460673D01*
X116534660Y-85524129D01*
X116534659Y-85524130D01*
X116409085Y-85712065D01*
X116350100Y-86008602D01*
X116364989Y-86083454D01*
X116364988Y-92716182D01*
X116151214Y-92716182D01*
X115770808Y-92873751D01*
X115678377Y-92966182D01*
X107761855Y-92966182D01*
X108029594Y-92698443D01*
X108187163Y-92318037D01*
X108187163Y-91906289D01*
X108029594Y-91525883D01*
X107937163Y-91433452D01*
X107937163Y-88211016D01*
X107952541Y-88133705D01*
X107937163Y-88056394D01*
X107937163Y-88056390D01*
X107891617Y-87827414D01*
X107795071Y-87682923D01*
X107761912Y-87633297D01*
X107761910Y-87633295D01*
X107718116Y-87567753D01*
X107652574Y-87523959D01*
X106608728Y-86480113D01*
X109857575Y-86480113D01*
X109934887Y-86495491D01*
X110012199Y-86480113D01*
X110012203Y-86480113D01*
X110241179Y-86434567D01*
X110500840Y-86261066D01*
X110544636Y-86195521D01*
X116205158Y-80535000D01*
X116335874Y-80535000D01*
X116716280Y-80377431D01*
X117007431Y-80086280D01*
X117165000Y-79705874D01*
X117165000Y-79294126D01*
X117007431Y-78913720D01*
X116716280Y-78622569D01*
X116335874Y-78465000D01*
X115924126Y-78465000D01*
X115543720Y-78622569D01*
X115252569Y-78913720D01*
X115095000Y-79294126D01*
X115095000Y-79424842D01*
X109609730Y-84910113D01*
X105392281Y-84910113D01*
X105299850Y-84817682D01*
X104919444Y-84660113D01*
X104507696Y-84660113D01*
X104127290Y-84817682D01*
X103836139Y-85108833D01*
X103678570Y-85489239D01*
X103678570Y-85524789D01*
X103478720Y-85607569D01*
X103390001Y-85696288D01*
X102867446Y-85693423D01*
X102865315Y-85692999D01*
X102790135Y-85692999D01*
X102719869Y-85692614D01*
X102749740Y-85647909D01*
X102861113Y-85088000D01*
X102749740Y-84528091D01*
X102432577Y-84053423D01*
X102080242Y-83818000D01*
X102432577Y-83582577D01*
X102749740Y-83107909D01*
X102861113Y-82548000D01*
X102749740Y-81988091D01*
X102432577Y-81513423D01*
X102080242Y-81278000D01*
X102432577Y-81042577D01*
X102749740Y-80567909D01*
X102861113Y-80008000D01*
X102749740Y-79448091D01*
X102432577Y-78973423D01*
X102080242Y-78738000D01*
X102432577Y-78502577D01*
X102749740Y-78027909D01*
X102861113Y-77468000D01*
X102749740Y-76908091D01*
X102432577Y-76433423D01*
X102048892Y-76177053D01*
X102253134Y-76080389D01*
X102629041Y-75665423D01*
X102789904Y-75277039D01*
X102667915Y-75055000D01*
X101525000Y-75055000D01*
X101525000Y-75075000D01*
X101271000Y-75075000D01*
X101271000Y-75055000D01*
X100128085Y-75055000D01*
X100006096Y-75277039D01*
X100166959Y-75665423D01*
X100542866Y-76080389D01*
X100747108Y-76177053D01*
X100363423Y-76433423D01*
X100046260Y-76908091D01*
X99934887Y-77468000D01*
X100046260Y-78027909D01*
X100363423Y-78502577D01*
X100715758Y-78738000D01*
X100363423Y-78973423D01*
X100046260Y-79448091D01*
X99934887Y-80008000D01*
X100046260Y-80567909D01*
X100363423Y-81042577D01*
X100715758Y-81278000D01*
X100363423Y-81513423D01*
X100046260Y-81988091D01*
X99934887Y-82548000D01*
X100046260Y-83107909D01*
X100363423Y-83582577D01*
X100715758Y-83818000D01*
X100363423Y-84053423D01*
X100046260Y-84528091D01*
X99934887Y-85088000D01*
X100046260Y-85647909D01*
X100089093Y-85712013D01*
X99955709Y-85738545D01*
X99696048Y-85912046D01*
X99652252Y-85977591D01*
X98274843Y-87355000D01*
X98144126Y-87355000D01*
X97763720Y-87512569D01*
X97472569Y-87803720D01*
X97323189Y-88164357D01*
X97044337Y-87885506D01*
X97044337Y-87754789D01*
X96886768Y-87374383D01*
X96595617Y-87083232D01*
X96215211Y-86925663D01*
X95803463Y-86925663D01*
X95762212Y-86942750D01*
X95762212Y-65417945D01*
X98425157Y-62755000D01*
X98555874Y-62755000D01*
X98936280Y-62597431D01*
X99227431Y-62306280D01*
X99259855Y-62228000D01*
X99934887Y-62228000D01*
X100046260Y-62787909D01*
X100363423Y-63262577D01*
X100715758Y-63498000D01*
X100363423Y-63733423D01*
X100046260Y-64208091D01*
X99934887Y-64768000D01*
X100046260Y-65327909D01*
X100363423Y-65802577D01*
X100715758Y-66038000D01*
X100363423Y-66273423D01*
X100046260Y-66748091D01*
X99934887Y-67308000D01*
X100046260Y-67867909D01*
X100363423Y-68342577D01*
X100715758Y-68578000D01*
X100363423Y-68813423D01*
X100046260Y-69288091D01*
X99934887Y-69848000D01*
X100046260Y-70407909D01*
X100363423Y-70882577D01*
X100715758Y-71118000D01*
X100363423Y-71353423D01*
X100046260Y-71828091D01*
X99934887Y-72388000D01*
X100046260Y-72947909D01*
X100363423Y-73422577D01*
X100747108Y-73678947D01*
X100542866Y-73775611D01*
X100166959Y-74190577D01*
X100006096Y-74578961D01*
X100128085Y-74801000D01*
X101271000Y-74801000D01*
X101271000Y-74781000D01*
X101525000Y-74781000D01*
X101525000Y-74801000D01*
X102667915Y-74801000D01*
X102789904Y-74578961D01*
X102629041Y-74190577D01*
X102253134Y-73775611D01*
X102048892Y-73678947D01*
X102432577Y-73422577D01*
X102749740Y-72947909D01*
X102861113Y-72388000D01*
X102749740Y-71828091D01*
X102432577Y-71353423D01*
X102080242Y-71118000D01*
X102432577Y-70882577D01*
X102749740Y-70407909D01*
X102861113Y-69848000D01*
X102749740Y-69288091D01*
X102432577Y-68813423D01*
X102080242Y-68578000D01*
X102432577Y-68342577D01*
X102749740Y-67867909D01*
X102861113Y-67308000D01*
X102749740Y-66748091D01*
X102432577Y-66273423D01*
X102080242Y-66038000D01*
X102432577Y-65802577D01*
X102749740Y-65327909D01*
X102861113Y-64768000D01*
X102749740Y-64208091D01*
X102432577Y-63733423D01*
X102080242Y-63498000D01*
X102432577Y-63262577D01*
X102749740Y-62787909D01*
X102861113Y-62228000D01*
X102749740Y-61668091D01*
X102432577Y-61193423D01*
X102311894Y-61112785D01*
X102445765Y-61086157D01*
X102655809Y-60945809D01*
X102796157Y-60735765D01*
X102845440Y-60488000D01*
X102845440Y-59688000D01*
X104455908Y-59688000D01*
X104571161Y-60267418D01*
X104899375Y-60758625D01*
X105197761Y-60958000D01*
X104899375Y-61157375D01*
X104571161Y-61648582D01*
X104455908Y-62228000D01*
X104571161Y-62807418D01*
X104899375Y-63298625D01*
X105197761Y-63498000D01*
X104899375Y-63697375D01*
X104571161Y-64188582D01*
X104455908Y-64768000D01*
X104571161Y-65347418D01*
X104899375Y-65838625D01*
X104917619Y-65850816D01*
X104872235Y-65859843D01*
X104662191Y-66000191D01*
X104521843Y-66210235D01*
X104472560Y-66458000D01*
X104472560Y-68158000D01*
X104521843Y-68405765D01*
X104662191Y-68615809D01*
X104872235Y-68756157D01*
X105120000Y-68805440D01*
X106820000Y-68805440D01*
X107067765Y-68756157D01*
X107277809Y-68615809D01*
X107418157Y-68405765D01*
X107467440Y-68158000D01*
X107467440Y-66458000D01*
X107418157Y-66210235D01*
X107277809Y-66000191D01*
X107067765Y-65859843D01*
X107022381Y-65850816D01*
X107040625Y-65838625D01*
X107368839Y-65347418D01*
X107484092Y-64768000D01*
X107368839Y-64188582D01*
X107040625Y-63697375D01*
X106742239Y-63498000D01*
X107040625Y-63298625D01*
X107368839Y-62807418D01*
X107484092Y-62228000D01*
X107368839Y-61648582D01*
X107040625Y-61157375D01*
X106742239Y-60958000D01*
X107040625Y-60758625D01*
X107368839Y-60267418D01*
X107484092Y-59688000D01*
X107368839Y-59108582D01*
X107040625Y-58617375D01*
X106549418Y-58289161D01*
X106116256Y-58203000D01*
X105823744Y-58203000D01*
X105390582Y-58289161D01*
X104899375Y-58617375D01*
X104571161Y-59108582D01*
X104455908Y-59688000D01*
X102845440Y-59688000D01*
X102845440Y-58888000D01*
X102796157Y-58640235D01*
X102655809Y-58430191D01*
X102445765Y-58289843D01*
X102198000Y-58240560D01*
X100598000Y-58240560D01*
X100350235Y-58289843D01*
X100140191Y-58430191D01*
X99999843Y-58640235D01*
X99950560Y-58888000D01*
X99950560Y-60488000D01*
X99999843Y-60735765D01*
X100140191Y-60945809D01*
X100350235Y-61086157D01*
X100484106Y-61112785D01*
X100363423Y-61193423D01*
X100046260Y-61668091D01*
X99934887Y-62228000D01*
X99259855Y-62228000D01*
X99385000Y-61925874D01*
X99385000Y-61514126D01*
X99227431Y-61133720D01*
X98936280Y-60842569D01*
X98555874Y-60685000D01*
X98144126Y-60685000D01*
X97763720Y-60842569D01*
X97472569Y-61133720D01*
X97315000Y-61514126D01*
X97315000Y-61644843D01*
X96621777Y-62338066D01*
X96396280Y-62112569D01*
X96015874Y-61955000D01*
X95604126Y-61955000D01*
X95251200Y-62101186D01*
X94898274Y-61955000D01*
X94792000Y-61955000D01*
X94792000Y-61153711D01*
X94909431Y-61036280D01*
X95067000Y-60655874D01*
X95067000Y-60244126D01*
X94909431Y-59863720D01*
X94618280Y-59572569D01*
X94237874Y-59415000D01*
X93826126Y-59415000D01*
X93445720Y-59572569D01*
X93154569Y-59863720D01*
X92997000Y-60244126D01*
X92997000Y-60655874D01*
X93017128Y-60704467D01*
X92683720Y-60842569D01*
X92492183Y-61034107D01*
X88834679Y-57376603D01*
X88797919Y-57321588D01*
X105243922Y-57321588D01*
X105318769Y-57336476D01*
X105393616Y-57321588D01*
X105393621Y-57321588D01*
X105615306Y-57277492D01*
X105785428Y-57163820D01*
X105933060Y-57311452D01*
X105933060Y-57311452D01*
G37*
X105933060Y-57311452D02*
X106313466Y-57469021D01*
X106725214Y-57469021D01*
X107105620Y-57311452D01*
X107223051Y-57194021D01*
X111775230Y-57194021D01*
X115866264Y-61285056D01*
X115908664Y-61348512D01*
X116160056Y-61516487D01*
X116370695Y-61558386D01*
X116365000Y-61572135D01*
X116365000Y-61983883D01*
X116522569Y-62364289D01*
X116640001Y-62481721D01*
X116640000Y-67366289D01*
X116522569Y-67483720D01*
X116365000Y-67864126D01*
X116365000Y-68275874D01*
X116522569Y-68656280D01*
X116813720Y-68947431D01*
X117194126Y-69105000D01*
X117605874Y-69105000D01*
X117986280Y-68947431D01*
X118035000Y-68898711D01*
X118083720Y-68947431D01*
X118303240Y-69038359D01*
X117600527Y-69741072D01*
X117537071Y-69783472D01*
X117494671Y-69846928D01*
X117494670Y-69846929D01*
X117369096Y-70034864D01*
X117310111Y-70331401D01*
X117325000Y-70406253D01*
X117324999Y-84733789D01*
X116640516Y-85418273D01*
X116577060Y-85460673D01*
X116534660Y-85524129D01*
X116534659Y-85524130D01*
X116409085Y-85712065D01*
X116350100Y-86008602D01*
X116364989Y-86083454D01*
X116364988Y-92716182D01*
X116151214Y-92716182D01*
X115770808Y-92873751D01*
X115678377Y-92966182D01*
X107761855Y-92966182D01*
X108029594Y-92698443D01*
X108187163Y-92318037D01*
X108187163Y-91906289D01*
X108029594Y-91525883D01*
X107937163Y-91433452D01*
X107937163Y-88211016D01*
X107952541Y-88133705D01*
X107937163Y-88056394D01*
X107937163Y-88056390D01*
X107891617Y-87827414D01*
X107795071Y-87682923D01*
X107761912Y-87633297D01*
X107761910Y-87633295D01*
X107718116Y-87567753D01*
X107652574Y-87523959D01*
X106608728Y-86480113D01*
X109857575Y-86480113D01*
X109934887Y-86495491D01*
X110012199Y-86480113D01*
X110012203Y-86480113D01*
X110241179Y-86434567D01*
X110500840Y-86261066D01*
X110544636Y-86195521D01*
X116205158Y-80535000D01*
X116335874Y-80535000D01*
X116716280Y-80377431D01*
X117007431Y-80086280D01*
X117165000Y-79705874D01*
X117165000Y-79294126D01*
X117007431Y-78913720D01*
X116716280Y-78622569D01*
X116335874Y-78465000D01*
X115924126Y-78465000D01*
X115543720Y-78622569D01*
X115252569Y-78913720D01*
X115095000Y-79294126D01*
X115095000Y-79424842D01*
X109609730Y-84910113D01*
X105392281Y-84910113D01*
X105299850Y-84817682D01*
X104919444Y-84660113D01*
X104507696Y-84660113D01*
X104127290Y-84817682D01*
X103836139Y-85108833D01*
X103678570Y-85489239D01*
X103678570Y-85524789D01*
X103478720Y-85607569D01*
X103390001Y-85696288D01*
X102867446Y-85693423D01*
X102865315Y-85692999D01*
X102790135Y-85692999D01*
X102719869Y-85692614D01*
X102749740Y-85647909D01*
X102861113Y-85088000D01*
X102749740Y-84528091D01*
X102432577Y-84053423D01*
X102080242Y-83818000D01*
X102432577Y-83582577D01*
X102749740Y-83107909D01*
X102861113Y-82548000D01*
X102749740Y-81988091D01*
X102432577Y-81513423D01*
X102080242Y-81278000D01*
X102432577Y-81042577D01*
X102749740Y-80567909D01*
X102861113Y-80008000D01*
X102749740Y-79448091D01*
X102432577Y-78973423D01*
X102080242Y-78738000D01*
X102432577Y-78502577D01*
X102749740Y-78027909D01*
X102861113Y-77468000D01*
X102749740Y-76908091D01*
X102432577Y-76433423D01*
X102048892Y-76177053D01*
X102253134Y-76080389D01*
X102629041Y-75665423D01*
X102789904Y-75277039D01*
X102667915Y-75055000D01*
X101525000Y-75055000D01*
X101525000Y-75075000D01*
X101271000Y-75075000D01*
X101271000Y-75055000D01*
X100128085Y-75055000D01*
X100006096Y-75277039D01*
X100166959Y-75665423D01*
X100542866Y-76080389D01*
X100747108Y-76177053D01*
X100363423Y-76433423D01*
X100046260Y-76908091D01*
X99934887Y-77468000D01*
X100046260Y-78027909D01*
X100363423Y-78502577D01*
X100715758Y-78738000D01*
X100363423Y-78973423D01*
X100046260Y-79448091D01*
X99934887Y-80008000D01*
X100046260Y-80567909D01*
X100363423Y-81042577D01*
X100715758Y-81278000D01*
X100363423Y-81513423D01*
X100046260Y-81988091D01*
X99934887Y-82548000D01*
X100046260Y-83107909D01*
X100363423Y-83582577D01*
X100715758Y-83818000D01*
X100363423Y-84053423D01*
X100046260Y-84528091D01*
X99934887Y-85088000D01*
X100046260Y-85647909D01*
X100089093Y-85712013D01*
X99955709Y-85738545D01*
X99696048Y-85912046D01*
X99652252Y-85977591D01*
X98274843Y-87355000D01*
X98144126Y-87355000D01*
X97763720Y-87512569D01*
X97472569Y-87803720D01*
X97323189Y-88164357D01*
X97044337Y-87885506D01*
X97044337Y-87754789D01*
X96886768Y-87374383D01*
X96595617Y-87083232D01*
X96215211Y-86925663D01*
X95803463Y-86925663D01*
X95762212Y-86942750D01*
X95762212Y-65417945D01*
X98425157Y-62755000D01*
X98555874Y-62755000D01*
X98936280Y-62597431D01*
X99227431Y-62306280D01*
X99259855Y-62228000D01*
X99934887Y-62228000D01*
X100046260Y-62787909D01*
X100363423Y-63262577D01*
X100715758Y-63498000D01*
X100363423Y-63733423D01*
X100046260Y-64208091D01*
X99934887Y-64768000D01*
X100046260Y-65327909D01*
X100363423Y-65802577D01*
X100715758Y-66038000D01*
X100363423Y-66273423D01*
X100046260Y-66748091D01*
X99934887Y-67308000D01*
X100046260Y-67867909D01*
X100363423Y-68342577D01*
X100715758Y-68578000D01*
X100363423Y-68813423D01*
X100046260Y-69288091D01*
X99934887Y-69848000D01*
X100046260Y-70407909D01*
X100363423Y-70882577D01*
X100715758Y-71118000D01*
X100363423Y-71353423D01*
X100046260Y-71828091D01*
X99934887Y-72388000D01*
X100046260Y-72947909D01*
X100363423Y-73422577D01*
X100747108Y-73678947D01*
X100542866Y-73775611D01*
X100166959Y-74190577D01*
X100006096Y-74578961D01*
X100128085Y-74801000D01*
X101271000Y-74801000D01*
X101271000Y-74781000D01*
X101525000Y-74781000D01*
X101525000Y-74801000D01*
X102667915Y-74801000D01*
X102789904Y-74578961D01*
X102629041Y-74190577D01*
X102253134Y-73775611D01*
X102048892Y-73678947D01*
X102432577Y-73422577D01*
X102749740Y-72947909D01*
X102861113Y-72388000D01*
X102749740Y-71828091D01*
X102432577Y-71353423D01*
X102080242Y-71118000D01*
X102432577Y-70882577D01*
X102749740Y-70407909D01*
X102861113Y-69848000D01*
X102749740Y-69288091D01*
X102432577Y-68813423D01*
X102080242Y-68578000D01*
X102432577Y-68342577D01*
X102749740Y-67867909D01*
X102861113Y-67308000D01*
X102749740Y-66748091D01*
X102432577Y-66273423D01*
X102080242Y-66038000D01*
X102432577Y-65802577D01*
X102749740Y-65327909D01*
X102861113Y-64768000D01*
X102749740Y-64208091D01*
X102432577Y-63733423D01*
X102080242Y-63498000D01*
X102432577Y-63262577D01*
X102749740Y-62787909D01*
X102861113Y-62228000D01*
X102749740Y-61668091D01*
X102432577Y-61193423D01*
X102311894Y-61112785D01*
X102445765Y-61086157D01*
X102655809Y-60945809D01*
X102796157Y-60735765D01*
X102845440Y-60488000D01*
X102845440Y-59688000D01*
X104455908Y-59688000D01*
X104571161Y-60267418D01*
X104899375Y-60758625D01*
X105197761Y-60958000D01*
X104899375Y-61157375D01*
X104571161Y-61648582D01*
X104455908Y-62228000D01*
X104571161Y-62807418D01*
X104899375Y-63298625D01*
X105197761Y-63498000D01*
X104899375Y-63697375D01*
X104571161Y-64188582D01*
X104455908Y-64768000D01*
X104571161Y-65347418D01*
X104899375Y-65838625D01*
X104917619Y-65850816D01*
X104872235Y-65859843D01*
X104662191Y-66000191D01*
X104521843Y-66210235D01*
X104472560Y-66458000D01*
X104472560Y-68158000D01*
X104521843Y-68405765D01*
X104662191Y-68615809D01*
X104872235Y-68756157D01*
X105120000Y-68805440D01*
X106820000Y-68805440D01*
X107067765Y-68756157D01*
X107277809Y-68615809D01*
X107418157Y-68405765D01*
X107467440Y-68158000D01*
X107467440Y-66458000D01*
X107418157Y-66210235D01*
X107277809Y-66000191D01*
X107067765Y-65859843D01*
X107022381Y-65850816D01*
X107040625Y-65838625D01*
X107368839Y-65347418D01*
X107484092Y-64768000D01*
X107368839Y-64188582D01*
X107040625Y-63697375D01*
X106742239Y-63498000D01*
X107040625Y-63298625D01*
X107368839Y-62807418D01*
X107484092Y-62228000D01*
X107368839Y-61648582D01*
X107040625Y-61157375D01*
X106742239Y-60958000D01*
X107040625Y-60758625D01*
X107368839Y-60267418D01*
X107484092Y-59688000D01*
X107368839Y-59108582D01*
X107040625Y-58617375D01*
X106549418Y-58289161D01*
X106116256Y-58203000D01*
X105823744Y-58203000D01*
X105390582Y-58289161D01*
X104899375Y-58617375D01*
X104571161Y-59108582D01*
X104455908Y-59688000D01*
X102845440Y-59688000D01*
X102845440Y-58888000D01*
X102796157Y-58640235D01*
X102655809Y-58430191D01*
X102445765Y-58289843D01*
X102198000Y-58240560D01*
X100598000Y-58240560D01*
X100350235Y-58289843D01*
X100140191Y-58430191D01*
X99999843Y-58640235D01*
X99950560Y-58888000D01*
X99950560Y-60488000D01*
X99999843Y-60735765D01*
X100140191Y-60945809D01*
X100350235Y-61086157D01*
X100484106Y-61112785D01*
X100363423Y-61193423D01*
X100046260Y-61668091D01*
X99934887Y-62228000D01*
X99259855Y-62228000D01*
X99385000Y-61925874D01*
X99385000Y-61514126D01*
X99227431Y-61133720D01*
X98936280Y-60842569D01*
X98555874Y-60685000D01*
X98144126Y-60685000D01*
X97763720Y-60842569D01*
X97472569Y-61133720D01*
X97315000Y-61514126D01*
X97315000Y-61644843D01*
X96621777Y-62338066D01*
X96396280Y-62112569D01*
X96015874Y-61955000D01*
X95604126Y-61955000D01*
X95251200Y-62101186D01*
X94898274Y-61955000D01*
X94792000Y-61955000D01*
X94792000Y-61153711D01*
X94909431Y-61036280D01*
X95067000Y-60655874D01*
X95067000Y-60244126D01*
X94909431Y-59863720D01*
X94618280Y-59572569D01*
X94237874Y-59415000D01*
X93826126Y-59415000D01*
X93445720Y-59572569D01*
X93154569Y-59863720D01*
X92997000Y-60244126D01*
X92997000Y-60655874D01*
X93017128Y-60704467D01*
X92683720Y-60842569D01*
X92492183Y-61034107D01*
X88834679Y-57376603D01*
X88797919Y-57321588D01*
X105243922Y-57321588D01*
X105318769Y-57336476D01*
X105393616Y-57321588D01*
X105393621Y-57321588D01*
X105615306Y-57277492D01*
X105785428Y-57163820D01*
X105933060Y-57311452D01*
G36*
X84996252Y-61338412D02*
X85011398Y-61361080D01*
X84806260Y-61668091D01*
X84694887Y-62228000D01*
X84806260Y-62787909D01*
X85123423Y-63262577D01*
X85475758Y-63498000D01*
X85123423Y-63733423D01*
X84806260Y-64208091D01*
X84694887Y-64768000D01*
X84806260Y-65327909D01*
X85123423Y-65802577D01*
X85475758Y-66038000D01*
X85123423Y-66273423D01*
X84806260Y-66748091D01*
X84694887Y-67308000D01*
X84753446Y-67602396D01*
X82609590Y-69746253D01*
X82544048Y-69790047D01*
X82500254Y-69855589D01*
X82500251Y-69855592D01*
X82370546Y-70049709D01*
X82309622Y-70356000D01*
X82325001Y-70433317D01*
X82325000Y-73009863D01*
X82324624Y-73010114D01*
X82249590Y-73060250D01*
X82249588Y-73060252D01*
X82184046Y-73104046D01*
X82140252Y-73169588D01*
X80085000Y-75224841D01*
X80085000Y-57318711D01*
X80177431Y-57226280D01*
X80335000Y-56845874D01*
X80335000Y-56677159D01*
X84996252Y-61338412D01*
X84996252Y-61338412D01*
G37*
X84996252Y-61338412D02*
X85011398Y-61361080D01*
X84806260Y-61668091D01*
X84694887Y-62228000D01*
X84806260Y-62787909D01*
X85123423Y-63262577D01*
X85475758Y-63498000D01*
X85123423Y-63733423D01*
X84806260Y-64208091D01*
X84694887Y-64768000D01*
X84806260Y-65327909D01*
X85123423Y-65802577D01*
X85475758Y-66038000D01*
X85123423Y-66273423D01*
X84806260Y-66748091D01*
X84694887Y-67308000D01*
X84753446Y-67602396D01*
X82609590Y-69746253D01*
X82544048Y-69790047D01*
X82500254Y-69855589D01*
X82500251Y-69855592D01*
X82370546Y-70049709D01*
X82309622Y-70356000D01*
X82325001Y-70433317D01*
X82325000Y-73009863D01*
X82324624Y-73010114D01*
X82249590Y-73060250D01*
X82249588Y-73060252D01*
X82184046Y-73104046D01*
X82140252Y-73169588D01*
X80085000Y-75224841D01*
X80085000Y-57318711D01*
X80177431Y-57226280D01*
X80335000Y-56845874D01*
X80335000Y-56677159D01*
X84996252Y-61338412D01*
G04 #@! TD*
M02*
