M48
;DRILL file {KiCad (5.0.1-3-g963ef8bb5)} date Monday, November 12, 2018 at 11:42:42 PM
;FORMAT={-:-/ absolute / inch / decimal}
FMAT,2
INCH,TZ
T1C0.0157
T2C0.0315
T3C0.0394
T4C0.1260
%
G90
G05
M72
T1
X1.828Y-5.4299
X1.9004Y-3.6516
X1.9398Y-3.7795
X1.9693Y-3.4843
X1.9988Y-3.7894
X1.9988Y-3.878
X2.022Y-2.0799
X2.0892Y-3.7471
X2.098Y-4.7139
X2.1563Y-3.5827
X2.1607Y-3.6413
X2.172Y-3.7799
X2.1957Y-3.8976
X2.3138Y-4.1339
X2.322Y-4.6799
X2.372Y-5.1299
X2.372Y-5.2799
X2.422Y-3.4799
X2.452Y-1.8999
X2.452Y-2.1899
X2.492Y-3.2799
X2.572Y-4.0299
X2.612Y-1.8514
X2.622Y-2.6299
X2.672Y-2.3799
X2.722Y-1.8514
X2.722Y-2.2299
X2.722Y-3.0299
X2.772Y-3.3299
X2.8059Y-3.8583
X2.822Y-1.8514
X2.8551Y-3.7402
X2.872Y-3.9299
X2.922Y-1.8514
X2.922Y-3.9799
X2.927Y-3.8124
X2.9437Y-5.4528
X2.962Y-2.1599
X2.972Y-2.8799
X2.9778Y-4.8769
X3.012Y-3.8999
X3.022Y-1.8514
X3.022Y-4.2799
X3.022Y-4.6299
X3.0224Y-4.4488
X3.0639Y-3.7613
X3.072Y-3.4299
X3.072Y-3.4799
X3.072Y-3.5799
X3.072Y-3.9299
X3.094Y-3.7359
X3.122Y-2.2299
X3.122Y-3.3299
X3.122Y-4.8299
X3.132Y-5.3699
X3.1602Y-2.3524
X3.1701Y-2.7854
X3.172Y-3.2799
X3.172Y-4.0299
X3.172Y-5.2799
X3.222Y-4.4799
X3.2291Y-2.5886
X3.262Y-3.7999
X3.272Y-2.9299
X3.272Y-3.2799
X3.272Y-3.3299
X3.272Y-3.4299
X3.272Y-3.5299
X3.272Y-3.5799
X3.272Y-3.6299
X3.272Y-4.9799
X3.272Y-5.4299
X3.298Y-4.1929
X3.302Y-2.1999
X3.302Y-3.7299
X3.3055Y-4.6465
X3.322Y-3.8399
X3.322Y-4.0799
X3.3333Y-4.6186
X3.372Y-4.3799
X3.4343Y-4.0176
X3.4618Y-3.8866
X3.472Y-4.9799
X3.48Y-4.5359
X3.506Y-3.3619
X3.522Y-2.7299
X3.53Y-4.6594
X3.5425Y-3.1099
X3.5441Y-4.2618
X3.572Y-2.4299
X3.572Y-3.9799
X3.5889Y-2.7227
X3.622Y-4.5799
X3.6622Y-3.5925
X3.672Y-2.4299
X3.672Y-3.7299
X3.672Y-3.9799
X3.69Y-2.7739
X3.692Y-5.2799
X3.702Y-2.3799
X3.704Y-5.1499
X3.718Y-4.9299
X3.7216Y-4.3183
X3.722Y-3.6657
X3.722Y-3.7299
X3.722Y-4.3774
X3.728Y-2.4799
X3.742Y-4.6619
X3.7508Y-4.1043
X3.7672Y-5.033
X3.772Y-2.4799
X3.7799Y-3.463
X3.782Y-2.0099
X3.822Y-2.9799
X3.822Y-3.2799
X3.832Y-4.8919
X3.858Y-4.6279
X3.8591Y-2.6673
X3.8636Y-3.6883
X3.8697Y-5.1949
X3.872Y-2.4299
X3.872Y-3.4799
X3.8787Y-2.5394
X3.9082Y-5.023
X3.922Y-3.4799
X3.922Y-3.9799
X3.922Y-4.2799
X3.924Y-4.8939
X3.956Y-3.7879
X3.972Y-2.1299
X3.972Y-5.4299
X4.052Y-5.3299
X4.0668Y-3.4657
X4.072Y-4.0799
X4.097Y-3.4049
X4.115Y-4.2717
X4.12Y-3.7679
X4.122Y-5.0299
X4.122Y-5.0994
X4.1226Y-3.3738
X4.1937Y-2.2218
X4.2186Y-3.6265
X4.222Y-2.1299
X4.222Y-3.0299
X4.2232Y-5.4823
X4.2535Y-4.2559
X4.272Y-3.8299
X4.272Y-4.9799
X4.282Y-4.2099
X4.308Y-2.4659
X4.308Y-2.6575
X4.31Y-2.8079
X4.312Y-3.8799
X4.3154Y-5.5962
X4.322Y-5.4799
X4.34Y-4.6339
X4.3592Y-4.1881
X4.36Y-5.4519
X4.362Y-3.9699
X4.3676Y-5.3479
X4.372Y-4.7799
X4.372Y-4.9299
X4.372Y-4.9799
X4.372Y-5.0293
X4.372Y-5.2299
X4.384Y-4.2519
X4.392Y-4.8499
X4.392Y-4.8899
X4.402Y-3.7799
X4.422Y-1.9299
X4.422Y-4.9299
X4.4266Y-5.3494
X4.438Y-4.0679
X4.469Y-5.4382
X4.4842Y-4.7677
X4.518Y-4.6399
X4.5194Y-4.989
X4.5232Y-5.2762
X4.526Y-5.4319
X4.5369Y-3.5541
X4.552Y-4.8512
X4.552Y-5.0699
X4.556Y-4.2099
X4.562Y-3.9399
X4.5699Y-5.3854
X4.572Y-3.1299
X4.572Y-3.3299
X4.572Y-4.2799
X4.572Y-5.1499
X4.581Y-3.691
X4.622Y-2.4322
X4.622Y-2.6799
X4.622Y-5.1299
X4.6244Y-5.0878
X4.6282Y-4.5757
X4.6333Y-5.0129
X4.638Y-4.2899
X4.6447Y-5.2876
X4.6611Y-5.4025
X4.668Y-5.1263
X4.6703Y-4.6165
X4.672Y-2.4322
X4.672Y-2.6799
X4.672Y-4.6756
X4.6726Y-5.0667
X4.682Y-5.5099
X4.686Y-3.9179
X4.6921Y-5.4672
X4.7169Y-2.3647
X4.7194Y-4.9326
X4.722Y-4.9724
X4.722Y-2.4322
X4.722Y-2.6799
X4.722Y-4.0799
X4.722Y-4.6799
X4.7251Y-5.1499
X4.7256Y-5.0512
X4.7419Y-5.2977
X4.7435Y-2.3937
X4.746Y-5.4279
X4.7553Y-4.8089
X4.7604Y-5.5492
X4.768Y-4.8679
X4.772Y-2.9799
X4.772Y-3.1299
X4.7804Y-5.0668
X4.79Y-5.2579
X4.7932Y-4.6087
X4.8005Y-5.3496
X4.806Y-4.0379
X4.8075Y-4.9869
X4.812Y-4.2879
X4.8142Y-5.1005
X4.8149Y-5.1596
X4.822Y-4.5799
X4.822Y-5.0459
X4.862Y-4.8799
X4.868Y-5.4514
X4.872Y-3.8799
X4.8732Y-4.993
X4.8925Y-2.5295
X4.8958Y-5.3358
X4.898Y-4.2799
X4.9Y-4.1859
X4.906Y-4.5659
X4.908Y-4.6459
X4.9123Y-5.2397
X4.922Y-2.7299
X4.922Y-3.8799
X4.932Y-5.3859
X4.9434Y-4.6931
X4.972Y-3.8799
X5.018Y-4.6019
X5.022Y-2.6799
X5.022Y-3.9299
X5.022Y-4.9999
X5.0291Y-3.8783
X5.0346Y-5.3959
X5.0384Y-5.0358
X5.052Y-4.8239
X5.0543Y-5.3337
X5.062Y-4.5799
X5.062Y-4.8899
X5.072Y-2.6909
X5.0747Y-5.082
X5.078Y-4.7639
X5.0881Y-5.0441
X5.1091Y-2.3937
X5.1112Y-4.188
X5.1179Y-4.9137
X5.122Y-5.1799
X5.1265Y-4.5514
X5.1484Y-5.5118
X5.172Y-2.3937
X5.172Y-5.2799
X5.1937Y-2.6614
X5.1957Y-2.0984
X5.1976Y-2.2047
X5.2194Y-5.4209
X5.222Y-3.0299
X5.222Y-3.5799
X5.222Y-4.0299
X5.222Y-4.5299
X5.2232Y-2.7323
X5.2287Y-2.3937
X5.25Y-4.6879
X5.2522Y-4.6486
X5.2644Y-5.4223
X5.2681Y-2.3923
X5.272Y-4.5799
X5.302Y-4.6099
X5.3066Y-2.3842
X5.3256Y-2.4187
X5.3571Y-2.4488
X5.3571Y-4.2402
X5.365Y-2.3346
X5.3748Y-4.3602
X5.3886Y-2.5197
X5.403Y-2.4513
X5.4043Y-2.3425
X5.4192Y-5.2271
X5.522Y-2.8299
X5.522Y-3.2299
X5.522Y-3.5299
T2
X3.392Y-2.3499
X3.392Y-2.4499
X3.392Y-2.5499
X3.392Y-2.6499
X3.392Y-2.7499
X3.392Y-2.8499
X3.392Y-2.9499
X3.392Y-3.0499
X3.392Y-3.1499
X3.392Y-3.2499
X3.392Y-3.3499
X3.392Y-3.4499
X3.392Y-3.5499
X3.392Y-3.6499
X3.992Y-2.3499
X3.992Y-2.4499
X3.992Y-2.5499
X3.992Y-2.6499
X3.992Y-2.7499
X3.992Y-2.8499
X3.992Y-2.9499
X3.992Y-3.0499
X3.992Y-3.1499
X3.992Y-3.2499
X3.992Y-3.3499
X3.992Y-3.4499
X3.992Y-3.5499
X3.992Y-3.6499
T3
X2.422Y-3.6799
X2.422Y-3.7799
X2.522Y-3.6799
X2.522Y-3.7799
X2.622Y-3.6799
X2.622Y-3.7799
X2.722Y-3.6799
X2.722Y-3.7799
X5.5185Y-2.2299
X5.5185Y-2.3299
X5.5185Y-2.4299
X5.5185Y-2.5299
X5.272Y-4.7899
X5.272Y-4.8899
X5.272Y-4.9899
X5.272Y-5.0899
X5.272Y-5.1899
X5.272Y-5.2899
X1.811Y-3.3661
X1.811Y-3.4661
X1.811Y-3.5661
X1.811Y-3.6661
X1.811Y-3.7661
X1.811Y-3.8661
X1.811Y-3.9661
X5.5165Y-3.726
X5.5165Y-3.826
X5.5165Y-3.926
X5.5165Y-4.026
X4.692Y-4.3899
X4.692Y-4.4899
X4.792Y-4.3899
X4.792Y-4.4899
X4.892Y-4.3899
X4.892Y-4.4899
X4.992Y-4.3899
X4.992Y-4.4899
X5.092Y-4.3899
X5.092Y-4.4899
X2.3217Y-1.9787
X2.3217Y-2.0787
X2.4217Y-1.9787
X2.4217Y-2.0787
X2.5217Y-1.9787
X2.5217Y-2.0787
X2.6217Y-1.9787
X2.6217Y-2.0787
X2.7217Y-1.9787
X2.7217Y-2.0787
X2.8217Y-1.9787
X2.8217Y-2.0787
X2.9217Y-1.9787
X2.9217Y-2.0787
X3.0217Y-1.9787
X3.0217Y-2.0787
X3.1217Y-1.9787
X3.1217Y-2.0787
X3.2217Y-1.9787
X3.2217Y-2.0787
X3.3217Y-1.9787
X3.3217Y-2.0787
X4.172Y-2.3499
X4.172Y-2.4499
X4.172Y-2.5499
X4.172Y-2.6499
X3.572Y-2.1799
X3.672Y-2.1799
X3.772Y-2.1799
X4.7787Y-2.1638
X4.7787Y-2.2638
X4.8787Y-2.1638
X4.8787Y-2.2638
X4.9787Y-2.1638
X4.9787Y-2.2638
X5.0787Y-2.1638
X5.0787Y-2.2638
X1.792Y-4.2799
X1.792Y-4.3799
X1.792Y-4.4799
X1.792Y-4.5799
X1.792Y-4.6799
X1.792Y-4.7799
X1.792Y-4.8799
X1.792Y-4.9799
X1.892Y-4.2799
X1.892Y-4.3799
X1.892Y-4.4799
X1.892Y-4.5799
X1.892Y-4.6799
X1.892Y-4.7799
X1.892Y-4.8799
X1.892Y-4.9799
T4
X4.752Y-3.5299
T0
M30
