M48
;DRILL file {KiCad (5.0.1-3-g963ef8bb5)} date Monday, November 12, 2018 at 11:43:42 PM
;FORMAT={-:-/ absolute / inch / decimal}
FMAT,2
INCH,TZ
T1C0.0118
T2C0.0157
T3C0.0354
T4C0.0394
T5C0.0433
T6C0.0630
T7C0.0709
T8C0.0866
T9C0.1260
%
G90
G05
M72
T1
X6.801Y-2.4902
X6.801Y-2.5492
X6.801Y-2.6083
X6.801Y-2.6673
X6.8522Y-2.4902
X6.8522Y-2.5492
X6.8522Y-2.6083
X6.8522Y-2.6673
X6.9033Y-2.4902
X6.9033Y-2.5492
X6.9033Y-2.6083
X6.9033Y-2.6673
X6.9545Y-2.4902
X6.9545Y-2.5492
X6.9545Y-2.6083
X6.9545Y-2.6673
X7.0057Y-2.4902
X7.0057Y-2.5492
X7.0057Y-2.6083
X7.0057Y-2.6673
X7.0569Y-2.4902
X7.0569Y-2.5492
X7.0569Y-2.6083
X7.0569Y-2.6673
X7.1081Y-2.4902
X7.1081Y-2.5492
X7.1081Y-2.6083
X7.1081Y-2.6673
X7.1593Y-2.4902
X7.1593Y-2.5492
X7.1593Y-2.6083
X7.1593Y-2.6673
X7.2104Y-2.4902
X7.2104Y-2.5492
X7.2104Y-2.6083
X7.2104Y-2.6673
T2
X6.1425Y-5.5906
X6.1524Y-5.2559
X6.1601Y-3.5264
X6.1917Y-4.685
X6.2114Y-4.1535
X6.2231Y-2.8051
X6.2705Y-4.0551
X6.3079Y-3.4725
X6.3197Y-3.622
X6.3394Y-4.6654
X6.3492Y-5.2461
X6.3496Y-3.1986
X6.3591Y-3.5138
X6.3591Y-3.8386
X6.3689Y-3.3268
X6.3886Y-3.4252
X6.3886Y-5.1083
X6.3984Y-1.9291
X6.3984Y-3.8287
X6.4131Y-3.6068
X6.4177Y-3.296
X6.4243Y-4.1871
X6.4488Y-3.8866
X6.4673Y-3.8386
X6.4673Y-3.9469
X6.4769Y-2.9092
X6.5061Y-2.1664
X6.5264Y-2.5197
X6.5438Y-3.9207
X6.5459Y-2.8371
X6.5461Y-3.3563
X6.5559Y-3.1102
X6.562Y-2.3186
X6.5654Y-3.8878
X6.5654Y-3.9567
X6.5657Y-3.7402
X6.5666Y-2.0483
X6.5756Y-4.1732
X6.5774Y-3.3858
X6.5795Y-3.5803
X6.5818Y-3.3036
X6.5972Y-3.6447
X6.6007Y-2.8664
X6.6137Y-3.3268
X6.6139Y-3.4007
X6.615Y-2.4606
X6.6211Y-2.3287
X6.6346Y-5.2756
X6.6445Y-2.5591
X6.6543Y-3.0315
X6.6543Y-4.2195
X6.6605Y-2.3287
X6.6642Y-5.1083
X6.6839Y-2.6378
X6.7035Y-2.8893
X6.7085Y-2.2835
X6.7232Y-4.1831
X6.7242Y-4.1347
X6.7331Y-3.622
X6.7528Y-3.7402
X6.7626Y-3.3858
X6.7921Y-3.0709
X6.8087Y-4.063
X6.8217Y-3.1594
X6.8315Y-5.1181
X6.8413Y-4.5374
X6.9052Y-2.8248
X6.9102Y-3.3858
X6.9102Y-5.3642
X6.9201Y-5.5709
X6.9384Y-2.846
X6.9398Y-3.2087
X6.9496Y-1.998
X6.9496Y-3.3858
X6.9496Y-4.3504
X6.9594Y-4.685
X6.9627Y-4.5075
X6.9791Y-4.0945
X6.9809Y-2.8684
X7.0185Y-3.4147
X7.0274Y-2.8839
X7.0677Y-2.372
X7.0776Y-3.8386
X7.0972Y-2.3327
X7.0972Y-3.9862
X7.1268Y-3.0709
X7.1465Y-3.9173
X7.1465Y-4.2913
X7.1957Y-2.2343
X7.1957Y-3.1398
X7.2055Y-3.7894
X7.2055Y-3.8681
X7.235Y-4.1142
X7.2449Y-3.4147
X7.2502Y-2.7579
X7.2547Y-3.5925
X7.2547Y-4.626
X7.2646Y-3.3465
X7.2646Y-3.7697
X7.2673Y-3.7209
X7.2744Y-2.2343
X7.2744Y-5.4921
X7.2828Y-2.7359
X7.2838Y-2.3209
X7.3039Y-3.248
X7.3059Y-2.6601
X7.3126Y-2.4225
X7.3138Y-2.4803
X7.3138Y-2.7047
X7.3138Y-3.9541
X7.3156Y-2.3441
X7.3157Y-2.7575
X7.3157Y-2.2426
X7.3513Y-2.2243
X7.3531Y-3.7795
X7.3531Y-3.9272
X7.3748Y-2.2559
X7.3925Y-4.2421
X7.3945Y-3.3678
X7.431Y-3.4637
X7.4319Y-3.0709
X7.4319Y-4.3996
X7.4447Y-3.4163
X7.4516Y-3.2283
X7.4518Y-4.4683
X7.4614Y-3.7992
X7.471Y-2.2559
X7.4713Y-1.8898
X7.4713Y-2.9232
X7.489Y-3.4326
X7.5008Y-4.1634
X7.5106Y-1.8012
X7.5106Y-1.998
X7.5106Y-3.1201
X7.5106Y-4.3996
X7.5106Y-5.3642
X7.5205Y-4.6063
X7.5205Y-5.1969
X7.5206Y-3.3307
X7.5303Y-3.7303
X7.541Y-3.5891
X7.548Y-4.5479
X7.5521Y-3.4771
X7.5598Y-2.5689
X7.5598Y-3.2382
X7.5795Y-2.2441
X7.5894Y-4.6161
X7.5992Y-4.2421
X7.6091Y-3.563
X7.6189Y-2.628
X7.6386Y-3.878
X7.6396Y-2.5098
X7.6583Y-3.061
X7.663Y-3.5692
X7.6674Y-4.6269
X7.6681Y-4.2618
X7.6691Y-3.1906
X7.678Y-2.2441
X7.6878Y-4.5472
X7.6888Y-2.8974
X7.6888Y-2.8974
X7.6888Y-2.8974
X7.6902Y-3.4307
X7.6911Y-3.8915
X7.6976Y-3.9764
X7.7075Y-2.7657
X7.7137Y-3.1554
X7.7173Y-3.2874
X7.7272Y-4.4587
X7.7302Y-3.8875
X7.7469Y-1.8012
X7.7479Y-4.1641
X7.7539Y-2.739
X7.754Y-4.571
X7.7567Y-5.2165
X7.7665Y-3.9567
X7.7665Y-4.7244
X7.7739Y-2.2747
X7.7764Y-4.2126
X7.7764Y-5.1378
X7.7816Y-3.0492
X7.7862Y-3.3169
X7.7961Y-4.5276
X7.798Y-2.7442
X7.8059Y-2.3327
X7.8094Y-3.6098
X7.8157Y-2.2638
X7.8256Y-2.6181
X7.8256Y-3.4154
X7.8354Y-3.2283
X7.8373Y-3.1339
X7.8374Y-2.8799
X7.8453Y-3.2677
X7.8453Y-3.9173
X7.8477Y-3.189
X7.854Y-3.0982
X7.8541Y-4.2133
X7.8551Y-4.4685
X7.8551Y-5.2165
X7.8614Y-2.7028
X7.865Y-2.8248
X7.8748Y-4.1535
X7.8877Y-3.6115
X7.8904Y-2.4828
X7.9043Y-4.5669
X7.9063Y-3.0217
X7.9142Y-2.8642
X7.924Y-1.7618
X7.924Y-4.0965
X7.9339Y-3.061
X7.9339Y-4.0256
X7.9388Y-3.5619
X7.9471Y-2.7047
X7.9634Y-1.9685
X7.9732Y-1.7618
X7.9732Y-3.2874
X7.9831Y-3.6713
X7.9831Y-3.8681
X7.9929Y-4.439
X7.9933Y-3.7205
X8.0126Y-2.9232
X8.0126Y-4.0256
X8.0126Y-4.0846
X8.0148Y-3.0293
X8.0165Y-3.6207
X8.0224Y-5.2559
X8.0433Y-3.7874
X8.0481Y-2.0708
X8.052Y-4.124
X8.0717Y-4.3406
X8.0913Y-3.8256
X8.1109Y-2.6772
X8.111Y-3.1299
X8.1307Y-2.4972
X8.1307Y-2.8937
X8.1384Y-2.5755
X8.1504Y-2.687
X8.1504Y-3.0217
X8.1504Y-3.3071
X8.1504Y-3.376
X8.1504Y-4.0945
X8.1583Y-2.9227
X8.1629Y-3.0768
X8.1663Y-2.6083
X8.1701Y-3.9272
X8.1701Y-4.2323
X8.1799Y-2.4606
X8.1799Y-3.1496
X8.1898Y-2.6772
X8.2094Y-4.4488
X8.2153Y-3.0271
X8.2226Y-3.4508
X8.2236Y-2.2188
X8.2251Y-3.1339
X8.2291Y-3.376
X8.2354Y-2.3349
X8.2488Y-3.9764
X8.2665Y-2.4502
X8.2882Y-2.313
X8.2882Y-3.2972
X8.2904Y-2.6272
X8.2923Y-2.0534
X8.298Y-1.9783
X8.298Y-3.248
X8.298Y-4.6063
X8.3046Y-2.5771
X8.3079Y-2.687
X8.3157Y-2.4624
X8.317Y-3.4213
X8.3218Y-3.0008
X8.3276Y-3.1693
X8.3308Y-3.0392
X8.331Y-3.675
X8.3374Y-4.7146
X8.3425Y-2.42
X8.3603Y-3.6397
X8.3627Y-3.5302
X8.3632Y-3.335
X8.3669Y-3.0906
X8.3768Y-4.065
X8.3768Y-4.1535
X8.3866Y-2.1555
X8.3965Y-3.1336
X8.4063Y-4.4783
X8.4063Y-4.5965
X8.4083Y-3.4156
X8.4161Y-4.0157
X8.4161Y-4.2913
X8.4335Y-2.3253
X8.4417Y-2.1618
X8.4457Y-3.2874
X8.4555Y-3.5477
X8.4654Y-4.5472
X8.4772Y-3.7323
X8.4894Y-3.2872
X8.4929Y-3.395
X8.4944Y-3.4354
X8.4962Y-3.5374
X8.5011Y-2.6714
X8.5047Y-3.5925
X8.5086Y-2.425
X8.5089Y-2.5911
X8.5109Y-3.8872
X8.5109Y-3.948
X8.5126Y-2.9857
X8.5238Y-3.3706
X8.5343Y-4.5079
X8.5398Y-2.4006
X8.5413Y-2.5384
X8.5478Y-1.9001
X8.5487Y-2.751
X8.5539Y-1.939
X8.5618Y-2.1093
X8.5618Y-2.7076
X8.5638Y-4.8327
X8.5671Y-2.6557
X8.5714Y-3.1136
X8.5736Y-4.5866
X8.5775Y-3.348
X8.5811Y-2.6189
X8.5839Y-3.3091
X8.6031Y-2.1555
X8.6175Y-2.9311
X8.621Y-2.9703
X8.6228Y-2.7264
X8.6327Y-1.939
X8.6343Y-3.2394
X8.6536Y-2.875
X8.6622Y-2.9134
X8.6728Y-3.7587
X8.6819Y-4.124
X8.6917Y-2.9724
X8.6972Y-3.2652
X8.7016Y-2.7756
X8.7043Y-3.7106
X8.7201Y-3.5438
X8.7232Y-3.3268
X8.7409Y-4.9902
X8.7583Y-4.9012
X8.7683Y-4.5209
X8.7705Y-3.7205
X8.7902Y-4.4882
X8.7941Y-4.4409
X8.8Y-4.8524
X8.8098Y-2.874
X8.8118Y-3.2972
X8.8118Y-3.3623
X8.8394Y-3.3957
X8.8394Y-3.6319
X8.8787Y-3.5531
X8.8827Y-3.2382
X8.8984Y-3.1201
X8.9181Y-2.7067
X8.9184Y-2.7883
X8.924Y-2.4083
X8.9476Y-3.3957
X8.9575Y-2.6378
X8.9673Y-2.313
X8.9673Y-2.5197
X8.9673Y-3.2087
X8.977Y-3.5136
X8.9772Y-1.9685
X8.9772Y-3.0906
X8.9772Y-3.8583
X8.997Y-2.4034
X9.0067Y-3.6417
X9.0067Y-4.8819
X9.0197Y-2.4449
X9.0264Y-3.0413
X9.0461Y-2.5295
X9.0559Y-2.8543
X9.0756Y-2.9921
X9.0756Y-3.1791
X9.0815Y-3.6319
X9.0982Y-3.3692
X9.1051Y-2.2539
X9.1051Y-4.7638
X9.115Y-2.6181
X9.116Y-2.6575
X9.1445Y-2.815
X9.1642Y-3.7303
X9.1642Y-3.7894
X9.2232Y-2.3425
X9.2626Y-2.3622
X9.2626Y-2.8937
X9.2724Y-2.7264
X9.2902Y-2.4857
X9.2902Y-2.5394
X9.3118Y-2.4213
X9.3906Y-2.3524
X9.3906Y-4.7441
X9.489Y-2.3819
X9.5087Y-2.5886
X9.5283Y-2.4803
X9.5677Y-2.3622
X9.5972Y-2.0374
X9.6268Y-2.3819
X9.6563Y-4.1535
X9.6661Y-3.6417
X9.6957Y-2.0276
X9.6957Y-3.7303
X9.7744Y-3.7303
X9.7941Y-3.5531
X9.8236Y-4.0256
X9.8321Y-4.8541
X9.8433Y-2.3819
X9.8531Y-4.7441
X9.9073Y-4.6358
X9.9122Y-3.4547
X9.922Y-3.6024
T3
X7.0438Y-3.4935
X7.1438Y-3.4935
X8.9081Y-4.105
X9.0081Y-4.105
X8.9081Y-2.9239
X9.0081Y-2.9239
X8.9081Y-3.3176
X9.0081Y-3.3176
X8.7321Y-2.0044
X8.8321Y-2.0044
X8.9081Y-3.7113
X9.0081Y-3.7113
X7.28Y-3.4935
X7.38Y-3.4935
X8.1177Y-3.4919
X8.1177Y-3.5919
X8.1177Y-3.6919
X9.6323Y-4.5091
X9.7323Y-4.5091
X9.3961Y-4.5091
X9.4961Y-4.5091
X8.4959Y-2.0044
X8.5959Y-2.0044
X6.3433Y-4.096
X6.4433Y-4.096
X8.4959Y-1.8273
X8.5959Y-1.8273
X6.5796Y-4.096
X6.6796Y-4.096
X6.8076Y-3.4935
X6.9076Y-3.4935
X8.7321Y-1.8273
X8.8321Y-1.8273
X9.1599Y-4.5091
X9.2599Y-4.5091
T4
X7.0305Y-4.1707
X7.0305Y-4.2691
X7.0305Y-4.3675
X7.6014Y-4.1707
X7.6014Y-4.3675
X8.5775Y-5.4338
X8.676Y-5.4338
X8.7744Y-5.4338
X9.9366Y-3.726
X9.9366Y-3.826
X9.9366Y-3.926
X9.9366Y-4.026
X6.8421Y-3.6799
X6.8421Y-3.7799
X6.9421Y-3.6799
X6.9421Y-3.7799
X7.0421Y-3.6799
X7.0421Y-3.7799
X7.1421Y-3.6799
X7.1421Y-3.7799
X9.468Y-2.8304
X9.5665Y-2.8304
X9.6649Y-2.8304
X9.1988Y-2.1638
X9.1988Y-2.2638
X9.2988Y-2.1638
X9.2988Y-2.2638
X9.3988Y-2.1638
X9.3988Y-2.2638
X9.4988Y-2.1638
X9.4988Y-2.2638
X9.468Y-3.5585
X9.5665Y-3.5585
X9.6649Y-3.5585
X8.0202Y-5.1313
X8.1186Y-5.1313
X8.2171Y-5.1313
X8.0202Y-4.5644
X8.1186Y-4.5644
X8.2171Y-4.5644
X6.2311Y-3.3661
X6.2311Y-3.4661
X6.2311Y-3.5661
X6.2311Y-3.6661
X6.2311Y-3.7661
X6.2311Y-3.8661
X6.2311Y-3.9661
X6.2216Y-2.9003
X6.3201Y-2.9003
X6.4185Y-2.9003
X9.9386Y-2.2299
X9.9386Y-2.3299
X9.9386Y-2.4299
X9.9386Y-2.5299
X9.1069Y-2.3288
X9.1069Y-2.4272
X9.1069Y-2.5256
T5
X7.5352Y-2.9724
X7.6337Y-1.7913
X7.6337Y-2.9724
X7.7321Y-2.9724
X7.8305Y-1.7913
X7.8305Y-2.9724
X9.0843Y-1.8269
X9.0843Y-2.0041
X9.3402Y-1.8269
X9.3402Y-2.0041
X7.0904Y-2.9724
X7.1888Y-1.7913
X7.1888Y-2.9724
X7.2872Y-2.9724
X7.3856Y-1.7913
X7.3856Y-2.9724
X8.5928Y-2.7959
X8.5928Y-3.0519
X8.7699Y-2.7959
X8.7699Y-3.0519
X8.5928Y-3.5833
X8.5928Y-3.8393
X8.7699Y-3.5833
X8.7699Y-3.8393
X6.3827Y-4.2982
X6.3827Y-4.4754
X6.6386Y-4.2982
X6.6386Y-4.4754
X7.9801Y-2.9724
X8.0785Y-1.7913
X8.0785Y-2.9724
X8.177Y-2.9724
X8.2754Y-1.7913
X8.2754Y-2.9724
X6.1921Y-3.0373
X6.1921Y-3.2145
X6.448Y-3.0373
X6.448Y-3.2145
X8.5928Y-3.977
X8.5928Y-4.233
X8.7699Y-3.977
X8.7699Y-4.233
X7.7532Y-3.4639
X7.7532Y-3.7198
X7.9303Y-3.4639
X7.9303Y-3.7198
X6.6455Y-2.9724
X6.7439Y-1.7913
X6.7439Y-2.9724
X6.8423Y-2.9724
X6.9407Y-1.7913
X6.9407Y-2.9724
X8.5928Y-3.1896
X8.5928Y-3.4456
X8.7699Y-3.1896
X8.7699Y-3.4456
X6.4922Y-3.4639
X6.4922Y-3.7198
X6.6694Y-3.4639
X6.6694Y-3.7198
X8.8445Y-4.3812
X8.8445Y-4.6371
X9.0217Y-4.3812
X9.0217Y-4.6371
T6
X9.8165Y-3.839
X7.784Y-5.3978
X6.6147Y-5.3978
X9.9212Y-1.9159
X9.9212Y-5.3978
X7.784Y-5.0041
X9.1438Y-5.3885
X7.1994Y-5.0041
X6.3201Y-2.2352
X6.6147Y-5.0041
X8.3783Y-5.3799
X7.1994Y-5.3978
X9.9212Y-5.0041
T7
X9.4723Y-5.3978
X9.7991Y-5.3978
X7.3352Y-5.0041
X7.662Y-5.0041
X9.1438Y-4.9397
X9.1438Y-5.2665
X6.7505Y-5.0041
X7.0773Y-5.0041
X6.3201Y-1.7864
X6.3201Y-2.1132
X6.1659Y-5.0041
X6.4927Y-5.0041
X7.9295Y-5.3799
X8.2563Y-5.3799
X6.7505Y-5.3978
X7.0773Y-5.3978
X9.4723Y-5.0041
X9.7991Y-5.0041
X9.3676Y-3.839
X9.6944Y-3.839
X7.3352Y-5.3978
X7.662Y-5.3978
X6.1659Y-5.3978
X6.4927Y-5.3978
X9.4723Y-1.9159
X9.7991Y-1.9159
T8
X7.3258Y-4.0486
X7.3258Y-4.4896
T9
X9.172Y-3.5299
T0
M30
