M48
;DRILL file {KiCad (5.0.1-3-g963ef8bb5)} date Thursday, March 28, 2019 at 06:00:31 PM
;FORMAT={-:-/ absolute / inch / decimal}
FMAT,2
INCH,TZ
T1C0.0079
T2C0.0118
T3C0.0295
T4C0.0394
T5C0.0400
T6C0.0433
T7C0.0630
T8C0.0709
T9C0.0866
%
G90
G05
M72
T1
X4.0185Y-3.0472
X4.0274Y-3.4375
X4.0303Y-2.5512
X4.0303Y-2.6378
X4.0303Y-2.7165
X4.0303Y-2.9685
X4.0421Y-2.0039
X4.0421Y-2.2598
X4.0421Y-2.3898
X4.0421Y-5.5
X4.0461Y-2.1181
X4.0461Y-5.315
X4.0854Y-4.7244
X4.1091Y-3.3543
X4.114Y-4.436
X4.1169Y-2.5512
X4.1169Y-2.6378
X4.1169Y-2.7165
X4.1248Y-3.4961
X4.1259Y-4.4587
X4.1366Y-5.4134
X4.1504Y-4.19
X4.1504Y-4.3228
X4.1504Y-4.363
X4.172Y-2.6693
X4.172Y-3.5197
X4.1878Y-5.0394
X4.1927Y-2.7717
X4.2114Y-3.6929
X4.2114Y-3.9173
X4.2202Y-2.773
X4.2232Y-2.1142
X4.2232Y-2.2047
X4.2232Y-4.7795
X4.2262Y-3.5967
X4.235Y-3.4488
X4.2626Y-5.8189
X4.2636Y-2.9652
X4.2665Y-4.3937
X4.2744Y-4.1969
X4.2744Y-3.6915
X4.2796Y-2.9281
X4.2823Y-4.3622
X4.2823Y-4.9331
X4.2902Y-5.374
X4.298Y-4.3937
X4.3011Y-4.2222
X4.3031Y-2.8784
X4.3374Y-2.5394
X4.3453Y-2.9685
X4.3453Y-3.0236
X4.3453Y-4.2323
X4.3531Y-4.3937
X4.3531Y-5.126
X4.3571Y-4.1929
X4.361Y-4.0394
X4.365Y-3.5787
X4.3689Y-2.0472
X4.3689Y-4.8661
X4.3846Y-3.
X4.4004Y-5.0157
X4.4083Y-2.4528
X4.4161Y-1.9764
X4.4161Y-3.0945
X4.4306Y-3.1296
X4.4319Y-4.1969
X4.4476Y-2.0472
X4.4476Y-2.1732
X4.4482Y-3.0845
X4.4637Y-3.2782
X4.4752Y-2.3819
X4.487Y-2.0472
X4.487Y-2.1732
X4.487Y-3.5827
X4.487Y-4.0709
X4.4909Y-3.6929
X4.4949Y-2.9764
X4.5028Y-2.6772
X4.5185Y-2.2677
X4.5185Y-2.3071
X4.5185Y-3.7244
X4.5264Y-2.0472
X4.5264Y-2.1732
X4.5382Y-3.9094
X4.5421Y-3.6378
X4.5449Y-2.6587
X4.5461Y-3.7205
X4.5657Y-4.3937
X4.5736Y-3.5118
X4.5769Y-2.69
X4.5894Y-3.374
X4.5933Y-5.815
X4.5972Y-4.189
X4.6051Y-4.3937
X4.6051Y-4.9409
X4.6091Y-2.5946
X4.613Y-4.3622
X4.6169Y-3.8583
X4.6209Y-2.9843
X4.6366Y-3.4291
X4.6366Y-4.3937
X4.6406Y-3.1575
X4.6433Y-3.2119
X4.6482Y-3.0478
X4.6484Y-3.8543
X4.6527Y-3.073
X4.6602Y-4.3031
X4.6784Y-3.082
X4.6786Y-3.7877
X4.6842Y-3.6279
X4.6878Y-3.874
X4.6957Y-2.8661
X4.6957Y-2.9291
X4.7026Y-3.4109
X4.7035Y-4.063
X4.7154Y-4.4173
X4.7222Y-3.2496
X4.725Y-2.1768
X4.735Y-4.2559
X4.7366Y-3.6458
X4.739Y-3.1496
X4.7471Y-2.0939
X4.7508Y-4.8661
X4.7568Y-2.2531
X4.7626Y-3.7795
X4.7636Y-2.2099
X4.7668Y-2.121
X4.7705Y-3.5551
X4.7705Y-5.0394
X4.7714Y-3.5203
X4.7719Y-2.2963
X4.7759Y-2.6821
X4.7779Y-2.5551
X4.7783Y-2.0945
X4.7783Y-2.2362
X4.7783Y-3.7087
X4.789Y-3.9834
X4.793Y-2.4606
X4.7941Y-2.354
X4.7974Y-2.4998
X4.798Y-2.3147
X4.8115Y-4.022
X4.8142Y-1.9671
X4.8157Y-2.6812
X4.8177Y-3.5276
X4.8177Y-4.4803
X4.8177Y-4.5276
X4.8256Y-2.4567
X4.8335Y-3.0967
X4.838Y-3.6322
X4.8413Y-2.1811
X4.8413Y-3.2165
X4.8571Y-2.4724
X4.8571Y-3.0551
X4.861Y-4.7756
X4.8728Y-4.4567
X4.8728Y-4.5039
X4.8728Y-4.5512
X4.8756Y-2.6607
X4.8807Y-3.8583
X4.9012Y-2.4907
X4.9201Y-2.6457
X4.9201Y-5.0079
X4.924Y-3.0472
X4.925Y-2.4142
X4.925Y-2.4556
X4.9298Y-2.6967
X4.9313Y-2.6705
X4.9387Y-3.1556
X4.9398Y-3.6378
X4.9468Y-3.5748
X4.9492Y-2.6314
X4.9516Y-2.0079
X4.9516Y-2.315
X4.9533Y-1.9862
X4.9545Y-3.0963
X4.9557Y-3.2212
X4.9667Y-2.6819
X4.9673Y-2.0177
X4.975Y-2.4439
X4.9909Y-2.2047
X4.9934Y-2.1762
X4.9988Y-2.2884
X4.9988Y-2.6821
X4.9988Y-5.0079
X4.9989Y-2.1512
X4.9992Y-2.4211
X5.0004Y-2.6095
X5.0224Y-3.5354
X5.0224Y-3.9449
X5.0248Y-2.4221
X5.0266Y-2.1998
X5.0382Y-4.4646
X5.0382Y-5.811
X5.0449Y-3.0548
X5.0498Y-2.4065
X5.0539Y-2.6821
X5.0579Y-4.7756
X5.0618Y-3.8219
X5.063Y-2.1998
X5.0776Y-3.0669
X5.0776Y-3.8819
X5.0795Y-2.689
X5.0902Y-2.4065
X5.1032Y-3.0633
X5.1032Y-2.2004
X5.1081Y-2.7057
X5.1082Y-4.06
X5.1182Y-4.5115
X5.1248Y-3.8819
X5.1248Y-4.4331
X5.1277Y-3.6644
X5.1287Y-4.3392
X5.1292Y-2.4065
X5.1327Y-2.2047
X5.1327Y-2.7293
X5.1366Y-4.8622
X5.1406Y-4.622
X5.1524Y-3.6417
X5.1524Y-3.0502
X5.1671Y-3.2888
X5.1713Y-2.5482
X5.1795Y-3.2372
X5.1799Y-3.8819
X5.1886Y-2.0402
X5.2039Y-3.0453
X5.2054Y-3.301
X5.2193Y-2.0394
X5.2193Y-3.9213
X5.2232Y-2.3386
X5.2469Y-3.1378
X5.2587Y-2.3439
X5.2587Y-3.8593
X5.2608Y-3.9629
X5.2665Y-2.0079
X5.2665Y-3.5748
X5.2801Y-2.3652
X5.2884Y-3.075
X5.2902Y-4.9488
X5.2957Y-3.8219
X5.2976Y-2.3245
X5.298Y-2.2047
X5.3029Y-2.3536
X5.3059Y-3.5984
X5.3117Y-3.0856
X5.3131Y-2.3041
X5.3274Y-2.2069
X5.3374Y-5.0394
X5.3453Y-3.5197
X5.3453Y-3.0645
X5.3502Y-2.4203
X5.3502Y-2.4203
X5.3531Y-2.7402
X5.3675Y-3.0773
X5.3694Y-2.2804
X5.3708Y-3.0302
X5.3768Y-4.7717
X5.3797Y-2.8992
X5.3925Y-2.4409
X5.3925Y-3.1339
X5.3925Y-3.5197
X5.3925Y-3.5669
X5.3925Y-4.5039
X5.3925Y-5.5669
X5.3937Y-3.2384
X5.3965Y-2.7283
X5.3965Y-2.7992
X5.3965Y-5.8189
X5.4004Y-2.5906
X5.4004Y-2.8661
X5.4035Y-3.0351
X5.4042Y-3.0002
X5.4114Y-2.4203
X5.4122Y-4.252
X5.4201Y-3.6299
X5.424Y-3.2123
X5.4398Y-3.5197
X5.4398Y-3.5669
X5.4585Y-3.2943
X5.4711Y-3.0057
X5.4831Y-3.6299
X5.4831Y-4.8622
X5.4949Y-3.3307
X5.5028Y-4.9843
X5.5028Y-5.5669
X5.5106Y-3.6929
X5.5208Y-2.6768
X5.5224Y-3.1693
X5.5235Y-2.7183
X5.5359Y-2.3179
X5.5421Y-3.6339
X5.543Y-2.6348
X5.5461Y-2.6811
X5.5492Y-2.4675
X5.5516Y-2.2788
X5.5516Y-2.8693
X5.5579Y-5.0157
X5.558Y-2.17
X5.5736Y-3.0709
X5.5883Y-2.6644
X5.5918Y-2.1362
X5.5972Y-3.4252
X5.5976Y-2.9361
X5.6054Y-3.1017
X5.6141Y-2.7512
X5.6171Y-1.9286
X5.6238Y-2.2343
X5.6248Y-4.252
X5.6287Y-3.3386
X5.6366Y-2.748
X5.6398Y-2.8293
X5.6484Y-3.0984
X5.6681Y-2.0236
X5.676Y-2.3543
X5.676Y-2.3937
X5.6917Y-4.4567
X5.6917Y-4.5551
X5.6957Y-5.4528
X5.7085Y-3.4387
X5.7154Y-2.3543
X5.7154Y-2.3937
X5.7385Y-1.9679
X5.7429Y-4.9528
X5.7469Y-2.4203
X5.7469Y-3.5984
X5.7469Y-4.7323
X5.7483Y-2.1353
X5.7508Y-4.8622
X5.7517Y-2.7547
X5.7697Y-2.7722
X5.7744Y-5.811
X5.7825Y-2.7766
X5.7862Y-2.1339
X5.7862Y-2.4203
X5.7941Y-2.1732
X5.7941Y-2.4646
X5.799Y-3.31
X5.8057Y-3.4604
X5.8098Y-2.9134
X5.8138Y-3.2047
X5.8177Y-2.3228
X5.8177Y-2.6142
X5.8295Y-3.5748
X5.8335Y-2.4173
X5.836Y-2.9662
X5.8492Y-2.9134
X5.8571Y-2.3228
X5.8571Y-2.6142
X5.8603Y-2.9423
X5.8701Y-2.9353
X5.8728Y-2.8049
X5.8807Y-2.0236
X5.8807Y-2.2205
X5.8807Y-2.3622
X5.8807Y-2.4173
X5.8807Y-2.5039
X5.8807Y-2.6535
X5.8886Y-2.9134
X5.8965Y-2.3228
X5.8965Y-2.6142
X5.8969Y-2.6958
X5.9004Y-3.5394
X5.9043Y-2.4567
X5.9043Y-3.4724
X5.9201Y-5.4528
X5.9358Y-4.6142
X5.9634Y-3.9606
X5.9752Y-2.7165
X5.9988Y-3.4724
X6.0028Y-2.9606
X6.0067Y-2.315
X6.0067Y-2.3543
X6.0067Y-2.3937
X6.0146Y-2.2756
X6.0146Y-3.1102
X6.0224Y-2.6378
X6.0264Y-3.8858
X6.0303Y-2.6772
X6.0382Y-3.9724
X6.0539Y-2.2598
X6.0539Y-3.5197
X6.0596Y-3.3681
X6.0618Y-3.2008
X6.0639Y-2.1299
X6.0697Y-2.1732
X6.0697Y-2.6929
X6.0697Y-3.1102
X6.0933Y-3.5197
X6.0934Y-3.3681
X6.0948Y-2.9758
X6.1248Y-2.7874
X6.1302Y-3.3714
X6.1327Y-3.1102
X6.1327Y-3.5197
X6.1484Y-3.9331
X6.1583Y-3.7436
X6.1602Y-3.2008
X6.172Y-2.9606
X6.1785Y-4.008
X6.1799Y-2.4252
X6.1878Y-3.878
X6.2Y-2.5468
X6.2075Y-2.126
X6.2114Y-3.2992
X6.2154Y-5.811
X6.2587Y-2.811
X6.2587Y-2.8425
X6.2862Y-3.3307
X6.2902Y-3.1811
X6.302Y-3.9646
X6.3138Y-3.5945
X6.3138Y-5.4291
X6.3177Y-4.0394
X6.3256Y-3.748
X6.3488Y-2.2362
X6.3492Y-3.8031
X6.353Y-3.6537
X6.365Y-4.7244
X6.3689Y-3.874
X6.3728Y-2.1299
X6.3846Y-2.9567
X6.3846Y-4.189
X6.3846Y-4.4724
X6.3925Y-2.8661
X6.3965Y-2.6772
X6.4161Y-3.0079
X6.428Y-5.0551
X6.4358Y-2.8386
X6.4398Y-2.1024
X6.4398Y-2.2992
X6.4476Y-2.8701
X6.4516Y-3.0079
X6.4634Y-4.8504
X6.4988Y-2.9567
X6.55Y-2.3386
X6.5579Y-5.3268
X6.5657Y-3.685
X6.5657Y-5.2126
X6.5659Y-3.0433
X6.6091Y-4.8504
X6.6169Y-5.8071
X6.6209Y-2.315
X6.6287Y-2.9606
X6.6428Y-3.0405
X6.6445Y-5.2362
X6.6681Y-3.7717
X6.6878Y-5.0787
X6.6996Y-2.3622
X6.7154Y-3.0709
X6.7272Y-3.1102
X6.739Y-2.2677
X6.7823Y-3.4567
X6.7862Y-2.126
X6.7941Y-3.5276
X6.8256Y-2.8543
X6.8285Y-3.5276
X6.8285Y-3.6271
X6.8413Y-3.0157
X6.8443Y-3.7008
X6.865Y-2.1496
X6.865Y-4.0945
X6.8728Y-2.2283
X6.8768Y-2.1142
X6.8807Y-4.5591
X6.8856Y-3.9114
X6.9014Y-3.8819
X6.9043Y-3.0354
X6.9201Y-4.1732
X6.9254Y-3.7428
X6.928Y-3.3622
X6.9398Y-2.0787
X6.9398Y-4.9252
X6.9437Y-5.
X6.9516Y-4.6654
X6.9594Y-2.8622
X6.9594Y-4.5197
X6.9594Y-5.2283
X6.9673Y-4.7205
X7.0421Y-5.8071
X7.0461Y-2.9291
X7.0618Y-4.3937
X7.0776Y-4.8898
X7.0854Y-4.9606
X7.0946Y-5.0314
X7.1133Y-4.8046
X7.1169Y-3.252
X7.1287Y-2.2008
X7.1406Y-2.122
X7.1565Y-4.8108
X7.1642Y-3.5906
X7.1642Y-4.8898
X7.1681Y-5.0709
X7.175Y-3.6489
X7.1801Y-5.0059
X7.1957Y-3.5276
X7.1978Y-3.7794
X7.2035Y-2.1969
X7.2057Y-3.4329
X7.2114Y-5.122
X7.2862Y-5.1417
X7.298Y-3.7559
X7.3006Y-5.2516
X7.3059Y-4.9291
X7.3374Y-3.4803
X7.3374Y-4.811
X7.3374Y-4.8819
X7.3531Y-5.0157
X7.3689Y-3.5906
X7.3689Y-3.6486
X7.3768Y-4.5669
X7.3925Y-4.5906
X7.3933Y-5.0818
X7.4004Y-3.7323
X7.4161Y-5.131
X7.4201Y-5.811
X7.4555Y-4.811
X7.4555Y-4.8819
X7.4713Y-3.3858
X7.4713Y-3.5906
X7.4713Y-3.6486
X7.4713Y-3.8268
X7.4791Y-2.2441
X7.4791Y-3.748
X7.487Y-4.937
X7.5264Y-4.748
X7.5343Y-3.748
X7.5657Y-3.4803
X7.5972Y-3.6457
X7.5972Y-3.6929
X7.5972Y-3.748
X7.6043Y-4.9046
X7.6043Y-4.9046
X7.613Y-4.7165
X7.6233Y-4.8876
X7.6287Y-4.2756
X7.6287Y-4.748
X7.6366Y-5.
X7.6406Y-2.3622
X7.6445Y-3.4252
X7.6573Y-4.811
X7.663Y-3.6091
X7.6681Y-3.5512
X7.6839Y-2.9291
X7.6839Y-4.9921
X7.7311Y-4.7087
X7.7626Y-4.6772
X7.7941Y-3.4882
X7.7941Y-4.2795
X7.798Y-3.7008
X7.798Y-3.8819
X7.798Y-4.0827
X7.798Y-4.4724
X7.8374Y-4.7638
X7.8374Y-4.9803
X7.8531Y-1.9843
X7.8571Y-5.752
X7.861Y-2.2441
X7.861Y-2.3425
X7.861Y-5.4252
X7.865Y-2.4528
X5.7229Y-2.8324
X5.7229Y-2.862
X5.7229Y-2.8915
X6.0881Y-2.4224
X6.0881Y-2.4618
X6.0881Y-2.5011
X6.0881Y-2.5405
X6.0881Y-2.5799
X6.1338Y-2.5307
X6.1338Y-2.5625
X6.1551Y-2.4688
X6.1661Y-2.521
X6.1661Y-2.5466
X6.1661Y-2.5722
X5.7249Y-2.5322
X5.7249Y-2.5618
X5.7249Y-2.5913
X5.7249Y-2.2409
X5.7249Y-2.2704
X5.7249Y-2.2999
T2
X4.7626Y-2.7776
X4.7626Y-2.8366
X4.7626Y-2.8957
X4.7626Y-2.9547
X4.8138Y-2.7776
X4.8138Y-2.8366
X4.8138Y-2.8957
X4.8138Y-2.9547
X4.865Y-2.7776
X4.865Y-2.8366
X4.865Y-2.8957
X4.865Y-2.9547
X4.9161Y-2.7776
X4.9161Y-2.8366
X4.9161Y-2.8957
X4.9161Y-2.9547
X4.9673Y-2.7776
X4.9673Y-2.8366
X4.9673Y-2.8957
X4.9673Y-2.9547
X5.0185Y-2.7776
X5.0185Y-2.8366
X5.0185Y-2.8957
X5.0185Y-2.9547
X5.0697Y-2.7776
X5.0697Y-2.8366
X5.0697Y-2.8957
X5.0697Y-2.9547
X5.1209Y-2.7776
X5.1209Y-2.8366
X5.1209Y-2.8957
X5.1209Y-2.9547
X5.172Y-2.7776
X5.172Y-2.8366
X5.172Y-2.8957
X5.172Y-2.9547
T3
X4.0854Y-3.7047
X4.0854Y-3.7835
T4
X5.9572Y-4.777
X6.0557Y-4.777
X6.1541Y-4.777
X4.9675Y-4.3833
X4.9675Y-4.4817
X4.9675Y-4.5801
X5.5384Y-4.3833
X5.5384Y-4.5801
X6.5224Y-2.8543
X6.6209Y-2.8543
X6.7193Y-2.8543
X5.9572Y-5.3439
X6.0557Y-5.3439
X6.1541Y-5.3439
X4.1586Y-3.1129
X4.2571Y-3.1129
X4.3555Y-3.1129
X6.5145Y-5.6464
X6.613Y-5.6464
X6.7114Y-5.6464
X7.2633Y-4.2121
X7.3617Y-4.2121
X7.4602Y-4.2121
X7.2626Y-3.248
X7.361Y-3.248
X7.4594Y-3.248
X4.8012Y-3.2913
X4.9012Y-3.2913
X5.0012Y-3.2913
X5.1012Y-3.2913
T5
X7.1091Y-2.4488
X7.1091Y-2.5488
X7.2091Y-2.4488
X7.2091Y-2.5488
X7.3091Y-2.4488
X7.3091Y-2.5488
X7.4091Y-2.4488
X7.4091Y-2.5488
X7.5091Y-2.4488
X7.5091Y-2.5488
T6
X5.0274Y-3.185
X5.1258Y-2.0039
X5.1258Y-3.185
X5.2242Y-3.185
X5.3226Y-2.0039
X5.3226Y-3.185
X4.3197Y-4.5108
X4.3197Y-4.688
X4.5756Y-4.5108
X4.5756Y-4.688
X6.5298Y-3.6148
X6.5298Y-3.8707
X6.707Y-3.6148
X6.707Y-3.8707
X4.43Y-3.6765
X4.43Y-3.9324
X4.6072Y-3.6765
X4.6072Y-3.9324
X6.5298Y-4.4022
X6.5298Y-4.6581
X6.707Y-4.4022
X6.707Y-4.6581
X4.5825Y-3.185
X4.6809Y-2.0039
X4.6809Y-3.185
X4.7793Y-3.185
X4.8778Y-2.0039
X4.8778Y-3.185
X5.9171Y-3.185
X6.0155Y-2.0039
X6.0155Y-3.185
X6.114Y-3.185
X6.2124Y-2.0039
X6.2124Y-3.185
X5.6902Y-3.6765
X5.6902Y-3.9324
X5.8673Y-3.6765
X5.8673Y-3.9324
X6.7823Y-4.8064
X6.7823Y-5.0623
X6.9595Y-4.8064
X6.9595Y-5.0623
X5.4722Y-3.185
X5.5707Y-2.0039
X5.5707Y-3.185
X5.6691Y-3.185
X5.7675Y-2.0039
X5.7675Y-3.185
X4.1291Y-3.2499
X4.1291Y-3.4271
X4.385Y-3.2499
X4.385Y-3.4271
X6.5298Y-3.2211
X6.5298Y-3.477
X6.707Y-3.2211
X6.707Y-3.477
X7.0213Y-2.0395
X7.0213Y-2.2167
X7.2772Y-2.0395
X7.2772Y-2.2167
X6.5298Y-4.0085
X6.5298Y-4.2644
X6.707Y-4.0085
X6.707Y-4.2644
T7
X6.3197Y-5.6063
X5.1364Y-5.2167
X5.1364Y-5.6104
X7.8582Y-2.1285
X7.1563Y-5.6752
X5.721Y-5.2167
X5.721Y-5.6104
X4.5517Y-5.6104
X4.2571Y-2.4478
X7.8582Y-5.6104
X4.5517Y-5.2167
X7.8582Y-5.2167
X7.611Y-4.4488
T8
X7.4093Y-2.1285
X7.7361Y-2.1285
X7.1563Y-5.2264
X7.1563Y-5.5531
X5.2722Y-5.2167
X5.599Y-5.2167
X5.2722Y-5.6104
X5.599Y-5.6104
X4.1029Y-5.6104
X4.4297Y-5.6104
X4.2571Y-1.999
X4.2571Y-2.3258
X7.4093Y-5.6104
X7.7361Y-5.6104
X4.1029Y-5.2167
X4.4297Y-5.2167
X7.4093Y-5.2167
X7.7361Y-5.2167
X7.1622Y-4.4488
X7.489Y-4.4488
X5.8709Y-5.6063
X6.1976Y-5.6063
X4.6875Y-5.2167
X5.0143Y-5.2167
X4.6875Y-5.6104
X5.0143Y-5.6104
T9
X5.2628Y-4.2612
X5.2628Y-4.7022
T0
M30
