G04 #@! TF.GenerationSoftware,KiCad,Pcbnew,(5.0.1-3-g963ef8bb5)*
G04 #@! TF.CreationDate,2019-03-28T17:59:15-04:00*
G04 #@! TF.ProjectId,EuroSID,4575726F5349442E6B696361645F7063,rev?*
G04 #@! TF.SameCoordinates,Original*
G04 #@! TF.FileFunction,Legend,Top*
G04 #@! TF.FilePolarity,Positive*
%FSLAX46Y46*%
G04 Gerber Fmt 4.6, Leading zero omitted, Abs format (unit mm)*
G04 Created by KiCad (PCBNEW (5.0.1-3-g963ef8bb5)) date Thursday, March 28, 2019 at 05:59:15 PM*
%MOMM*%
%LPD*%
G01*
G04 APERTURE LIST*
%ADD10C,0.150000*%
%ADD11C,0.120000*%
%ADD12C,0.067500*%
G04 APERTURE END LIST*
D10*
G04 #@! TO.C,RV5*
X115064900Y-83680000D02*
X115064900Y-48120000D01*
X115064900Y-48120000D02*
X125224900Y-48120000D01*
X125224900Y-48120000D02*
X125224900Y-83680000D01*
X125224900Y-83680000D02*
X115064900Y-83680000D01*
X120144900Y-70980000D02*
X120144900Y-62090000D01*
X120144900Y-62090000D02*
X118874900Y-63360000D01*
X120144900Y-62090000D02*
X121414900Y-63360000D01*
X120144900Y-70980000D02*
X118874900Y-69710000D01*
X120144900Y-70980000D02*
X121414900Y-69710000D01*
G04 #@! TO.C,RV6*
X126364900Y-83680000D02*
X126364900Y-48120000D01*
X126364900Y-48120000D02*
X136524900Y-48120000D01*
X136524900Y-48120000D02*
X136524900Y-83680000D01*
X136524900Y-83680000D02*
X126364900Y-83680000D01*
X131444900Y-70980000D02*
X131444900Y-62090000D01*
X131444900Y-62090000D02*
X130174900Y-63360000D01*
X131444900Y-62090000D02*
X132714900Y-63360000D01*
X131444900Y-70980000D02*
X130174900Y-69710000D01*
X131444900Y-70980000D02*
X132714900Y-69710000D01*
G04 #@! TO.C,RV7*
X137664900Y-83680000D02*
X137664900Y-48120000D01*
X137664900Y-48120000D02*
X147824900Y-48120000D01*
X147824900Y-48120000D02*
X147824900Y-83680000D01*
X147824900Y-83680000D02*
X137664900Y-83680000D01*
X142744900Y-70980000D02*
X142744900Y-62090000D01*
X142744900Y-62090000D02*
X141474900Y-63360000D01*
X142744900Y-62090000D02*
X144014900Y-63360000D01*
X142744900Y-70980000D02*
X141474900Y-69710000D01*
X142744900Y-70980000D02*
X144014900Y-69710000D01*
G04 #@! TO.C,RV8*
X148964900Y-83680000D02*
X148964900Y-48120000D01*
X148964900Y-48120000D02*
X159124900Y-48120000D01*
X159124900Y-48120000D02*
X159124900Y-83680000D01*
X159124900Y-83680000D02*
X148964900Y-83680000D01*
X154044900Y-70980000D02*
X154044900Y-62090000D01*
X154044900Y-62090000D02*
X152774900Y-63360000D01*
X154044900Y-62090000D02*
X155314900Y-63360000D01*
X154044900Y-70980000D02*
X152774900Y-69710000D01*
X154044900Y-70980000D02*
X155314900Y-69710000D01*
D11*
G04 #@! TO.C,RV1*
X163200000Y-59380000D02*
X173140000Y-59380000D01*
X171540000Y-71620000D02*
X173140000Y-71620000D01*
X169041000Y-71620000D02*
X169800000Y-71620000D01*
X166541000Y-71620000D02*
X167300000Y-71620000D01*
X163200000Y-71620000D02*
X164799000Y-71620000D01*
X173140000Y-63245000D02*
X173140000Y-59380000D01*
X173140000Y-71620000D02*
X173140000Y-67755000D01*
X163200000Y-63245000D02*
X163200000Y-59380000D01*
X163200000Y-71620000D02*
X163200000Y-67755000D01*
G04 #@! TO.C,RV2*
X148843600Y-108215100D02*
X158783600Y-108215100D01*
X157183600Y-120455100D02*
X158783600Y-120455100D01*
X154684600Y-120455100D02*
X155443600Y-120455100D01*
X152184600Y-120455100D02*
X152943600Y-120455100D01*
X148843600Y-120455100D02*
X150442600Y-120455100D01*
X158783600Y-112080100D02*
X158783600Y-108215100D01*
X158783600Y-120455100D02*
X158783600Y-116590100D01*
X148843600Y-112080100D02*
X148843600Y-108215100D01*
X148843600Y-120455100D02*
X148843600Y-116590100D01*
G04 #@! TO.C,RV3*
X182018300Y-93866400D02*
X191958300Y-93866400D01*
X190358300Y-106106400D02*
X191958300Y-106106400D01*
X187859300Y-106106400D02*
X188618300Y-106106400D01*
X185359300Y-106106400D02*
X186118300Y-106106400D01*
X182018300Y-106106400D02*
X183617300Y-106106400D01*
X191958300Y-97731400D02*
X191958300Y-93866400D01*
X191958300Y-106106400D02*
X191958300Y-102241400D01*
X182018300Y-97731400D02*
X182018300Y-93866400D01*
X182018300Y-106106400D02*
X182018300Y-102241400D01*
G04 #@! TO.C,RV4*
X182000000Y-69380000D02*
X191940000Y-69380000D01*
X190340000Y-81620000D02*
X191940000Y-81620000D01*
X187841000Y-81620000D02*
X188600000Y-81620000D01*
X185341000Y-81620000D02*
X186100000Y-81620000D01*
X182000000Y-81620000D02*
X183599000Y-81620000D01*
X191940000Y-73245000D02*
X191940000Y-69380000D01*
X191940000Y-81620000D02*
X191940000Y-77755000D01*
X182000000Y-73245000D02*
X182000000Y-69380000D01*
X182000000Y-81620000D02*
X182000000Y-77755000D01*
G04 #@! TO.C,RV9*
X162999300Y-130298100D02*
X172939300Y-130298100D01*
X171339300Y-142538100D02*
X172939300Y-142538100D01*
X168840300Y-142538100D02*
X169599300Y-142538100D01*
X166340300Y-142538100D02*
X167099300Y-142538100D01*
X162999300Y-142538100D02*
X164598300Y-142538100D01*
X172939300Y-134163100D02*
X172939300Y-130298100D01*
X172939300Y-142538100D02*
X172939300Y-138673100D01*
X162999300Y-134163100D02*
X162999300Y-130298100D01*
X162999300Y-142538100D02*
X162999300Y-138673100D01*
G04 #@! TO.C,RV10*
X103159600Y-65946500D02*
X113099600Y-65946500D01*
X111499600Y-78186500D02*
X113099600Y-78186500D01*
X109000600Y-78186500D02*
X109759600Y-78186500D01*
X106500600Y-78186500D02*
X107259600Y-78186500D01*
X103159600Y-78186500D02*
X104758600Y-78186500D01*
X113099600Y-69811500D02*
X113099600Y-65946500D01*
X113099600Y-78186500D02*
X113099600Y-74321500D01*
X103159600Y-69811500D02*
X103159600Y-65946500D01*
X103159600Y-78186500D02*
X103159600Y-74321500D01*
G04 #@! TO.C,RV11*
X148843600Y-122615100D02*
X158783600Y-122615100D01*
X157183600Y-134855100D02*
X158783600Y-134855100D01*
X154684600Y-134855100D02*
X155443600Y-134855100D01*
X152184600Y-134855100D02*
X152943600Y-134855100D01*
X148843600Y-134855100D02*
X150442600Y-134855100D01*
X158783600Y-126480100D02*
X158783600Y-122615100D01*
X158783600Y-134855100D02*
X158783600Y-130990100D01*
X148843600Y-126480100D02*
X148843600Y-122615100D01*
X148843600Y-134855100D02*
X148843600Y-130990100D01*
G04 #@! TO.C,SW1*
X133175400Y-113835100D02*
X134175400Y-113835100D01*
X133675400Y-113335100D02*
X133675400Y-114335100D01*
X140375400Y-117535100D02*
X140375400Y-120135100D01*
X140375400Y-112535100D02*
X140375400Y-115135100D01*
X140375400Y-107535100D02*
X140375400Y-110135100D01*
X126475400Y-109735100D02*
X126175400Y-110035100D01*
X125875400Y-109735100D02*
X126475400Y-109735100D01*
X126175400Y-110035100D02*
X125875400Y-109735100D01*
X126975400Y-107535100D02*
X126975400Y-110035100D01*
X131775400Y-107535100D02*
X126975400Y-107535100D01*
X126975400Y-120135100D02*
X126975400Y-117335100D01*
X131875400Y-120135100D02*
X126975400Y-120135100D01*
X140375400Y-120135100D02*
X135475400Y-120135100D01*
X135475400Y-107535100D02*
X140375400Y-107535100D01*
X136675400Y-113835100D02*
G75*
G03X136675400Y-113835100I-3000000J0D01*
G01*
G04 #@! TO.C,J1*
X128483600Y-128003300D02*
X117983600Y-128003300D01*
X128483600Y-137003300D02*
X117983600Y-137003300D01*
X126572177Y-131207037D02*
G75*
G03X121088600Y-132503300I-2588577J-1296263D01*
G01*
X126572177Y-133799563D02*
G75*
G02X121088600Y-132503300I-2588577J1296263D01*
G01*
X117983600Y-137003300D02*
X117983600Y-133503300D01*
X117983600Y-131503300D02*
X117983600Y-128003300D01*
X128483600Y-137003300D02*
X128483600Y-133403300D01*
X128483600Y-131603300D02*
X128483600Y-128003300D01*
X125783600Y-132503300D02*
G75*
G03X125783600Y-132503300I-1800000J0D01*
G01*
X129263600Y-132083300D02*
X128663600Y-132083300D01*
X129263600Y-132923300D02*
X128663600Y-132923300D01*
X131643600Y-131103300D02*
X130543600Y-131103300D01*
X131643600Y-131103300D02*
X131643600Y-132423300D01*
G04 #@! TO.C,J2*
X143333600Y-128003300D02*
X132833600Y-128003300D01*
X143333600Y-137003300D02*
X132833600Y-137003300D01*
X141422177Y-131207037D02*
G75*
G03X135938600Y-132503300I-2588577J-1296263D01*
G01*
X141422177Y-133799563D02*
G75*
G02X135938600Y-132503300I-2588577J1296263D01*
G01*
X132833600Y-137003300D02*
X132833600Y-133503300D01*
X132833600Y-131503300D02*
X132833600Y-128003300D01*
X143333600Y-137003300D02*
X143333600Y-133403300D01*
X143333600Y-131603300D02*
X143333600Y-128003300D01*
X140633600Y-132503300D02*
G75*
G03X140633600Y-132503300I-1800000J0D01*
G01*
X144113600Y-132083300D02*
X143513600Y-132083300D01*
X144113600Y-132923300D02*
X143513600Y-132923300D01*
X146493600Y-131103300D02*
X145393600Y-131103300D01*
X146493600Y-131103300D02*
X146493600Y-132423300D01*
G04 #@! TO.C,J3*
X113633600Y-128003300D02*
X103133600Y-128003300D01*
X113633600Y-137003300D02*
X103133600Y-137003300D01*
X111722177Y-131207037D02*
G75*
G03X106238600Y-132503300I-2588577J-1296263D01*
G01*
X111722177Y-133799563D02*
G75*
G02X106238600Y-132503300I-2588577J1296263D01*
G01*
X103133600Y-137003300D02*
X103133600Y-133503300D01*
X103133600Y-131503300D02*
X103133600Y-128003300D01*
X113633600Y-137003300D02*
X113633600Y-133403300D01*
X113633600Y-131603300D02*
X113633600Y-128003300D01*
X110933600Y-132503300D02*
G75*
G03X110933600Y-132503300I-1800000J0D01*
G01*
X114413600Y-132083300D02*
X113813600Y-132083300D01*
X114413600Y-132923300D02*
X113813600Y-132923300D01*
X116793600Y-131103300D02*
X115693600Y-131103300D01*
X116793600Y-131103300D02*
X116793600Y-132423300D01*
G04 #@! TO.C,J4*
X197617400Y-138003300D02*
X187117400Y-138003300D01*
X197617400Y-147003300D02*
X187117400Y-147003300D01*
X195705977Y-141207037D02*
G75*
G03X190222400Y-142503300I-2588577J-1296263D01*
G01*
X195705977Y-143799563D02*
G75*
G02X190222400Y-142503300I-2588577J1296263D01*
G01*
X187117400Y-147003300D02*
X187117400Y-143503300D01*
X187117400Y-141503300D02*
X187117400Y-138003300D01*
X197617400Y-147003300D02*
X197617400Y-143403300D01*
X197617400Y-141603300D02*
X197617400Y-138003300D01*
X194917400Y-142503300D02*
G75*
G03X194917400Y-142503300I-1800000J0D01*
G01*
X198397400Y-142083300D02*
X197797400Y-142083300D01*
X198397400Y-142923300D02*
X197797400Y-142923300D01*
X200777400Y-141103300D02*
X199677400Y-141103300D01*
X200777400Y-141103300D02*
X200777400Y-142423300D01*
G04 #@! TO.C,J5*
X191340000Y-108500000D02*
X180840000Y-108500000D01*
X191340000Y-117500000D02*
X180840000Y-117500000D01*
X189428577Y-111703737D02*
G75*
G03X183945000Y-113000000I-2588577J-1296263D01*
G01*
X189428577Y-114296263D02*
G75*
G02X183945000Y-113000000I-2588577J1296263D01*
G01*
X180840000Y-117500000D02*
X180840000Y-114000000D01*
X180840000Y-112000000D02*
X180840000Y-108500000D01*
X191340000Y-117500000D02*
X191340000Y-113900000D01*
X191340000Y-112100000D02*
X191340000Y-108500000D01*
X188640000Y-113000000D02*
G75*
G03X188640000Y-113000000I-1800000J0D01*
G01*
X192120000Y-112580000D02*
X191520000Y-112580000D01*
X192120000Y-113420000D02*
X191520000Y-113420000D01*
X194500000Y-111600000D02*
X193400000Y-111600000D01*
X194500000Y-111600000D02*
X194500000Y-112920000D01*
G04 #@! TO.C,J6*
X197617400Y-49563000D02*
X187117400Y-49563000D01*
X197617400Y-58563000D02*
X187117400Y-58563000D01*
X195705977Y-52766737D02*
G75*
G03X190222400Y-54063000I-2588577J-1296263D01*
G01*
X195705977Y-55359263D02*
G75*
G02X190222400Y-54063000I-2588577J1296263D01*
G01*
X187117400Y-58563000D02*
X187117400Y-55063000D01*
X187117400Y-53063000D02*
X187117400Y-49563000D01*
X197617400Y-58563000D02*
X197617400Y-54963000D01*
X197617400Y-53163000D02*
X197617400Y-49563000D01*
X194917400Y-54063000D02*
G75*
G03X194917400Y-54063000I-1800000J0D01*
G01*
X198397400Y-53643000D02*
X197797400Y-53643000D01*
X198397400Y-54483000D02*
X197797400Y-54483000D01*
X200777400Y-52663000D02*
X199677400Y-52663000D01*
X200777400Y-52663000D02*
X200777400Y-53983000D01*
G04 #@! TO.C,J7*
X112629600Y-60195000D02*
X112629600Y-49695000D01*
X103629600Y-60195000D02*
X103629600Y-49695000D01*
X109425863Y-58283577D02*
G75*
G03X108129600Y-52800000I-1296263J2588577D01*
G01*
X106833337Y-58283577D02*
G75*
G02X108129600Y-52800000I1296263J2588577D01*
G01*
X103629600Y-49695000D02*
X107129600Y-49695000D01*
X109129600Y-49695000D02*
X112629600Y-49695000D01*
X103629600Y-60195000D02*
X107229600Y-60195000D01*
X109029600Y-60195000D02*
X112629600Y-60195000D01*
X109929600Y-55695000D02*
G75*
G03X109929600Y-55695000I-1800000J0D01*
G01*
X108549600Y-60975000D02*
X108549600Y-60375000D01*
X107709600Y-60975000D02*
X107709600Y-60375000D01*
X109529600Y-63355000D02*
X109529600Y-62255000D01*
X109529600Y-63355000D02*
X108209600Y-63355000D01*
G04 #@! TO.C,J8*
X197617400Y-128003300D02*
X187117400Y-128003300D01*
X197617400Y-137003300D02*
X187117400Y-137003300D01*
X195705977Y-131207037D02*
G75*
G03X190222400Y-132503300I-2588577J-1296263D01*
G01*
X195705977Y-133799563D02*
G75*
G02X190222400Y-132503300I-2588577J1296263D01*
G01*
X187117400Y-137003300D02*
X187117400Y-133503300D01*
X187117400Y-131503300D02*
X187117400Y-128003300D01*
X197617400Y-137003300D02*
X197617400Y-133403300D01*
X197617400Y-131603300D02*
X197617400Y-128003300D01*
X194917400Y-132503300D02*
G75*
G03X194917400Y-132503300I-1800000J0D01*
G01*
X198397400Y-132083300D02*
X197797400Y-132083300D01*
X198397400Y-132923300D02*
X197797400Y-132923300D01*
X200777400Y-131103300D02*
X199677400Y-131103300D01*
X200777400Y-131103300D02*
X200777400Y-132423300D01*
G04 #@! TO.C,J9*
X113633600Y-138003300D02*
X103133600Y-138003300D01*
X113633600Y-147003300D02*
X103133600Y-147003300D01*
X111722177Y-141207037D02*
G75*
G03X106238600Y-142503300I-2588577J-1296263D01*
G01*
X111722177Y-143799563D02*
G75*
G02X106238600Y-142503300I-2588577J1296263D01*
G01*
X103133600Y-147003300D02*
X103133600Y-143503300D01*
X103133600Y-141503300D02*
X103133600Y-138003300D01*
X113633600Y-147003300D02*
X113633600Y-143403300D01*
X113633600Y-141603300D02*
X113633600Y-138003300D01*
X110933600Y-142503300D02*
G75*
G03X110933600Y-142503300I-1800000J0D01*
G01*
X114413600Y-142083300D02*
X113813600Y-142083300D01*
X114413600Y-142923300D02*
X113813600Y-142923300D01*
X116793600Y-141103300D02*
X115693600Y-141103300D01*
X116793600Y-141103300D02*
X116793600Y-142423300D01*
G04 #@! TO.C,J10*
X128483600Y-138003300D02*
X117983600Y-138003300D01*
X128483600Y-147003300D02*
X117983600Y-147003300D01*
X126572177Y-141207037D02*
G75*
G03X121088600Y-142503300I-2588577J-1296263D01*
G01*
X126572177Y-143799563D02*
G75*
G02X121088600Y-142503300I-2588577J1296263D01*
G01*
X117983600Y-147003300D02*
X117983600Y-143503300D01*
X117983600Y-141503300D02*
X117983600Y-138003300D01*
X128483600Y-147003300D02*
X128483600Y-143403300D01*
X128483600Y-141603300D02*
X128483600Y-138003300D01*
X125783600Y-142503300D02*
G75*
G03X125783600Y-142503300I-1800000J0D01*
G01*
X129263600Y-142083300D02*
X128663600Y-142083300D01*
X129263600Y-142923300D02*
X128663600Y-142923300D01*
X131643600Y-141103300D02*
X130543600Y-141103300D01*
X131643600Y-141103300D02*
X131643600Y-142423300D01*
G04 #@! TO.C,J11*
X143333600Y-138003300D02*
X132833600Y-138003300D01*
X143333600Y-147003300D02*
X132833600Y-147003300D01*
X141422177Y-141207037D02*
G75*
G03X135938600Y-142503300I-2588577J-1296263D01*
G01*
X141422177Y-143799563D02*
G75*
G02X135938600Y-142503300I-2588577J1296263D01*
G01*
X132833600Y-147003300D02*
X132833600Y-143503300D01*
X132833600Y-141503300D02*
X132833600Y-138003300D01*
X143333600Y-147003300D02*
X143333600Y-143403300D01*
X143333600Y-141603300D02*
X143333600Y-138003300D01*
X140633600Y-142503300D02*
G75*
G03X140633600Y-142503300I-1800000J0D01*
G01*
X144113600Y-142083300D02*
X143513600Y-142083300D01*
X144113600Y-142923300D02*
X143513600Y-142923300D01*
X146493600Y-141103300D02*
X145393600Y-141103300D01*
X146493600Y-141103300D02*
X146493600Y-142423300D01*
G04 #@! TO.C,J12*
X158540000Y-137900000D02*
X148040000Y-137900000D01*
X158540000Y-146900000D02*
X148040000Y-146900000D01*
X156628577Y-141103737D02*
G75*
G03X151145000Y-142400000I-2588577J-1296263D01*
G01*
X156628577Y-143696263D02*
G75*
G02X151145000Y-142400000I-2588577J1296263D01*
G01*
X148040000Y-146900000D02*
X148040000Y-143400000D01*
X148040000Y-141400000D02*
X148040000Y-137900000D01*
X158540000Y-146900000D02*
X158540000Y-143300000D01*
X158540000Y-141500000D02*
X158540000Y-137900000D01*
X155840000Y-142400000D02*
G75*
G03X155840000Y-142400000I-1800000J0D01*
G01*
X159320000Y-141980000D02*
X158720000Y-141980000D01*
X159320000Y-142820000D02*
X158720000Y-142820000D01*
X161700000Y-141000000D02*
X160600000Y-141000000D01*
X161700000Y-141000000D02*
X161700000Y-142320000D01*
G04 #@! TO.C,J13*
X186270000Y-142170000D02*
X186270000Y-131670000D01*
X177270000Y-142170000D02*
X177270000Y-131670000D01*
X183066263Y-140258577D02*
G75*
G03X181770000Y-134775000I-1296263J2588577D01*
G01*
X180473737Y-140258577D02*
G75*
G02X181770000Y-134775000I1296263J2588577D01*
G01*
X177270000Y-131670000D02*
X180770000Y-131670000D01*
X182770000Y-131670000D02*
X186270000Y-131670000D01*
X177270000Y-142170000D02*
X180870000Y-142170000D01*
X182670000Y-142170000D02*
X186270000Y-142170000D01*
X183570000Y-137670000D02*
G75*
G03X183570000Y-137670000I-1800000J0D01*
G01*
X182190000Y-142950000D02*
X182190000Y-142350000D01*
X181350000Y-142950000D02*
X181350000Y-142350000D01*
X183170000Y-145330000D02*
X183170000Y-144230000D01*
X183170000Y-145330000D02*
X181850000Y-145330000D01*
G04 #@! TO.C,C17*
X129219721Y-79710000D02*
X129545279Y-79710000D01*
X129219721Y-78690000D02*
X129545279Y-78690000D01*
G04 #@! TO.C,SW2*
X116470600Y-117575100D02*
X116470600Y-116075100D01*
X115220600Y-113575100D02*
X110720600Y-113575100D01*
X109470600Y-116075100D02*
X109470600Y-117575100D01*
X110720600Y-120075100D02*
X115220600Y-120075100D01*
G04 #@! TO.C,SW3*
X168856600Y-81567000D02*
X167356600Y-81567000D01*
X164856600Y-82817000D02*
X164856600Y-87317000D01*
X167356600Y-88567000D02*
X168856600Y-88567000D01*
X171356600Y-87317000D02*
X171356600Y-82817000D01*
G04 #@! TO.C,SW5*
X114022300Y-100133700D02*
X115522300Y-100133700D01*
X118022300Y-98883700D02*
X118022300Y-94383700D01*
X115522300Y-93133700D02*
X114022300Y-93133700D01*
X111522300Y-94383700D02*
X111522300Y-98883700D01*
G04 #@! TO.C,SW8*
X147530600Y-93133700D02*
X146030600Y-93133700D01*
X143530600Y-94383700D02*
X143530600Y-98883700D01*
X146030600Y-100133700D02*
X147530600Y-100133700D01*
X150030600Y-98883700D02*
X150030600Y-94383700D01*
G04 #@! TO.C,SW9*
X168856600Y-101567000D02*
X167356600Y-101567000D01*
X164856600Y-102817000D02*
X164856600Y-107317000D01*
X167356600Y-108567000D02*
X168856600Y-108567000D01*
X171356600Y-107317000D02*
X171356600Y-102817000D01*
G04 #@! TO.C,SW10*
X111629600Y-85547700D02*
X111629600Y-84047700D01*
X110379600Y-81547700D02*
X105879600Y-81547700D01*
X104629600Y-84047700D02*
X104629600Y-85547700D01*
X105879600Y-88047700D02*
X110379600Y-88047700D01*
G04 #@! TO.C,SW6*
X168856600Y-91567000D02*
X167356600Y-91567000D01*
X164856600Y-92817000D02*
X164856600Y-97317000D01*
X167356600Y-98567000D02*
X168856600Y-98567000D01*
X171356600Y-97317000D02*
X171356600Y-92817000D01*
G04 #@! TO.C,SW13*
X185090800Y-54803000D02*
X185090800Y-53303000D01*
X183840800Y-50803000D02*
X179340800Y-50803000D01*
X178090800Y-53303000D02*
X178090800Y-54803000D01*
X179340800Y-57303000D02*
X183840800Y-57303000D01*
G04 #@! TO.C,SW11*
X173770500Y-128831500D02*
X175270500Y-128831500D01*
X177770500Y-127581500D02*
X177770500Y-123081500D01*
X175270500Y-121831500D02*
X173770500Y-121831500D01*
X171270500Y-123081500D02*
X171270500Y-127581500D01*
G04 #@! TO.C,SW12*
X168856600Y-111567000D02*
X167356600Y-111567000D01*
X164856600Y-112817000D02*
X164856600Y-117317000D01*
X167356600Y-118567000D02*
X168856600Y-118567000D01*
X171356600Y-117317000D02*
X171356600Y-112817000D01*
G04 #@! TO.C,D1*
X120277300Y-97468700D02*
X122562300Y-97468700D01*
X120277300Y-95998700D02*
X120277300Y-97468700D01*
X122562300Y-95998700D02*
X120277300Y-95998700D01*
G04 #@! TO.C,D2*
X173631600Y-95802000D02*
X175916600Y-95802000D01*
X173631600Y-94332000D02*
X173631600Y-95802000D01*
X175916600Y-94332000D02*
X173631600Y-94332000D01*
G04 #@! TO.C,D3*
X192025500Y-126066500D02*
X194310500Y-126066500D01*
X192025500Y-124596500D02*
X192025500Y-126066500D01*
X194310500Y-124596500D02*
X192025500Y-124596500D01*
G04 #@! TO.C,D4*
X163159600Y-52548000D02*
X165444600Y-52548000D01*
X163159600Y-51078000D02*
X163159600Y-52548000D01*
X165444600Y-51078000D02*
X163159600Y-51078000D01*
G04 #@! TO.C,D6*
X128562300Y-95998700D02*
X126277300Y-95998700D01*
X126277300Y-95998700D02*
X126277300Y-97468700D01*
X126277300Y-97468700D02*
X128562300Y-97468700D01*
G04 #@! TO.C,D8*
X175916600Y-104332000D02*
X173631600Y-104332000D01*
X173631600Y-104332000D02*
X173631600Y-105802000D01*
X173631600Y-105802000D02*
X175916600Y-105802000D01*
G04 #@! TO.C,D9*
X188310500Y-124596500D02*
X186025500Y-124596500D01*
X186025500Y-124596500D02*
X186025500Y-126066500D01*
X186025500Y-126066500D02*
X188310500Y-126066500D01*
G04 #@! TO.C,D10*
X171444600Y-51078000D02*
X169159600Y-51078000D01*
X169159600Y-51078000D02*
X169159600Y-52548000D01*
X169159600Y-52548000D02*
X171444600Y-52548000D01*
G04 #@! TO.C,D12*
X132277300Y-97468700D02*
X134562300Y-97468700D01*
X132277300Y-95998700D02*
X132277300Y-97468700D01*
X134562300Y-95998700D02*
X132277300Y-95998700D01*
G04 #@! TO.C,D14*
X173631600Y-115802000D02*
X175916600Y-115802000D01*
X173631600Y-114332000D02*
X173631600Y-115802000D01*
X175916600Y-114332000D02*
X173631600Y-114332000D01*
G04 #@! TO.C,D15*
X108485600Y-110174500D02*
X110770600Y-110174500D01*
X108485600Y-108704500D02*
X108485600Y-110174500D01*
X110770600Y-108704500D02*
X108485600Y-108704500D01*
G04 #@! TO.C,D16*
X163159600Y-57048000D02*
X165444600Y-57048000D01*
X163159600Y-55578000D02*
X163159600Y-57048000D01*
X165444600Y-55578000D02*
X163159600Y-55578000D01*
G04 #@! TO.C,D18*
X175916600Y-84332000D02*
X173631600Y-84332000D01*
X173631600Y-84332000D02*
X173631600Y-85802000D01*
X173631600Y-85802000D02*
X175916600Y-85802000D01*
G04 #@! TO.C,D19*
X182310500Y-124596500D02*
X180025500Y-124596500D01*
X180025500Y-124596500D02*
X180025500Y-126066500D01*
X180025500Y-126066500D02*
X182310500Y-126066500D01*
G04 #@! TO.C,D20*
X116770600Y-108704500D02*
X114485600Y-108704500D01*
X114485600Y-108704500D02*
X114485600Y-110174500D01*
X114485600Y-110174500D02*
X116770600Y-110174500D01*
G04 #@! TO.C,D21*
X171444600Y-55578000D02*
X169159600Y-55578000D01*
X169159600Y-55578000D02*
X169159600Y-57048000D01*
X169159600Y-57048000D02*
X171444600Y-57048000D01*
G04 #@! TO.C,D23*
X155370600Y-95873700D02*
X154440600Y-95873700D01*
X152210600Y-95873700D02*
X153140600Y-95873700D01*
X152210600Y-95873700D02*
X152210600Y-98033700D01*
X155370600Y-95873700D02*
X155370600Y-97333700D01*
G04 #@! TO.C,RV5*
D12*
X119101090Y-66197619D02*
X118862995Y-66364285D01*
X119101090Y-66483333D02*
X118601090Y-66483333D01*
X118601090Y-66292857D01*
X118624900Y-66245238D01*
X118648709Y-66221428D01*
X118696328Y-66197619D01*
X118767757Y-66197619D01*
X118815376Y-66221428D01*
X118839185Y-66245238D01*
X118862995Y-66292857D01*
X118862995Y-66483333D01*
X118601090Y-66054761D02*
X119101090Y-65888095D01*
X118601090Y-65721428D01*
X118601090Y-65316666D02*
X118601090Y-65554761D01*
X118839185Y-65578571D01*
X118815376Y-65554761D01*
X118791566Y-65507142D01*
X118791566Y-65388095D01*
X118815376Y-65340476D01*
X118839185Y-65316666D01*
X118886804Y-65292857D01*
X119005852Y-65292857D01*
X119053471Y-65316666D01*
X119077280Y-65340476D01*
X119101090Y-65388095D01*
X119101090Y-65507142D01*
X119077280Y-65554761D01*
X119053471Y-65578571D01*
G04 #@! TO.C,RV6*
X130401090Y-66197619D02*
X130162995Y-66364285D01*
X130401090Y-66483333D02*
X129901090Y-66483333D01*
X129901090Y-66292857D01*
X129924900Y-66245238D01*
X129948709Y-66221428D01*
X129996328Y-66197619D01*
X130067757Y-66197619D01*
X130115376Y-66221428D01*
X130139185Y-66245238D01*
X130162995Y-66292857D01*
X130162995Y-66483333D01*
X129901090Y-66054761D02*
X130401090Y-65888095D01*
X129901090Y-65721428D01*
X129901090Y-65340476D02*
X129901090Y-65435714D01*
X129924900Y-65483333D01*
X129948709Y-65507142D01*
X130020138Y-65554761D01*
X130115376Y-65578571D01*
X130305852Y-65578571D01*
X130353471Y-65554761D01*
X130377280Y-65530952D01*
X130401090Y-65483333D01*
X130401090Y-65388095D01*
X130377280Y-65340476D01*
X130353471Y-65316666D01*
X130305852Y-65292857D01*
X130186804Y-65292857D01*
X130139185Y-65316666D01*
X130115376Y-65340476D01*
X130091566Y-65388095D01*
X130091566Y-65483333D01*
X130115376Y-65530952D01*
X130139185Y-65554761D01*
X130186804Y-65578571D01*
G04 #@! TO.C,RV7*
X141701090Y-66197619D02*
X141462995Y-66364285D01*
X141701090Y-66483333D02*
X141201090Y-66483333D01*
X141201090Y-66292857D01*
X141224900Y-66245238D01*
X141248709Y-66221428D01*
X141296328Y-66197619D01*
X141367757Y-66197619D01*
X141415376Y-66221428D01*
X141439185Y-66245238D01*
X141462995Y-66292857D01*
X141462995Y-66483333D01*
X141201090Y-66054761D02*
X141701090Y-65888095D01*
X141201090Y-65721428D01*
X141201090Y-65602380D02*
X141201090Y-65269047D01*
X141701090Y-65483333D01*
G04 #@! TO.C,RV8*
X153001090Y-66197619D02*
X152762995Y-66364285D01*
X153001090Y-66483333D02*
X152501090Y-66483333D01*
X152501090Y-66292857D01*
X152524900Y-66245238D01*
X152548709Y-66221428D01*
X152596328Y-66197619D01*
X152667757Y-66197619D01*
X152715376Y-66221428D01*
X152739185Y-66245238D01*
X152762995Y-66292857D01*
X152762995Y-66483333D01*
X152501090Y-66054761D02*
X153001090Y-65888095D01*
X152501090Y-65721428D01*
X152715376Y-65483333D02*
X152691566Y-65530952D01*
X152667757Y-65554761D01*
X152620138Y-65578571D01*
X152596328Y-65578571D01*
X152548709Y-65554761D01*
X152524900Y-65530952D01*
X152501090Y-65483333D01*
X152501090Y-65388095D01*
X152524900Y-65340476D01*
X152548709Y-65316666D01*
X152596328Y-65292857D01*
X152620138Y-65292857D01*
X152667757Y-65316666D01*
X152691566Y-65340476D01*
X152715376Y-65388095D01*
X152715376Y-65483333D01*
X152739185Y-65530952D01*
X152762995Y-65554761D01*
X152810614Y-65578571D01*
X152905852Y-65578571D01*
X152953471Y-65554761D01*
X152977280Y-65530952D01*
X153001090Y-65483333D01*
X153001090Y-65388095D01*
X152977280Y-65340476D01*
X152953471Y-65316666D01*
X152905852Y-65292857D01*
X152810614Y-65292857D01*
X152762995Y-65316666D01*
X152739185Y-65340476D01*
X152715376Y-65388095D01*
G04 #@! TO.C,RV1*
X168146890Y-65232719D02*
X167908795Y-65399385D01*
X168146890Y-65518433D02*
X167646890Y-65518433D01*
X167646890Y-65327957D01*
X167670700Y-65280338D01*
X167694509Y-65256528D01*
X167742128Y-65232719D01*
X167813557Y-65232719D01*
X167861176Y-65256528D01*
X167884985Y-65280338D01*
X167908795Y-65327957D01*
X167908795Y-65518433D01*
X167646890Y-65089861D02*
X168146890Y-64923195D01*
X167646890Y-64756528D01*
X168146890Y-64327957D02*
X168146890Y-64613671D01*
X168146890Y-64470814D02*
X167646890Y-64470814D01*
X167718319Y-64518433D01*
X167765938Y-64566052D01*
X167789747Y-64613671D01*
G04 #@! TO.C,RV2*
X154136190Y-114197619D02*
X153898095Y-114364285D01*
X154136190Y-114483333D02*
X153636190Y-114483333D01*
X153636190Y-114292857D01*
X153660000Y-114245238D01*
X153683809Y-114221428D01*
X153731428Y-114197619D01*
X153802857Y-114197619D01*
X153850476Y-114221428D01*
X153874285Y-114245238D01*
X153898095Y-114292857D01*
X153898095Y-114483333D01*
X153636190Y-114054761D02*
X154136190Y-113888095D01*
X153636190Y-113721428D01*
X153683809Y-113578571D02*
X153660000Y-113554761D01*
X153636190Y-113507142D01*
X153636190Y-113388095D01*
X153660000Y-113340476D01*
X153683809Y-113316666D01*
X153731428Y-113292857D01*
X153779047Y-113292857D01*
X153850476Y-113316666D01*
X154136190Y-113602380D01*
X154136190Y-113292857D01*
G04 #@! TO.C,RV3*
X187006190Y-99957619D02*
X186768095Y-100124285D01*
X187006190Y-100243333D02*
X186506190Y-100243333D01*
X186506190Y-100052857D01*
X186530000Y-100005238D01*
X186553809Y-99981428D01*
X186601428Y-99957619D01*
X186672857Y-99957619D01*
X186720476Y-99981428D01*
X186744285Y-100005238D01*
X186768095Y-100052857D01*
X186768095Y-100243333D01*
X186506190Y-99814761D02*
X187006190Y-99648095D01*
X186506190Y-99481428D01*
X186506190Y-99362380D02*
X186506190Y-99052857D01*
X186696666Y-99219523D01*
X186696666Y-99148095D01*
X186720476Y-99100476D01*
X186744285Y-99076666D01*
X186791904Y-99052857D01*
X186910952Y-99052857D01*
X186958571Y-99076666D01*
X186982380Y-99100476D01*
X187006190Y-99148095D01*
X187006190Y-99290952D01*
X186982380Y-99338571D01*
X186958571Y-99362380D01*
G04 #@! TO.C,RV4*
X187437890Y-75314619D02*
X187199795Y-75481285D01*
X187437890Y-75600333D02*
X186937890Y-75600333D01*
X186937890Y-75409857D01*
X186961700Y-75362238D01*
X186985509Y-75338428D01*
X187033128Y-75314619D01*
X187104557Y-75314619D01*
X187152176Y-75338428D01*
X187175985Y-75362238D01*
X187199795Y-75409857D01*
X187199795Y-75600333D01*
X186937890Y-75171761D02*
X187437890Y-75005095D01*
X186937890Y-74838428D01*
X187104557Y-74457476D02*
X187437890Y-74457476D01*
X186914080Y-74576523D02*
X187271223Y-74695571D01*
X187271223Y-74386047D01*
G04 #@! TO.C,RV9*
X168246190Y-136267619D02*
X168008095Y-136434285D01*
X168246190Y-136553333D02*
X167746190Y-136553333D01*
X167746190Y-136362857D01*
X167770000Y-136315238D01*
X167793809Y-136291428D01*
X167841428Y-136267619D01*
X167912857Y-136267619D01*
X167960476Y-136291428D01*
X167984285Y-136315238D01*
X168008095Y-136362857D01*
X168008095Y-136553333D01*
X167746190Y-136124761D02*
X168246190Y-135958095D01*
X167746190Y-135791428D01*
X168246190Y-135600952D02*
X168246190Y-135505714D01*
X168222380Y-135458095D01*
X168198571Y-135434285D01*
X168127142Y-135386666D01*
X168031904Y-135362857D01*
X167841428Y-135362857D01*
X167793809Y-135386666D01*
X167770000Y-135410476D01*
X167746190Y-135458095D01*
X167746190Y-135553333D01*
X167770000Y-135600952D01*
X167793809Y-135624761D01*
X167841428Y-135648571D01*
X167960476Y-135648571D01*
X168008095Y-135624761D01*
X168031904Y-135600952D01*
X168055714Y-135553333D01*
X168055714Y-135458095D01*
X168031904Y-135410476D01*
X168008095Y-135386666D01*
X167960476Y-135362857D01*
G04 #@! TO.C,RV10*
X108236190Y-72175714D02*
X107998095Y-72342380D01*
X108236190Y-72461428D02*
X107736190Y-72461428D01*
X107736190Y-72270952D01*
X107760000Y-72223333D01*
X107783809Y-72199523D01*
X107831428Y-72175714D01*
X107902857Y-72175714D01*
X107950476Y-72199523D01*
X107974285Y-72223333D01*
X107998095Y-72270952D01*
X107998095Y-72461428D01*
X107736190Y-72032857D02*
X108236190Y-71866190D01*
X107736190Y-71699523D01*
X108236190Y-71270952D02*
X108236190Y-71556666D01*
X108236190Y-71413809D02*
X107736190Y-71413809D01*
X107807619Y-71461428D01*
X107855238Y-71509047D01*
X107879047Y-71556666D01*
X107736190Y-70961428D02*
X107736190Y-70913809D01*
X107760000Y-70866190D01*
X107783809Y-70842380D01*
X107831428Y-70818571D01*
X107926666Y-70794761D01*
X108045714Y-70794761D01*
X108140952Y-70818571D01*
X108188571Y-70842380D01*
X108212380Y-70866190D01*
X108236190Y-70913809D01*
X108236190Y-70961428D01*
X108212380Y-71009047D01*
X108188571Y-71032857D01*
X108140952Y-71056666D01*
X108045714Y-71080476D01*
X107926666Y-71080476D01*
X107831428Y-71056666D01*
X107783809Y-71032857D01*
X107760000Y-71009047D01*
X107736190Y-70961428D01*
G04 #@! TO.C,RV11*
X154106190Y-128725714D02*
X153868095Y-128892380D01*
X154106190Y-129011428D02*
X153606190Y-129011428D01*
X153606190Y-128820952D01*
X153630000Y-128773333D01*
X153653809Y-128749523D01*
X153701428Y-128725714D01*
X153772857Y-128725714D01*
X153820476Y-128749523D01*
X153844285Y-128773333D01*
X153868095Y-128820952D01*
X153868095Y-129011428D01*
X153606190Y-128582857D02*
X154106190Y-128416190D01*
X153606190Y-128249523D01*
X154106190Y-127820952D02*
X154106190Y-128106666D01*
X154106190Y-127963809D02*
X153606190Y-127963809D01*
X153677619Y-128011428D01*
X153725238Y-128059047D01*
X153749047Y-128106666D01*
X154106190Y-127344761D02*
X154106190Y-127630476D01*
X154106190Y-127487619D02*
X153606190Y-127487619D01*
X153677619Y-127535238D01*
X153725238Y-127582857D01*
X153749047Y-127630476D01*
G04 #@! TO.C,SW1*
X133293333Y-113682380D02*
X133364761Y-113706190D01*
X133483809Y-113706190D01*
X133531428Y-113682380D01*
X133555238Y-113658571D01*
X133579047Y-113610952D01*
X133579047Y-113563333D01*
X133555238Y-113515714D01*
X133531428Y-113491904D01*
X133483809Y-113468095D01*
X133388571Y-113444285D01*
X133340952Y-113420476D01*
X133317142Y-113396666D01*
X133293333Y-113349047D01*
X133293333Y-113301428D01*
X133317142Y-113253809D01*
X133340952Y-113230000D01*
X133388571Y-113206190D01*
X133507619Y-113206190D01*
X133579047Y-113230000D01*
X133745714Y-113206190D02*
X133864761Y-113706190D01*
X133960000Y-113349047D01*
X134055238Y-113706190D01*
X134174285Y-113206190D01*
X134626666Y-113706190D02*
X134340952Y-113706190D01*
X134483809Y-113706190D02*
X134483809Y-113206190D01*
X134436190Y-113277619D01*
X134388571Y-113325238D01*
X134340952Y-113349047D01*
G04 #@! TO.C,J1*
X123806190Y-132456666D02*
X124163333Y-132456666D01*
X124234761Y-132480476D01*
X124282380Y-132528095D01*
X124306190Y-132599523D01*
X124306190Y-132647142D01*
X124306190Y-131956666D02*
X124306190Y-132242380D01*
X124306190Y-132099523D02*
X123806190Y-132099523D01*
X123877619Y-132147142D01*
X123925238Y-132194761D01*
X123949047Y-132242380D01*
G04 #@! TO.C,J2*
X138626190Y-132606666D02*
X138983333Y-132606666D01*
X139054761Y-132630476D01*
X139102380Y-132678095D01*
X139126190Y-132749523D01*
X139126190Y-132797142D01*
X138673809Y-132392380D02*
X138650000Y-132368571D01*
X138626190Y-132320952D01*
X138626190Y-132201904D01*
X138650000Y-132154285D01*
X138673809Y-132130476D01*
X138721428Y-132106666D01*
X138769047Y-132106666D01*
X138840476Y-132130476D01*
X139126190Y-132416190D01*
X139126190Y-132106666D01*
G04 #@! TO.C,J3*
X108886190Y-132456666D02*
X109243333Y-132456666D01*
X109314761Y-132480476D01*
X109362380Y-132528095D01*
X109386190Y-132599523D01*
X109386190Y-132647142D01*
X108886190Y-132266190D02*
X108886190Y-131956666D01*
X109076666Y-132123333D01*
X109076666Y-132051904D01*
X109100476Y-132004285D01*
X109124285Y-131980476D01*
X109171904Y-131956666D01*
X109290952Y-131956666D01*
X109338571Y-131980476D01*
X109362380Y-132004285D01*
X109386190Y-132051904D01*
X109386190Y-132194761D01*
X109362380Y-132242380D01*
X109338571Y-132266190D01*
G04 #@! TO.C,J4*
X192746190Y-142266666D02*
X193103333Y-142266666D01*
X193174761Y-142290476D01*
X193222380Y-142338095D01*
X193246190Y-142409523D01*
X193246190Y-142457142D01*
X192912857Y-141814285D02*
X193246190Y-141814285D01*
X192722380Y-141933333D02*
X193079523Y-142052380D01*
X193079523Y-141742857D01*
G04 #@! TO.C,J5*
X186527890Y-113115266D02*
X186885033Y-113115266D01*
X186956461Y-113139076D01*
X187004080Y-113186695D01*
X187027890Y-113258123D01*
X187027890Y-113305742D01*
X186527890Y-112639076D02*
X186527890Y-112877171D01*
X186765985Y-112900980D01*
X186742176Y-112877171D01*
X186718366Y-112829552D01*
X186718366Y-112710504D01*
X186742176Y-112662885D01*
X186765985Y-112639076D01*
X186813604Y-112615266D01*
X186932652Y-112615266D01*
X186980271Y-112639076D01*
X187004080Y-112662885D01*
X187027890Y-112710504D01*
X187027890Y-112829552D01*
X187004080Y-112877171D01*
X186980271Y-112900980D01*
G04 #@! TO.C,J6*
X192836190Y-53976666D02*
X193193333Y-53976666D01*
X193264761Y-54000476D01*
X193312380Y-54048095D01*
X193336190Y-54119523D01*
X193336190Y-54167142D01*
X192836190Y-53524285D02*
X192836190Y-53619523D01*
X192860000Y-53667142D01*
X192883809Y-53690952D01*
X192955238Y-53738571D01*
X193050476Y-53762380D01*
X193240952Y-53762380D01*
X193288571Y-53738571D01*
X193312380Y-53714761D01*
X193336190Y-53667142D01*
X193336190Y-53571904D01*
X193312380Y-53524285D01*
X193288571Y-53500476D01*
X193240952Y-53476666D01*
X193121904Y-53476666D01*
X193074285Y-53500476D01*
X193050476Y-53524285D01*
X193026666Y-53571904D01*
X193026666Y-53667142D01*
X193050476Y-53714761D01*
X193074285Y-53738571D01*
X193121904Y-53762380D01*
G04 #@! TO.C,J7*
X108103333Y-55436190D02*
X108103333Y-55793333D01*
X108079523Y-55864761D01*
X108031904Y-55912380D01*
X107960476Y-55936190D01*
X107912857Y-55936190D01*
X108293809Y-55436190D02*
X108627142Y-55436190D01*
X108412857Y-55936190D01*
G04 #@! TO.C,J8*
X193006190Y-132616666D02*
X193363333Y-132616666D01*
X193434761Y-132640476D01*
X193482380Y-132688095D01*
X193506190Y-132759523D01*
X193506190Y-132807142D01*
X193220476Y-132307142D02*
X193196666Y-132354761D01*
X193172857Y-132378571D01*
X193125238Y-132402380D01*
X193101428Y-132402380D01*
X193053809Y-132378571D01*
X193030000Y-132354761D01*
X193006190Y-132307142D01*
X193006190Y-132211904D01*
X193030000Y-132164285D01*
X193053809Y-132140476D01*
X193101428Y-132116666D01*
X193125238Y-132116666D01*
X193172857Y-132140476D01*
X193196666Y-132164285D01*
X193220476Y-132211904D01*
X193220476Y-132307142D01*
X193244285Y-132354761D01*
X193268095Y-132378571D01*
X193315714Y-132402380D01*
X193410952Y-132402380D01*
X193458571Y-132378571D01*
X193482380Y-132354761D01*
X193506190Y-132307142D01*
X193506190Y-132211904D01*
X193482380Y-132164285D01*
X193458571Y-132140476D01*
X193410952Y-132116666D01*
X193315714Y-132116666D01*
X193268095Y-132140476D01*
X193244285Y-132164285D01*
X193220476Y-132211904D01*
G04 #@! TO.C,J9*
X109006190Y-142596666D02*
X109363333Y-142596666D01*
X109434761Y-142620476D01*
X109482380Y-142668095D01*
X109506190Y-142739523D01*
X109506190Y-142787142D01*
X109506190Y-142334761D02*
X109506190Y-142239523D01*
X109482380Y-142191904D01*
X109458571Y-142168095D01*
X109387142Y-142120476D01*
X109291904Y-142096666D01*
X109101428Y-142096666D01*
X109053809Y-142120476D01*
X109030000Y-142144285D01*
X109006190Y-142191904D01*
X109006190Y-142287142D01*
X109030000Y-142334761D01*
X109053809Y-142358571D01*
X109101428Y-142382380D01*
X109220476Y-142382380D01*
X109268095Y-142358571D01*
X109291904Y-142334761D01*
X109315714Y-142287142D01*
X109315714Y-142191904D01*
X109291904Y-142144285D01*
X109268095Y-142120476D01*
X109220476Y-142096666D01*
G04 #@! TO.C,J10*
X123766190Y-142834761D02*
X124123333Y-142834761D01*
X124194761Y-142858571D01*
X124242380Y-142906190D01*
X124266190Y-142977619D01*
X124266190Y-143025238D01*
X124266190Y-142334761D02*
X124266190Y-142620476D01*
X124266190Y-142477619D02*
X123766190Y-142477619D01*
X123837619Y-142525238D01*
X123885238Y-142572857D01*
X123909047Y-142620476D01*
X123766190Y-142025238D02*
X123766190Y-141977619D01*
X123790000Y-141930000D01*
X123813809Y-141906190D01*
X123861428Y-141882380D01*
X123956666Y-141858571D01*
X124075714Y-141858571D01*
X124170952Y-141882380D01*
X124218571Y-141906190D01*
X124242380Y-141930000D01*
X124266190Y-141977619D01*
X124266190Y-142025238D01*
X124242380Y-142072857D01*
X124218571Y-142096666D01*
X124170952Y-142120476D01*
X124075714Y-142144285D01*
X123956666Y-142144285D01*
X123861428Y-142120476D01*
X123813809Y-142096666D01*
X123790000Y-142072857D01*
X123766190Y-142025238D01*
G04 #@! TO.C,J11*
X138626190Y-142584761D02*
X138983333Y-142584761D01*
X139054761Y-142608571D01*
X139102380Y-142656190D01*
X139126190Y-142727619D01*
X139126190Y-142775238D01*
X139126190Y-142084761D02*
X139126190Y-142370476D01*
X139126190Y-142227619D02*
X138626190Y-142227619D01*
X138697619Y-142275238D01*
X138745238Y-142322857D01*
X138769047Y-142370476D01*
X139126190Y-141608571D02*
X139126190Y-141894285D01*
X139126190Y-141751428D02*
X138626190Y-141751428D01*
X138697619Y-141799047D01*
X138745238Y-141846666D01*
X138769047Y-141894285D01*
G04 #@! TO.C,J12*
X153676190Y-142834761D02*
X154033333Y-142834761D01*
X154104761Y-142858571D01*
X154152380Y-142906190D01*
X154176190Y-142977619D01*
X154176190Y-143025238D01*
X154176190Y-142334761D02*
X154176190Y-142620476D01*
X154176190Y-142477619D02*
X153676190Y-142477619D01*
X153747619Y-142525238D01*
X153795238Y-142572857D01*
X153819047Y-142620476D01*
X153723809Y-142144285D02*
X153700000Y-142120476D01*
X153676190Y-142072857D01*
X153676190Y-141953809D01*
X153700000Y-141906190D01*
X153723809Y-141882380D01*
X153771428Y-141858571D01*
X153819047Y-141858571D01*
X153890476Y-141882380D01*
X154176190Y-142168095D01*
X154176190Y-141858571D01*
G04 #@! TO.C,J13*
X181751838Y-137318090D02*
X181751838Y-137675233D01*
X181728028Y-137746661D01*
X181680409Y-137794280D01*
X181608980Y-137818090D01*
X181561361Y-137818090D01*
X182251838Y-137818090D02*
X181966123Y-137818090D01*
X182108980Y-137818090D02*
X182108980Y-137318090D01*
X182061361Y-137389519D01*
X182013742Y-137437138D01*
X181966123Y-137460947D01*
X182418504Y-137318090D02*
X182728028Y-137318090D01*
X182561361Y-137508566D01*
X182632790Y-137508566D01*
X182680409Y-137532376D01*
X182704219Y-137556185D01*
X182728028Y-137603804D01*
X182728028Y-137722852D01*
X182704219Y-137770471D01*
X182680409Y-137794280D01*
X182632790Y-137818090D01*
X182489933Y-137818090D01*
X182442314Y-137794280D01*
X182418504Y-137770471D01*
G04 #@! TO.C,C17*
X131848571Y-79378571D02*
X131824761Y-79402380D01*
X131753333Y-79426190D01*
X131705714Y-79426190D01*
X131634285Y-79402380D01*
X131586666Y-79354761D01*
X131562857Y-79307142D01*
X131539047Y-79211904D01*
X131539047Y-79140476D01*
X131562857Y-79045238D01*
X131586666Y-78997619D01*
X131634285Y-78950000D01*
X131705714Y-78926190D01*
X131753333Y-78926190D01*
X131824761Y-78950000D01*
X131848571Y-78973809D01*
X132324761Y-79426190D02*
X132039047Y-79426190D01*
X132181904Y-79426190D02*
X132181904Y-78926190D01*
X132134285Y-78997619D01*
X132086666Y-79045238D01*
X132039047Y-79069047D01*
X132491428Y-78926190D02*
X132824761Y-78926190D01*
X132610476Y-79426190D01*
G04 #@! TO.C,SW2*
X112653333Y-116932380D02*
X112724761Y-116956190D01*
X112843809Y-116956190D01*
X112891428Y-116932380D01*
X112915238Y-116908571D01*
X112939047Y-116860952D01*
X112939047Y-116813333D01*
X112915238Y-116765714D01*
X112891428Y-116741904D01*
X112843809Y-116718095D01*
X112748571Y-116694285D01*
X112700952Y-116670476D01*
X112677142Y-116646666D01*
X112653333Y-116599047D01*
X112653333Y-116551428D01*
X112677142Y-116503809D01*
X112700952Y-116480000D01*
X112748571Y-116456190D01*
X112867619Y-116456190D01*
X112939047Y-116480000D01*
X113105714Y-116456190D02*
X113224761Y-116956190D01*
X113320000Y-116599047D01*
X113415238Y-116956190D01*
X113534285Y-116456190D01*
X113700952Y-116503809D02*
X113724761Y-116480000D01*
X113772380Y-116456190D01*
X113891428Y-116456190D01*
X113939047Y-116480000D01*
X113962857Y-116503809D01*
X113986666Y-116551428D01*
X113986666Y-116599047D01*
X113962857Y-116670476D01*
X113677142Y-116956190D01*
X113986666Y-116956190D01*
G04 #@! TO.C,SW3*
X168362380Y-85506666D02*
X168386190Y-85435238D01*
X168386190Y-85316190D01*
X168362380Y-85268571D01*
X168338571Y-85244761D01*
X168290952Y-85220952D01*
X168243333Y-85220952D01*
X168195714Y-85244761D01*
X168171904Y-85268571D01*
X168148095Y-85316190D01*
X168124285Y-85411428D01*
X168100476Y-85459047D01*
X168076666Y-85482857D01*
X168029047Y-85506666D01*
X167981428Y-85506666D01*
X167933809Y-85482857D01*
X167910000Y-85459047D01*
X167886190Y-85411428D01*
X167886190Y-85292380D01*
X167910000Y-85220952D01*
X167886190Y-85054285D02*
X168386190Y-84935238D01*
X168029047Y-84840000D01*
X168386190Y-84744761D01*
X167886190Y-84625714D01*
X167886190Y-84482857D02*
X167886190Y-84173333D01*
X168076666Y-84340000D01*
X168076666Y-84268571D01*
X168100476Y-84220952D01*
X168124285Y-84197142D01*
X168171904Y-84173333D01*
X168290952Y-84173333D01*
X168338571Y-84197142D01*
X168362380Y-84220952D01*
X168386190Y-84268571D01*
X168386190Y-84411428D01*
X168362380Y-84459047D01*
X168338571Y-84482857D01*
G04 #@! TO.C,SW5*
X116964680Y-100550366D02*
X116988490Y-100478938D01*
X116988490Y-100359890D01*
X116964680Y-100312271D01*
X116940871Y-100288461D01*
X116893252Y-100264652D01*
X116845633Y-100264652D01*
X116798014Y-100288461D01*
X116774204Y-100312271D01*
X116750395Y-100359890D01*
X116726585Y-100455128D01*
X116702776Y-100502747D01*
X116678966Y-100526557D01*
X116631347Y-100550366D01*
X116583728Y-100550366D01*
X116536109Y-100526557D01*
X116512300Y-100502747D01*
X116488490Y-100455128D01*
X116488490Y-100336080D01*
X116512300Y-100264652D01*
X116488490Y-100097985D02*
X116988490Y-99978938D01*
X116631347Y-99883700D01*
X116988490Y-99788461D01*
X116488490Y-99669414D01*
X116488490Y-99240842D02*
X116488490Y-99478938D01*
X116726585Y-99502747D01*
X116702776Y-99478938D01*
X116678966Y-99431319D01*
X116678966Y-99312271D01*
X116702776Y-99264652D01*
X116726585Y-99240842D01*
X116774204Y-99217033D01*
X116893252Y-99217033D01*
X116940871Y-99240842D01*
X116964680Y-99264652D01*
X116988490Y-99312271D01*
X116988490Y-99431319D01*
X116964680Y-99478938D01*
X116940871Y-99502747D01*
G04 #@! TO.C,SW8*
X147072380Y-97246666D02*
X147096190Y-97175238D01*
X147096190Y-97056190D01*
X147072380Y-97008571D01*
X147048571Y-96984761D01*
X147000952Y-96960952D01*
X146953333Y-96960952D01*
X146905714Y-96984761D01*
X146881904Y-97008571D01*
X146858095Y-97056190D01*
X146834285Y-97151428D01*
X146810476Y-97199047D01*
X146786666Y-97222857D01*
X146739047Y-97246666D01*
X146691428Y-97246666D01*
X146643809Y-97222857D01*
X146620000Y-97199047D01*
X146596190Y-97151428D01*
X146596190Y-97032380D01*
X146620000Y-96960952D01*
X146596190Y-96794285D02*
X147096190Y-96675238D01*
X146739047Y-96580000D01*
X147096190Y-96484761D01*
X146596190Y-96365714D01*
X146810476Y-96103809D02*
X146786666Y-96151428D01*
X146762857Y-96175238D01*
X146715238Y-96199047D01*
X146691428Y-96199047D01*
X146643809Y-96175238D01*
X146620000Y-96151428D01*
X146596190Y-96103809D01*
X146596190Y-96008571D01*
X146620000Y-95960952D01*
X146643809Y-95937142D01*
X146691428Y-95913333D01*
X146715238Y-95913333D01*
X146762857Y-95937142D01*
X146786666Y-95960952D01*
X146810476Y-96008571D01*
X146810476Y-96103809D01*
X146834285Y-96151428D01*
X146858095Y-96175238D01*
X146905714Y-96199047D01*
X147000952Y-96199047D01*
X147048571Y-96175238D01*
X147072380Y-96151428D01*
X147096190Y-96103809D01*
X147096190Y-96008571D01*
X147072380Y-95960952D01*
X147048571Y-95937142D01*
X147000952Y-95913333D01*
X146905714Y-95913333D01*
X146858095Y-95937142D01*
X146834285Y-95960952D01*
X146810476Y-96008571D01*
G04 #@! TO.C,SW9*
X168302380Y-105506666D02*
X168326190Y-105435238D01*
X168326190Y-105316190D01*
X168302380Y-105268571D01*
X168278571Y-105244761D01*
X168230952Y-105220952D01*
X168183333Y-105220952D01*
X168135714Y-105244761D01*
X168111904Y-105268571D01*
X168088095Y-105316190D01*
X168064285Y-105411428D01*
X168040476Y-105459047D01*
X168016666Y-105482857D01*
X167969047Y-105506666D01*
X167921428Y-105506666D01*
X167873809Y-105482857D01*
X167850000Y-105459047D01*
X167826190Y-105411428D01*
X167826190Y-105292380D01*
X167850000Y-105220952D01*
X167826190Y-105054285D02*
X168326190Y-104935238D01*
X167969047Y-104840000D01*
X168326190Y-104744761D01*
X167826190Y-104625714D01*
X168326190Y-104411428D02*
X168326190Y-104316190D01*
X168302380Y-104268571D01*
X168278571Y-104244761D01*
X168207142Y-104197142D01*
X168111904Y-104173333D01*
X167921428Y-104173333D01*
X167873809Y-104197142D01*
X167850000Y-104220952D01*
X167826190Y-104268571D01*
X167826190Y-104363809D01*
X167850000Y-104411428D01*
X167873809Y-104435238D01*
X167921428Y-104459047D01*
X168040476Y-104459047D01*
X168088095Y-104435238D01*
X168111904Y-104411428D01*
X168135714Y-104363809D01*
X168135714Y-104268571D01*
X168111904Y-104220952D01*
X168088095Y-104197142D01*
X168040476Y-104173333D01*
G04 #@! TO.C,SW10*
X107455238Y-84912380D02*
X107526666Y-84936190D01*
X107645714Y-84936190D01*
X107693333Y-84912380D01*
X107717142Y-84888571D01*
X107740952Y-84840952D01*
X107740952Y-84793333D01*
X107717142Y-84745714D01*
X107693333Y-84721904D01*
X107645714Y-84698095D01*
X107550476Y-84674285D01*
X107502857Y-84650476D01*
X107479047Y-84626666D01*
X107455238Y-84579047D01*
X107455238Y-84531428D01*
X107479047Y-84483809D01*
X107502857Y-84460000D01*
X107550476Y-84436190D01*
X107669523Y-84436190D01*
X107740952Y-84460000D01*
X107907619Y-84436190D02*
X108026666Y-84936190D01*
X108121904Y-84579047D01*
X108217142Y-84936190D01*
X108336190Y-84436190D01*
X108788571Y-84936190D02*
X108502857Y-84936190D01*
X108645714Y-84936190D02*
X108645714Y-84436190D01*
X108598095Y-84507619D01*
X108550476Y-84555238D01*
X108502857Y-84579047D01*
X109098095Y-84436190D02*
X109145714Y-84436190D01*
X109193333Y-84460000D01*
X109217142Y-84483809D01*
X109240952Y-84531428D01*
X109264761Y-84626666D01*
X109264761Y-84745714D01*
X109240952Y-84840952D01*
X109217142Y-84888571D01*
X109193333Y-84912380D01*
X109145714Y-84936190D01*
X109098095Y-84936190D01*
X109050476Y-84912380D01*
X109026666Y-84888571D01*
X109002857Y-84840952D01*
X108979047Y-84745714D01*
X108979047Y-84626666D01*
X109002857Y-84531428D01*
X109026666Y-84483809D01*
X109050476Y-84460000D01*
X109098095Y-84436190D01*
G04 #@! TO.C,SW6*
X168422380Y-95806666D02*
X168446190Y-95735238D01*
X168446190Y-95616190D01*
X168422380Y-95568571D01*
X168398571Y-95544761D01*
X168350952Y-95520952D01*
X168303333Y-95520952D01*
X168255714Y-95544761D01*
X168231904Y-95568571D01*
X168208095Y-95616190D01*
X168184285Y-95711428D01*
X168160476Y-95759047D01*
X168136666Y-95782857D01*
X168089047Y-95806666D01*
X168041428Y-95806666D01*
X167993809Y-95782857D01*
X167970000Y-95759047D01*
X167946190Y-95711428D01*
X167946190Y-95592380D01*
X167970000Y-95520952D01*
X167946190Y-95354285D02*
X168446190Y-95235238D01*
X168089047Y-95140000D01*
X168446190Y-95044761D01*
X167946190Y-94925714D01*
X167946190Y-94520952D02*
X167946190Y-94616190D01*
X167970000Y-94663809D01*
X167993809Y-94687619D01*
X168065238Y-94735238D01*
X168160476Y-94759047D01*
X168350952Y-94759047D01*
X168398571Y-94735238D01*
X168422380Y-94711428D01*
X168446190Y-94663809D01*
X168446190Y-94568571D01*
X168422380Y-94520952D01*
X168398571Y-94497142D01*
X168350952Y-94473333D01*
X168231904Y-94473333D01*
X168184285Y-94497142D01*
X168160476Y-94520952D01*
X168136666Y-94568571D01*
X168136666Y-94663809D01*
X168160476Y-94711428D01*
X168184285Y-94735238D01*
X168231904Y-94759047D01*
G04 #@! TO.C,SW13*
X181175238Y-53822380D02*
X181246666Y-53846190D01*
X181365714Y-53846190D01*
X181413333Y-53822380D01*
X181437142Y-53798571D01*
X181460952Y-53750952D01*
X181460952Y-53703333D01*
X181437142Y-53655714D01*
X181413333Y-53631904D01*
X181365714Y-53608095D01*
X181270476Y-53584285D01*
X181222857Y-53560476D01*
X181199047Y-53536666D01*
X181175238Y-53489047D01*
X181175238Y-53441428D01*
X181199047Y-53393809D01*
X181222857Y-53370000D01*
X181270476Y-53346190D01*
X181389523Y-53346190D01*
X181460952Y-53370000D01*
X181627619Y-53346190D02*
X181746666Y-53846190D01*
X181841904Y-53489047D01*
X181937142Y-53846190D01*
X182056190Y-53346190D01*
X182508571Y-53846190D02*
X182222857Y-53846190D01*
X182365714Y-53846190D02*
X182365714Y-53346190D01*
X182318095Y-53417619D01*
X182270476Y-53465238D01*
X182222857Y-53489047D01*
X182675238Y-53346190D02*
X182984761Y-53346190D01*
X182818095Y-53536666D01*
X182889523Y-53536666D01*
X182937142Y-53560476D01*
X182960952Y-53584285D01*
X182984761Y-53631904D01*
X182984761Y-53750952D01*
X182960952Y-53798571D01*
X182937142Y-53822380D01*
X182889523Y-53846190D01*
X182746666Y-53846190D01*
X182699047Y-53822380D01*
X182675238Y-53798571D01*
G04 #@! TO.C,SW11*
X174543380Y-126707761D02*
X174567190Y-126636333D01*
X174567190Y-126517285D01*
X174543380Y-126469666D01*
X174519571Y-126445857D01*
X174471952Y-126422047D01*
X174424333Y-126422047D01*
X174376714Y-126445857D01*
X174352904Y-126469666D01*
X174329095Y-126517285D01*
X174305285Y-126612523D01*
X174281476Y-126660142D01*
X174257666Y-126683952D01*
X174210047Y-126707761D01*
X174162428Y-126707761D01*
X174114809Y-126683952D01*
X174091000Y-126660142D01*
X174067190Y-126612523D01*
X174067190Y-126493476D01*
X174091000Y-126422047D01*
X174067190Y-126255380D02*
X174567190Y-126136333D01*
X174210047Y-126041095D01*
X174567190Y-125945857D01*
X174067190Y-125826809D01*
X174567190Y-125374428D02*
X174567190Y-125660142D01*
X174567190Y-125517285D02*
X174067190Y-125517285D01*
X174138619Y-125564904D01*
X174186238Y-125612523D01*
X174210047Y-125660142D01*
X174567190Y-124898238D02*
X174567190Y-125183952D01*
X174567190Y-125041095D02*
X174067190Y-125041095D01*
X174138619Y-125088714D01*
X174186238Y-125136333D01*
X174210047Y-125183952D01*
G04 #@! TO.C,SW12*
X168422380Y-115964761D02*
X168446190Y-115893333D01*
X168446190Y-115774285D01*
X168422380Y-115726666D01*
X168398571Y-115702857D01*
X168350952Y-115679047D01*
X168303333Y-115679047D01*
X168255714Y-115702857D01*
X168231904Y-115726666D01*
X168208095Y-115774285D01*
X168184285Y-115869523D01*
X168160476Y-115917142D01*
X168136666Y-115940952D01*
X168089047Y-115964761D01*
X168041428Y-115964761D01*
X167993809Y-115940952D01*
X167970000Y-115917142D01*
X167946190Y-115869523D01*
X167946190Y-115750476D01*
X167970000Y-115679047D01*
X167946190Y-115512380D02*
X168446190Y-115393333D01*
X168089047Y-115298095D01*
X168446190Y-115202857D01*
X167946190Y-115083809D01*
X168446190Y-114631428D02*
X168446190Y-114917142D01*
X168446190Y-114774285D02*
X167946190Y-114774285D01*
X168017619Y-114821904D01*
X168065238Y-114869523D01*
X168089047Y-114917142D01*
X167993809Y-114440952D02*
X167970000Y-114417142D01*
X167946190Y-114369523D01*
X167946190Y-114250476D01*
X167970000Y-114202857D01*
X167993809Y-114179047D01*
X168041428Y-114155238D01*
X168089047Y-114155238D01*
X168160476Y-114179047D01*
X168446190Y-114464761D01*
X168446190Y-114155238D01*
G04 #@! TO.C,D1*
X121393252Y-95529890D02*
X121393252Y-95029890D01*
X121512300Y-95029890D01*
X121583728Y-95053700D01*
X121631347Y-95101319D01*
X121655157Y-95148938D01*
X121678966Y-95244176D01*
X121678966Y-95315604D01*
X121655157Y-95410842D01*
X121631347Y-95458461D01*
X121583728Y-95506080D01*
X121512300Y-95529890D01*
X121393252Y-95529890D01*
X122155157Y-95529890D02*
X121869442Y-95529890D01*
X122012300Y-95529890D02*
X122012300Y-95029890D01*
X121964680Y-95101319D01*
X121917061Y-95148938D01*
X121869442Y-95172747D01*
G04 #@! TO.C,D2*
X174747552Y-93863190D02*
X174747552Y-93363190D01*
X174866600Y-93363190D01*
X174938028Y-93387000D01*
X174985647Y-93434619D01*
X175009457Y-93482238D01*
X175033266Y-93577476D01*
X175033266Y-93648904D01*
X175009457Y-93744142D01*
X174985647Y-93791761D01*
X174938028Y-93839380D01*
X174866600Y-93863190D01*
X174747552Y-93863190D01*
X175223742Y-93410809D02*
X175247552Y-93387000D01*
X175295171Y-93363190D01*
X175414219Y-93363190D01*
X175461838Y-93387000D01*
X175485647Y-93410809D01*
X175509457Y-93458428D01*
X175509457Y-93506047D01*
X175485647Y-93577476D01*
X175199933Y-93863190D01*
X175509457Y-93863190D01*
G04 #@! TO.C,D3*
X193141452Y-124127690D02*
X193141452Y-123627690D01*
X193260500Y-123627690D01*
X193331928Y-123651500D01*
X193379547Y-123699119D01*
X193403357Y-123746738D01*
X193427166Y-123841976D01*
X193427166Y-123913404D01*
X193403357Y-124008642D01*
X193379547Y-124056261D01*
X193331928Y-124103880D01*
X193260500Y-124127690D01*
X193141452Y-124127690D01*
X193593833Y-123627690D02*
X193903357Y-123627690D01*
X193736690Y-123818166D01*
X193808119Y-123818166D01*
X193855738Y-123841976D01*
X193879547Y-123865785D01*
X193903357Y-123913404D01*
X193903357Y-124032452D01*
X193879547Y-124080071D01*
X193855738Y-124103880D01*
X193808119Y-124127690D01*
X193665261Y-124127690D01*
X193617642Y-124103880D01*
X193593833Y-124080071D01*
G04 #@! TO.C,D4*
X164275552Y-50609190D02*
X164275552Y-50109190D01*
X164394600Y-50109190D01*
X164466028Y-50133000D01*
X164513647Y-50180619D01*
X164537457Y-50228238D01*
X164561266Y-50323476D01*
X164561266Y-50394904D01*
X164537457Y-50490142D01*
X164513647Y-50537761D01*
X164466028Y-50585380D01*
X164394600Y-50609190D01*
X164275552Y-50609190D01*
X164989838Y-50275857D02*
X164989838Y-50609190D01*
X164870790Y-50085380D02*
X164751742Y-50442523D01*
X165061266Y-50442523D01*
G04 #@! TO.C,D6*
X127393252Y-95529890D02*
X127393252Y-95029890D01*
X127512300Y-95029890D01*
X127583728Y-95053700D01*
X127631347Y-95101319D01*
X127655157Y-95148938D01*
X127678966Y-95244176D01*
X127678966Y-95315604D01*
X127655157Y-95410842D01*
X127631347Y-95458461D01*
X127583728Y-95506080D01*
X127512300Y-95529890D01*
X127393252Y-95529890D01*
X128107538Y-95029890D02*
X128012300Y-95029890D01*
X127964680Y-95053700D01*
X127940871Y-95077509D01*
X127893252Y-95148938D01*
X127869442Y-95244176D01*
X127869442Y-95434652D01*
X127893252Y-95482271D01*
X127917061Y-95506080D01*
X127964680Y-95529890D01*
X128059919Y-95529890D01*
X128107538Y-95506080D01*
X128131347Y-95482271D01*
X128155157Y-95434652D01*
X128155157Y-95315604D01*
X128131347Y-95267985D01*
X128107538Y-95244176D01*
X128059919Y-95220366D01*
X127964680Y-95220366D01*
X127917061Y-95244176D01*
X127893252Y-95267985D01*
X127869442Y-95315604D01*
G04 #@! TO.C,D8*
X174747552Y-103863190D02*
X174747552Y-103363190D01*
X174866600Y-103363190D01*
X174938028Y-103387000D01*
X174985647Y-103434619D01*
X175009457Y-103482238D01*
X175033266Y-103577476D01*
X175033266Y-103648904D01*
X175009457Y-103744142D01*
X174985647Y-103791761D01*
X174938028Y-103839380D01*
X174866600Y-103863190D01*
X174747552Y-103863190D01*
X175318980Y-103577476D02*
X175271361Y-103553666D01*
X175247552Y-103529857D01*
X175223742Y-103482238D01*
X175223742Y-103458428D01*
X175247552Y-103410809D01*
X175271361Y-103387000D01*
X175318980Y-103363190D01*
X175414219Y-103363190D01*
X175461838Y-103387000D01*
X175485647Y-103410809D01*
X175509457Y-103458428D01*
X175509457Y-103482238D01*
X175485647Y-103529857D01*
X175461838Y-103553666D01*
X175414219Y-103577476D01*
X175318980Y-103577476D01*
X175271361Y-103601285D01*
X175247552Y-103625095D01*
X175223742Y-103672714D01*
X175223742Y-103767952D01*
X175247552Y-103815571D01*
X175271361Y-103839380D01*
X175318980Y-103863190D01*
X175414219Y-103863190D01*
X175461838Y-103839380D01*
X175485647Y-103815571D01*
X175509457Y-103767952D01*
X175509457Y-103672714D01*
X175485647Y-103625095D01*
X175461838Y-103601285D01*
X175414219Y-103577476D01*
G04 #@! TO.C,D9*
X187141452Y-124127690D02*
X187141452Y-123627690D01*
X187260500Y-123627690D01*
X187331928Y-123651500D01*
X187379547Y-123699119D01*
X187403357Y-123746738D01*
X187427166Y-123841976D01*
X187427166Y-123913404D01*
X187403357Y-124008642D01*
X187379547Y-124056261D01*
X187331928Y-124103880D01*
X187260500Y-124127690D01*
X187141452Y-124127690D01*
X187665261Y-124127690D02*
X187760500Y-124127690D01*
X187808119Y-124103880D01*
X187831928Y-124080071D01*
X187879547Y-124008642D01*
X187903357Y-123913404D01*
X187903357Y-123722928D01*
X187879547Y-123675309D01*
X187855738Y-123651500D01*
X187808119Y-123627690D01*
X187712880Y-123627690D01*
X187665261Y-123651500D01*
X187641452Y-123675309D01*
X187617642Y-123722928D01*
X187617642Y-123841976D01*
X187641452Y-123889595D01*
X187665261Y-123913404D01*
X187712880Y-123937214D01*
X187808119Y-123937214D01*
X187855738Y-123913404D01*
X187879547Y-123889595D01*
X187903357Y-123841976D01*
G04 #@! TO.C,D10*
X170037457Y-50609190D02*
X170037457Y-50109190D01*
X170156504Y-50109190D01*
X170227933Y-50133000D01*
X170275552Y-50180619D01*
X170299361Y-50228238D01*
X170323171Y-50323476D01*
X170323171Y-50394904D01*
X170299361Y-50490142D01*
X170275552Y-50537761D01*
X170227933Y-50585380D01*
X170156504Y-50609190D01*
X170037457Y-50609190D01*
X170799361Y-50609190D02*
X170513647Y-50609190D01*
X170656504Y-50609190D02*
X170656504Y-50109190D01*
X170608885Y-50180619D01*
X170561266Y-50228238D01*
X170513647Y-50252047D01*
X171108885Y-50109190D02*
X171156504Y-50109190D01*
X171204123Y-50133000D01*
X171227933Y-50156809D01*
X171251742Y-50204428D01*
X171275552Y-50299666D01*
X171275552Y-50418714D01*
X171251742Y-50513952D01*
X171227933Y-50561571D01*
X171204123Y-50585380D01*
X171156504Y-50609190D01*
X171108885Y-50609190D01*
X171061266Y-50585380D01*
X171037457Y-50561571D01*
X171013647Y-50513952D01*
X170989838Y-50418714D01*
X170989838Y-50299666D01*
X171013647Y-50204428D01*
X171037457Y-50156809D01*
X171061266Y-50133000D01*
X171108885Y-50109190D01*
G04 #@! TO.C,D12*
X133155157Y-95529890D02*
X133155157Y-95029890D01*
X133274204Y-95029890D01*
X133345633Y-95053700D01*
X133393252Y-95101319D01*
X133417061Y-95148938D01*
X133440871Y-95244176D01*
X133440871Y-95315604D01*
X133417061Y-95410842D01*
X133393252Y-95458461D01*
X133345633Y-95506080D01*
X133274204Y-95529890D01*
X133155157Y-95529890D01*
X133917061Y-95529890D02*
X133631347Y-95529890D01*
X133774204Y-95529890D02*
X133774204Y-95029890D01*
X133726585Y-95101319D01*
X133678966Y-95148938D01*
X133631347Y-95172747D01*
X134107538Y-95077509D02*
X134131347Y-95053700D01*
X134178966Y-95029890D01*
X134298014Y-95029890D01*
X134345633Y-95053700D01*
X134369442Y-95077509D01*
X134393252Y-95125128D01*
X134393252Y-95172747D01*
X134369442Y-95244176D01*
X134083728Y-95529890D01*
X134393252Y-95529890D01*
G04 #@! TO.C,D14*
X174509457Y-113863190D02*
X174509457Y-113363190D01*
X174628504Y-113363190D01*
X174699933Y-113387000D01*
X174747552Y-113434619D01*
X174771361Y-113482238D01*
X174795171Y-113577476D01*
X174795171Y-113648904D01*
X174771361Y-113744142D01*
X174747552Y-113791761D01*
X174699933Y-113839380D01*
X174628504Y-113863190D01*
X174509457Y-113863190D01*
X175271361Y-113863190D02*
X174985647Y-113863190D01*
X175128504Y-113863190D02*
X175128504Y-113363190D01*
X175080885Y-113434619D01*
X175033266Y-113482238D01*
X174985647Y-113506047D01*
X175699933Y-113529857D02*
X175699933Y-113863190D01*
X175580885Y-113339380D02*
X175461838Y-113696523D01*
X175771361Y-113696523D01*
G04 #@! TO.C,D15*
X109363457Y-108235690D02*
X109363457Y-107735690D01*
X109482504Y-107735690D01*
X109553933Y-107759500D01*
X109601552Y-107807119D01*
X109625361Y-107854738D01*
X109649171Y-107949976D01*
X109649171Y-108021404D01*
X109625361Y-108116642D01*
X109601552Y-108164261D01*
X109553933Y-108211880D01*
X109482504Y-108235690D01*
X109363457Y-108235690D01*
X110125361Y-108235690D02*
X109839647Y-108235690D01*
X109982504Y-108235690D02*
X109982504Y-107735690D01*
X109934885Y-107807119D01*
X109887266Y-107854738D01*
X109839647Y-107878547D01*
X110577742Y-107735690D02*
X110339647Y-107735690D01*
X110315838Y-107973785D01*
X110339647Y-107949976D01*
X110387266Y-107926166D01*
X110506314Y-107926166D01*
X110553933Y-107949976D01*
X110577742Y-107973785D01*
X110601552Y-108021404D01*
X110601552Y-108140452D01*
X110577742Y-108188071D01*
X110553933Y-108211880D01*
X110506314Y-108235690D01*
X110387266Y-108235690D01*
X110339647Y-108211880D01*
X110315838Y-108188071D01*
G04 #@! TO.C,D16*
X164037457Y-55109190D02*
X164037457Y-54609190D01*
X164156504Y-54609190D01*
X164227933Y-54633000D01*
X164275552Y-54680619D01*
X164299361Y-54728238D01*
X164323171Y-54823476D01*
X164323171Y-54894904D01*
X164299361Y-54990142D01*
X164275552Y-55037761D01*
X164227933Y-55085380D01*
X164156504Y-55109190D01*
X164037457Y-55109190D01*
X164799361Y-55109190D02*
X164513647Y-55109190D01*
X164656504Y-55109190D02*
X164656504Y-54609190D01*
X164608885Y-54680619D01*
X164561266Y-54728238D01*
X164513647Y-54752047D01*
X165227933Y-54609190D02*
X165132695Y-54609190D01*
X165085076Y-54633000D01*
X165061266Y-54656809D01*
X165013647Y-54728238D01*
X164989838Y-54823476D01*
X164989838Y-55013952D01*
X165013647Y-55061571D01*
X165037457Y-55085380D01*
X165085076Y-55109190D01*
X165180314Y-55109190D01*
X165227933Y-55085380D01*
X165251742Y-55061571D01*
X165275552Y-55013952D01*
X165275552Y-54894904D01*
X165251742Y-54847285D01*
X165227933Y-54823476D01*
X165180314Y-54799666D01*
X165085076Y-54799666D01*
X165037457Y-54823476D01*
X165013647Y-54847285D01*
X164989838Y-54894904D01*
G04 #@! TO.C,D18*
X174509457Y-83863190D02*
X174509457Y-83363190D01*
X174628504Y-83363190D01*
X174699933Y-83387000D01*
X174747552Y-83434619D01*
X174771361Y-83482238D01*
X174795171Y-83577476D01*
X174795171Y-83648904D01*
X174771361Y-83744142D01*
X174747552Y-83791761D01*
X174699933Y-83839380D01*
X174628504Y-83863190D01*
X174509457Y-83863190D01*
X175271361Y-83863190D02*
X174985647Y-83863190D01*
X175128504Y-83863190D02*
X175128504Y-83363190D01*
X175080885Y-83434619D01*
X175033266Y-83482238D01*
X174985647Y-83506047D01*
X175557076Y-83577476D02*
X175509457Y-83553666D01*
X175485647Y-83529857D01*
X175461838Y-83482238D01*
X175461838Y-83458428D01*
X175485647Y-83410809D01*
X175509457Y-83387000D01*
X175557076Y-83363190D01*
X175652314Y-83363190D01*
X175699933Y-83387000D01*
X175723742Y-83410809D01*
X175747552Y-83458428D01*
X175747552Y-83482238D01*
X175723742Y-83529857D01*
X175699933Y-83553666D01*
X175652314Y-83577476D01*
X175557076Y-83577476D01*
X175509457Y-83601285D01*
X175485647Y-83625095D01*
X175461838Y-83672714D01*
X175461838Y-83767952D01*
X175485647Y-83815571D01*
X175509457Y-83839380D01*
X175557076Y-83863190D01*
X175652314Y-83863190D01*
X175699933Y-83839380D01*
X175723742Y-83815571D01*
X175747552Y-83767952D01*
X175747552Y-83672714D01*
X175723742Y-83625095D01*
X175699933Y-83601285D01*
X175652314Y-83577476D01*
G04 #@! TO.C,D19*
X180903357Y-124127690D02*
X180903357Y-123627690D01*
X181022404Y-123627690D01*
X181093833Y-123651500D01*
X181141452Y-123699119D01*
X181165261Y-123746738D01*
X181189071Y-123841976D01*
X181189071Y-123913404D01*
X181165261Y-124008642D01*
X181141452Y-124056261D01*
X181093833Y-124103880D01*
X181022404Y-124127690D01*
X180903357Y-124127690D01*
X181665261Y-124127690D02*
X181379547Y-124127690D01*
X181522404Y-124127690D02*
X181522404Y-123627690D01*
X181474785Y-123699119D01*
X181427166Y-123746738D01*
X181379547Y-123770547D01*
X181903357Y-124127690D02*
X181998595Y-124127690D01*
X182046214Y-124103880D01*
X182070023Y-124080071D01*
X182117642Y-124008642D01*
X182141452Y-123913404D01*
X182141452Y-123722928D01*
X182117642Y-123675309D01*
X182093833Y-123651500D01*
X182046214Y-123627690D01*
X181950976Y-123627690D01*
X181903357Y-123651500D01*
X181879547Y-123675309D01*
X181855738Y-123722928D01*
X181855738Y-123841976D01*
X181879547Y-123889595D01*
X181903357Y-123913404D01*
X181950976Y-123937214D01*
X182046214Y-123937214D01*
X182093833Y-123913404D01*
X182117642Y-123889595D01*
X182141452Y-123841976D01*
G04 #@! TO.C,D20*
X115363457Y-108235690D02*
X115363457Y-107735690D01*
X115482504Y-107735690D01*
X115553933Y-107759500D01*
X115601552Y-107807119D01*
X115625361Y-107854738D01*
X115649171Y-107949976D01*
X115649171Y-108021404D01*
X115625361Y-108116642D01*
X115601552Y-108164261D01*
X115553933Y-108211880D01*
X115482504Y-108235690D01*
X115363457Y-108235690D01*
X115839647Y-107783309D02*
X115863457Y-107759500D01*
X115911076Y-107735690D01*
X116030123Y-107735690D01*
X116077742Y-107759500D01*
X116101552Y-107783309D01*
X116125361Y-107830928D01*
X116125361Y-107878547D01*
X116101552Y-107949976D01*
X115815838Y-108235690D01*
X116125361Y-108235690D01*
X116434885Y-107735690D02*
X116482504Y-107735690D01*
X116530123Y-107759500D01*
X116553933Y-107783309D01*
X116577742Y-107830928D01*
X116601552Y-107926166D01*
X116601552Y-108045214D01*
X116577742Y-108140452D01*
X116553933Y-108188071D01*
X116530123Y-108211880D01*
X116482504Y-108235690D01*
X116434885Y-108235690D01*
X116387266Y-108211880D01*
X116363457Y-108188071D01*
X116339647Y-108140452D01*
X116315838Y-108045214D01*
X116315838Y-107926166D01*
X116339647Y-107830928D01*
X116363457Y-107783309D01*
X116387266Y-107759500D01*
X116434885Y-107735690D01*
G04 #@! TO.C,D21*
X170037457Y-55109190D02*
X170037457Y-54609190D01*
X170156504Y-54609190D01*
X170227933Y-54633000D01*
X170275552Y-54680619D01*
X170299361Y-54728238D01*
X170323171Y-54823476D01*
X170323171Y-54894904D01*
X170299361Y-54990142D01*
X170275552Y-55037761D01*
X170227933Y-55085380D01*
X170156504Y-55109190D01*
X170037457Y-55109190D01*
X170513647Y-54656809D02*
X170537457Y-54633000D01*
X170585076Y-54609190D01*
X170704123Y-54609190D01*
X170751742Y-54633000D01*
X170775552Y-54656809D01*
X170799361Y-54704428D01*
X170799361Y-54752047D01*
X170775552Y-54823476D01*
X170489838Y-55109190D01*
X170799361Y-55109190D01*
X171275552Y-55109190D02*
X170989838Y-55109190D01*
X171132695Y-55109190D02*
X171132695Y-54609190D01*
X171085076Y-54680619D01*
X171037457Y-54728238D01*
X170989838Y-54752047D01*
G04 #@! TO.C,D23*
D10*
X151742980Y-97847985D02*
X150742980Y-97847985D01*
X150742980Y-97609890D01*
X150790600Y-97467033D01*
X150885838Y-97371795D01*
X150981076Y-97324176D01*
X151171552Y-97276557D01*
X151314409Y-97276557D01*
X151504885Y-97324176D01*
X151600123Y-97371795D01*
X151695361Y-97467033D01*
X151742980Y-97609890D01*
X151742980Y-97847985D01*
X150838219Y-96895604D02*
X150790600Y-96847985D01*
X150742980Y-96752747D01*
X150742980Y-96514652D01*
X150790600Y-96419414D01*
X150838219Y-96371795D01*
X150933457Y-96324176D01*
X151028695Y-96324176D01*
X151171552Y-96371795D01*
X151742980Y-96943223D01*
X151742980Y-96324176D01*
X150742980Y-95990842D02*
X150742980Y-95371795D01*
X151123933Y-95705128D01*
X151123933Y-95562271D01*
X151171552Y-95467033D01*
X151219171Y-95419414D01*
X151314409Y-95371795D01*
X151552504Y-95371795D01*
X151647742Y-95419414D01*
X151695361Y-95467033D01*
X151742980Y-95562271D01*
X151742980Y-95847985D01*
X151695361Y-95943223D01*
X151647742Y-95990842D01*
G04 #@! TD*
M02*
