G04 #@! TF.GenerationSoftware,KiCad,Pcbnew,(5.0.1-3-g963ef8bb5)*
G04 #@! TF.CreationDate,2018-11-12T23:43:35-05:00*
G04 #@! TF.ProjectId,EuroSID,4575726F5349442E6B696361645F7063,rev?*
G04 #@! TF.SameCoordinates,Original*
G04 #@! TF.FileFunction,Legend,Bot*
G04 #@! TF.FilePolarity,Positive*
%FSLAX46Y46*%
G04 Gerber Fmt 4.6, Leading zero omitted, Abs format (unit mm)*
G04 Created by KiCad (PCBNEW (5.0.1-3-g963ef8bb5)) date Monday, November 12, 2018 at 11:43:35 PM*
%MOMM*%
%LPD*%
G01*
G04 APERTURE LIST*
%ADD10C,0.120000*%
%ADD11C,0.150000*%
G04 APERTURE END LIST*
D10*
G04 #@! TO.C,R44*
X175657221Y-132838000D02*
X175982779Y-132838000D01*
X175657221Y-133858000D02*
X175982779Y-133858000D01*
G04 #@! TO.C,R45*
X196319721Y-103990000D02*
X196645279Y-103990000D01*
X196319721Y-105010000D02*
X196645279Y-105010000D01*
G04 #@! TO.C,R46*
X190287721Y-137029000D02*
X190613279Y-137029000D01*
X190287721Y-138049000D02*
X190613279Y-138049000D01*
G04 #@! TO.C,R47*
X206264221Y-61972000D02*
X206589779Y-61972000D01*
X206264221Y-62992000D02*
X206589779Y-62992000D01*
G04 #@! TO.C,R48*
X205248221Y-136140000D02*
X205573779Y-136140000D01*
X205248221Y-137160000D02*
X205573779Y-137160000D01*
G04 #@! TO.C,R49*
X210607221Y-90490000D02*
X210932779Y-90490000D01*
X210607221Y-91510000D02*
X210932779Y-91510000D01*
G04 #@! TO.C,R50*
X209510000Y-95375279D02*
X209510000Y-95049721D01*
X210530000Y-95375279D02*
X210530000Y-95049721D01*
G04 #@! TO.C,R51*
X212010000Y-95125279D02*
X212010000Y-94799721D01*
X213030000Y-95125279D02*
X213030000Y-94799721D01*
D11*
G04 #@! TO.C,U1*
X183570000Y-68675000D02*
X183245000Y-68675000D01*
X183570000Y-62325000D02*
X183570000Y-68675000D01*
X183245000Y-62325000D02*
X183570000Y-62325000D01*
X172320000Y-68675000D02*
X172645000Y-68675000D01*
X172320000Y-62325000D02*
X172320000Y-68675000D01*
X172545000Y-62325000D02*
X172320000Y-62325000D01*
X172545000Y-61250000D02*
X172545000Y-62325000D01*
G04 #@! TO.C,U3*
X203975000Y-69300000D02*
X202625000Y-69300000D01*
X203975000Y-64175000D02*
X208625000Y-64175000D01*
X203975000Y-69425000D02*
X208625000Y-69425000D01*
X203975000Y-64175000D02*
X203975000Y-64400000D01*
X208625000Y-64175000D02*
X208625000Y-64400000D01*
X208625000Y-69425000D02*
X208625000Y-69200000D01*
X203975000Y-69425000D02*
X203975000Y-69300000D01*
D10*
G04 #@! TO.C,Q1*
X162086000Y-121498639D02*
X160626000Y-121498639D01*
X162086000Y-124658639D02*
X159926000Y-124658639D01*
X162086000Y-124658639D02*
X162086000Y-123728639D01*
X162086000Y-121498639D02*
X162086000Y-122428639D01*
G04 #@! TO.C,Q2*
X177072000Y-121498639D02*
X175612000Y-121498639D01*
X177072000Y-124658639D02*
X174912000Y-124658639D01*
X177072000Y-124658639D02*
X177072000Y-123728639D01*
X177072000Y-121498639D02*
X177072000Y-122428639D01*
G04 #@! TO.C,Q3*
X191804000Y-121420000D02*
X190344000Y-121420000D01*
X191804000Y-124580000D02*
X189644000Y-124580000D01*
X191804000Y-124580000D02*
X191804000Y-123650000D01*
X191804000Y-121420000D02*
X191804000Y-122350000D01*
G04 #@! TO.C,C1*
X182332779Y-106680000D02*
X182007221Y-106680000D01*
X182332779Y-105660000D02*
X182007221Y-105660000D01*
G04 #@! TO.C,C2*
X174712779Y-114300000D02*
X174387221Y-114300000D01*
X174712779Y-113280000D02*
X174387221Y-113280000D01*
G04 #@! TO.C,C3*
X170520000Y-68480279D02*
X170520000Y-68154721D01*
X171540000Y-68480279D02*
X171540000Y-68154721D01*
G04 #@! TO.C,C4*
X189665000Y-108293221D02*
X189665000Y-108618779D01*
X188645000Y-108293221D02*
X188645000Y-108618779D01*
G04 #@! TO.C,C6*
X229894721Y-54490000D02*
X230220279Y-54490000D01*
X229894721Y-55510000D02*
X230220279Y-55510000D01*
G04 #@! TO.C,C7*
X205395279Y-112510000D02*
X205069721Y-112510000D01*
X205395279Y-111490000D02*
X205069721Y-111490000D01*
G04 #@! TO.C,C8*
X241470279Y-93510000D02*
X241144721Y-93510000D01*
X241470279Y-92490000D02*
X241144721Y-92490000D01*
G04 #@! TO.C,C9*
X237260000Y-74875279D02*
X237260000Y-74549721D01*
X238280000Y-74875279D02*
X238280000Y-74549721D01*
G04 #@! TO.C,C10*
X192220279Y-99260000D02*
X191894721Y-99260000D01*
X192220279Y-98240000D02*
X191894721Y-98240000D01*
G04 #@! TO.C,C12*
X192145279Y-97760000D02*
X191819721Y-97760000D01*
X192145279Y-96740000D02*
X191819721Y-96740000D01*
G04 #@! TO.C,C14*
X197635000Y-71750279D02*
X197635000Y-71424721D01*
X198655000Y-71750279D02*
X198655000Y-71424721D01*
G04 #@! TO.C,C15*
X174894721Y-77490000D02*
X175220279Y-77490000D01*
X174894721Y-78510000D02*
X175220279Y-78510000D01*
G04 #@! TO.C,C16*
X192894721Y-78490000D02*
X193220279Y-78490000D01*
X192894721Y-79510000D02*
X193220279Y-79510000D01*
G04 #@! TO.C,C17*
X184894721Y-78490000D02*
X185220279Y-78490000D01*
X184894721Y-79510000D02*
X185220279Y-79510000D01*
G04 #@! TO.C,C18*
X189010000Y-93700279D02*
X189010000Y-93374721D01*
X190030000Y-93700279D02*
X190030000Y-93374721D01*
G04 #@! TO.C,C20*
X203894721Y-78490000D02*
X204220279Y-78490000D01*
X203894721Y-79510000D02*
X204220279Y-79510000D01*
G04 #@! TO.C,C21*
X192010000Y-92875279D02*
X192010000Y-92549721D01*
X193030000Y-92875279D02*
X193030000Y-92549721D01*
G04 #@! TO.C,C23*
X196145279Y-83010000D02*
X195819721Y-83010000D01*
X196145279Y-81990000D02*
X195819721Y-81990000D01*
G04 #@! TO.C,C24*
X195660279Y-60920000D02*
X195334721Y-60920000D01*
X195660279Y-59900000D02*
X195334721Y-59900000D01*
G04 #@! TO.C,C25*
X200520000Y-70449721D02*
X200520000Y-70775279D01*
X199500000Y-70449721D02*
X199500000Y-70775279D01*
G04 #@! TO.C,C26*
X192357221Y-59900000D02*
X192682779Y-59900000D01*
X192357221Y-60920000D02*
X192682779Y-60920000D01*
G04 #@! TO.C,C27*
X194895279Y-72235000D02*
X194569721Y-72235000D01*
X194895279Y-71215000D02*
X194569721Y-71215000D01*
G04 #@! TO.C,C28*
X206564279Y-55114000D02*
X206238721Y-55114000D01*
X206564279Y-56134000D02*
X206238721Y-56134000D01*
G04 #@! TO.C,C31*
X216530000Y-93299721D02*
X216530000Y-93625279D01*
X215510000Y-93299721D02*
X215510000Y-93625279D01*
G04 #@! TO.C,R1*
X160442721Y-68990000D02*
X160768279Y-68990000D01*
X160442721Y-70010000D02*
X160768279Y-70010000D01*
G04 #@! TO.C,R2*
X182007221Y-101850000D02*
X182332779Y-101850000D01*
X182007221Y-102870000D02*
X182332779Y-102870000D01*
G04 #@! TO.C,R3*
X174712779Y-111760000D02*
X174387221Y-111760000D01*
X174712779Y-110740000D02*
X174387221Y-110740000D01*
G04 #@! TO.C,R4*
X178530000Y-101799721D02*
X178530000Y-102125279D01*
X177510000Y-101799721D02*
X177510000Y-102125279D01*
G04 #@! TO.C,R5*
X172819721Y-105990000D02*
X173145279Y-105990000D01*
X172819721Y-107010000D02*
X173145279Y-107010000D01*
G04 #@! TO.C,R6*
X192455000Y-102040279D02*
X192455000Y-101714721D01*
X193475000Y-102040279D02*
X193475000Y-101714721D01*
G04 #@! TO.C,R7*
X190423000Y-101989279D02*
X190423000Y-101663721D01*
X191443000Y-101989279D02*
X191443000Y-101663721D01*
G04 #@! TO.C,R8*
X157669279Y-123444000D02*
X157343721Y-123444000D01*
X157669279Y-122424000D02*
X157343721Y-122424000D01*
G04 #@! TO.C,R9*
X172655279Y-123444000D02*
X172329721Y-123444000D01*
X172655279Y-122424000D02*
X172329721Y-122424000D01*
G04 #@! TO.C,R10*
X187438279Y-123444000D02*
X187112721Y-123444000D01*
X187438279Y-122424000D02*
X187112721Y-122424000D01*
G04 #@! TO.C,R11*
X165340279Y-123444000D02*
X165014721Y-123444000D01*
X165340279Y-122424000D02*
X165014721Y-122424000D01*
G04 #@! TO.C,R12*
X180300779Y-123444000D02*
X179975221Y-123444000D01*
X180300779Y-122424000D02*
X179975221Y-122424000D01*
G04 #@! TO.C,R13*
X195032779Y-123444000D02*
X194707221Y-123444000D01*
X195032779Y-122424000D02*
X194707221Y-122424000D01*
G04 #@! TO.C,R14*
X170107221Y-115990000D02*
X170432779Y-115990000D01*
X170107221Y-117010000D02*
X170432779Y-117010000D01*
G04 #@! TO.C,R15*
X226228721Y-76958000D02*
X226554279Y-76958000D01*
X226228721Y-77978000D02*
X226554279Y-77978000D01*
G04 #@! TO.C,R17*
X170280000Y-97549721D02*
X170280000Y-97875279D01*
X169260000Y-97549721D02*
X169260000Y-97875279D01*
G04 #@! TO.C,R18*
X226101721Y-86991000D02*
X226427279Y-86991000D01*
X226101721Y-88011000D02*
X226427279Y-88011000D01*
G04 #@! TO.C,R20*
X193220279Y-96010000D02*
X192894721Y-96010000D01*
X193220279Y-94990000D02*
X192894721Y-94990000D01*
G04 #@! TO.C,R21*
X225923721Y-97024000D02*
X226249279Y-97024000D01*
X225923721Y-98044000D02*
X226249279Y-98044000D01*
G04 #@! TO.C,R22*
X167319721Y-79990000D02*
X167645279Y-79990000D01*
X167319721Y-81010000D02*
X167645279Y-81010000D01*
G04 #@! TO.C,R23*
X232644721Y-108740000D02*
X232970279Y-108740000D01*
X232644721Y-109760000D02*
X232970279Y-109760000D01*
G04 #@! TO.C,R24*
X225822221Y-99691000D02*
X226147779Y-99691000D01*
X225822221Y-100711000D02*
X226147779Y-100711000D01*
G04 #@! TO.C,R25*
X198244721Y-61615000D02*
X198570279Y-61615000D01*
X198244721Y-62635000D02*
X198570279Y-62635000D01*
G04 #@! TO.C,R26*
X198555000Y-67272221D02*
X198555000Y-67597779D01*
X197535000Y-67272221D02*
X197535000Y-67597779D01*
G04 #@! TO.C,R27*
X245197779Y-137541000D02*
X244872221Y-137541000D01*
X245197779Y-136521000D02*
X244872221Y-136521000D01*
G04 #@! TO.C,R28*
X192720279Y-62510000D02*
X192394721Y-62510000D01*
X192720279Y-61490000D02*
X192394721Y-61490000D01*
G04 #@! TO.C,R29*
X191294721Y-71490000D02*
X191620279Y-71490000D01*
X191294721Y-72510000D02*
X191620279Y-72510000D01*
G04 #@! TO.C,R30*
X206137221Y-59813000D02*
X206462779Y-59813000D01*
X206137221Y-60833000D02*
X206462779Y-60833000D01*
G04 #@! TO.C,R31*
X244819721Y-47990000D02*
X245145279Y-47990000D01*
X244819721Y-49010000D02*
X245145279Y-49010000D01*
G04 #@! TO.C,R32*
X209507221Y-80290000D02*
X209832779Y-80290000D01*
X209507221Y-81310000D02*
X209832779Y-81310000D01*
G04 #@! TO.C,R33*
X234275779Y-98044000D02*
X233950221Y-98044000D01*
X234275779Y-97024000D02*
X233950221Y-97024000D01*
G04 #@! TO.C,R34*
X202906779Y-62992000D02*
X202581221Y-62992000D01*
X202906779Y-61972000D02*
X202581221Y-61972000D01*
G04 #@! TO.C,R35*
X160319721Y-48490000D02*
X160645279Y-48490000D01*
X160319721Y-49510000D02*
X160645279Y-49510000D01*
G04 #@! TO.C,R36*
X206238721Y-57400000D02*
X206564279Y-57400000D01*
X206238721Y-58420000D02*
X206564279Y-58420000D01*
G04 #@! TO.C,R37*
X200569721Y-64740000D02*
X200895279Y-64740000D01*
X200569721Y-65760000D02*
X200895279Y-65760000D01*
G04 #@! TO.C,R38*
X203160779Y-71628000D02*
X202835221Y-71628000D01*
X203160779Y-70608000D02*
X202835221Y-70608000D01*
G04 #@! TO.C,R39*
X245197779Y-127508000D02*
X244872221Y-127508000D01*
X245197779Y-126488000D02*
X244872221Y-126488000D01*
G04 #@! TO.C,R40*
X220488221Y-124837000D02*
X220813779Y-124837000D01*
X220488221Y-125857000D02*
X220813779Y-125857000D01*
G04 #@! TO.C,R41*
X201057221Y-97532000D02*
X201382779Y-97532000D01*
X201057221Y-98552000D02*
X201382779Y-98552000D01*
G04 #@! TO.C,R42*
X206391221Y-104771000D02*
X206716779Y-104771000D01*
X206391221Y-105791000D02*
X206716779Y-105791000D01*
G04 #@! TO.C,R43*
X196332721Y-101723000D02*
X196658279Y-101723000D01*
X196332721Y-102743000D02*
X196658279Y-102743000D01*
G04 #@! TO.C,J18*
X158270000Y-84170000D02*
X156940000Y-84170000D01*
X156940000Y-84170000D02*
X156940000Y-85500000D01*
X156940000Y-86770000D02*
X156940000Y-102070000D01*
X159600000Y-102070000D02*
X156940000Y-102070000D01*
X159600000Y-86770000D02*
X159600000Y-102070000D01*
X159600000Y-86770000D02*
X156940000Y-86770000D01*
G04 #@! TO.C,J20*
X197970000Y-54130000D02*
X197970000Y-48930000D01*
X197970000Y-48930000D02*
X197400000Y-48930000D01*
X195880000Y-48930000D02*
X194860000Y-48930000D01*
X193340000Y-48930000D02*
X192320000Y-48930000D01*
X190800000Y-48930000D02*
X189780000Y-48930000D01*
X188260000Y-48930000D02*
X187240000Y-48930000D01*
X185720000Y-48930000D02*
X184700000Y-48930000D01*
X183180000Y-48930000D02*
X182160000Y-48930000D01*
X180640000Y-48930000D02*
X179620000Y-48930000D01*
X178100000Y-48930000D02*
X177080000Y-48930000D01*
X175560000Y-48930000D02*
X174540000Y-48930000D01*
X173020000Y-48930000D02*
X172000000Y-48930000D01*
X170480000Y-48930000D02*
X169910000Y-48930000D01*
X169910000Y-54130000D02*
X169910000Y-48930000D01*
X197970000Y-54130000D02*
X197400000Y-54130000D01*
X195880000Y-54130000D02*
X194860000Y-54130000D01*
X193340000Y-54130000D02*
X192320000Y-54130000D01*
X190800000Y-54130000D02*
X189780000Y-54130000D01*
X188260000Y-54130000D02*
X187240000Y-54130000D01*
X185720000Y-54130000D02*
X184700000Y-54130000D01*
X183180000Y-54130000D02*
X182160000Y-54130000D01*
X180640000Y-54130000D02*
X179620000Y-54130000D01*
X178100000Y-54130000D02*
X177080000Y-54130000D01*
X175560000Y-54130000D02*
X174540000Y-54130000D01*
X173020000Y-54130000D02*
X172000000Y-54130000D01*
X170480000Y-54130000D02*
X169910000Y-54130000D01*
X197400000Y-48930000D02*
X197400000Y-47570000D01*
G04 #@! TO.C,J28*
X252440000Y-65590000D02*
X253770000Y-65590000D01*
X253770000Y-65590000D02*
X253770000Y-64260000D01*
X253770000Y-62990000D02*
X253770000Y-55310000D01*
X251110000Y-55310000D02*
X253770000Y-55310000D01*
X251110000Y-62990000D02*
X251110000Y-55310000D01*
X251110000Y-62990000D02*
X253770000Y-62990000D01*
G04 #@! TO.C,J23*
X252390000Y-103590000D02*
X253720000Y-103590000D01*
X253720000Y-103590000D02*
X253720000Y-102260000D01*
X253720000Y-100990000D02*
X253720000Y-93310000D01*
X251060000Y-93310000D02*
X253720000Y-93310000D01*
X251060000Y-100990000D02*
X251060000Y-93310000D01*
X251060000Y-100990000D02*
X253720000Y-100990000D01*
G04 #@! TO.C,R52*
X209312221Y-73787000D02*
X209637779Y-73787000D01*
X209312221Y-72767000D02*
X209637779Y-72767000D01*
G04 #@! TO.C,C29*
X200895279Y-66490000D02*
X200569721Y-66490000D01*
X200895279Y-67510000D02*
X200569721Y-67510000D01*
G04 #@! TO.C,C30*
X202860721Y-72386000D02*
X203186279Y-72386000D01*
X202860721Y-73406000D02*
X203186279Y-73406000D01*
G04 #@! TO.C,C32*
X208780000Y-95124721D02*
X208780000Y-95450279D01*
X207760000Y-95124721D02*
X207760000Y-95450279D01*
G04 #@! TO.C,C33*
X213791000Y-99504721D02*
X213791000Y-99830279D01*
X214811000Y-99504721D02*
X214811000Y-99830279D01*
G04 #@! TO.C,C34*
X209637779Y-70989000D02*
X209312221Y-70989000D01*
X209637779Y-72009000D02*
X209312221Y-72009000D01*
G04 #@! TO.C,D24*
X217942800Y-135788180D02*
X217942800Y-133788180D01*
X217942800Y-133788180D02*
X221842800Y-133788180D01*
X217942800Y-135788180D02*
X221842800Y-135788180D01*
D11*
G04 #@! TO.C,U2*
X191271000Y-69375000D02*
X191271000Y-69325000D01*
X195421000Y-69375000D02*
X195421000Y-69230000D01*
X195421000Y-64225000D02*
X195421000Y-64370000D01*
X191271000Y-64225000D02*
X191271000Y-64370000D01*
X191271000Y-69375000D02*
X195421000Y-69375000D01*
X191271000Y-64225000D02*
X195421000Y-64225000D01*
X191271000Y-69325000D02*
X189871000Y-69325000D01*
G04 #@! TO.C,U4*
X205880000Y-102953000D02*
X205880000Y-102828000D01*
X210530000Y-102953000D02*
X210530000Y-102728000D01*
X210530000Y-97703000D02*
X210530000Y-97928000D01*
X205880000Y-97703000D02*
X205880000Y-97928000D01*
X205880000Y-102953000D02*
X210530000Y-102953000D01*
X205880000Y-97703000D02*
X210530000Y-97703000D01*
X205880000Y-102828000D02*
X204530000Y-102828000D01*
D10*
G04 #@! TO.C,C70*
X156530000Y-71162779D02*
X156530000Y-70837221D01*
X155510000Y-71162779D02*
X155510000Y-70837221D01*
G04 #@! TO.C,C71*
X205432779Y-127010000D02*
X205107221Y-127010000D01*
X205432779Y-125990000D02*
X205107221Y-125990000D01*
G04 #@! TO.C,R56*
X234780000Y-48375279D02*
X234780000Y-48049721D01*
X233760000Y-48375279D02*
X233760000Y-48049721D01*
G04 #@! TO.C,R44*
D11*
X176462857Y-135230380D02*
X176796190Y-134754190D01*
X177034285Y-135230380D02*
X177034285Y-134230380D01*
X176653333Y-134230380D01*
X176558095Y-134278000D01*
X176510476Y-134325619D01*
X176462857Y-134420857D01*
X176462857Y-134563714D01*
X176510476Y-134658952D01*
X176558095Y-134706571D01*
X176653333Y-134754190D01*
X177034285Y-134754190D01*
X175605714Y-134563714D02*
X175605714Y-135230380D01*
X175843809Y-134182761D02*
X176081904Y-134897047D01*
X175462857Y-134897047D01*
X174653333Y-134563714D02*
X174653333Y-135230380D01*
X174891428Y-134182761D02*
X175129523Y-134897047D01*
X174510476Y-134897047D01*
G04 #@! TO.C,R45*
X197125357Y-106382380D02*
X197458690Y-105906190D01*
X197696785Y-106382380D02*
X197696785Y-105382380D01*
X197315833Y-105382380D01*
X197220595Y-105430000D01*
X197172976Y-105477619D01*
X197125357Y-105572857D01*
X197125357Y-105715714D01*
X197172976Y-105810952D01*
X197220595Y-105858571D01*
X197315833Y-105906190D01*
X197696785Y-105906190D01*
X196268214Y-105715714D02*
X196268214Y-106382380D01*
X196506309Y-105334761D02*
X196744404Y-106049047D01*
X196125357Y-106049047D01*
X195268214Y-105382380D02*
X195744404Y-105382380D01*
X195792023Y-105858571D01*
X195744404Y-105810952D01*
X195649166Y-105763333D01*
X195411071Y-105763333D01*
X195315833Y-105810952D01*
X195268214Y-105858571D01*
X195220595Y-105953809D01*
X195220595Y-106191904D01*
X195268214Y-106287142D01*
X195315833Y-106334761D01*
X195411071Y-106382380D01*
X195649166Y-106382380D01*
X195744404Y-106334761D01*
X195792023Y-106287142D01*
G04 #@! TO.C,R46*
X191093357Y-139421380D02*
X191426690Y-138945190D01*
X191664785Y-139421380D02*
X191664785Y-138421380D01*
X191283833Y-138421380D01*
X191188595Y-138469000D01*
X191140976Y-138516619D01*
X191093357Y-138611857D01*
X191093357Y-138754714D01*
X191140976Y-138849952D01*
X191188595Y-138897571D01*
X191283833Y-138945190D01*
X191664785Y-138945190D01*
X190236214Y-138754714D02*
X190236214Y-139421380D01*
X190474309Y-138373761D02*
X190712404Y-139088047D01*
X190093357Y-139088047D01*
X189283833Y-138421380D02*
X189474309Y-138421380D01*
X189569547Y-138469000D01*
X189617166Y-138516619D01*
X189712404Y-138659476D01*
X189760023Y-138849952D01*
X189760023Y-139230904D01*
X189712404Y-139326142D01*
X189664785Y-139373761D01*
X189569547Y-139421380D01*
X189379071Y-139421380D01*
X189283833Y-139373761D01*
X189236214Y-139326142D01*
X189188595Y-139230904D01*
X189188595Y-138992809D01*
X189236214Y-138897571D01*
X189283833Y-138849952D01*
X189379071Y-138802333D01*
X189569547Y-138802333D01*
X189664785Y-138849952D01*
X189712404Y-138897571D01*
X189760023Y-138992809D01*
G04 #@! TO.C,R47*
X209832857Y-63602380D02*
X210166190Y-63126190D01*
X210404285Y-63602380D02*
X210404285Y-62602380D01*
X210023333Y-62602380D01*
X209928095Y-62650000D01*
X209880476Y-62697619D01*
X209832857Y-62792857D01*
X209832857Y-62935714D01*
X209880476Y-63030952D01*
X209928095Y-63078571D01*
X210023333Y-63126190D01*
X210404285Y-63126190D01*
X208975714Y-62935714D02*
X208975714Y-63602380D01*
X209213809Y-62554761D02*
X209451904Y-63269047D01*
X208832857Y-63269047D01*
X208547142Y-62602380D02*
X207880476Y-62602380D01*
X208309047Y-63602380D01*
G04 #@! TO.C,R48*
X206053857Y-138532380D02*
X206387190Y-138056190D01*
X206625285Y-138532380D02*
X206625285Y-137532380D01*
X206244333Y-137532380D01*
X206149095Y-137580000D01*
X206101476Y-137627619D01*
X206053857Y-137722857D01*
X206053857Y-137865714D01*
X206101476Y-137960952D01*
X206149095Y-138008571D01*
X206244333Y-138056190D01*
X206625285Y-138056190D01*
X205196714Y-137865714D02*
X205196714Y-138532380D01*
X205434809Y-137484761D02*
X205672904Y-138199047D01*
X205053857Y-138199047D01*
X204530047Y-137960952D02*
X204625285Y-137913333D01*
X204672904Y-137865714D01*
X204720523Y-137770476D01*
X204720523Y-137722857D01*
X204672904Y-137627619D01*
X204625285Y-137580000D01*
X204530047Y-137532380D01*
X204339571Y-137532380D01*
X204244333Y-137580000D01*
X204196714Y-137627619D01*
X204149095Y-137722857D01*
X204149095Y-137770476D01*
X204196714Y-137865714D01*
X204244333Y-137913333D01*
X204339571Y-137960952D01*
X204530047Y-137960952D01*
X204625285Y-138008571D01*
X204672904Y-138056190D01*
X204720523Y-138151428D01*
X204720523Y-138341904D01*
X204672904Y-138437142D01*
X204625285Y-138484761D01*
X204530047Y-138532380D01*
X204339571Y-138532380D01*
X204244333Y-138484761D01*
X204196714Y-138437142D01*
X204149095Y-138341904D01*
X204149095Y-138151428D01*
X204196714Y-138056190D01*
X204244333Y-138008571D01*
X204339571Y-137960952D01*
G04 #@! TO.C,R49*
X211412857Y-92882380D02*
X211746190Y-92406190D01*
X211984285Y-92882380D02*
X211984285Y-91882380D01*
X211603333Y-91882380D01*
X211508095Y-91930000D01*
X211460476Y-91977619D01*
X211412857Y-92072857D01*
X211412857Y-92215714D01*
X211460476Y-92310952D01*
X211508095Y-92358571D01*
X211603333Y-92406190D01*
X211984285Y-92406190D01*
X210555714Y-92215714D02*
X210555714Y-92882380D01*
X210793809Y-91834761D02*
X211031904Y-92549047D01*
X210412857Y-92549047D01*
X209984285Y-92882380D02*
X209793809Y-92882380D01*
X209698571Y-92834761D01*
X209650952Y-92787142D01*
X209555714Y-92644285D01*
X209508095Y-92453809D01*
X209508095Y-92072857D01*
X209555714Y-91977619D01*
X209603333Y-91930000D01*
X209698571Y-91882380D01*
X209889047Y-91882380D01*
X209984285Y-91930000D01*
X210031904Y-91977619D01*
X210079523Y-92072857D01*
X210079523Y-92310952D01*
X210031904Y-92406190D01*
X209984285Y-92453809D01*
X209889047Y-92501428D01*
X209698571Y-92501428D01*
X209603333Y-92453809D01*
X209555714Y-92406190D01*
X209508095Y-92310952D01*
G04 #@! TO.C,R50*
X211752380Y-94569642D02*
X211276190Y-94236309D01*
X211752380Y-93998214D02*
X210752380Y-93998214D01*
X210752380Y-94379166D01*
X210800000Y-94474404D01*
X210847619Y-94522023D01*
X210942857Y-94569642D01*
X211085714Y-94569642D01*
X211180952Y-94522023D01*
X211228571Y-94474404D01*
X211276190Y-94379166D01*
X211276190Y-93998214D01*
X210752380Y-95474404D02*
X210752380Y-94998214D01*
X211228571Y-94950595D01*
X211180952Y-94998214D01*
X211133333Y-95093452D01*
X211133333Y-95331547D01*
X211180952Y-95426785D01*
X211228571Y-95474404D01*
X211323809Y-95522023D01*
X211561904Y-95522023D01*
X211657142Y-95474404D01*
X211704761Y-95426785D01*
X211752380Y-95331547D01*
X211752380Y-95093452D01*
X211704761Y-94998214D01*
X211657142Y-94950595D01*
X210752380Y-96141071D02*
X210752380Y-96236309D01*
X210800000Y-96331547D01*
X210847619Y-96379166D01*
X210942857Y-96426785D01*
X211133333Y-96474404D01*
X211371428Y-96474404D01*
X211561904Y-96426785D01*
X211657142Y-96379166D01*
X211704761Y-96331547D01*
X211752380Y-96236309D01*
X211752380Y-96141071D01*
X211704761Y-96045833D01*
X211657142Y-95998214D01*
X211561904Y-95950595D01*
X211371428Y-95902976D01*
X211133333Y-95902976D01*
X210942857Y-95950595D01*
X210847619Y-95998214D01*
X210800000Y-96045833D01*
X210752380Y-96141071D01*
G04 #@! TO.C,R51*
X214402380Y-94319642D02*
X213926190Y-93986309D01*
X214402380Y-93748214D02*
X213402380Y-93748214D01*
X213402380Y-94129166D01*
X213450000Y-94224404D01*
X213497619Y-94272023D01*
X213592857Y-94319642D01*
X213735714Y-94319642D01*
X213830952Y-94272023D01*
X213878571Y-94224404D01*
X213926190Y-94129166D01*
X213926190Y-93748214D01*
X213402380Y-95224404D02*
X213402380Y-94748214D01*
X213878571Y-94700595D01*
X213830952Y-94748214D01*
X213783333Y-94843452D01*
X213783333Y-95081547D01*
X213830952Y-95176785D01*
X213878571Y-95224404D01*
X213973809Y-95272023D01*
X214211904Y-95272023D01*
X214307142Y-95224404D01*
X214354761Y-95176785D01*
X214402380Y-95081547D01*
X214402380Y-94843452D01*
X214354761Y-94748214D01*
X214307142Y-94700595D01*
X214402380Y-96224404D02*
X214402380Y-95652976D01*
X214402380Y-95938690D02*
X213402380Y-95938690D01*
X213545238Y-95843452D01*
X213640476Y-95748214D01*
X213688095Y-95652976D01*
G04 #@! TO.C,U1*
X170847380Y-64738095D02*
X171656904Y-64738095D01*
X171752142Y-64785714D01*
X171799761Y-64833333D01*
X171847380Y-64928571D01*
X171847380Y-65119047D01*
X171799761Y-65214285D01*
X171752142Y-65261904D01*
X171656904Y-65309523D01*
X170847380Y-65309523D01*
X171847380Y-66309523D02*
X171847380Y-65738095D01*
X171847380Y-66023809D02*
X170847380Y-66023809D01*
X170990238Y-65928571D01*
X171085476Y-65833333D01*
X171133095Y-65738095D01*
G04 #@! TO.C,U3*
X206761904Y-66282380D02*
X206761904Y-67091904D01*
X206714285Y-67187142D01*
X206666666Y-67234761D01*
X206571428Y-67282380D01*
X206380952Y-67282380D01*
X206285714Y-67234761D01*
X206238095Y-67187142D01*
X206190476Y-67091904D01*
X206190476Y-66282380D01*
X205809523Y-66282380D02*
X205190476Y-66282380D01*
X205523809Y-66663333D01*
X205380952Y-66663333D01*
X205285714Y-66710952D01*
X205238095Y-66758571D01*
X205190476Y-66853809D01*
X205190476Y-67091904D01*
X205238095Y-67187142D01*
X205285714Y-67234761D01*
X205380952Y-67282380D01*
X205666666Y-67282380D01*
X205761904Y-67234761D01*
X205809523Y-67187142D01*
G04 #@! TO.C,Q1*
X161421238Y-126126258D02*
X161516476Y-126078639D01*
X161611714Y-125983400D01*
X161754571Y-125840543D01*
X161849809Y-125792924D01*
X161945047Y-125792924D01*
X161897428Y-126031019D02*
X161992666Y-125983400D01*
X162087904Y-125888162D01*
X162135523Y-125697686D01*
X162135523Y-125364353D01*
X162087904Y-125173877D01*
X161992666Y-125078639D01*
X161897428Y-125031019D01*
X161706952Y-125031019D01*
X161611714Y-125078639D01*
X161516476Y-125173877D01*
X161468857Y-125364353D01*
X161468857Y-125697686D01*
X161516476Y-125888162D01*
X161611714Y-125983400D01*
X161706952Y-126031019D01*
X161897428Y-126031019D01*
X160516476Y-126031019D02*
X161087904Y-126031019D01*
X160802190Y-126031019D02*
X160802190Y-125031019D01*
X160897428Y-125173877D01*
X160992666Y-125269115D01*
X161087904Y-125316734D01*
G04 #@! TO.C,Q2*
X176407238Y-126126258D02*
X176502476Y-126078639D01*
X176597714Y-125983400D01*
X176740571Y-125840543D01*
X176835809Y-125792924D01*
X176931047Y-125792924D01*
X176883428Y-126031019D02*
X176978666Y-125983400D01*
X177073904Y-125888162D01*
X177121523Y-125697686D01*
X177121523Y-125364353D01*
X177073904Y-125173877D01*
X176978666Y-125078639D01*
X176883428Y-125031019D01*
X176692952Y-125031019D01*
X176597714Y-125078639D01*
X176502476Y-125173877D01*
X176454857Y-125364353D01*
X176454857Y-125697686D01*
X176502476Y-125888162D01*
X176597714Y-125983400D01*
X176692952Y-126031019D01*
X176883428Y-126031019D01*
X176073904Y-125126258D02*
X176026285Y-125078639D01*
X175931047Y-125031019D01*
X175692952Y-125031019D01*
X175597714Y-125078639D01*
X175550095Y-125126258D01*
X175502476Y-125221496D01*
X175502476Y-125316734D01*
X175550095Y-125459591D01*
X176121523Y-126031019D01*
X175502476Y-126031019D01*
G04 #@! TO.C,Q3*
X191139238Y-126047619D02*
X191234476Y-126000000D01*
X191329714Y-125904761D01*
X191472571Y-125761904D01*
X191567809Y-125714285D01*
X191663047Y-125714285D01*
X191615428Y-125952380D02*
X191710666Y-125904761D01*
X191805904Y-125809523D01*
X191853523Y-125619047D01*
X191853523Y-125285714D01*
X191805904Y-125095238D01*
X191710666Y-125000000D01*
X191615428Y-124952380D01*
X191424952Y-124952380D01*
X191329714Y-125000000D01*
X191234476Y-125095238D01*
X191186857Y-125285714D01*
X191186857Y-125619047D01*
X191234476Y-125809523D01*
X191329714Y-125904761D01*
X191424952Y-125952380D01*
X191615428Y-125952380D01*
X190853523Y-124952380D02*
X190234476Y-124952380D01*
X190567809Y-125333333D01*
X190424952Y-125333333D01*
X190329714Y-125380952D01*
X190282095Y-125428571D01*
X190234476Y-125523809D01*
X190234476Y-125761904D01*
X190282095Y-125857142D01*
X190329714Y-125904761D01*
X190424952Y-125952380D01*
X190710666Y-125952380D01*
X190805904Y-125904761D01*
X190853523Y-125857142D01*
G04 #@! TO.C,C1*
X182466666Y-107927142D02*
X182514285Y-107974761D01*
X182657142Y-108022380D01*
X182752380Y-108022380D01*
X182895238Y-107974761D01*
X182990476Y-107879523D01*
X183038095Y-107784285D01*
X183085714Y-107593809D01*
X183085714Y-107450952D01*
X183038095Y-107260476D01*
X182990476Y-107165238D01*
X182895238Y-107070000D01*
X182752380Y-107022380D01*
X182657142Y-107022380D01*
X182514285Y-107070000D01*
X182466666Y-107117619D01*
X181514285Y-108022380D02*
X182085714Y-108022380D01*
X181800000Y-108022380D02*
X181800000Y-107022380D01*
X181895238Y-107165238D01*
X181990476Y-107260476D01*
X182085714Y-107308095D01*
G04 #@! TO.C,C2*
X174886666Y-115617142D02*
X174934285Y-115664761D01*
X175077142Y-115712380D01*
X175172380Y-115712380D01*
X175315238Y-115664761D01*
X175410476Y-115569523D01*
X175458095Y-115474285D01*
X175505714Y-115283809D01*
X175505714Y-115140952D01*
X175458095Y-114950476D01*
X175410476Y-114855238D01*
X175315238Y-114760000D01*
X175172380Y-114712380D01*
X175077142Y-114712380D01*
X174934285Y-114760000D01*
X174886666Y-114807619D01*
X174505714Y-114807619D02*
X174458095Y-114760000D01*
X174362857Y-114712380D01*
X174124761Y-114712380D01*
X174029523Y-114760000D01*
X173981904Y-114807619D01*
X173934285Y-114902857D01*
X173934285Y-114998095D01*
X173981904Y-115140952D01*
X174553333Y-115712380D01*
X173934285Y-115712380D01*
G04 #@! TO.C,C3*
X171387142Y-70583333D02*
X171434761Y-70535714D01*
X171482380Y-70392857D01*
X171482380Y-70297619D01*
X171434761Y-70154761D01*
X171339523Y-70059523D01*
X171244285Y-70011904D01*
X171053809Y-69964285D01*
X170910952Y-69964285D01*
X170720476Y-70011904D01*
X170625238Y-70059523D01*
X170530000Y-70154761D01*
X170482380Y-70297619D01*
X170482380Y-70392857D01*
X170530000Y-70535714D01*
X170577619Y-70583333D01*
X170482380Y-70916666D02*
X170482380Y-71535714D01*
X170863333Y-71202380D01*
X170863333Y-71345238D01*
X170910952Y-71440476D01*
X170958571Y-71488095D01*
X171053809Y-71535714D01*
X171291904Y-71535714D01*
X171387142Y-71488095D01*
X171434761Y-71440476D01*
X171482380Y-71345238D01*
X171482380Y-71059523D01*
X171434761Y-70964285D01*
X171387142Y-70916666D01*
G04 #@! TO.C,C4*
X188082142Y-108289333D02*
X188129761Y-108241714D01*
X188177380Y-108098857D01*
X188177380Y-108003619D01*
X188129761Y-107860761D01*
X188034523Y-107765523D01*
X187939285Y-107717904D01*
X187748809Y-107670285D01*
X187605952Y-107670285D01*
X187415476Y-107717904D01*
X187320238Y-107765523D01*
X187225000Y-107860761D01*
X187177380Y-108003619D01*
X187177380Y-108098857D01*
X187225000Y-108241714D01*
X187272619Y-108289333D01*
X187510714Y-109146476D02*
X188177380Y-109146476D01*
X187129761Y-108908380D02*
X187844047Y-108670285D01*
X187844047Y-109289333D01*
G04 #@! TO.C,C6*
X230224166Y-56787142D02*
X230271785Y-56834761D01*
X230414642Y-56882380D01*
X230509880Y-56882380D01*
X230652738Y-56834761D01*
X230747976Y-56739523D01*
X230795595Y-56644285D01*
X230843214Y-56453809D01*
X230843214Y-56310952D01*
X230795595Y-56120476D01*
X230747976Y-56025238D01*
X230652738Y-55930000D01*
X230509880Y-55882380D01*
X230414642Y-55882380D01*
X230271785Y-55930000D01*
X230224166Y-55977619D01*
X229367023Y-55882380D02*
X229557500Y-55882380D01*
X229652738Y-55930000D01*
X229700357Y-55977619D01*
X229795595Y-56120476D01*
X229843214Y-56310952D01*
X229843214Y-56691904D01*
X229795595Y-56787142D01*
X229747976Y-56834761D01*
X229652738Y-56882380D01*
X229462261Y-56882380D01*
X229367023Y-56834761D01*
X229319404Y-56787142D01*
X229271785Y-56691904D01*
X229271785Y-56453809D01*
X229319404Y-56358571D01*
X229367023Y-56310952D01*
X229462261Y-56263333D01*
X229652738Y-56263333D01*
X229747976Y-56310952D01*
X229795595Y-56358571D01*
X229843214Y-56453809D01*
G04 #@! TO.C,C7*
X205399166Y-110927142D02*
X205446785Y-110974761D01*
X205589642Y-111022380D01*
X205684880Y-111022380D01*
X205827738Y-110974761D01*
X205922976Y-110879523D01*
X205970595Y-110784285D01*
X206018214Y-110593809D01*
X206018214Y-110450952D01*
X205970595Y-110260476D01*
X205922976Y-110165238D01*
X205827738Y-110070000D01*
X205684880Y-110022380D01*
X205589642Y-110022380D01*
X205446785Y-110070000D01*
X205399166Y-110117619D01*
X205065833Y-110022380D02*
X204399166Y-110022380D01*
X204827738Y-111022380D01*
G04 #@! TO.C,C8*
X241566666Y-94807142D02*
X241614285Y-94854761D01*
X241757142Y-94902380D01*
X241852380Y-94902380D01*
X241995238Y-94854761D01*
X242090476Y-94759523D01*
X242138095Y-94664285D01*
X242185714Y-94473809D01*
X242185714Y-94330952D01*
X242138095Y-94140476D01*
X242090476Y-94045238D01*
X241995238Y-93950000D01*
X241852380Y-93902380D01*
X241757142Y-93902380D01*
X241614285Y-93950000D01*
X241566666Y-93997619D01*
X240995238Y-94330952D02*
X241090476Y-94283333D01*
X241138095Y-94235714D01*
X241185714Y-94140476D01*
X241185714Y-94092857D01*
X241138095Y-93997619D01*
X241090476Y-93950000D01*
X240995238Y-93902380D01*
X240804761Y-93902380D01*
X240709523Y-93950000D01*
X240661904Y-93997619D01*
X240614285Y-94092857D01*
X240614285Y-94140476D01*
X240661904Y-94235714D01*
X240709523Y-94283333D01*
X240804761Y-94330952D01*
X240995238Y-94330952D01*
X241090476Y-94378571D01*
X241138095Y-94426190D01*
X241185714Y-94521428D01*
X241185714Y-94711904D01*
X241138095Y-94807142D01*
X241090476Y-94854761D01*
X240995238Y-94902380D01*
X240804761Y-94902380D01*
X240709523Y-94854761D01*
X240661904Y-94807142D01*
X240614285Y-94711904D01*
X240614285Y-94521428D01*
X240661904Y-94426190D01*
X240709523Y-94378571D01*
X240804761Y-94330952D01*
G04 #@! TO.C,C9*
X239557142Y-74545833D02*
X239604761Y-74498214D01*
X239652380Y-74355357D01*
X239652380Y-74260119D01*
X239604761Y-74117261D01*
X239509523Y-74022023D01*
X239414285Y-73974404D01*
X239223809Y-73926785D01*
X239080952Y-73926785D01*
X238890476Y-73974404D01*
X238795238Y-74022023D01*
X238700000Y-74117261D01*
X238652380Y-74260119D01*
X238652380Y-74355357D01*
X238700000Y-74498214D01*
X238747619Y-74545833D01*
X239652380Y-75022023D02*
X239652380Y-75212500D01*
X239604761Y-75307738D01*
X239557142Y-75355357D01*
X239414285Y-75450595D01*
X239223809Y-75498214D01*
X238842857Y-75498214D01*
X238747619Y-75450595D01*
X238700000Y-75402976D01*
X238652380Y-75307738D01*
X238652380Y-75117261D01*
X238700000Y-75022023D01*
X238747619Y-74974404D01*
X238842857Y-74926785D01*
X239080952Y-74926785D01*
X239176190Y-74974404D01*
X239223809Y-75022023D01*
X239271428Y-75117261D01*
X239271428Y-75307738D01*
X239223809Y-75402976D01*
X239176190Y-75450595D01*
X239080952Y-75498214D01*
G04 #@! TO.C,C10*
X195612857Y-99147142D02*
X195660476Y-99194761D01*
X195803333Y-99242380D01*
X195898571Y-99242380D01*
X196041428Y-99194761D01*
X196136666Y-99099523D01*
X196184285Y-99004285D01*
X196231904Y-98813809D01*
X196231904Y-98670952D01*
X196184285Y-98480476D01*
X196136666Y-98385238D01*
X196041428Y-98290000D01*
X195898571Y-98242380D01*
X195803333Y-98242380D01*
X195660476Y-98290000D01*
X195612857Y-98337619D01*
X194660476Y-99242380D02*
X195231904Y-99242380D01*
X194946190Y-99242380D02*
X194946190Y-98242380D01*
X195041428Y-98385238D01*
X195136666Y-98480476D01*
X195231904Y-98528095D01*
X194041428Y-98242380D02*
X193946190Y-98242380D01*
X193850952Y-98290000D01*
X193803333Y-98337619D01*
X193755714Y-98432857D01*
X193708095Y-98623333D01*
X193708095Y-98861428D01*
X193755714Y-99051904D01*
X193803333Y-99147142D01*
X193850952Y-99194761D01*
X193946190Y-99242380D01*
X194041428Y-99242380D01*
X194136666Y-99194761D01*
X194184285Y-99147142D01*
X194231904Y-99051904D01*
X194279523Y-98861428D01*
X194279523Y-98623333D01*
X194231904Y-98432857D01*
X194184285Y-98337619D01*
X194136666Y-98290000D01*
X194041428Y-98242380D01*
G04 #@! TO.C,C12*
X195612857Y-97667142D02*
X195660476Y-97714761D01*
X195803333Y-97762380D01*
X195898571Y-97762380D01*
X196041428Y-97714761D01*
X196136666Y-97619523D01*
X196184285Y-97524285D01*
X196231904Y-97333809D01*
X196231904Y-97190952D01*
X196184285Y-97000476D01*
X196136666Y-96905238D01*
X196041428Y-96810000D01*
X195898571Y-96762380D01*
X195803333Y-96762380D01*
X195660476Y-96810000D01*
X195612857Y-96857619D01*
X194660476Y-97762380D02*
X195231904Y-97762380D01*
X194946190Y-97762380D02*
X194946190Y-96762380D01*
X195041428Y-96905238D01*
X195136666Y-97000476D01*
X195231904Y-97048095D01*
X194279523Y-96857619D02*
X194231904Y-96810000D01*
X194136666Y-96762380D01*
X193898571Y-96762380D01*
X193803333Y-96810000D01*
X193755714Y-96857619D01*
X193708095Y-96952857D01*
X193708095Y-97048095D01*
X193755714Y-97190952D01*
X194327142Y-97762380D01*
X193708095Y-97762380D01*
G04 #@! TO.C,C14*
X198497142Y-73777142D02*
X198544761Y-73729523D01*
X198592380Y-73586666D01*
X198592380Y-73491428D01*
X198544761Y-73348571D01*
X198449523Y-73253333D01*
X198354285Y-73205714D01*
X198163809Y-73158095D01*
X198020952Y-73158095D01*
X197830476Y-73205714D01*
X197735238Y-73253333D01*
X197640000Y-73348571D01*
X197592380Y-73491428D01*
X197592380Y-73586666D01*
X197640000Y-73729523D01*
X197687619Y-73777142D01*
X198592380Y-74729523D02*
X198592380Y-74158095D01*
X198592380Y-74443809D02*
X197592380Y-74443809D01*
X197735238Y-74348571D01*
X197830476Y-74253333D01*
X197878095Y-74158095D01*
X197925714Y-75586666D02*
X198592380Y-75586666D01*
X197544761Y-75348571D02*
X198259047Y-75110476D01*
X198259047Y-75729523D01*
G04 #@! TO.C,C15*
X175700357Y-79787142D02*
X175747976Y-79834761D01*
X175890833Y-79882380D01*
X175986071Y-79882380D01*
X176128928Y-79834761D01*
X176224166Y-79739523D01*
X176271785Y-79644285D01*
X176319404Y-79453809D01*
X176319404Y-79310952D01*
X176271785Y-79120476D01*
X176224166Y-79025238D01*
X176128928Y-78930000D01*
X175986071Y-78882380D01*
X175890833Y-78882380D01*
X175747976Y-78930000D01*
X175700357Y-78977619D01*
X174747976Y-79882380D02*
X175319404Y-79882380D01*
X175033690Y-79882380D02*
X175033690Y-78882380D01*
X175128928Y-79025238D01*
X175224166Y-79120476D01*
X175319404Y-79168095D01*
X173843214Y-78882380D02*
X174319404Y-78882380D01*
X174367023Y-79358571D01*
X174319404Y-79310952D01*
X174224166Y-79263333D01*
X173986071Y-79263333D01*
X173890833Y-79310952D01*
X173843214Y-79358571D01*
X173795595Y-79453809D01*
X173795595Y-79691904D01*
X173843214Y-79787142D01*
X173890833Y-79834761D01*
X173986071Y-79882380D01*
X174224166Y-79882380D01*
X174319404Y-79834761D01*
X174367023Y-79787142D01*
G04 #@! TO.C,C16*
X193700357Y-80787142D02*
X193747976Y-80834761D01*
X193890833Y-80882380D01*
X193986071Y-80882380D01*
X194128928Y-80834761D01*
X194224166Y-80739523D01*
X194271785Y-80644285D01*
X194319404Y-80453809D01*
X194319404Y-80310952D01*
X194271785Y-80120476D01*
X194224166Y-80025238D01*
X194128928Y-79930000D01*
X193986071Y-79882380D01*
X193890833Y-79882380D01*
X193747976Y-79930000D01*
X193700357Y-79977619D01*
X192747976Y-80882380D02*
X193319404Y-80882380D01*
X193033690Y-80882380D02*
X193033690Y-79882380D01*
X193128928Y-80025238D01*
X193224166Y-80120476D01*
X193319404Y-80168095D01*
X191890833Y-79882380D02*
X192081309Y-79882380D01*
X192176547Y-79930000D01*
X192224166Y-79977619D01*
X192319404Y-80120476D01*
X192367023Y-80310952D01*
X192367023Y-80691904D01*
X192319404Y-80787142D01*
X192271785Y-80834761D01*
X192176547Y-80882380D01*
X191986071Y-80882380D01*
X191890833Y-80834761D01*
X191843214Y-80787142D01*
X191795595Y-80691904D01*
X191795595Y-80453809D01*
X191843214Y-80358571D01*
X191890833Y-80310952D01*
X191986071Y-80263333D01*
X192176547Y-80263333D01*
X192271785Y-80310952D01*
X192319404Y-80358571D01*
X192367023Y-80453809D01*
G04 #@! TO.C,C17*
X185700357Y-80787142D02*
X185747976Y-80834761D01*
X185890833Y-80882380D01*
X185986071Y-80882380D01*
X186128928Y-80834761D01*
X186224166Y-80739523D01*
X186271785Y-80644285D01*
X186319404Y-80453809D01*
X186319404Y-80310952D01*
X186271785Y-80120476D01*
X186224166Y-80025238D01*
X186128928Y-79930000D01*
X185986071Y-79882380D01*
X185890833Y-79882380D01*
X185747976Y-79930000D01*
X185700357Y-79977619D01*
X184747976Y-80882380D02*
X185319404Y-80882380D01*
X185033690Y-80882380D02*
X185033690Y-79882380D01*
X185128928Y-80025238D01*
X185224166Y-80120476D01*
X185319404Y-80168095D01*
X184414642Y-79882380D02*
X183747976Y-79882380D01*
X184176547Y-80882380D01*
G04 #@! TO.C,C18*
X191307142Y-92894642D02*
X191354761Y-92847023D01*
X191402380Y-92704166D01*
X191402380Y-92608928D01*
X191354761Y-92466071D01*
X191259523Y-92370833D01*
X191164285Y-92323214D01*
X190973809Y-92275595D01*
X190830952Y-92275595D01*
X190640476Y-92323214D01*
X190545238Y-92370833D01*
X190450000Y-92466071D01*
X190402380Y-92608928D01*
X190402380Y-92704166D01*
X190450000Y-92847023D01*
X190497619Y-92894642D01*
X191402380Y-93847023D02*
X191402380Y-93275595D01*
X191402380Y-93561309D02*
X190402380Y-93561309D01*
X190545238Y-93466071D01*
X190640476Y-93370833D01*
X190688095Y-93275595D01*
X190830952Y-94418452D02*
X190783333Y-94323214D01*
X190735714Y-94275595D01*
X190640476Y-94227976D01*
X190592857Y-94227976D01*
X190497619Y-94275595D01*
X190450000Y-94323214D01*
X190402380Y-94418452D01*
X190402380Y-94608928D01*
X190450000Y-94704166D01*
X190497619Y-94751785D01*
X190592857Y-94799404D01*
X190640476Y-94799404D01*
X190735714Y-94751785D01*
X190783333Y-94704166D01*
X190830952Y-94608928D01*
X190830952Y-94418452D01*
X190878571Y-94323214D01*
X190926190Y-94275595D01*
X191021428Y-94227976D01*
X191211904Y-94227976D01*
X191307142Y-94275595D01*
X191354761Y-94323214D01*
X191402380Y-94418452D01*
X191402380Y-94608928D01*
X191354761Y-94704166D01*
X191307142Y-94751785D01*
X191211904Y-94799404D01*
X191021428Y-94799404D01*
X190926190Y-94751785D01*
X190878571Y-94704166D01*
X190830952Y-94608928D01*
G04 #@! TO.C,C20*
X204700357Y-80787142D02*
X204747976Y-80834761D01*
X204890833Y-80882380D01*
X204986071Y-80882380D01*
X205128928Y-80834761D01*
X205224166Y-80739523D01*
X205271785Y-80644285D01*
X205319404Y-80453809D01*
X205319404Y-80310952D01*
X205271785Y-80120476D01*
X205224166Y-80025238D01*
X205128928Y-79930000D01*
X204986071Y-79882380D01*
X204890833Y-79882380D01*
X204747976Y-79930000D01*
X204700357Y-79977619D01*
X204319404Y-79977619D02*
X204271785Y-79930000D01*
X204176547Y-79882380D01*
X203938452Y-79882380D01*
X203843214Y-79930000D01*
X203795595Y-79977619D01*
X203747976Y-80072857D01*
X203747976Y-80168095D01*
X203795595Y-80310952D01*
X204367023Y-80882380D01*
X203747976Y-80882380D01*
X203128928Y-79882380D02*
X203033690Y-79882380D01*
X202938452Y-79930000D01*
X202890833Y-79977619D01*
X202843214Y-80072857D01*
X202795595Y-80263333D01*
X202795595Y-80501428D01*
X202843214Y-80691904D01*
X202890833Y-80787142D01*
X202938452Y-80834761D01*
X203033690Y-80882380D01*
X203128928Y-80882380D01*
X203224166Y-80834761D01*
X203271785Y-80787142D01*
X203319404Y-80691904D01*
X203367023Y-80501428D01*
X203367023Y-80263333D01*
X203319404Y-80072857D01*
X203271785Y-79977619D01*
X203224166Y-79930000D01*
X203128928Y-79882380D01*
G04 #@! TO.C,C21*
X194307142Y-92069642D02*
X194354761Y-92022023D01*
X194402380Y-91879166D01*
X194402380Y-91783928D01*
X194354761Y-91641071D01*
X194259523Y-91545833D01*
X194164285Y-91498214D01*
X193973809Y-91450595D01*
X193830952Y-91450595D01*
X193640476Y-91498214D01*
X193545238Y-91545833D01*
X193450000Y-91641071D01*
X193402380Y-91783928D01*
X193402380Y-91879166D01*
X193450000Y-92022023D01*
X193497619Y-92069642D01*
X193497619Y-92450595D02*
X193450000Y-92498214D01*
X193402380Y-92593452D01*
X193402380Y-92831547D01*
X193450000Y-92926785D01*
X193497619Y-92974404D01*
X193592857Y-93022023D01*
X193688095Y-93022023D01*
X193830952Y-92974404D01*
X194402380Y-92402976D01*
X194402380Y-93022023D01*
X194402380Y-93974404D02*
X194402380Y-93402976D01*
X194402380Y-93688690D02*
X193402380Y-93688690D01*
X193545238Y-93593452D01*
X193640476Y-93498214D01*
X193688095Y-93402976D01*
G04 #@! TO.C,C23*
X196625357Y-81427142D02*
X196672976Y-81474761D01*
X196815833Y-81522380D01*
X196911071Y-81522380D01*
X197053928Y-81474761D01*
X197149166Y-81379523D01*
X197196785Y-81284285D01*
X197244404Y-81093809D01*
X197244404Y-80950952D01*
X197196785Y-80760476D01*
X197149166Y-80665238D01*
X197053928Y-80570000D01*
X196911071Y-80522380D01*
X196815833Y-80522380D01*
X196672976Y-80570000D01*
X196625357Y-80617619D01*
X196244404Y-80617619D02*
X196196785Y-80570000D01*
X196101547Y-80522380D01*
X195863452Y-80522380D01*
X195768214Y-80570000D01*
X195720595Y-80617619D01*
X195672976Y-80712857D01*
X195672976Y-80808095D01*
X195720595Y-80950952D01*
X196292023Y-81522380D01*
X195672976Y-81522380D01*
X195339642Y-80522380D02*
X194720595Y-80522380D01*
X195053928Y-80903333D01*
X194911071Y-80903333D01*
X194815833Y-80950952D01*
X194768214Y-80998571D01*
X194720595Y-81093809D01*
X194720595Y-81331904D01*
X194768214Y-81427142D01*
X194815833Y-81474761D01*
X194911071Y-81522380D01*
X195196785Y-81522380D01*
X195292023Y-81474761D01*
X195339642Y-81427142D01*
G04 #@! TO.C,C24*
X196152857Y-59467142D02*
X196200476Y-59514761D01*
X196343333Y-59562380D01*
X196438571Y-59562380D01*
X196581428Y-59514761D01*
X196676666Y-59419523D01*
X196724285Y-59324285D01*
X196771904Y-59133809D01*
X196771904Y-58990952D01*
X196724285Y-58800476D01*
X196676666Y-58705238D01*
X196581428Y-58610000D01*
X196438571Y-58562380D01*
X196343333Y-58562380D01*
X196200476Y-58610000D01*
X196152857Y-58657619D01*
X195771904Y-58657619D02*
X195724285Y-58610000D01*
X195629047Y-58562380D01*
X195390952Y-58562380D01*
X195295714Y-58610000D01*
X195248095Y-58657619D01*
X195200476Y-58752857D01*
X195200476Y-58848095D01*
X195248095Y-58990952D01*
X195819523Y-59562380D01*
X195200476Y-59562380D01*
X194343333Y-58895714D02*
X194343333Y-59562380D01*
X194581428Y-58514761D02*
X194819523Y-59229047D01*
X194200476Y-59229047D01*
G04 #@! TO.C,C25*
X200437142Y-72807142D02*
X200484761Y-72759523D01*
X200532380Y-72616666D01*
X200532380Y-72521428D01*
X200484761Y-72378571D01*
X200389523Y-72283333D01*
X200294285Y-72235714D01*
X200103809Y-72188095D01*
X199960952Y-72188095D01*
X199770476Y-72235714D01*
X199675238Y-72283333D01*
X199580000Y-72378571D01*
X199532380Y-72521428D01*
X199532380Y-72616666D01*
X199580000Y-72759523D01*
X199627619Y-72807142D01*
X199627619Y-73188095D02*
X199580000Y-73235714D01*
X199532380Y-73330952D01*
X199532380Y-73569047D01*
X199580000Y-73664285D01*
X199627619Y-73711904D01*
X199722857Y-73759523D01*
X199818095Y-73759523D01*
X199960952Y-73711904D01*
X200532380Y-73140476D01*
X200532380Y-73759523D01*
X199532380Y-74664285D02*
X199532380Y-74188095D01*
X200008571Y-74140476D01*
X199960952Y-74188095D01*
X199913333Y-74283333D01*
X199913333Y-74521428D01*
X199960952Y-74616666D01*
X200008571Y-74664285D01*
X200103809Y-74711904D01*
X200341904Y-74711904D01*
X200437142Y-74664285D01*
X200484761Y-74616666D01*
X200532380Y-74521428D01*
X200532380Y-74283333D01*
X200484761Y-74188095D01*
X200437142Y-74140476D01*
G04 #@! TO.C,C26*
X190342857Y-60767142D02*
X190390476Y-60814761D01*
X190533333Y-60862380D01*
X190628571Y-60862380D01*
X190771428Y-60814761D01*
X190866666Y-60719523D01*
X190914285Y-60624285D01*
X190961904Y-60433809D01*
X190961904Y-60290952D01*
X190914285Y-60100476D01*
X190866666Y-60005238D01*
X190771428Y-59910000D01*
X190628571Y-59862380D01*
X190533333Y-59862380D01*
X190390476Y-59910000D01*
X190342857Y-59957619D01*
X189961904Y-59957619D02*
X189914285Y-59910000D01*
X189819047Y-59862380D01*
X189580952Y-59862380D01*
X189485714Y-59910000D01*
X189438095Y-59957619D01*
X189390476Y-60052857D01*
X189390476Y-60148095D01*
X189438095Y-60290952D01*
X190009523Y-60862380D01*
X189390476Y-60862380D01*
X188533333Y-59862380D02*
X188723809Y-59862380D01*
X188819047Y-59910000D01*
X188866666Y-59957619D01*
X188961904Y-60100476D01*
X189009523Y-60290952D01*
X189009523Y-60671904D01*
X188961904Y-60767142D01*
X188914285Y-60814761D01*
X188819047Y-60862380D01*
X188628571Y-60862380D01*
X188533333Y-60814761D01*
X188485714Y-60767142D01*
X188438095Y-60671904D01*
X188438095Y-60433809D01*
X188485714Y-60338571D01*
X188533333Y-60290952D01*
X188628571Y-60243333D01*
X188819047Y-60243333D01*
X188914285Y-60290952D01*
X188961904Y-60338571D01*
X189009523Y-60433809D01*
G04 #@! TO.C,C27*
X195602857Y-73687142D02*
X195650476Y-73734761D01*
X195793333Y-73782380D01*
X195888571Y-73782380D01*
X196031428Y-73734761D01*
X196126666Y-73639523D01*
X196174285Y-73544285D01*
X196221904Y-73353809D01*
X196221904Y-73210952D01*
X196174285Y-73020476D01*
X196126666Y-72925238D01*
X196031428Y-72830000D01*
X195888571Y-72782380D01*
X195793333Y-72782380D01*
X195650476Y-72830000D01*
X195602857Y-72877619D01*
X195221904Y-72877619D02*
X195174285Y-72830000D01*
X195079047Y-72782380D01*
X194840952Y-72782380D01*
X194745714Y-72830000D01*
X194698095Y-72877619D01*
X194650476Y-72972857D01*
X194650476Y-73068095D01*
X194698095Y-73210952D01*
X195269523Y-73782380D01*
X194650476Y-73782380D01*
X194317142Y-72782380D02*
X193650476Y-72782380D01*
X194079047Y-73782380D01*
G04 #@! TO.C,C28*
X207012857Y-54637142D02*
X207060476Y-54684761D01*
X207203333Y-54732380D01*
X207298571Y-54732380D01*
X207441428Y-54684761D01*
X207536666Y-54589523D01*
X207584285Y-54494285D01*
X207631904Y-54303809D01*
X207631904Y-54160952D01*
X207584285Y-53970476D01*
X207536666Y-53875238D01*
X207441428Y-53780000D01*
X207298571Y-53732380D01*
X207203333Y-53732380D01*
X207060476Y-53780000D01*
X207012857Y-53827619D01*
X206631904Y-53827619D02*
X206584285Y-53780000D01*
X206489047Y-53732380D01*
X206250952Y-53732380D01*
X206155714Y-53780000D01*
X206108095Y-53827619D01*
X206060476Y-53922857D01*
X206060476Y-54018095D01*
X206108095Y-54160952D01*
X206679523Y-54732380D01*
X206060476Y-54732380D01*
X205489047Y-54160952D02*
X205584285Y-54113333D01*
X205631904Y-54065714D01*
X205679523Y-53970476D01*
X205679523Y-53922857D01*
X205631904Y-53827619D01*
X205584285Y-53780000D01*
X205489047Y-53732380D01*
X205298571Y-53732380D01*
X205203333Y-53780000D01*
X205155714Y-53827619D01*
X205108095Y-53922857D01*
X205108095Y-53970476D01*
X205155714Y-54065714D01*
X205203333Y-54113333D01*
X205298571Y-54160952D01*
X205489047Y-54160952D01*
X205584285Y-54208571D01*
X205631904Y-54256190D01*
X205679523Y-54351428D01*
X205679523Y-54541904D01*
X205631904Y-54637142D01*
X205584285Y-54684761D01*
X205489047Y-54732380D01*
X205298571Y-54732380D01*
X205203333Y-54684761D01*
X205155714Y-54637142D01*
X205108095Y-54541904D01*
X205108095Y-54351428D01*
X205155714Y-54256190D01*
X205203333Y-54208571D01*
X205298571Y-54160952D01*
G04 #@! TO.C,C31*
X217797142Y-92757142D02*
X217844761Y-92709523D01*
X217892380Y-92566666D01*
X217892380Y-92471428D01*
X217844761Y-92328571D01*
X217749523Y-92233333D01*
X217654285Y-92185714D01*
X217463809Y-92138095D01*
X217320952Y-92138095D01*
X217130476Y-92185714D01*
X217035238Y-92233333D01*
X216940000Y-92328571D01*
X216892380Y-92471428D01*
X216892380Y-92566666D01*
X216940000Y-92709523D01*
X216987619Y-92757142D01*
X216892380Y-93090476D02*
X216892380Y-93709523D01*
X217273333Y-93376190D01*
X217273333Y-93519047D01*
X217320952Y-93614285D01*
X217368571Y-93661904D01*
X217463809Y-93709523D01*
X217701904Y-93709523D01*
X217797142Y-93661904D01*
X217844761Y-93614285D01*
X217892380Y-93519047D01*
X217892380Y-93233333D01*
X217844761Y-93138095D01*
X217797142Y-93090476D01*
X217892380Y-94661904D02*
X217892380Y-94090476D01*
X217892380Y-94376190D02*
X216892380Y-94376190D01*
X217035238Y-94280952D01*
X217130476Y-94185714D01*
X217178095Y-94090476D01*
G04 #@! TO.C,R1*
X160772166Y-71382380D02*
X161105500Y-70906190D01*
X161343595Y-71382380D02*
X161343595Y-70382380D01*
X160962642Y-70382380D01*
X160867404Y-70430000D01*
X160819785Y-70477619D01*
X160772166Y-70572857D01*
X160772166Y-70715714D01*
X160819785Y-70810952D01*
X160867404Y-70858571D01*
X160962642Y-70906190D01*
X161343595Y-70906190D01*
X159819785Y-71382380D02*
X160391214Y-71382380D01*
X160105500Y-71382380D02*
X160105500Y-70382380D01*
X160200738Y-70525238D01*
X160295976Y-70620476D01*
X160391214Y-70668095D01*
G04 #@! TO.C,R2*
X182336666Y-104242380D02*
X182670000Y-103766190D01*
X182908095Y-104242380D02*
X182908095Y-103242380D01*
X182527142Y-103242380D01*
X182431904Y-103290000D01*
X182384285Y-103337619D01*
X182336666Y-103432857D01*
X182336666Y-103575714D01*
X182384285Y-103670952D01*
X182431904Y-103718571D01*
X182527142Y-103766190D01*
X182908095Y-103766190D01*
X181955714Y-103337619D02*
X181908095Y-103290000D01*
X181812857Y-103242380D01*
X181574761Y-103242380D01*
X181479523Y-103290000D01*
X181431904Y-103337619D01*
X181384285Y-103432857D01*
X181384285Y-103528095D01*
X181431904Y-103670952D01*
X182003333Y-104242380D01*
X181384285Y-104242380D01*
G04 #@! TO.C,R3*
X174716666Y-110272380D02*
X175050000Y-109796190D01*
X175288095Y-110272380D02*
X175288095Y-109272380D01*
X174907142Y-109272380D01*
X174811904Y-109320000D01*
X174764285Y-109367619D01*
X174716666Y-109462857D01*
X174716666Y-109605714D01*
X174764285Y-109700952D01*
X174811904Y-109748571D01*
X174907142Y-109796190D01*
X175288095Y-109796190D01*
X174383333Y-109272380D02*
X173764285Y-109272380D01*
X174097619Y-109653333D01*
X173954761Y-109653333D01*
X173859523Y-109700952D01*
X173811904Y-109748571D01*
X173764285Y-109843809D01*
X173764285Y-110081904D01*
X173811904Y-110177142D01*
X173859523Y-110224761D01*
X173954761Y-110272380D01*
X174240476Y-110272380D01*
X174335714Y-110224761D01*
X174383333Y-110177142D01*
G04 #@! TO.C,R4*
X177042380Y-101795833D02*
X176566190Y-101462500D01*
X177042380Y-101224404D02*
X176042380Y-101224404D01*
X176042380Y-101605357D01*
X176090000Y-101700595D01*
X176137619Y-101748214D01*
X176232857Y-101795833D01*
X176375714Y-101795833D01*
X176470952Y-101748214D01*
X176518571Y-101700595D01*
X176566190Y-101605357D01*
X176566190Y-101224404D01*
X176375714Y-102652976D02*
X177042380Y-102652976D01*
X175994761Y-102414880D02*
X176709047Y-102176785D01*
X176709047Y-102795833D01*
G04 #@! TO.C,R5*
X173149166Y-108382380D02*
X173482500Y-107906190D01*
X173720595Y-108382380D02*
X173720595Y-107382380D01*
X173339642Y-107382380D01*
X173244404Y-107430000D01*
X173196785Y-107477619D01*
X173149166Y-107572857D01*
X173149166Y-107715714D01*
X173196785Y-107810952D01*
X173244404Y-107858571D01*
X173339642Y-107906190D01*
X173720595Y-107906190D01*
X172244404Y-107382380D02*
X172720595Y-107382380D01*
X172768214Y-107858571D01*
X172720595Y-107810952D01*
X172625357Y-107763333D01*
X172387261Y-107763333D01*
X172292023Y-107810952D01*
X172244404Y-107858571D01*
X172196785Y-107953809D01*
X172196785Y-108191904D01*
X172244404Y-108287142D01*
X172292023Y-108334761D01*
X172387261Y-108382380D01*
X172625357Y-108382380D01*
X172720595Y-108334761D01*
X172768214Y-108287142D01*
G04 #@! TO.C,R6*
X194692380Y-101643333D02*
X194216190Y-101310000D01*
X194692380Y-101071904D02*
X193692380Y-101071904D01*
X193692380Y-101452857D01*
X193740000Y-101548095D01*
X193787619Y-101595714D01*
X193882857Y-101643333D01*
X194025714Y-101643333D01*
X194120952Y-101595714D01*
X194168571Y-101548095D01*
X194216190Y-101452857D01*
X194216190Y-101071904D01*
X193692380Y-102500476D02*
X193692380Y-102310000D01*
X193740000Y-102214761D01*
X193787619Y-102167142D01*
X193930476Y-102071904D01*
X194120952Y-102024285D01*
X194501904Y-102024285D01*
X194597142Y-102071904D01*
X194644761Y-102119523D01*
X194692380Y-102214761D01*
X194692380Y-102405238D01*
X194644761Y-102500476D01*
X194597142Y-102548095D01*
X194501904Y-102595714D01*
X194263809Y-102595714D01*
X194168571Y-102548095D01*
X194120952Y-102500476D01*
X194073333Y-102405238D01*
X194073333Y-102214761D01*
X194120952Y-102119523D01*
X194168571Y-102071904D01*
X194263809Y-102024285D01*
G04 #@! TO.C,R7*
X190162380Y-101673333D02*
X189686190Y-101340000D01*
X190162380Y-101101904D02*
X189162380Y-101101904D01*
X189162380Y-101482857D01*
X189210000Y-101578095D01*
X189257619Y-101625714D01*
X189352857Y-101673333D01*
X189495714Y-101673333D01*
X189590952Y-101625714D01*
X189638571Y-101578095D01*
X189686190Y-101482857D01*
X189686190Y-101101904D01*
X189162380Y-102006666D02*
X189162380Y-102673333D01*
X190162380Y-102244761D01*
G04 #@! TO.C,R8*
X157673166Y-121956380D02*
X158006500Y-121480190D01*
X158244595Y-121956380D02*
X158244595Y-120956380D01*
X157863642Y-120956380D01*
X157768404Y-121004000D01*
X157720785Y-121051619D01*
X157673166Y-121146857D01*
X157673166Y-121289714D01*
X157720785Y-121384952D01*
X157768404Y-121432571D01*
X157863642Y-121480190D01*
X158244595Y-121480190D01*
X157101738Y-121384952D02*
X157196976Y-121337333D01*
X157244595Y-121289714D01*
X157292214Y-121194476D01*
X157292214Y-121146857D01*
X157244595Y-121051619D01*
X157196976Y-121004000D01*
X157101738Y-120956380D01*
X156911261Y-120956380D01*
X156816023Y-121004000D01*
X156768404Y-121051619D01*
X156720785Y-121146857D01*
X156720785Y-121194476D01*
X156768404Y-121289714D01*
X156816023Y-121337333D01*
X156911261Y-121384952D01*
X157101738Y-121384952D01*
X157196976Y-121432571D01*
X157244595Y-121480190D01*
X157292214Y-121575428D01*
X157292214Y-121765904D01*
X157244595Y-121861142D01*
X157196976Y-121908761D01*
X157101738Y-121956380D01*
X156911261Y-121956380D01*
X156816023Y-121908761D01*
X156768404Y-121861142D01*
X156720785Y-121765904D01*
X156720785Y-121575428D01*
X156768404Y-121480190D01*
X156816023Y-121432571D01*
X156911261Y-121384952D01*
G04 #@! TO.C,R9*
X172659166Y-121956380D02*
X172992500Y-121480190D01*
X173230595Y-121956380D02*
X173230595Y-120956380D01*
X172849642Y-120956380D01*
X172754404Y-121004000D01*
X172706785Y-121051619D01*
X172659166Y-121146857D01*
X172659166Y-121289714D01*
X172706785Y-121384952D01*
X172754404Y-121432571D01*
X172849642Y-121480190D01*
X173230595Y-121480190D01*
X172182976Y-121956380D02*
X171992500Y-121956380D01*
X171897261Y-121908761D01*
X171849642Y-121861142D01*
X171754404Y-121718285D01*
X171706785Y-121527809D01*
X171706785Y-121146857D01*
X171754404Y-121051619D01*
X171802023Y-121004000D01*
X171897261Y-120956380D01*
X172087738Y-120956380D01*
X172182976Y-121004000D01*
X172230595Y-121051619D01*
X172278214Y-121146857D01*
X172278214Y-121384952D01*
X172230595Y-121480190D01*
X172182976Y-121527809D01*
X172087738Y-121575428D01*
X171897261Y-121575428D01*
X171802023Y-121527809D01*
X171754404Y-121480190D01*
X171706785Y-121384952D01*
G04 #@! TO.C,R10*
X187918357Y-121956380D02*
X188251690Y-121480190D01*
X188489785Y-121956380D02*
X188489785Y-120956380D01*
X188108833Y-120956380D01*
X188013595Y-121004000D01*
X187965976Y-121051619D01*
X187918357Y-121146857D01*
X187918357Y-121289714D01*
X187965976Y-121384952D01*
X188013595Y-121432571D01*
X188108833Y-121480190D01*
X188489785Y-121480190D01*
X186965976Y-121956380D02*
X187537404Y-121956380D01*
X187251690Y-121956380D02*
X187251690Y-120956380D01*
X187346928Y-121099238D01*
X187442166Y-121194476D01*
X187537404Y-121242095D01*
X186346928Y-120956380D02*
X186251690Y-120956380D01*
X186156452Y-121004000D01*
X186108833Y-121051619D01*
X186061214Y-121146857D01*
X186013595Y-121337333D01*
X186013595Y-121575428D01*
X186061214Y-121765904D01*
X186108833Y-121861142D01*
X186156452Y-121908761D01*
X186251690Y-121956380D01*
X186346928Y-121956380D01*
X186442166Y-121908761D01*
X186489785Y-121861142D01*
X186537404Y-121765904D01*
X186585023Y-121575428D01*
X186585023Y-121337333D01*
X186537404Y-121146857D01*
X186489785Y-121051619D01*
X186442166Y-121004000D01*
X186346928Y-120956380D01*
G04 #@! TO.C,R11*
X165820357Y-121956380D02*
X166153690Y-121480190D01*
X166391785Y-121956380D02*
X166391785Y-120956380D01*
X166010833Y-120956380D01*
X165915595Y-121004000D01*
X165867976Y-121051619D01*
X165820357Y-121146857D01*
X165820357Y-121289714D01*
X165867976Y-121384952D01*
X165915595Y-121432571D01*
X166010833Y-121480190D01*
X166391785Y-121480190D01*
X164867976Y-121956380D02*
X165439404Y-121956380D01*
X165153690Y-121956380D02*
X165153690Y-120956380D01*
X165248928Y-121099238D01*
X165344166Y-121194476D01*
X165439404Y-121242095D01*
X163915595Y-121956380D02*
X164487023Y-121956380D01*
X164201309Y-121956380D02*
X164201309Y-120956380D01*
X164296547Y-121099238D01*
X164391785Y-121194476D01*
X164487023Y-121242095D01*
G04 #@! TO.C,R12*
X180780857Y-121956380D02*
X181114190Y-121480190D01*
X181352285Y-121956380D02*
X181352285Y-120956380D01*
X180971333Y-120956380D01*
X180876095Y-121004000D01*
X180828476Y-121051619D01*
X180780857Y-121146857D01*
X180780857Y-121289714D01*
X180828476Y-121384952D01*
X180876095Y-121432571D01*
X180971333Y-121480190D01*
X181352285Y-121480190D01*
X179828476Y-121956380D02*
X180399904Y-121956380D01*
X180114190Y-121956380D02*
X180114190Y-120956380D01*
X180209428Y-121099238D01*
X180304666Y-121194476D01*
X180399904Y-121242095D01*
X179447523Y-121051619D02*
X179399904Y-121004000D01*
X179304666Y-120956380D01*
X179066571Y-120956380D01*
X178971333Y-121004000D01*
X178923714Y-121051619D01*
X178876095Y-121146857D01*
X178876095Y-121242095D01*
X178923714Y-121384952D01*
X179495142Y-121956380D01*
X178876095Y-121956380D01*
G04 #@! TO.C,R13*
X195512857Y-121956380D02*
X195846190Y-121480190D01*
X196084285Y-121956380D02*
X196084285Y-120956380D01*
X195703333Y-120956380D01*
X195608095Y-121004000D01*
X195560476Y-121051619D01*
X195512857Y-121146857D01*
X195512857Y-121289714D01*
X195560476Y-121384952D01*
X195608095Y-121432571D01*
X195703333Y-121480190D01*
X196084285Y-121480190D01*
X194560476Y-121956380D02*
X195131904Y-121956380D01*
X194846190Y-121956380D02*
X194846190Y-120956380D01*
X194941428Y-121099238D01*
X195036666Y-121194476D01*
X195131904Y-121242095D01*
X194227142Y-120956380D02*
X193608095Y-120956380D01*
X193941428Y-121337333D01*
X193798571Y-121337333D01*
X193703333Y-121384952D01*
X193655714Y-121432571D01*
X193608095Y-121527809D01*
X193608095Y-121765904D01*
X193655714Y-121861142D01*
X193703333Y-121908761D01*
X193798571Y-121956380D01*
X194084285Y-121956380D01*
X194179523Y-121908761D01*
X194227142Y-121861142D01*
G04 #@! TO.C,R14*
X170912857Y-118382380D02*
X171246190Y-117906190D01*
X171484285Y-118382380D02*
X171484285Y-117382380D01*
X171103333Y-117382380D01*
X171008095Y-117430000D01*
X170960476Y-117477619D01*
X170912857Y-117572857D01*
X170912857Y-117715714D01*
X170960476Y-117810952D01*
X171008095Y-117858571D01*
X171103333Y-117906190D01*
X171484285Y-117906190D01*
X169960476Y-118382380D02*
X170531904Y-118382380D01*
X170246190Y-118382380D02*
X170246190Y-117382380D01*
X170341428Y-117525238D01*
X170436666Y-117620476D01*
X170531904Y-117668095D01*
X169103333Y-117715714D02*
X169103333Y-118382380D01*
X169341428Y-117334761D02*
X169579523Y-118049047D01*
X168960476Y-118049047D01*
G04 #@! TO.C,R15*
X227034357Y-79350380D02*
X227367690Y-78874190D01*
X227605785Y-79350380D02*
X227605785Y-78350380D01*
X227224833Y-78350380D01*
X227129595Y-78398000D01*
X227081976Y-78445619D01*
X227034357Y-78540857D01*
X227034357Y-78683714D01*
X227081976Y-78778952D01*
X227129595Y-78826571D01*
X227224833Y-78874190D01*
X227605785Y-78874190D01*
X226081976Y-79350380D02*
X226653404Y-79350380D01*
X226367690Y-79350380D02*
X226367690Y-78350380D01*
X226462928Y-78493238D01*
X226558166Y-78588476D01*
X226653404Y-78636095D01*
X225177214Y-78350380D02*
X225653404Y-78350380D01*
X225701023Y-78826571D01*
X225653404Y-78778952D01*
X225558166Y-78731333D01*
X225320071Y-78731333D01*
X225224833Y-78778952D01*
X225177214Y-78826571D01*
X225129595Y-78921809D01*
X225129595Y-79159904D01*
X225177214Y-79255142D01*
X225224833Y-79302761D01*
X225320071Y-79350380D01*
X225558166Y-79350380D01*
X225653404Y-79302761D01*
X225701023Y-79255142D01*
G04 #@! TO.C,R17*
X168792380Y-97069642D02*
X168316190Y-96736309D01*
X168792380Y-96498214D02*
X167792380Y-96498214D01*
X167792380Y-96879166D01*
X167840000Y-96974404D01*
X167887619Y-97022023D01*
X167982857Y-97069642D01*
X168125714Y-97069642D01*
X168220952Y-97022023D01*
X168268571Y-96974404D01*
X168316190Y-96879166D01*
X168316190Y-96498214D01*
X168792380Y-98022023D02*
X168792380Y-97450595D01*
X168792380Y-97736309D02*
X167792380Y-97736309D01*
X167935238Y-97641071D01*
X168030476Y-97545833D01*
X168078095Y-97450595D01*
X167792380Y-98355357D02*
X167792380Y-99022023D01*
X168792380Y-98593452D01*
G04 #@! TO.C,R18*
X226907357Y-89383380D02*
X227240690Y-88907190D01*
X227478785Y-89383380D02*
X227478785Y-88383380D01*
X227097833Y-88383380D01*
X227002595Y-88431000D01*
X226954976Y-88478619D01*
X226907357Y-88573857D01*
X226907357Y-88716714D01*
X226954976Y-88811952D01*
X227002595Y-88859571D01*
X227097833Y-88907190D01*
X227478785Y-88907190D01*
X225954976Y-89383380D02*
X226526404Y-89383380D01*
X226240690Y-89383380D02*
X226240690Y-88383380D01*
X226335928Y-88526238D01*
X226431166Y-88621476D01*
X226526404Y-88669095D01*
X225383547Y-88811952D02*
X225478785Y-88764333D01*
X225526404Y-88716714D01*
X225574023Y-88621476D01*
X225574023Y-88573857D01*
X225526404Y-88478619D01*
X225478785Y-88431000D01*
X225383547Y-88383380D01*
X225193071Y-88383380D01*
X225097833Y-88431000D01*
X225050214Y-88478619D01*
X225002595Y-88573857D01*
X225002595Y-88621476D01*
X225050214Y-88716714D01*
X225097833Y-88764333D01*
X225193071Y-88811952D01*
X225383547Y-88811952D01*
X225478785Y-88859571D01*
X225526404Y-88907190D01*
X225574023Y-89002428D01*
X225574023Y-89192904D01*
X225526404Y-89288142D01*
X225478785Y-89335761D01*
X225383547Y-89383380D01*
X225193071Y-89383380D01*
X225097833Y-89335761D01*
X225050214Y-89288142D01*
X225002595Y-89192904D01*
X225002595Y-89002428D01*
X225050214Y-88907190D01*
X225097833Y-88859571D01*
X225193071Y-88811952D01*
G04 #@! TO.C,R20*
X196592857Y-96032380D02*
X196926190Y-95556190D01*
X197164285Y-96032380D02*
X197164285Y-95032380D01*
X196783333Y-95032380D01*
X196688095Y-95080000D01*
X196640476Y-95127619D01*
X196592857Y-95222857D01*
X196592857Y-95365714D01*
X196640476Y-95460952D01*
X196688095Y-95508571D01*
X196783333Y-95556190D01*
X197164285Y-95556190D01*
X196211904Y-95127619D02*
X196164285Y-95080000D01*
X196069047Y-95032380D01*
X195830952Y-95032380D01*
X195735714Y-95080000D01*
X195688095Y-95127619D01*
X195640476Y-95222857D01*
X195640476Y-95318095D01*
X195688095Y-95460952D01*
X196259523Y-96032380D01*
X195640476Y-96032380D01*
X195021428Y-95032380D02*
X194926190Y-95032380D01*
X194830952Y-95080000D01*
X194783333Y-95127619D01*
X194735714Y-95222857D01*
X194688095Y-95413333D01*
X194688095Y-95651428D01*
X194735714Y-95841904D01*
X194783333Y-95937142D01*
X194830952Y-95984761D01*
X194926190Y-96032380D01*
X195021428Y-96032380D01*
X195116666Y-95984761D01*
X195164285Y-95937142D01*
X195211904Y-95841904D01*
X195259523Y-95651428D01*
X195259523Y-95413333D01*
X195211904Y-95222857D01*
X195164285Y-95127619D01*
X195116666Y-95080000D01*
X195021428Y-95032380D01*
G04 #@! TO.C,R21*
X226729357Y-99416380D02*
X227062690Y-98940190D01*
X227300785Y-99416380D02*
X227300785Y-98416380D01*
X226919833Y-98416380D01*
X226824595Y-98464000D01*
X226776976Y-98511619D01*
X226729357Y-98606857D01*
X226729357Y-98749714D01*
X226776976Y-98844952D01*
X226824595Y-98892571D01*
X226919833Y-98940190D01*
X227300785Y-98940190D01*
X226348404Y-98511619D02*
X226300785Y-98464000D01*
X226205547Y-98416380D01*
X225967452Y-98416380D01*
X225872214Y-98464000D01*
X225824595Y-98511619D01*
X225776976Y-98606857D01*
X225776976Y-98702095D01*
X225824595Y-98844952D01*
X226396023Y-99416380D01*
X225776976Y-99416380D01*
X224824595Y-99416380D02*
X225396023Y-99416380D01*
X225110309Y-99416380D02*
X225110309Y-98416380D01*
X225205547Y-98559238D01*
X225300785Y-98654476D01*
X225396023Y-98702095D01*
G04 #@! TO.C,R22*
X168125357Y-82382380D02*
X168458690Y-81906190D01*
X168696785Y-82382380D02*
X168696785Y-81382380D01*
X168315833Y-81382380D01*
X168220595Y-81430000D01*
X168172976Y-81477619D01*
X168125357Y-81572857D01*
X168125357Y-81715714D01*
X168172976Y-81810952D01*
X168220595Y-81858571D01*
X168315833Y-81906190D01*
X168696785Y-81906190D01*
X167744404Y-81477619D02*
X167696785Y-81430000D01*
X167601547Y-81382380D01*
X167363452Y-81382380D01*
X167268214Y-81430000D01*
X167220595Y-81477619D01*
X167172976Y-81572857D01*
X167172976Y-81668095D01*
X167220595Y-81810952D01*
X167792023Y-82382380D01*
X167172976Y-82382380D01*
X166792023Y-81477619D02*
X166744404Y-81430000D01*
X166649166Y-81382380D01*
X166411071Y-81382380D01*
X166315833Y-81430000D01*
X166268214Y-81477619D01*
X166220595Y-81572857D01*
X166220595Y-81668095D01*
X166268214Y-81810952D01*
X166839642Y-82382380D01*
X166220595Y-82382380D01*
G04 #@! TO.C,R23*
X233450357Y-111132380D02*
X233783690Y-110656190D01*
X234021785Y-111132380D02*
X234021785Y-110132380D01*
X233640833Y-110132380D01*
X233545595Y-110180000D01*
X233497976Y-110227619D01*
X233450357Y-110322857D01*
X233450357Y-110465714D01*
X233497976Y-110560952D01*
X233545595Y-110608571D01*
X233640833Y-110656190D01*
X234021785Y-110656190D01*
X233069404Y-110227619D02*
X233021785Y-110180000D01*
X232926547Y-110132380D01*
X232688452Y-110132380D01*
X232593214Y-110180000D01*
X232545595Y-110227619D01*
X232497976Y-110322857D01*
X232497976Y-110418095D01*
X232545595Y-110560952D01*
X233117023Y-111132380D01*
X232497976Y-111132380D01*
X232164642Y-110132380D02*
X231545595Y-110132380D01*
X231878928Y-110513333D01*
X231736071Y-110513333D01*
X231640833Y-110560952D01*
X231593214Y-110608571D01*
X231545595Y-110703809D01*
X231545595Y-110941904D01*
X231593214Y-111037142D01*
X231640833Y-111084761D01*
X231736071Y-111132380D01*
X232021785Y-111132380D01*
X232117023Y-111084761D01*
X232164642Y-111037142D01*
G04 #@! TO.C,R24*
X226627857Y-102083380D02*
X226961190Y-101607190D01*
X227199285Y-102083380D02*
X227199285Y-101083380D01*
X226818333Y-101083380D01*
X226723095Y-101131000D01*
X226675476Y-101178619D01*
X226627857Y-101273857D01*
X226627857Y-101416714D01*
X226675476Y-101511952D01*
X226723095Y-101559571D01*
X226818333Y-101607190D01*
X227199285Y-101607190D01*
X226246904Y-101178619D02*
X226199285Y-101131000D01*
X226104047Y-101083380D01*
X225865952Y-101083380D01*
X225770714Y-101131000D01*
X225723095Y-101178619D01*
X225675476Y-101273857D01*
X225675476Y-101369095D01*
X225723095Y-101511952D01*
X226294523Y-102083380D01*
X225675476Y-102083380D01*
X224818333Y-101416714D02*
X224818333Y-102083380D01*
X225056428Y-101035761D02*
X225294523Y-101750047D01*
X224675476Y-101750047D01*
G04 #@! TO.C,R25*
X199042857Y-63932380D02*
X199376190Y-63456190D01*
X199614285Y-63932380D02*
X199614285Y-62932380D01*
X199233333Y-62932380D01*
X199138095Y-62980000D01*
X199090476Y-63027619D01*
X199042857Y-63122857D01*
X199042857Y-63265714D01*
X199090476Y-63360952D01*
X199138095Y-63408571D01*
X199233333Y-63456190D01*
X199614285Y-63456190D01*
X198661904Y-63027619D02*
X198614285Y-62980000D01*
X198519047Y-62932380D01*
X198280952Y-62932380D01*
X198185714Y-62980000D01*
X198138095Y-63027619D01*
X198090476Y-63122857D01*
X198090476Y-63218095D01*
X198138095Y-63360952D01*
X198709523Y-63932380D01*
X198090476Y-63932380D01*
X197185714Y-62932380D02*
X197661904Y-62932380D01*
X197709523Y-63408571D01*
X197661904Y-63360952D01*
X197566666Y-63313333D01*
X197328571Y-63313333D01*
X197233333Y-63360952D01*
X197185714Y-63408571D01*
X197138095Y-63503809D01*
X197138095Y-63741904D01*
X197185714Y-63837142D01*
X197233333Y-63884761D01*
X197328571Y-63932380D01*
X197566666Y-63932380D01*
X197661904Y-63884761D01*
X197709523Y-63837142D01*
G04 #@! TO.C,R26*
X197067380Y-66792142D02*
X196591190Y-66458809D01*
X197067380Y-66220714D02*
X196067380Y-66220714D01*
X196067380Y-66601666D01*
X196115000Y-66696904D01*
X196162619Y-66744523D01*
X196257857Y-66792142D01*
X196400714Y-66792142D01*
X196495952Y-66744523D01*
X196543571Y-66696904D01*
X196591190Y-66601666D01*
X196591190Y-66220714D01*
X196162619Y-67173095D02*
X196115000Y-67220714D01*
X196067380Y-67315952D01*
X196067380Y-67554047D01*
X196115000Y-67649285D01*
X196162619Y-67696904D01*
X196257857Y-67744523D01*
X196353095Y-67744523D01*
X196495952Y-67696904D01*
X197067380Y-67125476D01*
X197067380Y-67744523D01*
X196067380Y-68601666D02*
X196067380Y-68411190D01*
X196115000Y-68315952D01*
X196162619Y-68268333D01*
X196305476Y-68173095D01*
X196495952Y-68125476D01*
X196876904Y-68125476D01*
X196972142Y-68173095D01*
X197019761Y-68220714D01*
X197067380Y-68315952D01*
X197067380Y-68506428D01*
X197019761Y-68601666D01*
X196972142Y-68649285D01*
X196876904Y-68696904D01*
X196638809Y-68696904D01*
X196543571Y-68649285D01*
X196495952Y-68601666D01*
X196448333Y-68506428D01*
X196448333Y-68315952D01*
X196495952Y-68220714D01*
X196543571Y-68173095D01*
X196638809Y-68125476D01*
G04 #@! TO.C,R27*
X245677857Y-136053380D02*
X246011190Y-135577190D01*
X246249285Y-136053380D02*
X246249285Y-135053380D01*
X245868333Y-135053380D01*
X245773095Y-135101000D01*
X245725476Y-135148619D01*
X245677857Y-135243857D01*
X245677857Y-135386714D01*
X245725476Y-135481952D01*
X245773095Y-135529571D01*
X245868333Y-135577190D01*
X246249285Y-135577190D01*
X245296904Y-135148619D02*
X245249285Y-135101000D01*
X245154047Y-135053380D01*
X244915952Y-135053380D01*
X244820714Y-135101000D01*
X244773095Y-135148619D01*
X244725476Y-135243857D01*
X244725476Y-135339095D01*
X244773095Y-135481952D01*
X245344523Y-136053380D01*
X244725476Y-136053380D01*
X244392142Y-135053380D02*
X243725476Y-135053380D01*
X244154047Y-136053380D01*
G04 #@! TO.C,R28*
X190322857Y-62512380D02*
X190656190Y-62036190D01*
X190894285Y-62512380D02*
X190894285Y-61512380D01*
X190513333Y-61512380D01*
X190418095Y-61560000D01*
X190370476Y-61607619D01*
X190322857Y-61702857D01*
X190322857Y-61845714D01*
X190370476Y-61940952D01*
X190418095Y-61988571D01*
X190513333Y-62036190D01*
X190894285Y-62036190D01*
X189941904Y-61607619D02*
X189894285Y-61560000D01*
X189799047Y-61512380D01*
X189560952Y-61512380D01*
X189465714Y-61560000D01*
X189418095Y-61607619D01*
X189370476Y-61702857D01*
X189370476Y-61798095D01*
X189418095Y-61940952D01*
X189989523Y-62512380D01*
X189370476Y-62512380D01*
X188799047Y-61940952D02*
X188894285Y-61893333D01*
X188941904Y-61845714D01*
X188989523Y-61750476D01*
X188989523Y-61702857D01*
X188941904Y-61607619D01*
X188894285Y-61560000D01*
X188799047Y-61512380D01*
X188608571Y-61512380D01*
X188513333Y-61560000D01*
X188465714Y-61607619D01*
X188418095Y-61702857D01*
X188418095Y-61750476D01*
X188465714Y-61845714D01*
X188513333Y-61893333D01*
X188608571Y-61940952D01*
X188799047Y-61940952D01*
X188894285Y-61988571D01*
X188941904Y-62036190D01*
X188989523Y-62131428D01*
X188989523Y-62321904D01*
X188941904Y-62417142D01*
X188894285Y-62464761D01*
X188799047Y-62512380D01*
X188608571Y-62512380D01*
X188513333Y-62464761D01*
X188465714Y-62417142D01*
X188418095Y-62321904D01*
X188418095Y-62131428D01*
X188465714Y-62036190D01*
X188513333Y-61988571D01*
X188608571Y-61940952D01*
G04 #@! TO.C,R29*
X192100357Y-73882380D02*
X192433690Y-73406190D01*
X192671785Y-73882380D02*
X192671785Y-72882380D01*
X192290833Y-72882380D01*
X192195595Y-72930000D01*
X192147976Y-72977619D01*
X192100357Y-73072857D01*
X192100357Y-73215714D01*
X192147976Y-73310952D01*
X192195595Y-73358571D01*
X192290833Y-73406190D01*
X192671785Y-73406190D01*
X191719404Y-72977619D02*
X191671785Y-72930000D01*
X191576547Y-72882380D01*
X191338452Y-72882380D01*
X191243214Y-72930000D01*
X191195595Y-72977619D01*
X191147976Y-73072857D01*
X191147976Y-73168095D01*
X191195595Y-73310952D01*
X191767023Y-73882380D01*
X191147976Y-73882380D01*
X190671785Y-73882380D02*
X190481309Y-73882380D01*
X190386071Y-73834761D01*
X190338452Y-73787142D01*
X190243214Y-73644285D01*
X190195595Y-73453809D01*
X190195595Y-73072857D01*
X190243214Y-72977619D01*
X190290833Y-72930000D01*
X190386071Y-72882380D01*
X190576547Y-72882380D01*
X190671785Y-72930000D01*
X190719404Y-72977619D01*
X190767023Y-73072857D01*
X190767023Y-73310952D01*
X190719404Y-73406190D01*
X190671785Y-73453809D01*
X190576547Y-73501428D01*
X190386071Y-73501428D01*
X190290833Y-73453809D01*
X190243214Y-73406190D01*
X190195595Y-73310952D01*
G04 #@! TO.C,R30*
X209752857Y-61032380D02*
X210086190Y-60556190D01*
X210324285Y-61032380D02*
X210324285Y-60032380D01*
X209943333Y-60032380D01*
X209848095Y-60080000D01*
X209800476Y-60127619D01*
X209752857Y-60222857D01*
X209752857Y-60365714D01*
X209800476Y-60460952D01*
X209848095Y-60508571D01*
X209943333Y-60556190D01*
X210324285Y-60556190D01*
X209419523Y-60032380D02*
X208800476Y-60032380D01*
X209133809Y-60413333D01*
X208990952Y-60413333D01*
X208895714Y-60460952D01*
X208848095Y-60508571D01*
X208800476Y-60603809D01*
X208800476Y-60841904D01*
X208848095Y-60937142D01*
X208895714Y-60984761D01*
X208990952Y-61032380D01*
X209276666Y-61032380D01*
X209371904Y-60984761D01*
X209419523Y-60937142D01*
X208181428Y-60032380D02*
X208086190Y-60032380D01*
X207990952Y-60080000D01*
X207943333Y-60127619D01*
X207895714Y-60222857D01*
X207848095Y-60413333D01*
X207848095Y-60651428D01*
X207895714Y-60841904D01*
X207943333Y-60937142D01*
X207990952Y-60984761D01*
X208086190Y-61032380D01*
X208181428Y-61032380D01*
X208276666Y-60984761D01*
X208324285Y-60937142D01*
X208371904Y-60841904D01*
X208419523Y-60651428D01*
X208419523Y-60413333D01*
X208371904Y-60222857D01*
X208324285Y-60127619D01*
X208276666Y-60080000D01*
X208181428Y-60032380D01*
G04 #@! TO.C,R31*
X245625357Y-50382380D02*
X245958690Y-49906190D01*
X246196785Y-50382380D02*
X246196785Y-49382380D01*
X245815833Y-49382380D01*
X245720595Y-49430000D01*
X245672976Y-49477619D01*
X245625357Y-49572857D01*
X245625357Y-49715714D01*
X245672976Y-49810952D01*
X245720595Y-49858571D01*
X245815833Y-49906190D01*
X246196785Y-49906190D01*
X245292023Y-49382380D02*
X244672976Y-49382380D01*
X245006309Y-49763333D01*
X244863452Y-49763333D01*
X244768214Y-49810952D01*
X244720595Y-49858571D01*
X244672976Y-49953809D01*
X244672976Y-50191904D01*
X244720595Y-50287142D01*
X244768214Y-50334761D01*
X244863452Y-50382380D01*
X245149166Y-50382380D01*
X245244404Y-50334761D01*
X245292023Y-50287142D01*
X243720595Y-50382380D02*
X244292023Y-50382380D01*
X244006309Y-50382380D02*
X244006309Y-49382380D01*
X244101547Y-49525238D01*
X244196785Y-49620476D01*
X244292023Y-49668095D01*
G04 #@! TO.C,R32*
X210312857Y-82682380D02*
X210646190Y-82206190D01*
X210884285Y-82682380D02*
X210884285Y-81682380D01*
X210503333Y-81682380D01*
X210408095Y-81730000D01*
X210360476Y-81777619D01*
X210312857Y-81872857D01*
X210312857Y-82015714D01*
X210360476Y-82110952D01*
X210408095Y-82158571D01*
X210503333Y-82206190D01*
X210884285Y-82206190D01*
X209979523Y-81682380D02*
X209360476Y-81682380D01*
X209693809Y-82063333D01*
X209550952Y-82063333D01*
X209455714Y-82110952D01*
X209408095Y-82158571D01*
X209360476Y-82253809D01*
X209360476Y-82491904D01*
X209408095Y-82587142D01*
X209455714Y-82634761D01*
X209550952Y-82682380D01*
X209836666Y-82682380D01*
X209931904Y-82634761D01*
X209979523Y-82587142D01*
X208979523Y-81777619D02*
X208931904Y-81730000D01*
X208836666Y-81682380D01*
X208598571Y-81682380D01*
X208503333Y-81730000D01*
X208455714Y-81777619D01*
X208408095Y-81872857D01*
X208408095Y-81968095D01*
X208455714Y-82110952D01*
X209027142Y-82682380D01*
X208408095Y-82682380D01*
G04 #@! TO.C,R33*
X234952857Y-99552380D02*
X235286190Y-99076190D01*
X235524285Y-99552380D02*
X235524285Y-98552380D01*
X235143333Y-98552380D01*
X235048095Y-98600000D01*
X235000476Y-98647619D01*
X234952857Y-98742857D01*
X234952857Y-98885714D01*
X235000476Y-98980952D01*
X235048095Y-99028571D01*
X235143333Y-99076190D01*
X235524285Y-99076190D01*
X234619523Y-98552380D02*
X234000476Y-98552380D01*
X234333809Y-98933333D01*
X234190952Y-98933333D01*
X234095714Y-98980952D01*
X234048095Y-99028571D01*
X234000476Y-99123809D01*
X234000476Y-99361904D01*
X234048095Y-99457142D01*
X234095714Y-99504761D01*
X234190952Y-99552380D01*
X234476666Y-99552380D01*
X234571904Y-99504761D01*
X234619523Y-99457142D01*
X233667142Y-98552380D02*
X233048095Y-98552380D01*
X233381428Y-98933333D01*
X233238571Y-98933333D01*
X233143333Y-98980952D01*
X233095714Y-99028571D01*
X233048095Y-99123809D01*
X233048095Y-99361904D01*
X233095714Y-99457142D01*
X233143333Y-99504761D01*
X233238571Y-99552380D01*
X233524285Y-99552380D01*
X233619523Y-99504761D01*
X233667142Y-99457142D01*
G04 #@! TO.C,R34*
X203352857Y-61612380D02*
X203686190Y-61136190D01*
X203924285Y-61612380D02*
X203924285Y-60612380D01*
X203543333Y-60612380D01*
X203448095Y-60660000D01*
X203400476Y-60707619D01*
X203352857Y-60802857D01*
X203352857Y-60945714D01*
X203400476Y-61040952D01*
X203448095Y-61088571D01*
X203543333Y-61136190D01*
X203924285Y-61136190D01*
X203019523Y-60612380D02*
X202400476Y-60612380D01*
X202733809Y-60993333D01*
X202590952Y-60993333D01*
X202495714Y-61040952D01*
X202448095Y-61088571D01*
X202400476Y-61183809D01*
X202400476Y-61421904D01*
X202448095Y-61517142D01*
X202495714Y-61564761D01*
X202590952Y-61612380D01*
X202876666Y-61612380D01*
X202971904Y-61564761D01*
X203019523Y-61517142D01*
X201543333Y-60945714D02*
X201543333Y-61612380D01*
X201781428Y-60564761D02*
X202019523Y-61279047D01*
X201400476Y-61279047D01*
G04 #@! TO.C,R35*
X161125357Y-50882380D02*
X161458690Y-50406190D01*
X161696785Y-50882380D02*
X161696785Y-49882380D01*
X161315833Y-49882380D01*
X161220595Y-49930000D01*
X161172976Y-49977619D01*
X161125357Y-50072857D01*
X161125357Y-50215714D01*
X161172976Y-50310952D01*
X161220595Y-50358571D01*
X161315833Y-50406190D01*
X161696785Y-50406190D01*
X160792023Y-49882380D02*
X160172976Y-49882380D01*
X160506309Y-50263333D01*
X160363452Y-50263333D01*
X160268214Y-50310952D01*
X160220595Y-50358571D01*
X160172976Y-50453809D01*
X160172976Y-50691904D01*
X160220595Y-50787142D01*
X160268214Y-50834761D01*
X160363452Y-50882380D01*
X160649166Y-50882380D01*
X160744404Y-50834761D01*
X160792023Y-50787142D01*
X159268214Y-49882380D02*
X159744404Y-49882380D01*
X159792023Y-50358571D01*
X159744404Y-50310952D01*
X159649166Y-50263333D01*
X159411071Y-50263333D01*
X159315833Y-50310952D01*
X159268214Y-50358571D01*
X159220595Y-50453809D01*
X159220595Y-50691904D01*
X159268214Y-50787142D01*
X159315833Y-50834761D01*
X159411071Y-50882380D01*
X159649166Y-50882380D01*
X159744404Y-50834761D01*
X159792023Y-50787142D01*
G04 #@! TO.C,R36*
X209912857Y-58042380D02*
X210246190Y-57566190D01*
X210484285Y-58042380D02*
X210484285Y-57042380D01*
X210103333Y-57042380D01*
X210008095Y-57090000D01*
X209960476Y-57137619D01*
X209912857Y-57232857D01*
X209912857Y-57375714D01*
X209960476Y-57470952D01*
X210008095Y-57518571D01*
X210103333Y-57566190D01*
X210484285Y-57566190D01*
X209579523Y-57042380D02*
X208960476Y-57042380D01*
X209293809Y-57423333D01*
X209150952Y-57423333D01*
X209055714Y-57470952D01*
X209008095Y-57518571D01*
X208960476Y-57613809D01*
X208960476Y-57851904D01*
X209008095Y-57947142D01*
X209055714Y-57994761D01*
X209150952Y-58042380D01*
X209436666Y-58042380D01*
X209531904Y-57994761D01*
X209579523Y-57947142D01*
X208103333Y-57042380D02*
X208293809Y-57042380D01*
X208389047Y-57090000D01*
X208436666Y-57137619D01*
X208531904Y-57280476D01*
X208579523Y-57470952D01*
X208579523Y-57851904D01*
X208531904Y-57947142D01*
X208484285Y-57994761D01*
X208389047Y-58042380D01*
X208198571Y-58042380D01*
X208103333Y-57994761D01*
X208055714Y-57947142D01*
X208008095Y-57851904D01*
X208008095Y-57613809D01*
X208055714Y-57518571D01*
X208103333Y-57470952D01*
X208198571Y-57423333D01*
X208389047Y-57423333D01*
X208484285Y-57470952D01*
X208531904Y-57518571D01*
X208579523Y-57613809D01*
G04 #@! TO.C,R37*
X201892857Y-64542380D02*
X202226190Y-64066190D01*
X202464285Y-64542380D02*
X202464285Y-63542380D01*
X202083333Y-63542380D01*
X201988095Y-63590000D01*
X201940476Y-63637619D01*
X201892857Y-63732857D01*
X201892857Y-63875714D01*
X201940476Y-63970952D01*
X201988095Y-64018571D01*
X202083333Y-64066190D01*
X202464285Y-64066190D01*
X201559523Y-63542380D02*
X200940476Y-63542380D01*
X201273809Y-63923333D01*
X201130952Y-63923333D01*
X201035714Y-63970952D01*
X200988095Y-64018571D01*
X200940476Y-64113809D01*
X200940476Y-64351904D01*
X200988095Y-64447142D01*
X201035714Y-64494761D01*
X201130952Y-64542380D01*
X201416666Y-64542380D01*
X201511904Y-64494761D01*
X201559523Y-64447142D01*
X200607142Y-63542380D02*
X199940476Y-63542380D01*
X200369047Y-64542380D01*
G04 #@! TO.C,R38*
X206452857Y-71622380D02*
X206786190Y-71146190D01*
X207024285Y-71622380D02*
X207024285Y-70622380D01*
X206643333Y-70622380D01*
X206548095Y-70670000D01*
X206500476Y-70717619D01*
X206452857Y-70812857D01*
X206452857Y-70955714D01*
X206500476Y-71050952D01*
X206548095Y-71098571D01*
X206643333Y-71146190D01*
X207024285Y-71146190D01*
X206119523Y-70622380D02*
X205500476Y-70622380D01*
X205833809Y-71003333D01*
X205690952Y-71003333D01*
X205595714Y-71050952D01*
X205548095Y-71098571D01*
X205500476Y-71193809D01*
X205500476Y-71431904D01*
X205548095Y-71527142D01*
X205595714Y-71574761D01*
X205690952Y-71622380D01*
X205976666Y-71622380D01*
X206071904Y-71574761D01*
X206119523Y-71527142D01*
X204929047Y-71050952D02*
X205024285Y-71003333D01*
X205071904Y-70955714D01*
X205119523Y-70860476D01*
X205119523Y-70812857D01*
X205071904Y-70717619D01*
X205024285Y-70670000D01*
X204929047Y-70622380D01*
X204738571Y-70622380D01*
X204643333Y-70670000D01*
X204595714Y-70717619D01*
X204548095Y-70812857D01*
X204548095Y-70860476D01*
X204595714Y-70955714D01*
X204643333Y-71003333D01*
X204738571Y-71050952D01*
X204929047Y-71050952D01*
X205024285Y-71098571D01*
X205071904Y-71146190D01*
X205119523Y-71241428D01*
X205119523Y-71431904D01*
X205071904Y-71527142D01*
X205024285Y-71574761D01*
X204929047Y-71622380D01*
X204738571Y-71622380D01*
X204643333Y-71574761D01*
X204595714Y-71527142D01*
X204548095Y-71431904D01*
X204548095Y-71241428D01*
X204595714Y-71146190D01*
X204643333Y-71098571D01*
X204738571Y-71050952D01*
G04 #@! TO.C,R39*
X245677857Y-126020380D02*
X246011190Y-125544190D01*
X246249285Y-126020380D02*
X246249285Y-125020380D01*
X245868333Y-125020380D01*
X245773095Y-125068000D01*
X245725476Y-125115619D01*
X245677857Y-125210857D01*
X245677857Y-125353714D01*
X245725476Y-125448952D01*
X245773095Y-125496571D01*
X245868333Y-125544190D01*
X246249285Y-125544190D01*
X245344523Y-125020380D02*
X244725476Y-125020380D01*
X245058809Y-125401333D01*
X244915952Y-125401333D01*
X244820714Y-125448952D01*
X244773095Y-125496571D01*
X244725476Y-125591809D01*
X244725476Y-125829904D01*
X244773095Y-125925142D01*
X244820714Y-125972761D01*
X244915952Y-126020380D01*
X245201666Y-126020380D01*
X245296904Y-125972761D01*
X245344523Y-125925142D01*
X244249285Y-126020380D02*
X244058809Y-126020380D01*
X243963571Y-125972761D01*
X243915952Y-125925142D01*
X243820714Y-125782285D01*
X243773095Y-125591809D01*
X243773095Y-125210857D01*
X243820714Y-125115619D01*
X243868333Y-125068000D01*
X243963571Y-125020380D01*
X244154047Y-125020380D01*
X244249285Y-125068000D01*
X244296904Y-125115619D01*
X244344523Y-125210857D01*
X244344523Y-125448952D01*
X244296904Y-125544190D01*
X244249285Y-125591809D01*
X244154047Y-125639428D01*
X243963571Y-125639428D01*
X243868333Y-125591809D01*
X243820714Y-125544190D01*
X243773095Y-125448952D01*
G04 #@! TO.C,R40*
X221293857Y-127229380D02*
X221627190Y-126753190D01*
X221865285Y-127229380D02*
X221865285Y-126229380D01*
X221484333Y-126229380D01*
X221389095Y-126277000D01*
X221341476Y-126324619D01*
X221293857Y-126419857D01*
X221293857Y-126562714D01*
X221341476Y-126657952D01*
X221389095Y-126705571D01*
X221484333Y-126753190D01*
X221865285Y-126753190D01*
X220436714Y-126562714D02*
X220436714Y-127229380D01*
X220674809Y-126181761D02*
X220912904Y-126896047D01*
X220293857Y-126896047D01*
X219722428Y-126229380D02*
X219627190Y-126229380D01*
X219531952Y-126277000D01*
X219484333Y-126324619D01*
X219436714Y-126419857D01*
X219389095Y-126610333D01*
X219389095Y-126848428D01*
X219436714Y-127038904D01*
X219484333Y-127134142D01*
X219531952Y-127181761D01*
X219627190Y-127229380D01*
X219722428Y-127229380D01*
X219817666Y-127181761D01*
X219865285Y-127134142D01*
X219912904Y-127038904D01*
X219960523Y-126848428D01*
X219960523Y-126610333D01*
X219912904Y-126419857D01*
X219865285Y-126324619D01*
X219817666Y-126277000D01*
X219722428Y-126229380D01*
G04 #@! TO.C,R41*
X201862857Y-99924380D02*
X202196190Y-99448190D01*
X202434285Y-99924380D02*
X202434285Y-98924380D01*
X202053333Y-98924380D01*
X201958095Y-98972000D01*
X201910476Y-99019619D01*
X201862857Y-99114857D01*
X201862857Y-99257714D01*
X201910476Y-99352952D01*
X201958095Y-99400571D01*
X202053333Y-99448190D01*
X202434285Y-99448190D01*
X201005714Y-99257714D02*
X201005714Y-99924380D01*
X201243809Y-98876761D02*
X201481904Y-99591047D01*
X200862857Y-99591047D01*
X199958095Y-99924380D02*
X200529523Y-99924380D01*
X200243809Y-99924380D02*
X200243809Y-98924380D01*
X200339047Y-99067238D01*
X200434285Y-99162476D01*
X200529523Y-99210095D01*
G04 #@! TO.C,R42*
X207196857Y-107163380D02*
X207530190Y-106687190D01*
X207768285Y-107163380D02*
X207768285Y-106163380D01*
X207387333Y-106163380D01*
X207292095Y-106211000D01*
X207244476Y-106258619D01*
X207196857Y-106353857D01*
X207196857Y-106496714D01*
X207244476Y-106591952D01*
X207292095Y-106639571D01*
X207387333Y-106687190D01*
X207768285Y-106687190D01*
X206339714Y-106496714D02*
X206339714Y-107163380D01*
X206577809Y-106115761D02*
X206815904Y-106830047D01*
X206196857Y-106830047D01*
X205863523Y-106258619D02*
X205815904Y-106211000D01*
X205720666Y-106163380D01*
X205482571Y-106163380D01*
X205387333Y-106211000D01*
X205339714Y-106258619D01*
X205292095Y-106353857D01*
X205292095Y-106449095D01*
X205339714Y-106591952D01*
X205911142Y-107163380D01*
X205292095Y-107163380D01*
G04 #@! TO.C,R43*
X197222857Y-101292380D02*
X197556190Y-100816190D01*
X197794285Y-101292380D02*
X197794285Y-100292380D01*
X197413333Y-100292380D01*
X197318095Y-100340000D01*
X197270476Y-100387619D01*
X197222857Y-100482857D01*
X197222857Y-100625714D01*
X197270476Y-100720952D01*
X197318095Y-100768571D01*
X197413333Y-100816190D01*
X197794285Y-100816190D01*
X196365714Y-100625714D02*
X196365714Y-101292380D01*
X196603809Y-100244761D02*
X196841904Y-100959047D01*
X196222857Y-100959047D01*
X195937142Y-100292380D02*
X195318095Y-100292380D01*
X195651428Y-100673333D01*
X195508571Y-100673333D01*
X195413333Y-100720952D01*
X195365714Y-100768571D01*
X195318095Y-100863809D01*
X195318095Y-101101904D01*
X195365714Y-101197142D01*
X195413333Y-101244761D01*
X195508571Y-101292380D01*
X195794285Y-101292380D01*
X195889523Y-101244761D01*
X195937142Y-101197142D01*
G04 #@! TO.C,J18*
X159079523Y-82182380D02*
X159079523Y-82896666D01*
X159127142Y-83039523D01*
X159222380Y-83134761D01*
X159365238Y-83182380D01*
X159460476Y-83182380D01*
X158079523Y-83182380D02*
X158650952Y-83182380D01*
X158365238Y-83182380D02*
X158365238Y-82182380D01*
X158460476Y-82325238D01*
X158555714Y-82420476D01*
X158650952Y-82468095D01*
X157508095Y-82610952D02*
X157603333Y-82563333D01*
X157650952Y-82515714D01*
X157698571Y-82420476D01*
X157698571Y-82372857D01*
X157650952Y-82277619D01*
X157603333Y-82230000D01*
X157508095Y-82182380D01*
X157317619Y-82182380D01*
X157222380Y-82230000D01*
X157174761Y-82277619D01*
X157127142Y-82372857D01*
X157127142Y-82420476D01*
X157174761Y-82515714D01*
X157222380Y-82563333D01*
X157317619Y-82610952D01*
X157508095Y-82610952D01*
X157603333Y-82658571D01*
X157650952Y-82706190D01*
X157698571Y-82801428D01*
X157698571Y-82991904D01*
X157650952Y-83087142D01*
X157603333Y-83134761D01*
X157508095Y-83182380D01*
X157317619Y-83182380D01*
X157222380Y-83134761D01*
X157174761Y-83087142D01*
X157127142Y-82991904D01*
X157127142Y-82801428D01*
X157174761Y-82706190D01*
X157222380Y-82658571D01*
X157317619Y-82610952D01*
G04 #@! TO.C,J20*
X198862380Y-50720476D02*
X199576666Y-50720476D01*
X199719523Y-50672857D01*
X199814761Y-50577619D01*
X199862380Y-50434761D01*
X199862380Y-50339523D01*
X198957619Y-51149047D02*
X198910000Y-51196666D01*
X198862380Y-51291904D01*
X198862380Y-51530000D01*
X198910000Y-51625238D01*
X198957619Y-51672857D01*
X199052857Y-51720476D01*
X199148095Y-51720476D01*
X199290952Y-51672857D01*
X199862380Y-51101428D01*
X199862380Y-51720476D01*
X198862380Y-52339523D02*
X198862380Y-52434761D01*
X198910000Y-52530000D01*
X198957619Y-52577619D01*
X199052857Y-52625238D01*
X199243333Y-52672857D01*
X199481428Y-52672857D01*
X199671904Y-52625238D01*
X199767142Y-52577619D01*
X199814761Y-52530000D01*
X199862380Y-52434761D01*
X199862380Y-52339523D01*
X199814761Y-52244285D01*
X199767142Y-52196666D01*
X199671904Y-52149047D01*
X199481428Y-52101428D01*
X199243333Y-52101428D01*
X199052857Y-52149047D01*
X198957619Y-52196666D01*
X198910000Y-52244285D01*
X198862380Y-52339523D01*
G04 #@! TO.C,J28*
X253249523Y-66482380D02*
X253249523Y-67196666D01*
X253297142Y-67339523D01*
X253392380Y-67434761D01*
X253535238Y-67482380D01*
X253630476Y-67482380D01*
X252820952Y-66577619D02*
X252773333Y-66530000D01*
X252678095Y-66482380D01*
X252440000Y-66482380D01*
X252344761Y-66530000D01*
X252297142Y-66577619D01*
X252249523Y-66672857D01*
X252249523Y-66768095D01*
X252297142Y-66910952D01*
X252868571Y-67482380D01*
X252249523Y-67482380D01*
X251678095Y-66910952D02*
X251773333Y-66863333D01*
X251820952Y-66815714D01*
X251868571Y-66720476D01*
X251868571Y-66672857D01*
X251820952Y-66577619D01*
X251773333Y-66530000D01*
X251678095Y-66482380D01*
X251487619Y-66482380D01*
X251392380Y-66530000D01*
X251344761Y-66577619D01*
X251297142Y-66672857D01*
X251297142Y-66720476D01*
X251344761Y-66815714D01*
X251392380Y-66863333D01*
X251487619Y-66910952D01*
X251678095Y-66910952D01*
X251773333Y-66958571D01*
X251820952Y-67006190D01*
X251868571Y-67101428D01*
X251868571Y-67291904D01*
X251820952Y-67387142D01*
X251773333Y-67434761D01*
X251678095Y-67482380D01*
X251487619Y-67482380D01*
X251392380Y-67434761D01*
X251344761Y-67387142D01*
X251297142Y-67291904D01*
X251297142Y-67101428D01*
X251344761Y-67006190D01*
X251392380Y-66958571D01*
X251487619Y-66910952D01*
G04 #@! TO.C,J23*
X253199523Y-104482380D02*
X253199523Y-105196666D01*
X253247142Y-105339523D01*
X253342380Y-105434761D01*
X253485238Y-105482380D01*
X253580476Y-105482380D01*
X252770952Y-104577619D02*
X252723333Y-104530000D01*
X252628095Y-104482380D01*
X252390000Y-104482380D01*
X252294761Y-104530000D01*
X252247142Y-104577619D01*
X252199523Y-104672857D01*
X252199523Y-104768095D01*
X252247142Y-104910952D01*
X252818571Y-105482380D01*
X252199523Y-105482380D01*
X251866190Y-104482380D02*
X251247142Y-104482380D01*
X251580476Y-104863333D01*
X251437619Y-104863333D01*
X251342380Y-104910952D01*
X251294761Y-104958571D01*
X251247142Y-105053809D01*
X251247142Y-105291904D01*
X251294761Y-105387142D01*
X251342380Y-105434761D01*
X251437619Y-105482380D01*
X251723333Y-105482380D01*
X251818571Y-105434761D01*
X251866190Y-105387142D01*
G04 #@! TO.C,R52*
X213082857Y-73782380D02*
X213416190Y-73306190D01*
X213654285Y-73782380D02*
X213654285Y-72782380D01*
X213273333Y-72782380D01*
X213178095Y-72830000D01*
X213130476Y-72877619D01*
X213082857Y-72972857D01*
X213082857Y-73115714D01*
X213130476Y-73210952D01*
X213178095Y-73258571D01*
X213273333Y-73306190D01*
X213654285Y-73306190D01*
X212178095Y-72782380D02*
X212654285Y-72782380D01*
X212701904Y-73258571D01*
X212654285Y-73210952D01*
X212559047Y-73163333D01*
X212320952Y-73163333D01*
X212225714Y-73210952D01*
X212178095Y-73258571D01*
X212130476Y-73353809D01*
X212130476Y-73591904D01*
X212178095Y-73687142D01*
X212225714Y-73734761D01*
X212320952Y-73782380D01*
X212559047Y-73782380D01*
X212654285Y-73734761D01*
X212701904Y-73687142D01*
X211749523Y-72877619D02*
X211701904Y-72830000D01*
X211606666Y-72782380D01*
X211368571Y-72782380D01*
X211273333Y-72830000D01*
X211225714Y-72877619D01*
X211178095Y-72972857D01*
X211178095Y-73068095D01*
X211225714Y-73210952D01*
X211797142Y-73782380D01*
X211178095Y-73782380D01*
G04 #@! TO.C,C29*
X201452857Y-68687142D02*
X201500476Y-68734761D01*
X201643333Y-68782380D01*
X201738571Y-68782380D01*
X201881428Y-68734761D01*
X201976666Y-68639523D01*
X202024285Y-68544285D01*
X202071904Y-68353809D01*
X202071904Y-68210952D01*
X202024285Y-68020476D01*
X201976666Y-67925238D01*
X201881428Y-67830000D01*
X201738571Y-67782380D01*
X201643333Y-67782380D01*
X201500476Y-67830000D01*
X201452857Y-67877619D01*
X201071904Y-67877619D02*
X201024285Y-67830000D01*
X200929047Y-67782380D01*
X200690952Y-67782380D01*
X200595714Y-67830000D01*
X200548095Y-67877619D01*
X200500476Y-67972857D01*
X200500476Y-68068095D01*
X200548095Y-68210952D01*
X201119523Y-68782380D01*
X200500476Y-68782380D01*
X200024285Y-68782380D02*
X199833809Y-68782380D01*
X199738571Y-68734761D01*
X199690952Y-68687142D01*
X199595714Y-68544285D01*
X199548095Y-68353809D01*
X199548095Y-67972857D01*
X199595714Y-67877619D01*
X199643333Y-67830000D01*
X199738571Y-67782380D01*
X199929047Y-67782380D01*
X200024285Y-67830000D01*
X200071904Y-67877619D01*
X200119523Y-67972857D01*
X200119523Y-68210952D01*
X200071904Y-68306190D01*
X200024285Y-68353809D01*
X199929047Y-68401428D01*
X199738571Y-68401428D01*
X199643333Y-68353809D01*
X199595714Y-68306190D01*
X199548095Y-68210952D01*
G04 #@! TO.C,C30*
X206352857Y-73247142D02*
X206400476Y-73294761D01*
X206543333Y-73342380D01*
X206638571Y-73342380D01*
X206781428Y-73294761D01*
X206876666Y-73199523D01*
X206924285Y-73104285D01*
X206971904Y-72913809D01*
X206971904Y-72770952D01*
X206924285Y-72580476D01*
X206876666Y-72485238D01*
X206781428Y-72390000D01*
X206638571Y-72342380D01*
X206543333Y-72342380D01*
X206400476Y-72390000D01*
X206352857Y-72437619D01*
X206019523Y-72342380D02*
X205400476Y-72342380D01*
X205733809Y-72723333D01*
X205590952Y-72723333D01*
X205495714Y-72770952D01*
X205448095Y-72818571D01*
X205400476Y-72913809D01*
X205400476Y-73151904D01*
X205448095Y-73247142D01*
X205495714Y-73294761D01*
X205590952Y-73342380D01*
X205876666Y-73342380D01*
X205971904Y-73294761D01*
X206019523Y-73247142D01*
X204781428Y-72342380D02*
X204686190Y-72342380D01*
X204590952Y-72390000D01*
X204543333Y-72437619D01*
X204495714Y-72532857D01*
X204448095Y-72723333D01*
X204448095Y-72961428D01*
X204495714Y-73151904D01*
X204543333Y-73247142D01*
X204590952Y-73294761D01*
X204686190Y-73342380D01*
X204781428Y-73342380D01*
X204876666Y-73294761D01*
X204924285Y-73247142D01*
X204971904Y-73151904D01*
X205019523Y-72961428D01*
X205019523Y-72723333D01*
X204971904Y-72532857D01*
X204924285Y-72437619D01*
X204876666Y-72390000D01*
X204781428Y-72342380D01*
G04 #@! TO.C,C32*
X207197142Y-94644642D02*
X207244761Y-94597023D01*
X207292380Y-94454166D01*
X207292380Y-94358928D01*
X207244761Y-94216071D01*
X207149523Y-94120833D01*
X207054285Y-94073214D01*
X206863809Y-94025595D01*
X206720952Y-94025595D01*
X206530476Y-94073214D01*
X206435238Y-94120833D01*
X206340000Y-94216071D01*
X206292380Y-94358928D01*
X206292380Y-94454166D01*
X206340000Y-94597023D01*
X206387619Y-94644642D01*
X206292380Y-94977976D02*
X206292380Y-95597023D01*
X206673333Y-95263690D01*
X206673333Y-95406547D01*
X206720952Y-95501785D01*
X206768571Y-95549404D01*
X206863809Y-95597023D01*
X207101904Y-95597023D01*
X207197142Y-95549404D01*
X207244761Y-95501785D01*
X207292380Y-95406547D01*
X207292380Y-95120833D01*
X207244761Y-95025595D01*
X207197142Y-94977976D01*
X206387619Y-95977976D02*
X206340000Y-96025595D01*
X206292380Y-96120833D01*
X206292380Y-96358928D01*
X206340000Y-96454166D01*
X206387619Y-96501785D01*
X206482857Y-96549404D01*
X206578095Y-96549404D01*
X206720952Y-96501785D01*
X207292380Y-95930357D01*
X207292380Y-96549404D01*
G04 #@! TO.C,C33*
X213228142Y-99024642D02*
X213275761Y-98977023D01*
X213323380Y-98834166D01*
X213323380Y-98738928D01*
X213275761Y-98596071D01*
X213180523Y-98500833D01*
X213085285Y-98453214D01*
X212894809Y-98405595D01*
X212751952Y-98405595D01*
X212561476Y-98453214D01*
X212466238Y-98500833D01*
X212371000Y-98596071D01*
X212323380Y-98738928D01*
X212323380Y-98834166D01*
X212371000Y-98977023D01*
X212418619Y-99024642D01*
X212323380Y-99357976D02*
X212323380Y-99977023D01*
X212704333Y-99643690D01*
X212704333Y-99786547D01*
X212751952Y-99881785D01*
X212799571Y-99929404D01*
X212894809Y-99977023D01*
X213132904Y-99977023D01*
X213228142Y-99929404D01*
X213275761Y-99881785D01*
X213323380Y-99786547D01*
X213323380Y-99500833D01*
X213275761Y-99405595D01*
X213228142Y-99357976D01*
X212323380Y-100310357D02*
X212323380Y-100929404D01*
X212704333Y-100596071D01*
X212704333Y-100738928D01*
X212751952Y-100834166D01*
X212799571Y-100881785D01*
X212894809Y-100929404D01*
X213132904Y-100929404D01*
X213228142Y-100881785D01*
X213275761Y-100834166D01*
X213323380Y-100738928D01*
X213323380Y-100453214D01*
X213275761Y-100357976D01*
X213228142Y-100310357D01*
G04 #@! TO.C,C34*
X213082857Y-71917142D02*
X213130476Y-71964761D01*
X213273333Y-72012380D01*
X213368571Y-72012380D01*
X213511428Y-71964761D01*
X213606666Y-71869523D01*
X213654285Y-71774285D01*
X213701904Y-71583809D01*
X213701904Y-71440952D01*
X213654285Y-71250476D01*
X213606666Y-71155238D01*
X213511428Y-71060000D01*
X213368571Y-71012380D01*
X213273333Y-71012380D01*
X213130476Y-71060000D01*
X213082857Y-71107619D01*
X212749523Y-71012380D02*
X212130476Y-71012380D01*
X212463809Y-71393333D01*
X212320952Y-71393333D01*
X212225714Y-71440952D01*
X212178095Y-71488571D01*
X212130476Y-71583809D01*
X212130476Y-71821904D01*
X212178095Y-71917142D01*
X212225714Y-71964761D01*
X212320952Y-72012380D01*
X212606666Y-72012380D01*
X212701904Y-71964761D01*
X212749523Y-71917142D01*
X211273333Y-71345714D02*
X211273333Y-72012380D01*
X211511428Y-70964761D02*
X211749523Y-71679047D01*
X211130476Y-71679047D01*
G04 #@! TO.C,D24*
X221407085Y-137240560D02*
X221407085Y-136240560D01*
X221168990Y-136240560D01*
X221026133Y-136288180D01*
X220930895Y-136383418D01*
X220883276Y-136478656D01*
X220835657Y-136669132D01*
X220835657Y-136811989D01*
X220883276Y-137002465D01*
X220930895Y-137097703D01*
X221026133Y-137192941D01*
X221168990Y-137240560D01*
X221407085Y-137240560D01*
X220454704Y-136335799D02*
X220407085Y-136288180D01*
X220311847Y-136240560D01*
X220073752Y-136240560D01*
X219978514Y-136288180D01*
X219930895Y-136335799D01*
X219883276Y-136431037D01*
X219883276Y-136526275D01*
X219930895Y-136669132D01*
X220502323Y-137240560D01*
X219883276Y-137240560D01*
X219026133Y-136573894D02*
X219026133Y-137240560D01*
X219264228Y-136192941D02*
X219502323Y-136907227D01*
X218883276Y-136907227D01*
G04 #@! TO.C,U2*
X194051904Y-67632380D02*
X194051904Y-68441904D01*
X194004285Y-68537142D01*
X193956666Y-68584761D01*
X193861428Y-68632380D01*
X193670952Y-68632380D01*
X193575714Y-68584761D01*
X193528095Y-68537142D01*
X193480476Y-68441904D01*
X193480476Y-67632380D01*
X193051904Y-67727619D02*
X193004285Y-67680000D01*
X192909047Y-67632380D01*
X192670952Y-67632380D01*
X192575714Y-67680000D01*
X192528095Y-67727619D01*
X192480476Y-67822857D01*
X192480476Y-67918095D01*
X192528095Y-68060952D01*
X193099523Y-68632380D01*
X192480476Y-68632380D01*
G04 #@! TO.C,U4*
X208966904Y-103330380D02*
X208966904Y-104139904D01*
X208919285Y-104235142D01*
X208871666Y-104282761D01*
X208776428Y-104330380D01*
X208585952Y-104330380D01*
X208490714Y-104282761D01*
X208443095Y-104235142D01*
X208395476Y-104139904D01*
X208395476Y-103330380D01*
X207490714Y-103663714D02*
X207490714Y-104330380D01*
X207728809Y-103282761D02*
X207966904Y-103997047D01*
X207347857Y-103997047D01*
G04 #@! TO.C,C70*
X157807142Y-70357142D02*
X157854761Y-70309523D01*
X157902380Y-70166666D01*
X157902380Y-70071428D01*
X157854761Y-69928571D01*
X157759523Y-69833333D01*
X157664285Y-69785714D01*
X157473809Y-69738095D01*
X157330952Y-69738095D01*
X157140476Y-69785714D01*
X157045238Y-69833333D01*
X156950000Y-69928571D01*
X156902380Y-70071428D01*
X156902380Y-70166666D01*
X156950000Y-70309523D01*
X156997619Y-70357142D01*
X156902380Y-70690476D02*
X156902380Y-71357142D01*
X157902380Y-70928571D01*
X156902380Y-71928571D02*
X156902380Y-72023809D01*
X156950000Y-72119047D01*
X156997619Y-72166666D01*
X157092857Y-72214285D01*
X157283333Y-72261904D01*
X157521428Y-72261904D01*
X157711904Y-72214285D01*
X157807142Y-72166666D01*
X157854761Y-72119047D01*
X157902380Y-72023809D01*
X157902380Y-71928571D01*
X157854761Y-71833333D01*
X157807142Y-71785714D01*
X157711904Y-71738095D01*
X157521428Y-71690476D01*
X157283333Y-71690476D01*
X157092857Y-71738095D01*
X156997619Y-71785714D01*
X156950000Y-71833333D01*
X156902380Y-71928571D01*
G04 #@! TO.C,C71*
X205912857Y-125427142D02*
X205960476Y-125474761D01*
X206103333Y-125522380D01*
X206198571Y-125522380D01*
X206341428Y-125474761D01*
X206436666Y-125379523D01*
X206484285Y-125284285D01*
X206531904Y-125093809D01*
X206531904Y-124950952D01*
X206484285Y-124760476D01*
X206436666Y-124665238D01*
X206341428Y-124570000D01*
X206198571Y-124522380D01*
X206103333Y-124522380D01*
X205960476Y-124570000D01*
X205912857Y-124617619D01*
X205579523Y-124522380D02*
X204912857Y-124522380D01*
X205341428Y-125522380D01*
X204008095Y-125522380D02*
X204579523Y-125522380D01*
X204293809Y-125522380D02*
X204293809Y-124522380D01*
X204389047Y-124665238D01*
X204484285Y-124760476D01*
X204579523Y-124808095D01*
G04 #@! TO.C,R56*
X236152380Y-47569642D02*
X235676190Y-47236309D01*
X236152380Y-46998214D02*
X235152380Y-46998214D01*
X235152380Y-47379166D01*
X235200000Y-47474404D01*
X235247619Y-47522023D01*
X235342857Y-47569642D01*
X235485714Y-47569642D01*
X235580952Y-47522023D01*
X235628571Y-47474404D01*
X235676190Y-47379166D01*
X235676190Y-46998214D01*
X235152380Y-48474404D02*
X235152380Y-47998214D01*
X235628571Y-47950595D01*
X235580952Y-47998214D01*
X235533333Y-48093452D01*
X235533333Y-48331547D01*
X235580952Y-48426785D01*
X235628571Y-48474404D01*
X235723809Y-48522023D01*
X235961904Y-48522023D01*
X236057142Y-48474404D01*
X236104761Y-48426785D01*
X236152380Y-48331547D01*
X236152380Y-48093452D01*
X236104761Y-47998214D01*
X236057142Y-47950595D01*
X235152380Y-49379166D02*
X235152380Y-49188690D01*
X235200000Y-49093452D01*
X235247619Y-49045833D01*
X235390476Y-48950595D01*
X235580952Y-48902976D01*
X235961904Y-48902976D01*
X236057142Y-48950595D01*
X236104761Y-48998214D01*
X236152380Y-49093452D01*
X236152380Y-49283928D01*
X236104761Y-49379166D01*
X236057142Y-49426785D01*
X235961904Y-49474404D01*
X235723809Y-49474404D01*
X235628571Y-49426785D01*
X235580952Y-49379166D01*
X235533333Y-49283928D01*
X235533333Y-49093452D01*
X235580952Y-48998214D01*
X235628571Y-48950595D01*
X235723809Y-48902976D01*
G04 #@! TD*
M02*
